<svg width="32" height="32" viewBox="0 0 32 32" fill="none" xmlns="http://www.w3.org/2000/svg">
<path d="M9.25 22.7883C9.0375 22.7883 8.85942 22.7165 8.71575 22.5728C8.57192 22.429 8.5 22.2507 8.5 22.0381C8.5 21.8256 8.57192 21.6475 8.71575 21.5038C8.85942 21.3603 9.0375 21.2886 9.25 21.2886H10.3077V13.8268C10.3077 12.482 10.7228 11.2929 11.553 10.2596C12.383 9.22622 13.4487 8.56531 14.75 8.27681V7.65381C14.75 7.30664 14.8714 7.01148 15.1143 6.76831C15.3571 6.52531 15.6519 6.40381 15.9988 6.40381C16.3458 6.40381 16.641 6.52531 16.8845 6.76831C17.1282 7.01148 17.25 7.30664 17.25 7.65381V8.27681C18.5513 8.56531 19.617 9.22622 20.447 10.2596C21.2772 11.2929 21.6923 12.482 21.6923 13.8268V21.2886H22.75C22.9625 21.2886 23.1406 21.3604 23.2843 21.5041C23.4281 21.6479 23.5 21.8261 23.5 22.0388C23.5 22.2513 23.4281 22.4294 23.2843 22.5731C23.1406 22.7166 22.9625 22.7883 22.75 22.7883H9.25ZM15.9983 25.5961C15.5008 25.5961 15.0754 25.4191 14.7223 25.0651C14.3689 24.7111 14.1923 24.2855 14.1923 23.7883H17.8077C17.8077 24.2871 17.6306 24.7131 17.2762 25.0663C16.9219 25.4195 16.4959 25.5961 15.9983 25.5961ZM11.8077 21.2886H20.1923V13.8268C20.1923 12.6691 19.783 11.6811 18.9645 10.8626C18.1458 10.0439 17.1577 9.63456 16 9.63456C14.8423 9.63456 13.8542 10.0439 13.0355 10.8626C12.217 11.6811 11.8077 12.6691 11.8077 13.8268V21.2886Z" fill="#6F7173"/>
</svg>
