<svg width="32" height="32" viewBox="0 0 32 32" fill="none" xmlns="http://www.w3.org/2000/svg">
<path d="M16 0.5C24.5604 0.5 31.5 7.43959 31.5 16C31.5 24.5604 24.5604 31.5 16 31.5C7.43959 31.5 0.5 24.5604 0.5 16C0.5 7.43959 7.43959 0.5 16 0.5Z" stroke="white"/>
<path d="M10.375 21.6569C10.1979 21.6569 10.0495 21.5971 9.92979 21.4773C9.80993 21.3575 9.75 21.2089 9.75 21.0317C9.75 20.8546 9.80993 20.7062 9.92979 20.5865C10.0495 20.4669 10.1979 20.4071 10.375 20.4071H11.2565V14.189C11.2565 13.0683 11.6024 12.0774 12.2942 11.2163C12.9858 10.3552 13.8739 9.80442 14.9583 9.56401V9.04484C14.9583 8.75553 15.0595 8.50956 15.2619 8.30692C15.4642 8.10442 15.7099 8.00317 15.999 8.00317C16.2881 8.00317 16.5342 8.10442 16.7371 8.30692C16.9401 8.50956 17.0417 8.75553 17.0417 9.04484V9.56401C18.1261 9.80442 19.0142 10.3552 19.7058 11.2163C20.3976 12.0774 20.7435 13.0683 20.7435 14.189V20.4071H21.625C21.8021 20.4071 21.9505 20.467 22.0702 20.5867C22.1901 20.7066 22.25 20.8551 22.25 21.0323C22.25 21.2094 22.1901 21.3578 22.0702 21.4775C21.9505 21.5971 21.8021 21.6569 21.625 21.6569H10.375ZM15.9985 23.9967C15.584 23.9967 15.2295 23.8492 14.9352 23.5542C14.6408 23.2592 14.4935 22.9046 14.4935 22.4903H17.5065C17.5065 22.906 17.3588 23.261 17.0635 23.5553C16.7683 23.8496 16.4133 23.9967 15.9985 23.9967ZM12.5065 20.4071H19.4935V14.189C19.4935 13.2243 19.1525 12.4009 18.4704 11.7188C17.7882 11.0366 16.9647 10.6955 16 10.6955C15.0353 10.6955 14.2118 11.0366 13.5296 11.7188C12.8475 12.4009 12.5065 13.2243 12.5065 14.189V20.4071Z" fill="white"/>
</svg>
