<svg width="27" height="13" viewBox="0 0 27 13" fill="none" xmlns="http://www.w3.org/2000/svg">
<path opacity="0.35" d="M4.06128 0.527344H20.0916C22.0093 0.527344 23.5642 2.08221 23.5642 4V8.49609C23.5642 10.4139 22.0093 11.9688 20.0916 11.9688H4.06128C2.14349 11.9688 0.588623 10.4139 0.588623 8.49609V4C0.588623 2.08222 2.14349 0.527344 4.06128 0.527344Z" stroke="#1B1A1F" stroke-width="1.05509"/>
<path opacity="0.4" d="M25.0531 4.8064V8.86328C25.8692 8.51968 26.4 7.72039 26.4 6.83484C26.4 5.94929 25.8692 5.14999 25.0531 4.8064Z" fill="black"/>
<path d="M1.98364 3.92249C1.98364 2.81792 2.87907 1.92249 3.98364 1.92249H20.1694C21.2739 1.92249 22.1694 2.81792 22.1694 3.92249V8.5739C22.1694 9.67847 21.274 10.5739 20.1694 10.5739H3.98364C2.87907 10.5739 1.98364 9.67847 1.98364 8.5739V3.92249Z" fill="black"/>
</svg>
