<svg width="18" height="13" viewBox="0 0 18 13" fill="none" xmlns="http://www.w3.org/2000/svg">
<path d="M9.61225 3.84499C9.61225 3.31409 10.0426 2.88372 10.5735 2.88372H11.5347C12.0656 2.88372 12.4959 3.31409 12.4959 3.84499V11.5351C12.4959 12.066 12.0656 12.4964 11.5347 12.4964H10.5735C10.0426 12.4964 9.61225 12.066 9.61225 11.5351V3.84499Z" fill="black"/>
<path d="M14.4184 1.92245C14.4184 1.39156 14.8487 0.961182 15.3796 0.961182H16.3408C16.8717 0.961182 17.3021 1.39156 17.3021 1.92245V11.5351C17.3021 12.066 16.8717 12.4964 16.3408 12.4964H15.3796C14.8487 12.4964 14.4184 12.066 14.4184 11.5351V1.92245Z" fill="black"/>
<path d="M4.80613 7.20942C4.80613 6.67853 5.23648 6.24816 5.76735 6.24816H6.72858C7.25945 6.24816 7.6898 6.67853 7.6898 7.20942V11.5351C7.6898 12.066 7.25945 12.4964 6.72858 12.4964H5.76735C5.23648 12.4964 4.80613 12.066 4.80613 11.5351V7.20942Z" fill="black"/>
<path d="M0 9.61259C0 9.0817 0.430355 8.65133 0.961225 8.65133H1.92245C2.45332 8.65133 2.88368 9.0817 2.88368 9.61259V11.5351C2.88368 12.066 2.45332 12.4964 1.92245 12.4964H0.961225C0.430355 12.4964 0 12.066 0 11.5351V9.61259Z" fill="black"/>
</svg>
