<svg width="17" height="13" viewBox="0 0 17 13" fill="none" xmlns="http://www.w3.org/2000/svg">
<path d="M5.86975 9.69458C7.23449 8.51628 9.23346 8.5164 10.5983 9.69458C10.6669 9.75797 10.7067 9.84814 10.7086 9.94263C10.7104 10.0369 10.674 10.1275 10.608 10.1936L8.47131 12.3958C8.40869 12.4603 8.32303 12.4963 8.23401 12.4963C8.14497 12.4963 8.0593 12.4604 7.9967 12.3958L5.85999 10.1936C5.79396 10.1274 5.75744 10.0361 5.7594 9.94165C5.76147 9.84733 5.80115 9.75782 5.86975 9.69458ZM2.98108 6.97974C5.92151 4.18798 10.4753 4.18786 13.4156 6.97974C13.482 7.04521 13.5202 7.13552 13.5211 7.22974C13.5221 7.32396 13.4856 7.41485 13.4205 7.48169L12.1852 8.7561C12.0579 8.8861 11.8519 8.8886 11.7213 8.76196C10.7557 7.86941 9.49956 7.37516 8.1969 7.37524C6.8952 7.3758 5.64035 7.87012 4.67542 8.76196C4.54492 8.88854 4.33888 8.88591 4.21155 8.7561L2.9762 7.48169C2.911 7.41495 2.87474 7.32399 2.87561 7.22974C2.8765 7.13552 2.91468 7.04519 2.98108 6.97974ZM0.0953369 4.26978C4.60532 -0.141764 11.7203 -0.142007 16.2301 4.26978C16.2954 4.33532 16.3321 4.42533 16.3326 4.5188C16.3331 4.61203 16.2973 4.70158 16.233 4.76782L14.9957 6.04224C14.8683 6.173 14.6613 6.17489 14.5319 6.04614C12.8136 4.37866 10.5336 3.44859 8.16272 3.44849C5.79158 3.44848 3.51112 4.37847 1.7926 6.04614C1.66329 6.17508 1.45609 6.17319 1.32874 6.04224L0.0914307 4.76782C0.0272074 4.70155 -0.00871109 4.61202 -0.00817871 4.5188C-0.00757629 4.42533 0.0300066 4.33527 0.0953369 4.26978Z" fill="black"/>
</svg>
