<svg width="25" height="24" viewBox="0 0 25 24" fill="none" xmlns="http://www.w3.org/2000/svg">
<path fill-rule="evenodd" clip-rule="evenodd" d="M9.86155 15.5988C11.3456 17.083 13.299 17.8017 15.2402 17.7597C17.8764 17.7027 22.5 17.7441 22.5 17.7441C22.5 17.7441 22.4595 13.0663 22.4614 10.3843C22.4629 8.49432 21.7432 6.6047 20.2987 5.16049C17.4192 2.27996 12.741 2.27996 9.86155 5.15975C6.97689 8.04473 6.98208 12.719 9.86155 15.5988Z" stroke="#BABCBE" stroke-width="1.2" stroke-linecap="round"/>
<path fill-rule="evenodd" clip-rule="evenodd" d="M16.1384 19.4181C14.6544 20.9023 12.701 21.621 10.7598 21.5791C8.1236 21.5221 3.5 21.5635 3.5 21.5635C3.5 21.5635 3.54054 16.8857 3.53855 14.2037C3.53715 12.3137 4.25676 10.424 5.70129 8.97983C8.58076 6.0993 13.259 6.0993 16.1384 8.97908C19.0231 11.8641 19.0179 16.5383 16.1384 19.4181Z" fill="white" stroke="#BABCBE" stroke-width="1.2" stroke-linecap="round"/>
<path d="M7.95203 14.5048H7.87304" stroke="#BABCBE" stroke-width="1.2" stroke-linecap="square"/>
<path d="M10.9393 14.5048H10.8603" stroke="#BABCBE" stroke-width="1.2" stroke-linecap="square"/>
<path d="M13.9266 14.5048H13.8476" stroke="#BABCBE" stroke-width="1.2" stroke-linecap="square"/>
</svg>
