<svg width="24" height="24" viewBox="0 0 24 24" fill="none" xmlns="http://www.w3.org/2000/svg">
<path d="M8.68188 3.35431C9.87088 2.88153 14.1295 2.88145 15.3176 3.35431C15.9661 3.6124 16.4037 4.10062 16.8059 4.83087L17.2581 5.69806C17.2684 5.71524 17.2778 5.73095 17.2864 5.74396L17.3245 5.79572C17.5304 6.02007 17.8752 6.15588 18.1028 6.15607C20.2548 6.15607 22.0002 7.90115 22.0002 10.0526V15.8475C22.0002 18.5915 19.7746 20.8171 17.0305 20.8172H6.96997C4.22525 20.8171 2.00033 18.5918 2.00024 15.8475V10.0526C2.00024 7.90115 3.74568 6.15607 5.89771 6.15607C6.12449 6.15588 6.4698 6.01987 6.67603 5.79572C6.68009 5.79124 6.68536 5.78474 6.69165 5.77618L6.74341 5.69708L7.1936 4.83185C7.59552 4.10139 8.03313 3.61258 8.68188 3.35431ZM14.6438 4.7088C13.6147 4.41793 10.0348 4.43056 9.23657 4.74786C8.98356 4.84857 8.75772 5.10076 8.50806 5.5545L8.12329 6.29865L8.02856 6.47052C7.94956 6.60189 7.87075 6.71302 7.78052 6.81134C7.27418 7.36171 6.52486 7.65592 5.89771 7.65607L5.73267 7.66193C4.48574 7.74649 3.50024 8.78493 3.50024 10.0526V15.8475C3.50033 17.7635 5.05373 19.3171 6.96997 19.3172H17.0305C18.9461 19.3171 20.5002 17.7631 20.5002 15.8475V10.0526C20.5002 8.72965 19.4265 7.65607 18.1028 7.65607L17.929 7.64923C17.3405 7.60077 16.6798 7.31129 16.22 6.81036C16.1309 6.71326 16.0515 6.60289 15.9729 6.47247C15.9617 6.4538 15.9479 6.42918 15.9319 6.40021L15.8157 6.18243L15.4915 5.5545C15.2416 5.10097 15.016 4.84858 14.7629 4.74786L14.6438 4.7088Z" fill="#222222"/>
<path d="M17.5046 8.5C18.0569 8.5 18.5046 8.94772 18.5046 9.5C18.5046 10.0128 18.1186 10.4355 17.6212 10.4933L17.5046 10.5C16.9433 10.5 16.4956 10.0523 16.4956 9.5C16.4956 8.98716 16.8816 8.56449 17.379 8.50673L17.5046 8.5Z" fill="#222222"/>
<path d="M11.9998 9.19904C14.1699 9.19904 15.9293 10.9577 15.9294 13.1277C15.9294 15.298 14.17 17.0574 11.9998 17.0574C9.82968 17.0573 8.07104 15.2979 8.07104 13.1277C8.0712 10.9578 9.82977 9.19919 11.9998 9.19904ZM11.9998 10.699C10.6582 10.6992 9.5712 11.7862 9.57104 13.1277C9.57104 14.4694 10.6581 15.5573 11.9998 15.5574C13.3415 15.5574 14.4294 14.4695 14.4294 13.1277C14.4293 11.7861 13.3414 10.699 11.9998 10.699Z" fill="#222222"/>
</svg>
