<svg width="24" height="24" viewBox="0 0 24 24" fill="none" xmlns="http://www.w3.org/2000/svg">
<path d="M5.29289 17.2929C4.90237 17.6834 4.90237 18.3166 5.29289 18.7071C5.68342 19.0976 6.31658 19.0976 6.70711 18.7071L6 18L5.29289 17.2929ZM12.7071 12.7071C13.0976 12.3166 13.0976 11.6834 12.7071 11.2929C12.3166 10.9024 11.6834 10.9024 11.2929 11.2929L12 12L12.7071 12.7071ZM11.2929 11.2929C10.9024 11.6834 10.9024 12.3166 11.2929 12.7071C11.6834 13.0976 12.3166 13.0976 12.7071 12.7071L12 12L11.2929 11.2929ZM18.7071 6.70711C19.0976 6.31658 19.0976 5.68342 18.7071 5.29289C18.3166 4.90237 17.6834 4.90237 17.2929 5.29289L18 6L18.7071 6.70711ZM12.7071 11.2929C12.3166 10.9024 11.6834 10.9024 11.2929 11.2929C10.9024 11.6834 10.9024 12.3166 11.2929 12.7071L12 12L12.7071 11.2929ZM17.2929 18.7071C17.6834 19.0976 18.3166 19.0976 18.7071 18.7071C19.0976 18.3166 19.0976 17.6834 18.7071 17.2929L18 18L17.2929 18.7071ZM11.2929 12.7071C11.6834 13.0976 12.3166 13.0976 12.7071 12.7071C13.0976 12.3166 13.0976 11.6834 12.7071 11.2929L12 12L11.2929 12.7071ZM6.70711 5.29289C6.31658 4.90237 5.68342 4.90237 5.29289 5.29289C4.90237 5.68342 4.90237 6.31658 5.29289 6.70711L6 6L6.70711 5.29289ZM6 18L6.70711 18.7071L12.7071 12.7071L12 12L11.2929 11.2929L5.29289 17.2929L6 18ZM12 12L12.7071 12.7071L18.7071 6.70711L18 6L17.2929 5.29289L11.2929 11.2929L12 12ZM12 12L11.2929 12.7071L17.2929 18.7071L18 18L18.7071 17.2929L12.7071 11.2929L12 12ZM12 12L12.7071 11.2929L6.70711 5.29289L6 6L5.29289 6.70711L11.2929 12.7071L12 12Z" fill="#222222"/>
</svg>
