<svg width="24" height="24" viewBox="0 0 24 24" fill="none" xmlns="http://www.w3.org/2000/svg">
<path d="M3.51472 11C2.96243 11 2.51472 11.4477 2.51472 12C2.51472 12.5523 2.96243 13 3.51472 13L3.51472 12L3.51472 11ZM12 13C12.5523 13 13 12.5523 13 12C13 11.4477 12.5523 11 12 11V12L12 13ZM12 11C11.4477 11 11 11.4477 11 12C11 12.5523 11.4477 13 12 13V12L12 11ZM20.4853 13C21.0376 13 21.4853 12.5523 21.4853 12C21.4853 11.4477 21.0376 11 20.4853 11L20.4853 12L20.4853 13ZM13 12C13 11.4477 12.5523 11 12 11C11.4477 11 11 11.4477 11 12H12H13ZM11 20.4853C11 21.0376 11.4477 21.4853 12 21.4853C12.5523 21.4853 13 21.0376 13 20.4853H12H11ZM11 12C11 12.5523 11.4477 13 12 13C12.5523 13 13 12.5523 13 12H12H11ZM13 3.51471C13 2.96242 12.5523 2.51471 12 2.51471C11.4477 2.51471 11 2.96242 11 3.51471H12H13ZM3.51472 12L3.51472 13L12 13L12 12V11L3.51472 11L3.51472 12ZM12 12V13L20.4853 13L20.4853 12L20.4853 11L12 11L12 12ZM12 12H11V20.4853H12H13V12H12ZM12 12H13L13 3.51471H12H11L11 12H12Z" fill="#222222"/>
</svg>
