<svg width="24" height="24" viewBox="0 0 24 24" fill="none" xmlns="http://www.w3.org/2000/svg">
<rect x="5.75" y="5.75" width="4.5" height="4.5" rx="1.25" stroke="#222222" stroke-width="1.5"/>
<rect x="5.75" y="13.75" width="4.5" height="4.5" rx="1.25" stroke="#222222" stroke-width="1.5"/>
<rect x="13.75" y="5.75" width="4.5" height="4.5" rx="1.25" stroke="#222222" stroke-width="1.5"/>
<rect x="13.75" y="13.75" width="4.5" height="4.5" rx="1.25" stroke="#222222" stroke-width="1.5"/>
<path d="M18 2H19C20.6569 2 22 3.34315 22 5V6" stroke="#222222" stroke-width="1.5" stroke-linecap="round"/>
<path d="M18 22H19C20.6569 22 22 20.6569 22 19V18" stroke="#222222" stroke-width="1.5" stroke-linecap="round"/>
<path d="M6 2H5C3.34315 2 2 3.34315 2 5V6" stroke="#222222" stroke-width="1.5" stroke-linecap="round"/>
<path d="M6 22H5C3.34315 22 2 20.6569 2 19V18" stroke="#222222" stroke-width="1.5" stroke-linecap="round"/>
</svg>
