<svg width="78" height="13" viewBox="0 0 78 13" fill="none" xmlns="http://www.w3.org/2000/svg">
<path d="M2.33301 7.99993C2.97734 7.99993 3.5 8.50361 3.5 9.12493V11.3749C3.49994 11.9962 2.9773 12.4999 2.33301 12.4999H1.16699C0.5227 12.4999 6.43357e-05 11.9962 0 11.3749V9.12493C0 8.50361 0.52266 7.99993 1.16699 7.99993H2.33301ZM7.82324 5.74993C8.46757 5.74993 8.99023 6.25361 8.99023 6.87493V11.3749C8.99019 11.9962 8.46755 12.4999 7.82324 12.4999H6.65723C6.01292 12.4999 5.49028 11.9962 5.49023 11.3749V6.87493C5.49023 6.25361 6.01289 5.74993 6.65723 5.74993H7.82324ZM13.3135 3.12493C13.9578 3.12493 14.4804 3.62867 14.4805 4.24993V11.3749C14.4805 11.9963 13.9578 12.4999 13.3135 12.4999H12.1475C11.5031 12.4999 10.9805 11.9963 10.9805 11.3749V4.24993C10.9805 3.62867 11.5032 3.12493 12.1475 3.12493H13.3135ZM18.8037 0.499931C19.448 0.499931 19.9707 1.00361 19.9707 1.62493V11.3749C19.9707 11.9963 19.448 12.4999 18.8037 12.4999H17.6377C16.9934 12.4999 16.4707 11.9963 16.4707 11.3749V1.62493C16.4707 1.00361 16.9934 0.499931 17.6377 0.499931H18.8037Z" fill="#222222"/>
<path d="M32.5117 9.82617C33.9316 8.59632 36.0108 8.59632 37.4307 9.82617C37.502 9.89232 37.5439 9.98543 37.5459 10.084C37.5479 10.1825 37.51 10.2776 37.4414 10.3467L35.2178 12.6445C35.1526 12.712 35.0634 12.75 34.9707 12.75C34.8782 12.7499 34.7897 12.7119 34.7246 12.6445L32.501 10.3467C32.4323 10.2776 32.3945 10.1826 32.3965 10.084C32.3985 9.98541 32.4403 9.89227 32.5117 9.82617ZM29.5449 6.76074C32.604 3.84665 37.3413 3.84665 40.4004 6.76074C40.4692 6.82897 40.5087 6.92244 40.5098 7.02051C40.5107 7.11878 40.4729 7.21346 40.4053 7.2832L39.1201 8.61328C38.9877 8.74908 38.7736 8.7523 38.6377 8.62012C37.6331 7.68856 36.3259 7.17277 34.9707 7.17285C33.6166 7.17354 32.3114 7.68939 31.3076 8.62012C31.1718 8.7523 30.9577 8.749 30.8252 8.61328L29.54 7.2832C29.4723 7.21356 29.4346 7.11882 29.4355 7.02051C29.4366 6.92234 29.476 6.82896 29.5449 6.76074ZM26.5781 3.70312C31.2699 -0.901157 38.6715 -0.901095 43.3633 3.70312C43.4312 3.77154 43.4701 3.86534 43.4707 3.96289C43.4713 4.06044 43.4333 4.15442 43.3662 4.22363L42.0801 5.55371C41.9475 5.69006 41.7322 5.69097 41.5977 5.55664C39.8101 3.81632 37.4372 2.84581 34.9707 2.8457C32.5041 2.84582 30.1315 3.81626 28.3438 5.55664C28.2092 5.69121 27.9938 5.69036 27.8613 5.55371L26.5742 4.22363C26.5072 4.15439 26.4701 4.06039 26.4707 3.96289C26.4713 3.86533 26.5102 3.77148 26.5781 3.70312Z" fill="#222222"/>
<rect opacity="0.4" x="50.4707" y="0.5" width="24" height="12" rx="3.5" stroke="#222222"/>
<path opacity="0.5" d="M75.9707 4.5V8.5C76.7766 8.16122 77.3007 7.37313 77.3007 6.5C77.3007 5.62687 76.7766 4.83878 75.9707 4.5Z" fill="#222222"/>
<rect x="51.9707" y="2" width="17" height="9" rx="2" fill="#222222"/>
</svg>
