<svg width="24" height="24" viewBox="0 0 24 24" fill="none" xmlns="http://www.w3.org/2000/svg">
<path d="M21.4735 12.1544C21.4828 11.4377 21.0945 10.779 20.4641 10.4332L5.7722 2.3611C5.11415 1.98918 4.33842 2.03487 3.71834 2.4583C3.08689 2.88885 2.76369 3.91379 2.94021 4.65406L4.31176 10.4003C4.45256 10.9896 4.97992 11.4045 5.58662 11.4019L13.7626 11.3765C14.1813 11.3681 14.5208 11.7077 14.5125 12.1263C14.5112 12.5379 14.1766 12.8724 13.7579 12.8808L5.57417 12.8998C4.96747 12.901 4.43753 13.3178 4.29307 13.9079L2.87302 19.677C2.7006 20.3588 2.89718 21.0394 3.37821 21.5204C3.4348 21.577 3.49846 21.6406 3.56217 21.6901C4.18512 22.1707 5.00096 22.232 5.69751 21.8609L20.4392 13.8677C21.0718 13.5323 21.4641 12.8711 21.4735 12.1544Z" fill="#06C755"/>
</svg>
