<svg width="25" height="25" viewBox="0 0 25 25" fill="none" xmlns="http://www.w3.org/2000/svg">
<path d="M10.0141 15.3736C13.1415 15.3656 15.8007 16.8015 16.7782 19.8926C14.808 21.0937 12.4889 21.5563 10.0141 21.5502C7.53921 21.5563 5.22016 21.0937 3.25 19.8926C4.22857 16.7982 6.88327 15.3656 10.0141 15.3736Z" stroke="#0B0E0F" stroke-width="1.5" stroke-linecap="square"/>
<path d="M16.5852 18.8991C18.475 18.9037 20.2458 18.5505 21.7502 17.6334C21.0039 15.273 18.9733 14.1765 16.5852 14.1826C15.0809 14.1788 13.7205 14.6105 12.7324 15.5199" stroke="#0B0E0F" stroke-width="1.5" stroke-linecap="square"/>
<circle cx="10.0142" cy="8.0191" r="4.23687" stroke="#0B0E0F" stroke-width="1.5" stroke-linecap="square"/>
<path d="M14.2141 6.33664C14.8043 5.71798 15.6369 5.33252 16.5595 5.33252C18.3496 5.33252 19.8008 6.78369 19.8008 8.57379C19.8008 10.3639 18.3496 11.8151 16.5595 11.8151C15.4652 11.8151 14.4975 11.2728 13.9106 10.4423" stroke="#0B0E0F" stroke-width="1.5" stroke-linecap="square"/>
</svg>
