<svg width="32" height="32" viewBox="0 0 32 32" fill="none" xmlns="http://www.w3.org/2000/svg">
<path d="M16 0.5C24.5604 0.5 31.5 7.43959 31.5 16C31.5 24.5604 24.5604 31.5 16 31.5C7.43959 31.5 0.5 24.5604 0.5 16C0.5 7.43959 7.43959 0.5 16 0.5Z" stroke="white"/>
<mask id="mask0_47_744" style="mask-type:alpha" maskUnits="userSpaceOnUse" x="6" y="6" width="20" height="20">
<rect x="6" y="6" width="20" height="20" fill="#D9D9D9"/>
</mask>
<g mask="url(#mask0_47_744)">
<path d="M9.42962 22.4103V14.8461H9.34942C8.99789 14.8461 8.699 14.723 8.45275 14.4767C8.2065 14.2305 8.08337 13.9317 8.08337 13.5803V11.7692C8.08337 11.4178 8.2065 11.119 8.45275 10.8728C8.699 10.6265 8.99789 10.5034 9.34942 10.5034H12.3927C12.2752 10.3677 12.1954 10.2149 12.1532 10.0449C12.1109 9.875 12.0898 9.6966 12.0898 9.50965C12.0898 8.88646 12.308 8.35674 12.7442 7.92049C13.1805 7.48424 13.7102 7.26611 14.3334 7.26611C14.6528 7.26611 14.9488 7.33313 15.2213 7.46715C15.4937 7.60132 15.7372 7.78056 15.9519 8.00486C16.1666 7.77195 16.4102 7.59063 16.6827 7.4609C16.9551 7.33104 17.251 7.26611 17.5705 7.26611C18.1938 7.26611 18.7236 7.48424 19.1598 7.92049C19.5961 8.35674 19.8142 8.88646 19.8142 9.50965C19.8142 9.69452 19.7909 9.87028 19.7444 10.0369C19.6979 10.2036 19.6202 10.3591 19.5113 10.5034H22.6507C23.0022 10.5034 23.3011 10.6265 23.5473 10.8728C23.7936 11.119 23.9167 11.4178 23.9167 11.7692V13.5803C23.9167 13.9317 23.7936 14.2305 23.5473 14.4767C23.3011 14.723 23.0022 14.8461 22.6507 14.8461H22.5705V22.4103C22.5705 22.8246 22.423 23.1792 22.128 23.4742C21.833 23.7692 21.4784 23.9167 21.0642 23.9167H10.9359C10.5217 23.9167 10.1671 23.7692 9.87212 23.4742C9.57712 23.1792 9.42962 22.8246 9.42962 22.4103ZM17.5705 8.51611C17.2889 8.51611 17.053 8.61132 16.8625 8.80174C16.6721 8.99215 16.5769 9.22813 16.5769 9.50965C16.5769 9.79118 16.6721 10.0272 16.8625 10.2176C17.053 10.4081 17.2889 10.5034 17.5705 10.5034C17.852 10.5034 18.088 10.4081 18.2786 10.2176C18.469 10.0272 18.5642 9.79118 18.5642 9.50965C18.5642 9.22813 18.469 8.99215 18.2786 8.80174C18.088 8.61132 17.852 8.51611 17.5705 8.51611ZM13.3398 9.50965C13.3398 9.79118 13.435 10.0272 13.6255 10.2176C13.8159 10.4081 14.0518 10.5034 14.3334 10.5034C14.6149 10.5034 14.8509 10.4081 15.0413 10.2176C15.2317 10.0272 15.3269 9.79118 15.3269 9.50965C15.3269 9.22813 15.2317 8.99215 15.0413 8.80174C14.8509 8.61132 14.6149 8.51611 14.3334 8.51611C14.0518 8.51611 13.8159 8.61132 13.6255 8.80174C13.435 8.99215 13.3398 9.22813 13.3398 9.50965ZM9.33337 11.7532V13.5963H15.375V11.7532H9.33337ZM15.375 22.6667V14.8461H10.6794V22.4103C10.6794 22.4851 10.7035 22.5466 10.7517 22.5947C10.7998 22.6427 10.8612 22.6667 10.9359 22.6667H15.375ZM16.625 22.6667H21.0642C21.1389 22.6667 21.2003 22.6427 21.2484 22.5947C21.2966 22.5466 21.3207 22.4851 21.3207 22.4103V14.8461H16.625V22.6667ZM22.6667 13.5963V11.7532H16.625V13.5963H22.6667Z" fill="white"/>
</g>
</svg>
