<svg width="32" height="32" viewBox="0 0 32 32" fill="none" xmlns="http://www.w3.org/2000/svg">
<mask id="mask0_41_652" style="mask-type:alpha" maskUnits="userSpaceOnUse" x="4" y="4" width="24" height="24">
<rect x="4" y="4" width="24" height="24" fill="#D9D9D9"/>
</mask>
<g mask="url(#mask0_41_652)">
<path d="M5.73075 16L9.804 20.073C9.94233 20.2115 10.0132 20.3856 10.0165 20.5953C10.0197 20.8048 9.94883 20.982 9.804 21.127C9.659 21.2718 9.48333 21.3443 9.277 21.3443C9.07067 21.3443 8.895 21.2718 8.75 21.127L4.25575 16.6328C4.16225 16.5391 4.09625 16.4403 4.05775 16.3365C4.01925 16.2327 4 16.1205 4 16C4 15.8795 4.01925 15.7673 4.05775 15.6635C4.09625 15.5597 4.16225 15.4609 4.25575 15.3673L8.75 10.873C8.8885 10.7347 9.06258 10.6638 9.27225 10.6605C9.48175 10.6573 9.659 10.7282 9.804 10.873C9.94883 11.018 10.0213 11.1937 10.0213 11.4C10.0213 11.6063 9.94883 11.782 9.804 11.927L5.73075 16Z" fill="#6F7173"/>
</g>
</svg>
