<svg width="32" height="32" viewBox="0 0 32 32" fill="none" xmlns="http://www.w3.org/2000/svg">
<mask id="mask0_14_511" style="mask-type:alpha" maskUnits="userSpaceOnUse" x="4" y="4" width="24" height="24">
<rect x="4" y="4" width="24" height="24" fill="#D9D9D9"/>
</mask>
<g mask="url(#mask0_14_511)">
<path d="M24.25 9.25C24.6642 9.25 25 9.58579 25 10C25 10.4142 24.6642 10.75 24.25 10.75H7.75C7.33579 10.75 7 10.4142 7 10C7 9.58579 7.33579 9.25 7.75 9.25H24.25Z" fill="#6F7173"/>
<path d="M24.25 15.25C24.6642 15.25 25 15.5858 25 16C25 16.4142 24.6642 16.75 24.25 16.75H7.75C7.33579 16.75 7 16.4142 7 16C7 15.5858 7.33579 15.25 7.75 15.25H24.25Z" fill="#6F7173"/>
<path d="M24.25 21.25C24.6642 21.25 25 21.5858 25 22C25 22.4142 24.6642 22.75 24.25 22.75H7.75C7.33579 22.75 7 22.4142 7 22C7 21.5858 7.33579 21.25 7.75 21.25H24.25Z" fill="#6F7173"/>
</g>
</svg>
