<svg width="32" height="32" viewBox="0 0 32 32" fill="none" xmlns="http://www.w3.org/2000/svg">
<mask id="mask0_14_466" style="mask-type:alpha" maskUnits="userSpaceOnUse" x="4" y="4" width="24" height="24">
<rect x="4" y="4" width="24" height="24" fill="#D9D9D9"/>
</mask>
<g mask="url(#mask0_14_466)">
<path d="M22.9501 14.6316H20.3939C20.1524 14.6316 19.9501 14.5529 19.7869 14.3954C19.6235 14.2379 19.5418 14.0429 19.5418 13.8103C19.5418 13.5775 19.6235 13.3825 19.7869 13.2254C19.9501 13.0681 20.1524 12.9895 20.3939 12.9895H22.9501V10.5264C22.9501 10.2937 23.0318 10.0988 23.1952 9.9415C23.3586 9.78404 23.561 9.70531 23.8024 9.70531C24.044 9.70531 24.2464 9.78404 24.4094 9.9415C24.5726 10.0988 24.6542 10.2937 24.6542 10.5264V12.9895H27.2104C27.4518 12.9895 27.6542 13.0682 27.8174 13.2257C27.9808 13.3831 28.0625 13.5782 28.0625 13.8108C28.0625 14.0436 27.9808 14.2386 27.8174 14.3957C27.6542 14.553 27.4518 14.6316 27.2104 14.6316H24.6542V17.0947C24.6542 17.3274 24.5725 17.5223 24.4091 17.6796C24.2457 17.837 24.0433 17.9158 23.8019 17.9158C23.5603 17.9158 23.3579 17.837 23.1949 17.6796C23.0317 17.5223 22.9501 17.3274 22.9501 17.0947V14.6316ZM12.5832 15.6631C11.4897 15.6631 10.5537 15.288 9.77507 14.5377C8.99628 13.7873 8.60688 12.8852 8.60688 11.8315C8.60688 10.7779 8.99628 9.87591 9.77507 9.12565C10.5537 8.37522 11.4897 8 12.5832 8C13.6767 8 14.6127 8.37522 15.3914 9.12565C16.1701 9.87591 16.5595 10.7779 16.5595 11.8315C16.5595 12.8852 16.1701 13.7873 15.3914 14.5377C14.6127 15.288 13.6767 15.6631 12.5832 15.6631ZM4.0625 22.3368V21.5661C4.0625 21.0301 4.2136 20.5336 4.5158 20.0768C4.818 19.6199 5.22188 19.2687 5.72745 19.0231C6.85029 18.4927 7.98307 18.0949 9.12579 17.8296C10.2685 17.5643 11.421 17.4316 12.5832 17.4316C13.7454 17.4316 14.8979 17.5643 16.0406 17.8296C17.1834 18.0949 18.3161 18.4927 19.439 19.0231C19.9445 19.2687 20.3484 19.6199 20.6506 20.0768C20.9528 20.5336 21.1039 21.0301 21.1039 21.5661V22.3368C21.1039 22.7984 20.9361 23.1911 20.6003 23.5148C20.2646 23.8383 19.8572 24 19.3779 24H5.78851C5.30927 24 4.90179 23.8383 4.56607 23.5148C4.23036 23.1911 4.0625 22.7984 4.0625 22.3368ZM5.76664 22.3579H19.3998V21.5661C19.3998 21.3445 19.3331 21.1392 19.1998 20.9504C19.0665 20.7617 18.8856 20.6077 18.6571 20.4884C17.6781 20.0239 16.6801 19.6719 15.6629 19.4325C14.6455 19.1933 13.6189 19.0737 12.5832 19.0737C11.5475 19.0737 10.5209 19.1933 9.50354 19.4325C8.48636 19.6719 7.4883 20.0239 6.50936 20.4884C6.28082 20.6077 6.0999 20.7617 5.96659 20.9504C5.83329 21.1392 5.76664 21.3445 5.76664 21.5661V22.3579ZM12.5832 14.021C13.2081 14.021 13.743 13.8066 14.1879 13.3779C14.6329 12.9491 14.8554 12.4336 14.8554 11.8315C14.8554 11.2294 14.6329 10.714 14.1879 10.2852C13.743 9.85648 13.2081 9.64209 12.5832 9.64209C11.9584 9.64209 11.4234 9.85648 10.9785 10.2852C10.5335 10.714 10.311 11.2294 10.311 11.8315C10.311 12.4336 10.5335 12.9491 10.9785 13.3779C11.4234 13.8066 11.9584 14.021 12.5832 14.021Z" fill="#6F7173"/>
</g>
</svg>
