<svg width="32" height="32" viewBox="0 0 32 32" fill="none" xmlns="http://www.w3.org/2000/svg">
<mask id="mask0_18_2692" style="mask-type:alpha" maskUnits="userSpaceOnUse" x="4" y="4" width="24" height="24">
<rect x="4" y="4" width="24" height="24" fill="#D9D9D9"/>
</mask>
<g mask="url(#mask0_18_2692)">
<path d="M7.48846 20.2615C7.1718 19.5847 6.92788 18.891 6.75671 18.1805C6.58555 17.4702 6.49996 16.7433 6.49996 16C6.49996 14.6858 6.7493 13.4508 7.24796 12.295C7.74663 11.1392 8.42338 10.1338 9.27821 9.27875C10.133 8.42375 11.1383 7.74692 12.294 7.24825C13.4496 6.74942 14.6844 6.5 15.9982 6.5C17.3122 6.5 18.5473 6.74933 19.7035 7.248C20.8596 7.74667 21.8653 8.42342 22.7205 9.27825C23.5756 10.1331 24.2527 11.1383 24.7517 12.294C25.2505 13.4497 25.5 14.6844 25.5 15.9983C25.5 17.3123 25.2505 18.5473 24.7517 19.7035C24.253 20.8597 23.5762 21.8653 22.7212 22.7205C21.8662 23.5757 20.8608 24.2528 19.705 24.7518C18.5491 25.2506 17.3141 25.5 16 25.5C15.2566 25.5 14.5298 25.4144 13.8195 25.2432C13.109 25.0721 12.4153 24.8282 11.7385 24.5115L7.31396 25.807C6.9713 25.9113 6.67271 25.8363 6.41821 25.5818C6.16371 25.3273 6.08863 25.0287 6.19296 24.686L7.48846 20.2615ZM7.94996 24.05L11.15 23.1C11.3961 23.0333 11.6336 23.0052 11.8625 23.0155C12.0913 23.0257 12.3205 23.0872 12.55 23.2C13.0833 23.4667 13.6416 23.6667 14.225 23.8C14.8083 23.9333 15.4 24 16 24C18.2333 24 20.125 23.225 21.675 21.675C23.225 20.125 24 18.2333 24 16C24 13.7667 23.225 11.875 21.675 10.325C20.125 8.775 18.2333 8 16 8C13.7666 8 11.875 8.775 10.325 10.325C8.77496 11.875 7.99996 13.7667 7.99996 16C7.99996 16.6 8.06663 17.1917 8.19996 17.775C8.3333 18.3583 8.5333 18.9167 8.79996 19.45C8.91663 19.6667 8.98071 19.8958 8.99221 20.1375C9.00371 20.3792 8.97296 20.6167 8.89996 20.85L7.94996 24.05ZM15.25 16.75V19C15.25 19.2125 15.3219 19.3906 15.4657 19.5343C15.6095 19.6781 15.7877 19.75 16.0002 19.75C16.2129 19.75 16.391 19.6781 16.5345 19.5343C16.6781 19.3906 16.75 19.2125 16.75 19V16.75H19C19.2125 16.75 19.3905 16.6781 19.5342 16.5343C19.678 16.3904 19.75 16.2122 19.75 15.9998C19.75 15.7871 19.678 15.609 19.5342 15.4655C19.3905 15.3218 19.2125 15.25 19 15.25H16.75V13C16.75 12.7875 16.678 12.6094 16.5342 12.4658C16.3904 12.3219 16.2122 12.25 15.9997 12.25C15.787 12.25 15.609 12.3219 15.4655 12.4658C15.3218 12.6094 15.25 12.7875 15.25 13V15.25H13C12.7875 15.25 12.6094 15.3219 12.4657 15.4658C12.3219 15.6096 12.25 15.7878 12.25 16.0003C12.25 16.2129 12.3219 16.391 12.4657 16.5345C12.6094 16.6782 12.7875 16.75 13 16.75H15.25Z" fill="#6F7173"/>
</g>
</svg>
