<svg width="32" height="32" viewBox="0 0 32 32" fill="none" xmlns="http://www.w3.org/2000/svg">
<path d="M16 0.5C24.5604 0.5 31.5 7.43959 31.5 16C31.5 24.5604 24.5604 31.5 16 31.5C7.43959 31.5 0.5 24.5604 0.5 16C0.5 7.43959 7.43959 0.5 16 0.5Z" stroke="white"/>
<path d="M16.9231 8.08301C17.2073 8.08301 17.4528 8.1776 17.6594 8.36621C17.8662 8.55466 17.9915 8.78685 18.0364 9.0625L18.2405 10.6299C18.4904 10.7207 18.7169 10.827 18.9192 10.9482C19.1216 11.0694 19.3263 11.2125 19.5325 11.377L21.0081 10.7705C21.2696 10.6552 21.5328 10.6456 21.7971 10.7412C22.0615 10.8367 22.2671 11.004 22.4133 11.2432L23.345 12.8555C23.4913 13.0999 23.5329 13.3589 23.4709 13.6318C23.409 13.9046 23.2672 14.1303 23.0452 14.3076L21.7639 15.2695C21.7937 15.404 21.8109 15.5295 21.8137 15.6465C21.8164 15.7634 21.8176 15.8814 21.8176 16C21.8176 16.1132 21.8143 16.2286 21.8088 16.3457C21.8035 16.4626 21.7842 16.5965 21.7512 16.7471L23.0081 17.6924C23.2302 17.8697 23.374 18.0953 23.4387 18.3682C23.5031 18.641 23.462 18.9001 23.3157 19.1445L22.3713 20.7646C22.2251 21.0092 22.0182 21.1776 21.7512 21.2705C21.4842 21.3633 21.22 21.3527 20.9583 21.2373L19.5325 20.623C19.3263 20.7876 19.1153 20.9331 18.9006 21.0596C18.686 21.1862 18.4659 21.29 18.2405 21.3701L18.0364 22.9375C17.9915 23.2131 17.8662 23.4453 17.6594 23.6338C17.4528 23.8224 17.2073 23.917 16.9231 23.917H15.0764C14.7926 23.9169 14.5476 23.8221 14.3411 23.6338C14.1343 23.4453 14.008 23.2132 13.9631 22.9375L13.76 21.3779C13.5368 21.3032 13.3071 21.199 13.0725 21.0645C12.8381 20.9298 12.6284 20.7856 12.4436 20.6318L11.0002 21.2451C10.7385 21.3605 10.4754 21.3713 10.2112 21.2783C9.9468 21.1854 9.74135 21.017 9.59497 20.7725L8.65552 19.1445C8.50922 18.9001 8.46665 18.641 8.52856 18.3682C8.59051 18.0952 8.7331 17.8697 8.95532 17.6924L10.2034 16.7549C10.1842 16.6311 10.1704 16.5067 10.1624 16.3818C10.1543 16.2568 10.1506 16.1318 10.1506 16.0078C10.1506 15.8894 10.1543 15.7688 10.1624 15.6465C10.1704 15.5242 10.1842 15.3903 10.2034 15.2451L8.95532 14.3076C8.7331 14.1303 8.59178 13.9036 8.53247 13.6279C8.47325 13.3525 8.517 13.0923 8.66333 12.8477L9.59497 11.2432C9.74134 11.0041 9.94691 10.8367 10.2112 10.7412C10.4754 10.6457 10.7386 10.6551 11.0002 10.7705L12.4358 11.377C12.6367 11.2178 12.8514 11.0723 13.0793 10.9404C13.3073 10.8086 13.5312 10.7022 13.7512 10.6221L13.9631 9.0625C14.008 8.78681 14.1343 8.55468 14.3411 8.36621C14.5476 8.17786 14.7926 8.0831 15.0764 8.08301H16.9231ZM14.9036 11.5576C14.4785 11.658 14.0858 11.8123 13.7258 12.0195C13.3658 12.2268 13.0224 12.4937 12.6956 12.8203L10.6252 11.958L9.80493 13.375L11.6038 14.7158C11.5343 14.9135 11.486 15.1195 11.4583 15.333C11.4305 15.5466 11.4163 15.7717 11.4163 16.0078C11.4163 16.2246 11.4305 16.4373 11.4583 16.6455C11.486 16.8537 11.5318 17.0597 11.5959 17.2627L9.80493 18.625L10.6252 20.042L12.6877 19.167C13.0038 19.4915 13.3416 19.7576 13.7014 19.9648C14.0616 20.1721 14.4599 20.3313 14.8958 20.4424L15.1663 22.667H16.8049L17.1038 20.4346C17.529 20.3235 17.9179 20.1655 18.2698 19.9609C18.6218 19.7563 18.9615 19.4933 19.2883 19.1719L21.3586 20.042L22.1799 18.625L20.3713 17.2627C20.4408 17.0469 20.4889 16.8353 20.5139 16.6279C20.539 16.4208 20.551 16.2114 20.551 16C20.551 15.7831 20.539 15.5738 20.5139 15.3721C20.4889 15.1701 20.4408 14.9635 20.3713 14.7529L22.1956 13.375L21.3752 11.958L19.2805 12.8408C19.0017 12.5429 18.6677 12.2793 18.2786 12.0508C17.8891 11.8222 17.4944 11.6606 17.0959 11.5654L16.8333 9.33301H15.1799L14.9036 11.5576ZM16.01 13.5C16.7031 13.5001 17.293 13.7439 17.7795 14.2305C18.266 14.7171 18.51 15.3068 18.51 16C18.51 16.6932 18.266 17.2829 17.7795 17.7695C17.293 18.2561 16.7031 18.4999 16.01 18.5C15.3081 18.5 14.715 18.2562 14.2327 17.7695C13.7506 17.2829 13.51 16.6931 13.51 16C13.51 15.3069 13.7506 14.7171 14.2327 14.2305C14.715 13.7438 15.3081 13.5 16.01 13.5ZM16.0002 14.75C15.3099 14.75 14.7502 15.3096 14.7502 16C14.7502 16.6904 15.3099 17.25 16.0002 17.25C16.6905 17.2498 17.2502 16.6903 17.2502 16C17.2502 15.3097 16.6905 14.7502 16.0002 14.75Z" fill="white"/>
</svg>
