<svg width="32" height="32" viewBox="0 0 32 32" fill="none" xmlns="http://www.w3.org/2000/svg">
<path d="M16 0.5C24.5604 0.5 31.5 7.43959 31.5 16C31.5 24.5604 24.5604 31.5 16 31.5C7.43959 31.5 0.5 24.5604 0.5 16C0.5 7.43959 7.43959 0.5 16 0.5Z" stroke="white"/>
<mask id="mask0_47_743" style="mask-type:alpha" maskUnits="userSpaceOnUse" x="6" y="6" width="20" height="20">
<rect x="6" y="6" width="20" height="20" fill="#D9D9D9"/>
</mask>
<g mask="url(#mask0_47_743)">
<path d="M8.49996 11.8334C8.26385 11.8334 8.06593 11.7536 7.90621 11.5938C7.74649 11.4341 7.66663 11.2362 7.66663 11.0001V8.50008C7.66663 8.26397 7.74649 8.06605 7.90621 7.90633C8.06593 7.74661 8.26385 7.66675 8.49996 7.66675H11C11.2361 7.66675 11.434 7.74661 11.5937 7.90633C11.7534 8.06605 11.8333 8.26397 11.8333 8.50008C11.8333 8.73619 11.7534 8.93411 11.5937 9.09383C11.434 9.25355 11.2361 9.33341 11 9.33341H9.33329V11.0001C9.33329 11.2362 9.25343 11.4341 9.09371 11.5938C8.93399 11.7536 8.73607 11.8334 8.49996 11.8334ZM8.49996 24.3334C8.26385 24.3334 8.06593 24.2536 7.90621 24.0938C7.74649 23.9341 7.66663 23.7362 7.66663 23.5001V21.0001C7.66663 20.764 7.74649 20.5661 7.90621 20.4063C8.06593 20.2466 8.26385 20.1667 8.49996 20.1667C8.73607 20.1667 8.93399 20.2466 9.09371 20.4063C9.25343 20.5661 9.33329 20.764 9.33329 21.0001V22.6667H11C11.2361 22.6667 11.434 22.7466 11.5937 22.9063C11.7534 23.0661 11.8333 23.264 11.8333 23.5001C11.8333 23.7362 11.7534 23.9341 11.5937 24.0938C11.434 24.2536 11.2361 24.3334 11 24.3334H8.49996ZM21 24.3334C20.7638 24.3334 20.5659 24.2536 20.4062 24.0938C20.2465 23.9341 20.1666 23.7362 20.1666 23.5001C20.1666 23.264 20.2465 23.0661 20.4062 22.9063C20.5659 22.7466 20.7638 22.6667 21 22.6667H22.6666V21.0001C22.6666 20.764 22.7465 20.5661 22.9062 20.4063C23.0659 20.2466 23.2638 20.1667 23.5 20.1667C23.7361 20.1667 23.934 20.2466 24.0937 20.4063C24.2534 20.5661 24.3333 20.764 24.3333 21.0001V23.5001C24.3333 23.7362 24.2534 23.9341 24.0937 24.0938C23.934 24.2536 23.7361 24.3334 23.5 24.3334H21ZM23.5 11.8334C23.2638 11.8334 23.0659 11.7536 22.9062 11.5938C22.7465 11.4341 22.6666 11.2362 22.6666 11.0001V9.33341H21C20.7638 9.33341 20.5659 9.25355 20.4062 9.09383C20.2465 8.93411 20.1666 8.73619 20.1666 8.50008C20.1666 8.26397 20.2465 8.06605 20.4062 7.90633C20.5659 7.74661 20.7638 7.66675 21 7.66675H23.5C23.7361 7.66675 23.934 7.74661 24.0937 7.90633C24.2534 8.06605 24.3333 8.26397 24.3333 8.50008V11.0001C24.3333 11.2362 24.2534 11.4341 24.0937 11.5938C23.934 11.7536 23.7361 11.8334 23.5 11.8334ZM20.5833 21.8334V20.5834H21.8333V21.8334H20.5833ZM20.5833 19.3334V18.0834H21.8333V19.3334H20.5833ZM19.3333 20.5834V19.3334H20.5833V20.5834H19.3333ZM18.0833 21.8334V20.5834H19.3333V21.8334H18.0833ZM16.8333 20.5834V19.3334H18.0833V20.5834H16.8333ZM19.3333 18.0834V16.8334H20.5833V18.0834H19.3333ZM18.0833 19.3334V18.0834H19.3333V19.3334H18.0833ZM16.8333 18.0834V16.8334H18.0833V18.0834H16.8333ZM17.6666 15.1667C17.4305 15.1667 17.2326 15.0869 17.0729 14.9272C16.9132 14.7674 16.8333 14.5695 16.8333 14.3334V11.0001C16.8333 10.764 16.9132 10.5661 17.0729 10.4063C17.2326 10.2466 17.4305 10.1667 17.6666 10.1667H21C21.2361 10.1667 21.434 10.2466 21.5937 10.4063C21.7534 10.5661 21.8333 10.764 21.8333 11.0001V14.3334C21.8333 14.5695 21.7534 14.7674 21.5937 14.9272C21.434 15.0869 21.2361 15.1667 21 15.1667H17.6666ZM11 21.8334C10.7638 21.8334 10.5659 21.7536 10.4062 21.5938C10.2465 21.4341 10.1666 21.2362 10.1666 21.0001V17.6667C10.1666 17.4306 10.2465 17.2327 10.4062 17.073C10.5659 16.9133 10.7638 16.8334 11 16.8334H14.3333C14.5694 16.8334 14.7673 16.9133 14.927 17.073C15.0868 17.2327 15.1666 17.4306 15.1666 17.6667V21.0001C15.1666 21.2362 15.0868 21.4341 14.927 21.5938C14.7673 21.7536 14.5694 21.8334 14.3333 21.8334H11ZM11 15.1667C10.7638 15.1667 10.5659 15.0869 10.4062 14.9272C10.2465 14.7674 10.1666 14.5695 10.1666 14.3334V11.0001C10.1666 10.764 10.2465 10.5661 10.4062 10.4063C10.5659 10.2466 10.7638 10.1667 11 10.1667H14.3333C14.5694 10.1667 14.7673 10.2466 14.927 10.4063C15.0868 10.5661 15.1666 10.764 15.1666 11.0001V14.3334C15.1666 14.5695 15.0868 14.7674 14.927 14.9272C14.7673 15.0869 14.5694 15.1667 14.3333 15.1667H11ZM11.4166 20.5834H13.9166V18.0834H11.4166V20.5834ZM11.4166 13.9167H13.9166V11.4167H11.4166V13.9167ZM18.0833 13.9167H20.5833V11.4167H18.0833V13.9167Z" fill="white"/>
</g>
</svg>
