<svg width="32" height="32" viewBox="0 0 32 32" fill="none" xmlns="http://www.w3.org/2000/svg">
<mask id="mask0_14_506" style="mask-type:alpha" maskUnits="userSpaceOnUse" x="4" y="4" width="24" height="24">
<rect x="4" y="4" width="24" height="24" fill="#56585A"/>
</mask>
<g mask="url(#mask0_14_506)">
<path fill-rule="evenodd" clip-rule="evenodd" d="M19.8 14.2C19.8 17.2928 17.2928 19.8 14.2 19.8C11.1072 19.8 8.6 17.2928 8.6 14.2C8.6 11.1072 11.1072 8.6 14.2 8.6C17.2928 8.6 19.8 11.1072 19.8 14.2ZM18.6942 19.8255C17.4624 20.8108 15.9 21.4 14.2 21.4C10.2235 21.4 7 18.1765 7 14.2C7 10.2236 10.2235 7 14.2 7C18.1765 7 21.4 10.2236 21.4 14.2C21.4 15.9 20.8108 17.4624 19.8255 18.6941L24.7657 23.6343C25.0781 23.9467 25.0781 24.4533 24.7657 24.7657C24.4533 25.0781 23.9467 25.0781 23.6343 24.7657L18.6942 19.8255Z" fill="#6F7173"/>
</g>
</svg>
