<svg width="32" height="32" viewBox="0 0 32 32" fill="none" xmlns="http://www.w3.org/2000/svg">
<path d="M17.1079 6.5C17.4488 6.50004 17.7437 6.61355 17.9917 6.83984C18.2396 7.06588 18.39 7.34427 18.4438 7.6748L18.689 9.55566C18.9887 9.6646 19.2598 9.79212 19.5024 9.9375C19.7454 10.083 19.9913 10.2546 20.2388 10.4521L22.0093 9.72461C22.3232 9.58614 22.6393 9.57469 22.9565 9.68945C23.2738 9.80408 23.5203 10.005 23.6958 10.292L24.814 12.2266C24.9896 12.5201 25.0398 12.8315 24.9653 13.1592C24.891 13.4865 24.7202 13.757 24.4536 13.9697L22.9175 15.123C22.9533 15.2845 22.9727 15.4357 22.9761 15.5762C22.9792 15.7164 22.981 15.8577 22.981 16C22.981 16.1357 22.9777 16.2737 22.9712 16.4141C22.9649 16.5544 22.9415 16.7157 22.9019 16.8965L24.4097 18.0303C24.6762 18.243 24.8486 18.5135 24.9263 18.8408C25.0038 19.1685 24.9545 19.4799 24.7788 19.7734L23.646 21.7168C23.4705 22.0105 23.2224 22.2137 22.9019 22.3252C22.5814 22.4366 22.2638 22.4227 21.9497 22.2842L20.2388 21.5479C19.9913 21.7453 19.7386 21.9204 19.481 22.0723C19.2234 22.2242 18.9593 22.3482 18.689 22.4443L18.4438 24.3252C18.39 24.6557 18.2396 24.9341 17.9917 25.1602C17.7437 25.3865 17.4488 25.5 17.1079 25.5H14.8921C14.5512 25.5 14.2563 25.3865 14.0083 25.1602C13.7604 24.9341 13.61 24.6557 13.5562 24.3252L13.311 22.4541C13.0434 22.3645 12.7691 22.2385 12.4878 22.0771C12.2065 21.9155 11.9547 21.7421 11.7329 21.5576L9.99951 22.2939C9.68556 22.4323 9.37017 22.4465 9.05322 22.335C8.73589 22.2235 8.48963 22.0201 8.31396 21.7266L7.18604 19.7734C7.01037 19.4799 6.96017 19.1685 7.03467 18.8408C7.10905 18.5135 7.27983 18.243 7.54639 18.0303L9.04443 16.9053C9.02148 16.7568 9.00526 16.6078 8.99561 16.458C8.98594 16.3081 8.98096 16.1585 8.98096 16.0098C8.98096 15.8676 8.98595 15.723 8.99561 15.5762C9.00526 15.4295 9.02146 15.2689 9.04443 15.0947L7.54639 13.9697C7.27972 13.7569 7.11072 13.4842 7.03955 13.1533C6.96851 12.8228 7.0202 12.5103 7.1958 12.2168L8.31396 10.292C8.48962 10.005 8.73604 9.80407 9.05322 9.68945C9.37013 9.57477 9.6856 9.58637 9.99951 9.72461L11.7231 10.4521C11.9643 10.2612 12.2219 10.0861 12.4956 9.92773C12.7691 9.7695 13.0382 9.64202 13.3022 9.5459L13.5562 7.6748C13.61 7.34427 13.7604 7.06588 14.0083 6.83984C14.2563 6.61354 14.5512 6.50003 14.8921 6.5H17.1079ZM14.6841 10.6689C14.174 10.7894 13.7029 10.974 13.271 11.2227C12.8389 11.4715 12.427 11.7924 12.0347 12.1846L9.55029 11.1504L8.56592 12.8496L10.7251 14.46C10.6418 14.6972 10.5836 14.944 10.5503 15.2002C10.517 15.4565 10.4995 15.7265 10.4995 16.0098C10.4995 16.27 10.517 16.5255 10.5503 16.7754C10.5836 17.0252 10.6384 17.2721 10.7153 17.5156L8.56592 19.1504L9.55029 20.8496L12.0249 19.7998C12.4044 20.1895 12.8107 20.509 13.2427 20.7578C13.6747 21.0064 14.1524 21.1978 14.6753 21.3311L14.9995 24H16.9653L17.3247 21.3213C17.835 21.188 18.3018 20.9984 18.7241 20.7529C19.1465 20.5073 19.5536 20.1914 19.9458 19.8057L22.4312 20.8496L23.4155 19.1504L21.2466 17.5156C21.3299 17.2567 21.3865 17.0027 21.4165 16.7539C21.4467 16.5052 21.4614 16.2538 21.4614 16C21.4614 15.7397 21.4467 15.4883 21.4165 15.2461C21.3865 15.0039 21.3299 14.7564 21.2466 14.5039L23.4341 12.8496L22.4497 11.1504L19.936 12.21C19.6014 11.8523 19.201 11.536 18.7339 11.2617C18.2667 10.9875 17.794 10.7929 17.3159 10.6787L16.9995 8H15.0151L14.6841 10.6689ZM16.0112 13C16.8432 13 17.5513 13.2921 18.1353 13.876C18.7193 14.46 19.0112 15.168 19.0112 16C19.0112 16.832 18.7193 17.54 18.1353 18.124C17.5513 18.7079 16.8432 19 16.0112 19C15.169 18.9999 14.4582 18.708 13.8794 18.124C13.3007 17.5401 13.0112 16.8319 13.0112 16C13.0112 15.1681 13.3007 14.4599 13.8794 13.876C14.4582 13.292 15.169 13.0001 16.0112 13ZM16.0005 14.5C15.1721 14.5 14.5005 15.1716 14.5005 16C14.5005 16.8284 15.1721 17.5 16.0005 17.5C16.8287 17.4997 17.5005 16.8283 17.5005 16C17.5005 15.1717 16.8287 14.5003 16.0005 14.5Z" fill="#6F7173"/>
</svg>
