<svg width="32" height="32" viewBox="0 0 32 32" fill="none" xmlns="http://www.w3.org/2000/svg">
<path d="M16 25.625C13.4473 25.625 10.9991 24.6109 9.1941 22.8059C7.38906 21.0009 6.375 18.5527 6.375 16C6.375 13.4473 7.38906 10.9991 9.1941 9.1941C10.9991 7.38906 13.4473 6.375 16 6.375C18.5527 6.375 21.0009 7.38906 22.8059 9.1941C24.6109 10.9991 25.625 13.4473 25.625 16C25.625 18.5527 24.6109 21.0009 22.8059 22.8059C21.0009 24.6109 18.5527 25.625 16 25.625ZM16 27C18.9174 27 21.7153 25.8411 23.7782 23.7782C25.8411 21.7153 27 18.9174 27 16C27 13.0826 25.8411 10.2847 23.7782 8.22183C21.7153 6.15893 18.9174 5 16 5C13.0826 5 10.2847 6.15893 8.22183 8.22183C6.15893 10.2847 5 13.0826 5 16C5 18.9174 6.15893 21.7153 8.22183 23.7782C10.2847 25.8411 13.0826 27 16 27Z" fill="#6F7173"/>
<path d="M14.6 21.0357C14.6 20.8463 14.6737 20.6646 14.805 20.5306C14.9363 20.3967 15.1143 20.3214 15.3 20.3214H16.7C16.8857 20.3214 17.0637 20.3967 17.195 20.5306C17.3263 20.6646 17.4 20.8463 17.4 21.0357C17.4 21.2252 17.3263 21.4068 17.195 21.5408C17.0637 21.6747 16.8857 21.75 16.7 21.75H15.3C15.1143 21.75 14.9363 21.6747 14.805 21.5408C14.6737 21.4068 14.6 21.2252 14.6 21.0357ZM11.8 16.75C11.8 16.5606 11.8737 16.3789 12.005 16.2449C12.1363 16.111 12.3143 16.0357 12.5 16.0357H19.5C19.6857 16.0357 19.8637 16.111 19.995 16.2449C20.1263 16.3789 20.2 16.5606 20.2 16.75C20.2 16.9394 20.1263 17.1211 19.995 17.2551C19.8637 17.389 19.6857 17.4643 19.5 17.4643H12.5C12.3143 17.4643 12.1363 17.389 12.005 17.2551C11.8737 17.1211 11.8 16.9394 11.8 16.75ZM9 12.4643C9 12.2748 9.07375 12.0932 9.20503 11.9592C9.3363 11.8253 9.51435 11.75 9.7 11.75H22.3C22.4857 11.75 22.6637 11.8253 22.795 11.9592C22.9263 12.0932 23 12.2748 23 12.4643C23 12.6537 22.9263 12.8354 22.795 12.9694C22.6637 13.1033 22.4857 13.1786 22.3 13.1786H9.7C9.51435 13.1786 9.3363 13.1033 9.20503 12.9694C9.07375 12.8354 9 12.6537 9 12.4643Z" fill="#6F7173"/>
</svg>
