<svg width="26" height="24" viewBox="0 0 26 24" fill="none" xmlns="http://www.w3.org/2000/svg">
<path fill-rule="evenodd" clip-rule="evenodd" d="M19.0481 18.5224C17.193 20.3777 14.7512 21.276 12.3247 21.2236C9.0295 21.1523 3.25 21.2041 3.25 21.2041L5.27533 17.9753C5.27533 17.9753 3.29819 15.0386 3.29819 12.0043C3.29644 9.64182 4.19595 7.27981 6.00162 5.47454C9.60096 1.87388 15.4487 1.87388 19.0481 5.47361C22.6539 9.07984 22.6474 14.9227 19.0481 18.5224Z" stroke="#0B0E0F" stroke-width="1.5" stroke-linecap="round"/>
<path d="M8.81455 12.3809H8.71581" stroke="#0B0E0F" stroke-width="1.5" stroke-linecap="square"/>
<path d="M12.5489 12.3809H12.4502" stroke="#0B0E0F" stroke-width="1.5" stroke-linecap="square"/>
<path d="M16.2833 12.3809H16.1846" stroke="#0B0E0F" stroke-width="1.5" stroke-linecap="square"/>
<path d="M23.59 7.00488H19.5" stroke="white" stroke-width="3.5" stroke-linecap="square" stroke-linejoin="round"/>
<path d="M21.5449 5V9.01" stroke="white" stroke-width="3.5" stroke-linecap="square" stroke-linejoin="round"/>
<path d="M23.59 7.00488H19.5" stroke="#0B0E0F" stroke-width="1.5" stroke-linecap="square" stroke-linejoin="round"/>
<path d="M21.5449 5V9.01" stroke="#0B0E0F" stroke-width="1.5" stroke-linecap="square" stroke-linejoin="round"/>
</svg>
