<svg width="24" height="24" viewBox="0 0 24 24" fill="none" xmlns="http://www.w3.org/2000/svg">
<path d="M12 15.6876C14.0366 15.6876 15.6876 14.0366 15.6876 12C15.6876 9.96347 14.0366 8.3125 12 8.3125C9.96347 8.3125 8.3125 9.96347 8.3125 12C8.3125 14.0366 9.96347 15.6876 12 15.6876Z" stroke="#0B0E0F" stroke-width="1.5" stroke-linecap="square"/>
<path d="M18.8038 18.7156L18.3659 15.6753L21.2177 14.5345V9.46567L18.3669 8.32522L18.8049 5.28442L14.4152 2.75L12.0006 4.64979L9.5861 2.75L5.19636 5.28442L5.63427 8.32471L2.78223 9.46567V14.5345L5.63527 15.6759L5.19744 18.7156L9.58718 21.25L12.0006 19.3511L14.4141 21.25L18.8038 18.7156Z" stroke="#0B0E0F" stroke-width="1.5" stroke-linecap="square"/>
</svg>
