<svg width="32" height="44" viewBox="0 0 32 44" fill="none" xmlns="http://www.w3.org/2000/svg">
<path d="M13 7V13.5H6.5V8.89C6.5 7.845 7.345 7 8.39 7H13Z" fill="#292929"/>
<path d="M6.5 15.5H13V26H8.39C7.345 26 6.5 25.155 6.5 24.11V15.5Z" fill="#292929"/>
<path d="M25.5 8.89V13.5H15V7H23.61C24.655 7 25.5 7.845 25.5 8.89Z" fill="#292929"/>
<path d="M15 15.5H25.5V24.11C25.5 25.155 24.655 26 23.61 26H15V15.5Z" fill="#292929"/>
<path d="M6.66895 37.1602C6.65918 38.7812 7.50879 40.4023 8.94434 41.0176L8.2998 41.8867C7.28418 41.418 6.53711 40.4805 6.13184 39.3281C5.72656 40.5732 4.96973 41.5889 3.89551 42.0918L3.23145 41.1836C4.70605 40.5488 5.56543 38.8594 5.56543 37.1602V35.7539H6.66895V37.1602ZM10.6729 35.041V43.8789H9.5791V35.041H10.6729ZM18.9346 35.041V37.5801H20.165V38.4883H18.9346V41.4082H17.8311V35.041H18.9346ZM16.5322 35.7148C16.5322 38.0586 15.0088 39.7285 12.3916 40.4902L11.9424 39.6309C13.959 39.0498 15.1602 37.9512 15.3506 36.6035H12.3135V35.7148H16.5322ZM19.2666 42.8145V43.6934H13.2607V40.7539H14.3643V42.8145H19.2666ZM28.6807 41.9746V42.8535H20.6143V41.9746H22.7041V40.1582H21.3076V39.2793H22.5479V36.6621H21.2783V35.793H27.9775V36.6621H26.6885V39.2793H27.9482V40.1582H26.5518V41.9746H28.6807ZM23.6318 39.2793H25.6143V36.6621H23.6318V39.2793ZM23.7881 41.9746H25.4678V40.1582H23.7881V41.9746Z" fill="#292929"/>
</svg>
