<svg width="32" height="44" viewBox="0 0 32 44" fill="none" xmlns="http://www.w3.org/2000/svg">
<path d="M21.05 13.5751C20.76 17.7001 17.24 20.9851 13.105 21.0001C11.945 21.0001 10.85 20.7651 9.85501 20.3251L4.5 21.7601L5.90001 16.5451C5.32501 15.3951 5.03001 14.1001 5.07501 12.7201C5.21001 8.71013 8.41 5.35013 12.41 5.03013C17.32 4.63513 21.39 8.67513 21.05 13.5801V13.5751Z" fill="#292929"/>
<path d="M27.6404 25.7601L22.2854 24.3251C21.3004 24.7601 20.2154 25.0001 19.0704 25.0001C16.5404 25.0001 14.2804 23.8251 12.8154 21.9901C12.9004 22.0001 12.9854 22.0001 13.0704 22.0001C18.0454 22.0001 22.0704 17.9701 22.0704 13.0001C22.0704 11.6851 21.7904 10.4351 21.2804 9.31006C24.6254 10.2701 27.0704 13.3451 27.0704 17.0001C27.0704 18.2751 26.7754 19.4751 26.2404 20.5451L27.6404 25.7601Z" fill="#292929"/>
<path d="M10.3457 37.7266C10.3457 39.0742 10.9023 40.4609 12.1523 41.1152L11.5371 41.916C10.7119 41.4863 10.1602 40.7148 9.84766 39.7871C9.53516 40.7832 8.97852 41.6377 8.14844 42.1113L7.52344 41.3105C8.75391 40.5879 9.32031 39.123 9.32031 37.7266V37.4824H7.77734V36.5938H9.32031V35.3535H10.3457V36.5938H11.8691V37.4824H10.3457V37.7266ZM15.3066 35.041V43.8691H14.2715V39.3965H13.3633V43.4395H12.3379V35.1973H13.3633V38.498H14.2715V35.041H15.3066ZM21.0488 35.6758V36.5352H17.8848V37.375H20.7949V38.2246H17.8848V39.0742C19.5352 39.084 20.541 39.0596 21.7031 38.8594L21.8105 39.7188C20.541 39.9238 19.4375 39.9629 17.5332 39.9531H16.7812V35.6758H21.0488ZM23.6465 35.0508V40.4316H22.5527V35.0508H23.6465ZM20.668 40.5586C22.5234 40.5586 23.6855 41.1641 23.6855 42.209C23.6855 43.2539 22.5234 43.8594 20.668 43.8594C18.7832 43.8594 17.6406 43.2539 17.6504 42.209C17.6406 41.1641 18.7832 40.5586 20.668 40.5586ZM20.668 41.3984C19.418 41.3984 18.7246 41.6914 18.7344 42.209C18.7246 42.7363 19.418 43.0195 20.668 43.0195C21.8887 43.0195 22.6016 42.7363 22.6016 42.209C22.6016 41.6914 21.8887 41.3984 20.668 41.3984Z" fill="#292929"/>
</svg>
