<svg width="32" height="44" viewBox="0 0 32 44" fill="none" xmlns="http://www.w3.org/2000/svg">
<path d="M25.6391 18.4347L24.5692 16.2547C24.4592 16.0297 24.4542 15.7697 24.5592 15.5397L25.5692 13.3297C25.7542 12.9247 25.5892 12.4397 25.1892 12.2347L23.0592 11.1447C22.8342 11.0297 22.6692 10.8147 22.6192 10.5647L22.1391 8.14975C22.0491 7.70475 21.6242 7.40975 21.1792 7.48475L18.8042 7.88475C18.5442 7.92475 18.2792 7.84475 18.0892 7.66475L16.3142 5.97475C15.9842 5.65975 15.4642 5.66475 15.1442 5.98975L13.4141 7.72475C13.2241 7.90975 12.9642 7.99975 12.7042 7.96475L10.3192 7.62975C9.86917 7.56475 9.45417 7.86975 9.37917 8.31475L8.95916 10.7447C8.91416 10.9947 8.75917 11.2147 8.53417 11.3347L6.43416 12.4847C6.04416 12.6997 5.88916 13.1847 6.08416 13.5897L7.15416 15.7697C7.26416 15.9947 7.26414 16.2547 7.16414 16.4847L6.15416 18.6947C5.96916 19.0997 6.13417 19.5847 6.53417 19.7897L8.66414 20.8797C8.88914 20.9947 9.05414 21.2097 9.10414 21.4597L9.58416 23.8747C9.67415 24.3197 10.0991 24.6147 10.5441 24.5397L12.9191 24.1397C13.1791 24.0997 13.4441 24.1797 13.6341 24.3597L15.4092 26.0497C15.7392 26.3647 16.2592 26.3597 16.5792 26.0347L18.3092 24.2997C18.4942 24.1147 18.7592 24.0247 19.0192 24.0597L21.4042 24.3947C21.8492 24.4597 22.2692 24.1547 22.3442 23.7097L22.7641 21.2797C22.8091 21.0297 22.9642 20.8097 23.1892 20.6897L25.2842 19.5397C25.6792 19.3247 25.8341 18.8397 25.6391 18.4347ZM13.1792 11.9997C13.8692 11.9997 14.4292 12.5597 14.4292 13.2497C14.4292 13.9397 13.8692 14.4997 13.1792 14.4997C12.4892 14.4997 11.9292 13.9397 11.9292 13.2497C11.9292 12.5597 12.4892 11.9997 13.1792 11.9997ZM18.6792 19.9997C17.9892 19.9997 17.4292 19.4397 17.4292 18.7497C17.4292 18.0597 17.9892 17.4997 18.6792 17.4997C19.3692 17.4997 19.9292 18.0597 19.9292 18.7497C19.9292 19.4397 19.3692 19.9997 18.6792 19.9997ZM19.7492 13.1847L13.0342 19.8997C12.7392 20.1947 12.2642 20.1947 11.9742 19.8997C11.6792 19.6097 11.6792 19.1297 11.9742 18.8397L18.6892 12.1247C18.9792 11.8297 19.4592 11.8297 19.7492 12.1247C19.8992 12.2697 19.9692 12.4597 19.9692 12.6547C19.9692 12.8497 19.8992 13.0397 19.7492 13.1847Z" fill="#292929"/>
<path d="M15.2676 35.041V43.8691H14.2227V35.041H15.2676ZM13.5488 35.207V43.459H12.543V40.8516H11.4492C11.1416 41.5352 10.5215 41.9648 9.75 41.9648C8.66602 41.9648 7.86523 41.1055 7.875 39.875C7.86523 38.6348 8.66602 37.7852 9.75 37.7754C10.8438 37.7852 11.6348 38.6348 11.6348 39.875V39.9824H12.543V38.8301H11.4785V37.9414H12.543V35.207H13.5488ZM11.8984 36.4473V37.3164H7.63086V36.4473H9.23242V35.2656H10.3164V36.4473H11.8984ZM9.75 38.7031C9.19336 38.7031 8.82227 39.1426 8.82227 39.875C8.82227 40.5879 9.19336 41.0469 9.75 41.0469C10.3066 41.0469 10.6875 40.5879 10.6973 39.875C10.6875 39.1426 10.3066 38.7031 9.75 38.7031ZM20.0918 35.6562V36.5254H17.6699V37.3848H20.0039V38.2148H17.6699V39.1426C18.749 39.1328 19.4961 39.0889 20.3555 38.9277L20.4727 39.8066C19.4375 40.002 18.5781 40.0312 17.2109 40.0312H16.625V35.6562H20.0918ZM23.8418 35.0508V40.4219H22.8066V38.127H21.8887V40.3535H20.873V35.2168H21.8887V37.2578H22.8066V35.0508H23.8418ZM23.8418 40.8125V43.8691H22.7578V41.6914H17.7969V40.8125H23.8418Z" fill="#292929"/>
</svg>
