<svg width="32" height="44" viewBox="0 0 32 44" fill="none" xmlns="http://www.w3.org/2000/svg">
<path d="M26.5 14.2551V25.9701C26.5 26.2601 26.26 26.5001 25.97 26.5001H19.5V21.5001C19.5 20.5301 19.11 19.6601 18.475 19.0251C17.845 18.3901 16.965 18.0001 16 18.0001C14.065 18.0001 12.5 19.5651 12.5 21.5001V26.5001H6.03C5.74 26.5001 5.5 26.2601 5.5 25.9701V14.2551C5.5 14.0951 5.57 13.9401 5.695 13.8401L15.665 5.77006C15.86 5.61506 16.14 5.61506 16.335 5.77006L26.305 13.8401C26.43 13.9401 26.5 14.0951 26.5 14.2551Z" fill="#D6D6D6"/>
<path d="M19.042 41.1934V43.7617H12.9189V41.1934H19.042ZM13.9932 42.0137V42.9414H17.9873V42.0137H13.9932ZM19.5791 35.7148V36.5352H12.3721V35.7148H15.4482V34.9434H16.5322V35.7148H19.5791ZM15.9854 36.8086C17.8701 36.8086 18.9248 37.2285 18.9248 38.0586C18.9248 38.8057 18.0752 39.2256 16.5322 39.2988V39.8164H20.0186V40.6758H11.9717V39.8164H15.4482V39.2988C13.915 39.2305 13.0557 38.8057 13.0557 38.0586C13.0557 37.2285 14.1201 36.8086 15.9854 36.8086ZM15.9854 37.541C14.8135 37.5508 14.2178 37.6973 14.2178 38.0586C14.2178 38.4102 14.8135 38.5762 15.9854 38.5762C17.167 38.5762 17.7627 38.4102 17.7627 38.0586C17.7627 37.6973 17.167 37.5508 15.9854 37.541Z" fill="#D6D6D6"/>
</svg>
