<svg width="375" height="291" viewBox="0 0 375 291" fill="none" xmlns="http://www.w3.org/2000/svg">
<rect width="375" height="291" fill="#D2D3D8"/>
<g filter="url(#filter0_d_50_6004)">
<rect x="3" y="8" width="32" height="42" rx="5" fill="white" shape-rendering="crispEdges"/>
<path d="M23.4964 32.6V29.036H14.8284V32.6H23.4964ZM25.1464 34.074H13.1784V23.778H14.8284V27.562H23.4964V23.778H25.1464V34.074Z" fill="black"/>
</g>
<g filter="url(#filter1_d_50_6004)">
<rect x="41" y="8" width="31" height="42" rx="5" fill="white" shape-rendering="crispEdges"/>
<path d="M62.6684 25.186H57.6304V26.704C57.6304 29.718 60.5784 32.006 63.5264 32.82L62.7344 34.118C60.2484 33.37 57.7844 31.632 56.8164 29.586C55.8044 31.676 53.4064 33.436 50.8764 34.206L50.0184 32.93C53.0104 32.094 55.9364 29.828 55.9364 26.792V25.186H50.8984V23.8H62.6684V25.186Z" fill="black"/>
</g>
<g filter="url(#filter2_d_50_6004)">
<rect x="78" y="8" width="32" height="42" rx="5" fill="white" shape-rendering="crispEdges"/>
<path d="M100.19 34.052H88.2664V23.998H100.146V25.472H89.8944V32.578H100.19V34.052Z" fill="black"/>
</g>
<g filter="url(#filter3_d_50_6004)">
<rect x="116" y="8" width="31" height="42" rx="5" fill="white" shape-rendering="crispEdges"/>
<path d="M136.722 34.03H135.094V25.516H125.612V24.042H136.722V34.03Z" fill="black"/>
</g>
<g filter="url(#filter4_d_50_6004)">
<rect x="153" y="8" width="32" height="42" rx="5" fill="white" shape-rendering="crispEdges"/>
<path d="M175.894 32.974L175.278 34.316C172.792 33.766 170.152 31.676 169.228 29.366C168.282 31.654 165.686 33.766 163.112 34.404L162.43 33.062C165.554 32.182 168.348 29.476 168.348 26.572V23.602H170.042V26.506C170.042 29.498 172.748 32.138 175.894 32.974Z" fill="black"/>
</g>
<g filter="url(#filter5_d_50_6004)">
<rect x="191" y="8" width="31" height="42" rx="5" fill="white" shape-rendering="crispEdges"/>
<path d="M215.154 34.184H198.038V32.754H202.812V24.042H204.44V32.754H208.356V24.042H209.984V32.754H215.154V34.184Z" fill="black"/>
</g>
<g filter="url(#filter6_d_50_6004)">
<rect x="228" y="8" width="31" height="42" rx="5" fill="white" shape-rendering="crispEdges"/>
<path d="M244.388 26.836H240.01V25.362H244.388V19.642H246.016V38.628H244.388V31.28H240.01V29.784H244.388V26.836Z" fill="black"/>
</g>
<g filter="url(#filter7_d_50_6004)">
<rect x="265" y="8" width="32" height="42" rx="5" fill="white" shape-rendering="crispEdges"/>
<path d="M285.056 32.138H280.722V38.628H279.116V19.642H280.722V25.78H285.056V27.276H280.722V30.642H285.056V32.138Z" fill="black"/>
</g>
<g filter="url(#filter8_d_50_6004)">
<rect x="303" y="8" width="31" height="42" rx="5" fill="white" shape-rendering="crispEdges"/>
<path d="M321.786 38.65H320.158V28.75H317.122V38.232H315.516V19.928H317.122V27.254H320.158V19.686H321.786V38.65Z" fill="black"/>
</g>
<g filter="url(#filter9_d_50_6004)">
<rect x="340" y="8" width="32" height="42" rx="5" fill="white" shape-rendering="crispEdges"/>
<path d="M359.924 38.562H358.318V19.752H359.924V38.562ZM356.492 37.924H354.886V28.86H351.124V27.386H354.886V19.994H356.492V37.924Z" fill="black"/>
</g>
<g filter="url(#filter10_d_50_6004)">
<rect x="22.5" y="62" width="32" height="42" rx="5" fill="white" shape-rendering="crispEdges"/>
<path d="M43.0184 86.578V79.428H34.3284V86.578H43.0184ZM44.6684 88.052H32.7004V77.954H44.6684V88.052Z" fill="black"/>
</g>
<g filter="url(#filter11_d_50_6004)">
<rect x="60.5" y="62" width="30" height="42" rx="5" fill="white" shape-rendering="crispEdges"/>
<path d="M69.8324 78.042H71.4604V86.534H81.9544V88.03H69.8324V78.042Z" fill="black"/>
</g>
<g filter="url(#filter12_d_50_6004)">
<rect x="96.5" y="62" width="32" height="42" rx="5" fill="white" shape-rendering="crispEdges"/>
<path d="M112.486 79.076C110.066 79.076 108.152 80.374 108.152 82.926C108.152 85.478 110.044 86.842 112.486 86.842C114.95 86.842 116.886 85.478 116.886 82.926C116.886 80.374 114.95 79.076 112.486 79.076ZM118.514 82.926C118.514 86.27 115.83 88.25 112.486 88.25C109.34 88.25 106.458 86.27 106.458 82.926C106.458 79.538 109.34 77.668 112.486 77.668C115.632 77.668 118.514 79.538 118.514 82.926Z" fill="black"/>
</g>
<g filter="url(#filter13_d_50_6004)">
<rect x="134.5" y="62" width="32" height="42" rx="5" fill="white" shape-rendering="crispEdges"/>
<path d="M156.954 88.294H144.656V82.222H155.018V79.23H144.656V77.778H156.668V83.696H146.306V86.82H156.954V88.294Z" fill="black"/>
</g>
<g filter="url(#filter14_d_50_6004)">
<rect x="172.5" y="62" width="30" height="42" rx="5" fill="white" shape-rendering="crispEdges"/>
<path d="M190.764 78.416H184.648V77.008H190.764V78.416ZM190.566 85.5C190.566 84.246 189.4 83.476 187.728 83.476C186.056 83.476 184.846 84.246 184.846 85.5C184.846 86.754 186.056 87.524 187.728 87.524C189.4 87.524 190.566 86.754 190.566 85.5ZM194.086 81.144H181.26V79.736H194.086V81.144ZM192.216 85.5C192.216 87.612 190.214 88.91 187.728 88.91C185.176 88.91 183.218 87.612 183.218 85.5C183.218 83.388 185.176 82.112 187.728 82.112C190.236 82.112 192.216 83.388 192.216 85.5Z" fill="black"/>
</g>
<g filter="url(#filter15_d_50_6004)">
<rect x="208.5" y="62" width="32" height="42" rx="5" fill="white" shape-rendering="crispEdges"/>
<path d="M233.154 87.7H215.84V86.204H223.606V78.13H225.234V86.204H233.154V87.7Z" fill="black"/>
</g>
<g filter="url(#filter16_d_50_6004)">
<rect x="246.5" y="62" width="32" height="42" rx="5" fill="white" shape-rendering="crispEdges"/>
<path d="M263.454 81.65V73.708H265.082V92.65H263.454V83.146H259.032V81.65H263.454Z" fill="black"/>
</g>
<g filter="url(#filter17_d_50_6004)">
<rect x="284.5" y="62" width="30" height="42" rx="5" fill="white" shape-rendering="crispEdges"/>
<path d="M300.058 73.708V81.562H304.392V83.058H300.058V92.65H298.43V73.708H300.058Z" fill="black"/>
</g>
<g filter="url(#filter18_d_50_6004)">
<rect x="320.5" y="62" width="32" height="42" rx="5" fill="white" shape-rendering="crispEdges"/>
<path d="M335.892 92.738V73.752H337.52V92.738H335.892Z" fill="black"/>
</g>
<g filter="url(#filter19_d_50_6004)">
<rect x="3" y="116" width="44" height="42" rx="5" fill="#ABB0BC" shape-rendering="crispEdges"/>
<path fill-rule="evenodd" clip-rule="evenodd" d="M24.1514 128.755C24.62 128.286 25.3798 128.286 25.8485 128.755L34.6414 137.548C35.3973 138.304 34.8619 139.596 33.7928 139.596H29.9105V143.396C29.9105 144.611 28.9255 145.596 27.7105 145.596H22.2894C21.0744 145.596 20.0894 144.611 20.0894 143.396V139.596H16.207C15.138 139.596 14.6026 138.304 15.3585 137.548L24.1514 128.755ZM24.9999 129.886L16.6899 138.196H21.4894V143.396C21.4894 143.838 21.8476 144.196 22.2894 144.196H27.7105C28.1523 144.196 28.5105 143.838 28.5105 143.396V138.196H33.31L24.9999 129.886Z" fill="black"/>
</g>
<g filter="url(#filter20_d_50_6004)">
<rect x="61" y="116" width="31" height="42" rx="5" fill="white" shape-rendering="crispEdges"/>
<path d="M82.6244 131.8V142.206H80.9304V137.872H70.4804V136.442H80.9304V133.274H70.7004V131.8H82.6244Z" fill="black"/>
</g>
<g filter="url(#filter21_d_50_6004)">
<rect x="98" y="116" width="31" height="42" rx="5" fill="white" shape-rendering="crispEdges"/>
<path d="M119.866 140.622V142.096H107.766V131.954H119.778V133.428H109.416V136.178H119.58V137.674H109.416V140.622H119.866Z" fill="black"/>
</g>
<g filter="url(#filter22_d_50_6004)">
<rect x="135" y="116" width="31" height="42" rx="5" fill="white" shape-rendering="crispEdges"/>
<path d="M153.852 132.328H147.516V130.92H153.852V132.328ZM156.448 135.122H151.564V135.694C151.564 138.576 154.468 140.754 157.35 141.458L156.646 142.844C153.852 142.162 151.674 140.336 150.728 138.532C149.76 140.336 147.428 142.25 144.722 142.954L143.996 141.568C146.9 140.754 149.782 138.598 149.782 135.782V135.122H144.832V133.714H156.448V135.122Z" fill="black"/>
</g>
<g filter="url(#filter23_d_50_6004)">
<rect x="172" y="116" width="30" height="42" rx="5" fill="white" shape-rendering="crispEdges"/>
<path d="M193.674 140.688V142.096H180.716V140.688H183.818L183.29 134.462L184.852 134.286L185.336 140.688H189.01L189.67 134.286L191.21 134.462L190.528 140.688H193.674ZM193.366 132.042V133.45H181.024V132.042H193.366Z" fill="black"/>
</g>
<g filter="url(#filter24_d_50_6004)">
<rect x="208" y="116" width="31" height="42" rx="5" fill="white" shape-rendering="crispEdges"/>
<path d="M227.314 143.144H225.686V134.828H221.308V143.144H219.658V134.828H214.84V133.398H232.154V134.828H227.314V143.144Z" fill="black"/>
</g>
<g filter="url(#filter25_d_50_6004)">
<rect x="245" y="116" width="31" height="42" rx="5" fill="white" shape-rendering="crispEdges"/>
<path d="M261.476 142.644H259.826V134.482H252.192V133.052H269.154V134.482H261.476V142.644Z" fill="black"/>
</g>
<g filter="url(#filter26_d_50_6004)">
<rect x="282" y="116" width="31" height="42" rx="5" fill="white" shape-rendering="crispEdges"/>
<path d="M306.154 138.942H288.84V137.512H306.154V138.942Z" fill="black"/>
</g>
<g filter="url(#filter27_d_50_6004)">
<rect x="328" y="116" width="44" height="42" rx="5" fill="#ABB0BC" shape-rendering="crispEdges"/>
<path d="M349.459 133.54C349.206 133.287 348.794 133.287 348.54 133.54C348.286 133.794 348.286 134.206 348.54 134.46L351.081 137L348.54 139.54C348.286 139.794 348.286 140.206 348.54 140.46C348.794 140.714 349.206 140.714 349.459 140.46L352 137.919L354.54 140.46C354.794 140.714 355.206 140.714 355.459 140.46C355.713 140.206 355.713 139.794 355.459 139.54L352.919 137L355.459 134.46C355.713 134.206 355.713 133.794 355.459 133.54C355.206 133.287 354.794 133.287 354.54 133.54L352 136.081L349.459 133.54Z" fill="black"/>
<path fill-rule="evenodd" clip-rule="evenodd" d="M347.185 128.8C346.406 128.8 345.657 129.103 345.098 129.645L338.613 135.922C338.004 136.512 338.004 137.488 338.613 138.078L345.098 144.356C345.657 144.897 346.406 145.2 347.185 145.2H357.66C359.505 145.2 361 143.705 361 141.86V132.3C361 130.367 359.433 128.8 357.5 128.8H347.185ZM357.5 130.2C358.66 130.2 359.6 131.14 359.6 132.3V141.86C359.6 142.932 358.732 143.8 357.66 143.8H347.185C346.769 143.8 346.37 143.639 346.072 143.35L339.587 137.072C339.546 137.033 339.546 136.968 339.587 136.928L346.072 130.65C346.37 130.362 346.769 130.2 347.185 130.2H357.5Z" fill="black"/>
</g>
<g filter="url(#filter28_d_50_6004)">
<rect x="3" y="170" width="42" height="42" rx="5" fill="#ABB0BC" shape-rendering="crispEdges"/>
<path d="M14.9766 197H16.3359V185.727H14.9609L11.9609 187.883V189.297L14.9453 187.219H14.9766V197Z" fill="black"/>
<path d="M19.1953 197H26.6328V195.75H21.125V195.719L23.8047 192.969C25.875 190.852 26.4453 189.922 26.4453 188.688V188.672C26.4453 186.906 24.9531 185.539 22.9141 185.539C20.8125 185.539 19.125 186.984 19.125 188.938V188.984H20.4844V188.945C20.4844 187.734 21.5312 186.766 22.9375 186.766C24.1641 186.766 25.0312 187.594 25.0391 188.742V188.758C25.0391 189.695 24.6875 190.305 23.1641 191.891L19.1953 196.031V197Z" fill="black"/>
<path d="M32.0547 197.188C34.3125 197.188 35.9688 195.797 35.9688 193.914V193.898C35.9688 192.297 34.8516 191.273 33.2109 191.133V191.102C34.6172 190.805 35.6016 189.852 35.6016 188.461V188.445C35.6016 186.734 34.1875 185.539 32.0391 185.539C29.9297 185.539 28.4766 186.766 28.2969 188.602L28.2891 188.68H29.6406L29.6484 188.602C29.7656 187.461 30.7109 186.758 32.0391 186.758C33.4141 186.758 34.1875 187.438 34.1875 188.617V188.633C34.1875 189.758 33.25 190.586 31.9062 190.586H30.5547V191.773H31.9688C33.5469 191.773 34.5391 192.547 34.5391 193.93V193.945C34.5391 195.141 33.5312 195.969 32.0547 195.969C30.5547 195.969 29.5391 195.203 29.4219 194.094L29.4141 194.016H28.0625L28.0703 194.109C28.2188 195.891 29.7266 197.188 32.0547 197.188Z" fill="black"/>
</g>
<g filter="url(#filter29_d_50_6004)">
<rect x="51" y="170" width="43" height="42" rx="5" fill="#ABB0BC" shape-rendering="crispEdges"/>
<path fill-rule="evenodd" clip-rule="evenodd" d="M72.5 181C78.0228 181 82.5 185.477 82.5 191C82.5 196.523 78.0228 201 72.5 201C66.9772 201 62.5 196.523 62.5 191C62.5 185.477 66.9772 181 72.5 181ZM72.5 182.165C77.3793 182.166 81.3344 186.121 81.334 191.001C81.3336 195.88 77.378 199.835 72.4987 199.835C67.6194 199.835 63.664 195.879 63.664 191C63.6641 188.657 64.5951 186.409 66.2521 184.752C67.9092 183.096 70.1567 182.165 72.5 182.165ZM69.3365 186.662C69.0274 186.659 68.7298 186.779 68.5102 186.997C68.2906 187.214 68.1674 187.511 68.1683 187.82C68.1683 188.465 68.6913 188.988 69.3365 188.988C69.9817 188.988 70.5048 188.465 70.5048 187.82C70.5056 187.511 70.3824 187.214 70.1628 186.997C69.9432 186.779 69.6456 186.659 69.3365 186.662ZM79.1642 192.722C78.6317 195.6 75.8545 198.002 72.4987 198.002C69.1697 198.002 66.4087 195.635 65.845 192.79C65.7307 192.08 66.3122 191.912 66.86 192.045C68.6924 192.575 70.5927 192.833 72.5 192.81C74.403 192.832 76.299 192.575 78.1275 192.047C78.66 191.912 79.2302 192.065 79.1642 192.722ZM77.3565 193.122C77.3045 193.142 77.2517 193.157 77.1985 193.175C77.193 193.177 77.369 193.12 77.3637 193.122C75.7826 193.558 74.1481 193.769 72.5082 193.75C70.5512 193.75 68.801 193.532 67.5965 193.1C66.7232 192.84 66.8907 193.867 67.5045 194.182C69.0746 194.897 70.7829 195.257 72.508 195.237C74.56 195.237 76.3885 194.76 77.5962 194.142C78.1677 193.775 78.2807 192.79 77.3565 193.122ZM75.67 186.662C75.3609 186.659 75.0632 186.779 74.8436 186.997C74.624 187.214 74.5007 187.511 74.5015 187.82C74.4953 188.241 74.7167 188.634 75.0807 188.846C75.4447 189.059 75.895 189.059 76.2591 188.846C76.6231 188.634 76.8444 188.241 76.8382 187.82C76.839 187.511 76.7158 187.214 76.4963 186.997C76.2767 186.779 75.9791 186.659 75.67 186.662Z" fill="black"/>
</g>
<g filter="url(#filter30_d_50_6004)">
<rect x="100" y="170" width="175" height="42" rx="5" fill="white" shape-rendering="crispEdges"/>
<path d="M172.581 189.336L171.909 190.36C169.557 189.656 167.285 187.672 166.709 186.248C166.213 187.672 163.989 189.656 161.557 190.344L160.917 189.304C163.189 188.856 166.101 186.696 166.101 184.408V183.304H167.365V184.408C167.365 186.696 170.437 188.856 172.581 189.336ZM173.045 194.2H160.421V193.176H173.045V194.2ZM181.208 192.232C180.456 192.344 179.224 192.456 177.992 192.52C176.696 192.6 175.464 192.648 174.28 192.648L174.088 191.592H175.64L175.224 185.816L176.44 185.656C176.536 187.624 176.68 189.592 176.792 191.56L177.912 191.512C178.008 191.512 178.104 191.512 178.216 191.496C178.328 189.56 178.456 187.592 178.584 185.656L179.8 185.784C179.64 187.656 179.48 189.544 179.288 191.432C179.976 191.368 180.6 191.32 181.096 191.24C181.128 191.576 181.16 191.896 181.208 192.232ZM183.448 195.4H182.264V188.52H180.344V187.512H182.264V182.472H183.448V195.4ZM186.056 196.12H184.856V182.136H186.056V196.12ZM180.76 184.888H174.44V183.88H180.76V184.888ZM199.612 196.12H198.396V182.136H199.612V196.12ZM188.572 188.12C188.572 185.176 189.884 183.192 192.172 183.192C194.492 183.192 195.788 185.176 195.788 188.136C195.788 191.096 194.492 193.08 192.172 193.08C189.884 193.08 188.572 191.096 188.572 188.12ZM194.636 188.136C194.636 185.832 193.66 184.248 192.172 184.248C190.7 184.248 189.724 185.832 189.724 188.136C189.724 190.424 190.7 192.024 192.172 192.024C193.66 192.024 194.636 190.424 194.636 188.136ZM214.112 189.336L213.44 190.36C211.088 189.656 208.816 187.672 208.24 186.248C207.744 187.672 205.52 189.656 203.088 190.344L202.448 189.304C204.72 188.856 207.632 186.696 207.632 184.408V183.304H208.896V184.408C208.896 186.696 211.968 188.856 214.112 189.336ZM214.576 194.2H201.952V193.176H214.576V194.2Z" fill="black"/>
</g>
<g filter="url(#filter31_d_50_6004)">
<rect x="281" y="170" width="91" height="42" rx="5" fill="#ABB0BC" shape-rendering="crispEdges"/>
<path fill-rule="evenodd" clip-rule="evenodd" d="M333.75 191V183.5H335.25V191C335.25 192.519 334.019 193.75 332.5 193.75H319.94L324.005 197.445L322.995 198.555L317.495 193.555C317.334 193.408 317.245 193.199 317.25 192.98C317.256 192.762 317.356 192.558 317.525 192.42L323.025 187.92L323.975 189.08L320.101 192.25H332.5C333.19 192.25 333.75 191.69 333.75 191Z" fill="black"/>
</g>
<rect x="117" y="278" width="138" height="5" rx="2.5" fill="black"/>
<path fill-rule="evenodd" clip-rule="evenodd" d="M52.3259 259.697C54.3065 257.348 55.5 254.313 55.5 251C55.5 243.544 49.4558 237.5 42 237.5C34.5442 237.5 28.5 243.544 28.5 251C28.5 254.313 29.6935 257.348 31.6741 259.697C31.6625 259.711 31.6509 259.724 31.6393 259.738C31.9632 260.125 32.3083 260.494 32.6729 260.843C32.6856 260.827 32.6982 260.812 32.7109 260.796C35.131 263.092 38.4011 264.5 42 264.5C45.5989 264.5 48.869 263.092 51.2891 260.796C51.3018 260.812 51.3144 260.827 51.3271 260.843C51.6917 260.494 52.0368 260.125 52.3607 259.738C52.3491 259.724 52.3375 259.711 52.3259 259.697ZM41.25 256.417V262.867C40.326 262.547 39.2982 261.623 38.3819 259.855C37.996 259.111 37.655 258.259 37.373 257.318C38.5782 256.814 39.8831 256.501 41.25 256.417ZM42.75 256.417V262.867C43.674 262.547 44.7018 261.623 45.6181 259.855C46.004 259.111 46.345 258.259 46.627 257.318C45.4218 256.814 44.1169 256.501 42.75 256.417ZM47.0027 255.851C45.6759 255.321 44.2453 254.996 42.75 254.914V251.75H47.4888C47.4449 253.209 47.274 254.589 47.0027 255.851ZM47.989 257.993C47.4284 259.774 46.6601 261.286 45.7489 262.403C47.4567 261.842 48.9953 260.908 50.2684 259.697C49.5809 259.043 48.8161 258.47 47.989 257.993ZM51.2891 258.597C50.4247 257.778 49.4519 257.071 48.3944 256.501C48.7336 255.037 48.9416 253.434 48.9894 251.75H53.9769C53.8172 254.341 52.8353 256.709 51.2891 258.597ZM32.7109 258.598C33.5753 257.778 34.5481 257.071 35.6056 256.501C35.2664 255.037 35.0584 253.434 35.0106 251.75H30.0231C30.1828 254.341 31.1647 256.709 32.7109 258.598ZM36.9973 255.851C36.726 254.589 36.5551 253.209 36.5112 251.75H41.25V254.914C39.7547 254.996 38.3241 255.321 36.9973 255.851ZM36.011 257.993C35.1839 258.47 34.4191 259.043 33.7316 259.697C35.0047 260.908 36.5433 261.842 38.2511 262.403C37.3399 261.286 36.5716 259.774 36.011 257.993ZM41.25 250.25H36.5112C36.5574 248.716 36.7441 247.268 37.0404 245.953C38.3551 246.473 39.7708 246.792 41.25 246.873V250.25ZM41.25 245.371C39.905 245.288 38.6199 244.983 37.4308 244.493C37.7012 243.627 38.022 242.839 38.3819 242.145C39.2982 240.377 40.326 239.453 41.25 239.133V245.371ZM42.75 246.873V250.25H47.4888C47.4426 248.716 47.2559 247.268 46.9596 245.953C45.6449 246.473 44.2292 246.792 42.75 246.873ZM46.5692 244.493C45.3801 244.983 44.095 245.288 42.75 245.371V239.133C43.674 239.453 44.7018 240.377 45.6181 242.145C45.978 242.839 46.2988 243.627 46.5692 244.493ZM48.3497 245.31C48.7154 246.825 48.9395 248.493 48.9894 250.25H53.9769C53.8138 247.604 52.7933 245.19 51.1899 243.283C50.3382 244.075 49.3841 244.758 48.3497 245.31ZM50.1551 242.197C49.4811 242.821 48.7353 243.37 47.9314 243.828C47.3763 242.124 46.6293 240.676 45.7489 239.597C47.4063 240.142 48.9044 241.038 50.1551 242.197ZM36.0686 243.828C36.6237 242.124 37.3707 240.676 38.2511 239.597C36.5937 240.142 35.0956 241.038 33.8449 242.197C34.5189 242.821 35.2647 243.37 36.0686 243.828ZM32.8102 243.283C31.2067 245.19 30.1862 247.604 30.0231 250.25H35.0106C35.0605 248.493 35.2846 246.825 35.6503 245.31C34.6159 244.758 33.6618 244.075 32.8102 243.283Z" fill="#51555B"/>
<path fill-rule="evenodd" clip-rule="evenodd" d="M333.42 236C330.907 236 328.87 238.037 328.87 240.55V250.05C328.87 252.563 330.907 254.6 333.42 254.6C335.933 254.6 337.97 252.563 337.97 250.05V240.55C337.97 238.037 335.933 236 333.42 236ZM330.47 240.55C330.47 238.921 331.791 237.6 333.42 237.6C335.049 237.6 336.37 238.921 336.37 240.55V250.05C336.37 251.679 335.049 253 333.42 253C331.791 253 330.47 251.679 330.47 250.05V240.55Z" fill="#51555B"/>
<path d="M327.42 262.5C326.978 262.5 326.62 262.858 326.62 263.3C326.62 263.742 326.978 264.1 327.42 264.1H339.42C339.862 264.1 340.22 263.742 340.22 263.3C340.22 262.858 339.862 262.5 339.42 262.5H334.22V259.258C338.895 259.049 342.62 255.193 342.62 250.467V247.5C342.62 247.058 342.262 246.7 341.82 246.7C341.378 246.7 341.02 247.058 341.02 247.5V250.467C341.02 254.443 337.797 257.667 333.82 257.667H333.02C329.044 257.667 325.82 254.443 325.82 250.467V247.5C325.82 247.058 325.462 246.7 325.02 246.7C324.578 246.7 324.22 247.058 324.22 247.5V250.467C324.22 255.193 327.946 259.049 332.62 259.258V262.5H327.42Z" fill="#51555B"/>
<defs>
<filter id="filter0_d_50_6004" x="3" y="8" width="32" height="43" filterUnits="userSpaceOnUse" color-interpolation-filters="sRGB">
<feFlood flood-opacity="0" result="BackgroundImageFix"/>
<feColorMatrix in="SourceAlpha" type="matrix" values="0 0 0 0 0 0 0 0 0 0 0 0 0 0 0 0 0 0 127 0" result="hardAlpha"/>
<feOffset dy="1"/>
<feComposite in2="hardAlpha" operator="out"/>
<feColorMatrix type="matrix" values="0 0 0 0 0 0 0 0 0 0 0 0 0 0 0 0 0 0 0.3 0"/>
<feBlend mode="normal" in2="BackgroundImageFix" result="effect1_dropShadow_50_6004"/>
<feBlend mode="normal" in="SourceGraphic" in2="effect1_dropShadow_50_6004" result="shape"/>
</filter>
<filter id="filter1_d_50_6004" x="41" y="8" width="31" height="43" filterUnits="userSpaceOnUse" color-interpolation-filters="sRGB">
<feFlood flood-opacity="0" result="BackgroundImageFix"/>
<feColorMatrix in="SourceAlpha" type="matrix" values="0 0 0 0 0 0 0 0 0 0 0 0 0 0 0 0 0 0 127 0" result="hardAlpha"/>
<feOffset dy="1"/>
<feComposite in2="hardAlpha" operator="out"/>
<feColorMatrix type="matrix" values="0 0 0 0 0 0 0 0 0 0 0 0 0 0 0 0 0 0 0.3 0"/>
<feBlend mode="normal" in2="BackgroundImageFix" result="effect1_dropShadow_50_6004"/>
<feBlend mode="normal" in="SourceGraphic" in2="effect1_dropShadow_50_6004" result="shape"/>
</filter>
<filter id="filter2_d_50_6004" x="78" y="8" width="32" height="43" filterUnits="userSpaceOnUse" color-interpolation-filters="sRGB">
<feFlood flood-opacity="0" result="BackgroundImageFix"/>
<feColorMatrix in="SourceAlpha" type="matrix" values="0 0 0 0 0 0 0 0 0 0 0 0 0 0 0 0 0 0 127 0" result="hardAlpha"/>
<feOffset dy="1"/>
<feComposite in2="hardAlpha" operator="out"/>
<feColorMatrix type="matrix" values="0 0 0 0 0 0 0 0 0 0 0 0 0 0 0 0 0 0 0.3 0"/>
<feBlend mode="normal" in2="BackgroundImageFix" result="effect1_dropShadow_50_6004"/>
<feBlend mode="normal" in="SourceGraphic" in2="effect1_dropShadow_50_6004" result="shape"/>
</filter>
<filter id="filter3_d_50_6004" x="116" y="8" width="31" height="43" filterUnits="userSpaceOnUse" color-interpolation-filters="sRGB">
<feFlood flood-opacity="0" result="BackgroundImageFix"/>
<feColorMatrix in="SourceAlpha" type="matrix" values="0 0 0 0 0 0 0 0 0 0 0 0 0 0 0 0 0 0 127 0" result="hardAlpha"/>
<feOffset dy="1"/>
<feComposite in2="hardAlpha" operator="out"/>
<feColorMatrix type="matrix" values="0 0 0 0 0 0 0 0 0 0 0 0 0 0 0 0 0 0 0.3 0"/>
<feBlend mode="normal" in2="BackgroundImageFix" result="effect1_dropShadow_50_6004"/>
<feBlend mode="normal" in="SourceGraphic" in2="effect1_dropShadow_50_6004" result="shape"/>
</filter>
<filter id="filter4_d_50_6004" x="153" y="8" width="32" height="43" filterUnits="userSpaceOnUse" color-interpolation-filters="sRGB">
<feFlood flood-opacity="0" result="BackgroundImageFix"/>
<feColorMatrix in="SourceAlpha" type="matrix" values="0 0 0 0 0 0 0 0 0 0 0 0 0 0 0 0 0 0 127 0" result="hardAlpha"/>
<feOffset dy="1"/>
<feComposite in2="hardAlpha" operator="out"/>
<feColorMatrix type="matrix" values="0 0 0 0 0 0 0 0 0 0 0 0 0 0 0 0 0 0 0.3 0"/>
<feBlend mode="normal" in2="BackgroundImageFix" result="effect1_dropShadow_50_6004"/>
<feBlend mode="normal" in="SourceGraphic" in2="effect1_dropShadow_50_6004" result="shape"/>
</filter>
<filter id="filter5_d_50_6004" x="191" y="8" width="31" height="43" filterUnits="userSpaceOnUse" color-interpolation-filters="sRGB">
<feFlood flood-opacity="0" result="BackgroundImageFix"/>
<feColorMatrix in="SourceAlpha" type="matrix" values="0 0 0 0 0 0 0 0 0 0 0 0 0 0 0 0 0 0 127 0" result="hardAlpha"/>
<feOffset dy="1"/>
<feComposite in2="hardAlpha" operator="out"/>
<feColorMatrix type="matrix" values="0 0 0 0 0 0 0 0 0 0 0 0 0 0 0 0 0 0 0.3 0"/>
<feBlend mode="normal" in2="BackgroundImageFix" result="effect1_dropShadow_50_6004"/>
<feBlend mode="normal" in="SourceGraphic" in2="effect1_dropShadow_50_6004" result="shape"/>
</filter>
<filter id="filter6_d_50_6004" x="228" y="8" width="31" height="43" filterUnits="userSpaceOnUse" color-interpolation-filters="sRGB">
<feFlood flood-opacity="0" result="BackgroundImageFix"/>
<feColorMatrix in="SourceAlpha" type="matrix" values="0 0 0 0 0 0 0 0 0 0 0 0 0 0 0 0 0 0 127 0" result="hardAlpha"/>
<feOffset dy="1"/>
<feComposite in2="hardAlpha" operator="out"/>
<feColorMatrix type="matrix" values="0 0 0 0 0 0 0 0 0 0 0 0 0 0 0 0 0 0 0.3 0"/>
<feBlend mode="normal" in2="BackgroundImageFix" result="effect1_dropShadow_50_6004"/>
<feBlend mode="normal" in="SourceGraphic" in2="effect1_dropShadow_50_6004" result="shape"/>
</filter>
<filter id="filter7_d_50_6004" x="265" y="8" width="32" height="43" filterUnits="userSpaceOnUse" color-interpolation-filters="sRGB">
<feFlood flood-opacity="0" result="BackgroundImageFix"/>
<feColorMatrix in="SourceAlpha" type="matrix" values="0 0 0 0 0 0 0 0 0 0 0 0 0 0 0 0 0 0 127 0" result="hardAlpha"/>
<feOffset dy="1"/>
<feComposite in2="hardAlpha" operator="out"/>
<feColorMatrix type="matrix" values="0 0 0 0 0 0 0 0 0 0 0 0 0 0 0 0 0 0 0.3 0"/>
<feBlend mode="normal" in2="BackgroundImageFix" result="effect1_dropShadow_50_6004"/>
<feBlend mode="normal" in="SourceGraphic" in2="effect1_dropShadow_50_6004" result="shape"/>
</filter>
<filter id="filter8_d_50_6004" x="303" y="8" width="31" height="43" filterUnits="userSpaceOnUse" color-interpolation-filters="sRGB">
<feFlood flood-opacity="0" result="BackgroundImageFix"/>
<feColorMatrix in="SourceAlpha" type="matrix" values="0 0 0 0 0 0 0 0 0 0 0 0 0 0 0 0 0 0 127 0" result="hardAlpha"/>
<feOffset dy="1"/>
<feComposite in2="hardAlpha" operator="out"/>
<feColorMatrix type="matrix" values="0 0 0 0 0 0 0 0 0 0 0 0 0 0 0 0 0 0 0.3 0"/>
<feBlend mode="normal" in2="BackgroundImageFix" result="effect1_dropShadow_50_6004"/>
<feBlend mode="normal" in="SourceGraphic" in2="effect1_dropShadow_50_6004" result="shape"/>
</filter>
<filter id="filter9_d_50_6004" x="340" y="8" width="32" height="43" filterUnits="userSpaceOnUse" color-interpolation-filters="sRGB">
<feFlood flood-opacity="0" result="BackgroundImageFix"/>
<feColorMatrix in="SourceAlpha" type="matrix" values="0 0 0 0 0 0 0 0 0 0 0 0 0 0 0 0 0 0 127 0" result="hardAlpha"/>
<feOffset dy="1"/>
<feComposite in2="hardAlpha" operator="out"/>
<feColorMatrix type="matrix" values="0 0 0 0 0 0 0 0 0 0 0 0 0 0 0 0 0 0 0.3 0"/>
<feBlend mode="normal" in2="BackgroundImageFix" result="effect1_dropShadow_50_6004"/>
<feBlend mode="normal" in="SourceGraphic" in2="effect1_dropShadow_50_6004" result="shape"/>
</filter>
<filter id="filter10_d_50_6004" x="22.5" y="62" width="32" height="43" filterUnits="userSpaceOnUse" color-interpolation-filters="sRGB">
<feFlood flood-opacity="0" result="BackgroundImageFix"/>
<feColorMatrix in="SourceAlpha" type="matrix" values="0 0 0 0 0 0 0 0 0 0 0 0 0 0 0 0 0 0 127 0" result="hardAlpha"/>
<feOffset dy="1"/>
<feComposite in2="hardAlpha" operator="out"/>
<feColorMatrix type="matrix" values="0 0 0 0 0 0 0 0 0 0 0 0 0 0 0 0 0 0 0.3 0"/>
<feBlend mode="normal" in2="BackgroundImageFix" result="effect1_dropShadow_50_6004"/>
<feBlend mode="normal" in="SourceGraphic" in2="effect1_dropShadow_50_6004" result="shape"/>
</filter>
<filter id="filter11_d_50_6004" x="60.5" y="62" width="30" height="43" filterUnits="userSpaceOnUse" color-interpolation-filters="sRGB">
<feFlood flood-opacity="0" result="BackgroundImageFix"/>
<feColorMatrix in="SourceAlpha" type="matrix" values="0 0 0 0 0 0 0 0 0 0 0 0 0 0 0 0 0 0 127 0" result="hardAlpha"/>
<feOffset dy="1"/>
<feComposite in2="hardAlpha" operator="out"/>
<feColorMatrix type="matrix" values="0 0 0 0 0 0 0 0 0 0 0 0 0 0 0 0 0 0 0.3 0"/>
<feBlend mode="normal" in2="BackgroundImageFix" result="effect1_dropShadow_50_6004"/>
<feBlend mode="normal" in="SourceGraphic" in2="effect1_dropShadow_50_6004" result="shape"/>
</filter>
<filter id="filter12_d_50_6004" x="96.5" y="62" width="32" height="43" filterUnits="userSpaceOnUse" color-interpolation-filters="sRGB">
<feFlood flood-opacity="0" result="BackgroundImageFix"/>
<feColorMatrix in="SourceAlpha" type="matrix" values="0 0 0 0 0 0 0 0 0 0 0 0 0 0 0 0 0 0 127 0" result="hardAlpha"/>
<feOffset dy="1"/>
<feComposite in2="hardAlpha" operator="out"/>
<feColorMatrix type="matrix" values="0 0 0 0 0 0 0 0 0 0 0 0 0 0 0 0 0 0 0.3 0"/>
<feBlend mode="normal" in2="BackgroundImageFix" result="effect1_dropShadow_50_6004"/>
<feBlend mode="normal" in="SourceGraphic" in2="effect1_dropShadow_50_6004" result="shape"/>
</filter>
<filter id="filter13_d_50_6004" x="134.5" y="62" width="32" height="43" filterUnits="userSpaceOnUse" color-interpolation-filters="sRGB">
<feFlood flood-opacity="0" result="BackgroundImageFix"/>
<feColorMatrix in="SourceAlpha" type="matrix" values="0 0 0 0 0 0 0 0 0 0 0 0 0 0 0 0 0 0 127 0" result="hardAlpha"/>
<feOffset dy="1"/>
<feComposite in2="hardAlpha" operator="out"/>
<feColorMatrix type="matrix" values="0 0 0 0 0 0 0 0 0 0 0 0 0 0 0 0 0 0 0.3 0"/>
<feBlend mode="normal" in2="BackgroundImageFix" result="effect1_dropShadow_50_6004"/>
<feBlend mode="normal" in="SourceGraphic" in2="effect1_dropShadow_50_6004" result="shape"/>
</filter>
<filter id="filter14_d_50_6004" x="172.5" y="62" width="30" height="43" filterUnits="userSpaceOnUse" color-interpolation-filters="sRGB">
<feFlood flood-opacity="0" result="BackgroundImageFix"/>
<feColorMatrix in="SourceAlpha" type="matrix" values="0 0 0 0 0 0 0 0 0 0 0 0 0 0 0 0 0 0 127 0" result="hardAlpha"/>
<feOffset dy="1"/>
<feComposite in2="hardAlpha" operator="out"/>
<feColorMatrix type="matrix" values="0 0 0 0 0 0 0 0 0 0 0 0 0 0 0 0 0 0 0.3 0"/>
<feBlend mode="normal" in2="BackgroundImageFix" result="effect1_dropShadow_50_6004"/>
<feBlend mode="normal" in="SourceGraphic" in2="effect1_dropShadow_50_6004" result="shape"/>
</filter>
<filter id="filter15_d_50_6004" x="208.5" y="62" width="32" height="43" filterUnits="userSpaceOnUse" color-interpolation-filters="sRGB">
<feFlood flood-opacity="0" result="BackgroundImageFix"/>
<feColorMatrix in="SourceAlpha" type="matrix" values="0 0 0 0 0 0 0 0 0 0 0 0 0 0 0 0 0 0 127 0" result="hardAlpha"/>
<feOffset dy="1"/>
<feComposite in2="hardAlpha" operator="out"/>
<feColorMatrix type="matrix" values="0 0 0 0 0 0 0 0 0 0 0 0 0 0 0 0 0 0 0.3 0"/>
<feBlend mode="normal" in2="BackgroundImageFix" result="effect1_dropShadow_50_6004"/>
<feBlend mode="normal" in="SourceGraphic" in2="effect1_dropShadow_50_6004" result="shape"/>
</filter>
<filter id="filter16_d_50_6004" x="246.5" y="62" width="32" height="43" filterUnits="userSpaceOnUse" color-interpolation-filters="sRGB">
<feFlood flood-opacity="0" result="BackgroundImageFix"/>
<feColorMatrix in="SourceAlpha" type="matrix" values="0 0 0 0 0 0 0 0 0 0 0 0 0 0 0 0 0 0 127 0" result="hardAlpha"/>
<feOffset dy="1"/>
<feComposite in2="hardAlpha" operator="out"/>
<feColorMatrix type="matrix" values="0 0 0 0 0 0 0 0 0 0 0 0 0 0 0 0 0 0 0.3 0"/>
<feBlend mode="normal" in2="BackgroundImageFix" result="effect1_dropShadow_50_6004"/>
<feBlend mode="normal" in="SourceGraphic" in2="effect1_dropShadow_50_6004" result="shape"/>
</filter>
<filter id="filter17_d_50_6004" x="284.5" y="62" width="30" height="43" filterUnits="userSpaceOnUse" color-interpolation-filters="sRGB">
<feFlood flood-opacity="0" result="BackgroundImageFix"/>
<feColorMatrix in="SourceAlpha" type="matrix" values="0 0 0 0 0 0 0 0 0 0 0 0 0 0 0 0 0 0 127 0" result="hardAlpha"/>
<feOffset dy="1"/>
<feComposite in2="hardAlpha" operator="out"/>
<feColorMatrix type="matrix" values="0 0 0 0 0 0 0 0 0 0 0 0 0 0 0 0 0 0 0.3 0"/>
<feBlend mode="normal" in2="BackgroundImageFix" result="effect1_dropShadow_50_6004"/>
<feBlend mode="normal" in="SourceGraphic" in2="effect1_dropShadow_50_6004" result="shape"/>
</filter>
<filter id="filter18_d_50_6004" x="320.5" y="62" width="32" height="43" filterUnits="userSpaceOnUse" color-interpolation-filters="sRGB">
<feFlood flood-opacity="0" result="BackgroundImageFix"/>
<feColorMatrix in="SourceAlpha" type="matrix" values="0 0 0 0 0 0 0 0 0 0 0 0 0 0 0 0 0 0 127 0" result="hardAlpha"/>
<feOffset dy="1"/>
<feComposite in2="hardAlpha" operator="out"/>
<feColorMatrix type="matrix" values="0 0 0 0 0 0 0 0 0 0 0 0 0 0 0 0 0 0 0.3 0"/>
<feBlend mode="normal" in2="BackgroundImageFix" result="effect1_dropShadow_50_6004"/>
<feBlend mode="normal" in="SourceGraphic" in2="effect1_dropShadow_50_6004" result="shape"/>
</filter>
<filter id="filter19_d_50_6004" x="3" y="116" width="44" height="43" filterUnits="userSpaceOnUse" color-interpolation-filters="sRGB">
<feFlood flood-opacity="0" result="BackgroundImageFix"/>
<feColorMatrix in="SourceAlpha" type="matrix" values="0 0 0 0 0 0 0 0 0 0 0 0 0 0 0 0 0 0 127 0" result="hardAlpha"/>
<feOffset dy="1"/>
<feComposite in2="hardAlpha" operator="out"/>
<feColorMatrix type="matrix" values="0 0 0 0 0 0 0 0 0 0 0 0 0 0 0 0 0 0 0.3 0"/>
<feBlend mode="normal" in2="BackgroundImageFix" result="effect1_dropShadow_50_6004"/>
<feBlend mode="normal" in="SourceGraphic" in2="effect1_dropShadow_50_6004" result="shape"/>
</filter>
<filter id="filter20_d_50_6004" x="61" y="116" width="31" height="43" filterUnits="userSpaceOnUse" color-interpolation-filters="sRGB">
<feFlood flood-opacity="0" result="BackgroundImageFix"/>
<feColorMatrix in="SourceAlpha" type="matrix" values="0 0 0 0 0 0 0 0 0 0 0 0 0 0 0 0 0 0 127 0" result="hardAlpha"/>
<feOffset dy="1"/>
<feComposite in2="hardAlpha" operator="out"/>
<feColorMatrix type="matrix" values="0 0 0 0 0 0 0 0 0 0 0 0 0 0 0 0 0 0 0.3 0"/>
<feBlend mode="normal" in2="BackgroundImageFix" result="effect1_dropShadow_50_6004"/>
<feBlend mode="normal" in="SourceGraphic" in2="effect1_dropShadow_50_6004" result="shape"/>
</filter>
<filter id="filter21_d_50_6004" x="98" y="116" width="31" height="43" filterUnits="userSpaceOnUse" color-interpolation-filters="sRGB">
<feFlood flood-opacity="0" result="BackgroundImageFix"/>
<feColorMatrix in="SourceAlpha" type="matrix" values="0 0 0 0 0 0 0 0 0 0 0 0 0 0 0 0 0 0 127 0" result="hardAlpha"/>
<feOffset dy="1"/>
<feComposite in2="hardAlpha" operator="out"/>
<feColorMatrix type="matrix" values="0 0 0 0 0 0 0 0 0 0 0 0 0 0 0 0 0 0 0.3 0"/>
<feBlend mode="normal" in2="BackgroundImageFix" result="effect1_dropShadow_50_6004"/>
<feBlend mode="normal" in="SourceGraphic" in2="effect1_dropShadow_50_6004" result="shape"/>
</filter>
<filter id="filter22_d_50_6004" x="135" y="116" width="31" height="43" filterUnits="userSpaceOnUse" color-interpolation-filters="sRGB">
<feFlood flood-opacity="0" result="BackgroundImageFix"/>
<feColorMatrix in="SourceAlpha" type="matrix" values="0 0 0 0 0 0 0 0 0 0 0 0 0 0 0 0 0 0 127 0" result="hardAlpha"/>
<feOffset dy="1"/>
<feComposite in2="hardAlpha" operator="out"/>
<feColorMatrix type="matrix" values="0 0 0 0 0 0 0 0 0 0 0 0 0 0 0 0 0 0 0.3 0"/>
<feBlend mode="normal" in2="BackgroundImageFix" result="effect1_dropShadow_50_6004"/>
<feBlend mode="normal" in="SourceGraphic" in2="effect1_dropShadow_50_6004" result="shape"/>
</filter>
<filter id="filter23_d_50_6004" x="172" y="116" width="30" height="43" filterUnits="userSpaceOnUse" color-interpolation-filters="sRGB">
<feFlood flood-opacity="0" result="BackgroundImageFix"/>
<feColorMatrix in="SourceAlpha" type="matrix" values="0 0 0 0 0 0 0 0 0 0 0 0 0 0 0 0 0 0 127 0" result="hardAlpha"/>
<feOffset dy="1"/>
<feComposite in2="hardAlpha" operator="out"/>
<feColorMatrix type="matrix" values="0 0 0 0 0 0 0 0 0 0 0 0 0 0 0 0 0 0 0.3 0"/>
<feBlend mode="normal" in2="BackgroundImageFix" result="effect1_dropShadow_50_6004"/>
<feBlend mode="normal" in="SourceGraphic" in2="effect1_dropShadow_50_6004" result="shape"/>
</filter>
<filter id="filter24_d_50_6004" x="208" y="116" width="31" height="43" filterUnits="userSpaceOnUse" color-interpolation-filters="sRGB">
<feFlood flood-opacity="0" result="BackgroundImageFix"/>
<feColorMatrix in="SourceAlpha" type="matrix" values="0 0 0 0 0 0 0 0 0 0 0 0 0 0 0 0 0 0 127 0" result="hardAlpha"/>
<feOffset dy="1"/>
<feComposite in2="hardAlpha" operator="out"/>
<feColorMatrix type="matrix" values="0 0 0 0 0 0 0 0 0 0 0 0 0 0 0 0 0 0 0.3 0"/>
<feBlend mode="normal" in2="BackgroundImageFix" result="effect1_dropShadow_50_6004"/>
<feBlend mode="normal" in="SourceGraphic" in2="effect1_dropShadow_50_6004" result="shape"/>
</filter>
<filter id="filter25_d_50_6004" x="245" y="116" width="31" height="43" filterUnits="userSpaceOnUse" color-interpolation-filters="sRGB">
<feFlood flood-opacity="0" result="BackgroundImageFix"/>
<feColorMatrix in="SourceAlpha" type="matrix" values="0 0 0 0 0 0 0 0 0 0 0 0 0 0 0 0 0 0 127 0" result="hardAlpha"/>
<feOffset dy="1"/>
<feComposite in2="hardAlpha" operator="out"/>
<feColorMatrix type="matrix" values="0 0 0 0 0 0 0 0 0 0 0 0 0 0 0 0 0 0 0.3 0"/>
<feBlend mode="normal" in2="BackgroundImageFix" result="effect1_dropShadow_50_6004"/>
<feBlend mode="normal" in="SourceGraphic" in2="effect1_dropShadow_50_6004" result="shape"/>
</filter>
<filter id="filter26_d_50_6004" x="282" y="116" width="31" height="43" filterUnits="userSpaceOnUse" color-interpolation-filters="sRGB">
<feFlood flood-opacity="0" result="BackgroundImageFix"/>
<feColorMatrix in="SourceAlpha" type="matrix" values="0 0 0 0 0 0 0 0 0 0 0 0 0 0 0 0 0 0 127 0" result="hardAlpha"/>
<feOffset dy="1"/>
<feComposite in2="hardAlpha" operator="out"/>
<feColorMatrix type="matrix" values="0 0 0 0 0 0 0 0 0 0 0 0 0 0 0 0 0 0 0.3 0"/>
<feBlend mode="normal" in2="BackgroundImageFix" result="effect1_dropShadow_50_6004"/>
<feBlend mode="normal" in="SourceGraphic" in2="effect1_dropShadow_50_6004" result="shape"/>
</filter>
<filter id="filter27_d_50_6004" x="328" y="116" width="44" height="43" filterUnits="userSpaceOnUse" color-interpolation-filters="sRGB">
<feFlood flood-opacity="0" result="BackgroundImageFix"/>
<feColorMatrix in="SourceAlpha" type="matrix" values="0 0 0 0 0 0 0 0 0 0 0 0 0 0 0 0 0 0 127 0" result="hardAlpha"/>
<feOffset dy="1"/>
<feComposite in2="hardAlpha" operator="out"/>
<feColorMatrix type="matrix" values="0 0 0 0 0 0 0 0 0 0 0 0 0 0 0 0 0 0 0.3 0"/>
<feBlend mode="normal" in2="BackgroundImageFix" result="effect1_dropShadow_50_6004"/>
<feBlend mode="normal" in="SourceGraphic" in2="effect1_dropShadow_50_6004" result="shape"/>
</filter>
<filter id="filter28_d_50_6004" x="3" y="170" width="42" height="43" filterUnits="userSpaceOnUse" color-interpolation-filters="sRGB">
<feFlood flood-opacity="0" result="BackgroundImageFix"/>
<feColorMatrix in="SourceAlpha" type="matrix" values="0 0 0 0 0 0 0 0 0 0 0 0 0 0 0 0 0 0 127 0" result="hardAlpha"/>
<feOffset dy="1"/>
<feComposite in2="hardAlpha" operator="out"/>
<feColorMatrix type="matrix" values="0 0 0 0 0 0 0 0 0 0 0 0 0 0 0 0 0 0 0.3 0"/>
<feBlend mode="normal" in2="BackgroundImageFix" result="effect1_dropShadow_50_6004"/>
<feBlend mode="normal" in="SourceGraphic" in2="effect1_dropShadow_50_6004" result="shape"/>
</filter>
<filter id="filter29_d_50_6004" x="51" y="170" width="43" height="43" filterUnits="userSpaceOnUse" color-interpolation-filters="sRGB">
<feFlood flood-opacity="0" result="BackgroundImageFix"/>
<feColorMatrix in="SourceAlpha" type="matrix" values="0 0 0 0 0 0 0 0 0 0 0 0 0 0 0 0 0 0 127 0" result="hardAlpha"/>
<feOffset dy="1"/>
<feComposite in2="hardAlpha" operator="out"/>
<feColorMatrix type="matrix" values="0 0 0 0 0 0 0 0 0 0 0 0 0 0 0 0 0 0 0.3 0"/>
<feBlend mode="normal" in2="BackgroundImageFix" result="effect1_dropShadow_50_6004"/>
<feBlend mode="normal" in="SourceGraphic" in2="effect1_dropShadow_50_6004" result="shape"/>
</filter>
<filter id="filter30_d_50_6004" x="100" y="170" width="175" height="43" filterUnits="userSpaceOnUse" color-interpolation-filters="sRGB">
<feFlood flood-opacity="0" result="BackgroundImageFix"/>
<feColorMatrix in="SourceAlpha" type="matrix" values="0 0 0 0 0 0 0 0 0 0 0 0 0 0 0 0 0 0 127 0" result="hardAlpha"/>
<feOffset dy="1"/>
<feComposite in2="hardAlpha" operator="out"/>
<feColorMatrix type="matrix" values="0 0 0 0 0 0 0 0 0 0 0 0 0 0 0 0 0 0 0.3 0"/>
<feBlend mode="normal" in2="BackgroundImageFix" result="effect1_dropShadow_50_6004"/>
<feBlend mode="normal" in="SourceGraphic" in2="effect1_dropShadow_50_6004" result="shape"/>
</filter>
<filter id="filter31_d_50_6004" x="281" y="170" width="91" height="43" filterUnits="userSpaceOnUse" color-interpolation-filters="sRGB">
<feFlood flood-opacity="0" result="BackgroundImageFix"/>
<feColorMatrix in="SourceAlpha" type="matrix" values="0 0 0 0 0 0 0 0 0 0 0 0 0 0 0 0 0 0 127 0" result="hardAlpha"/>
<feOffset dy="1"/>
<feComposite in2="hardAlpha" operator="out"/>
<feColorMatrix type="matrix" values="0 0 0 0 0 0 0 0 0 0 0 0 0 0 0 0 0 0 0.3 0"/>
<feBlend mode="normal" in2="BackgroundImageFix" result="effect1_dropShadow_50_6004"/>
<feBlend mode="normal" in="SourceGraphic" in2="effect1_dropShadow_50_6004" result="shape"/>
</filter>
</defs>
</svg>
