<svg width="375" height="44" viewBox="0 0 375 44" fill="none" xmlns="http://www.w3.org/2000/svg">
<g clip-path="url(#clip0_50_6002)">
<path d="M96 -2H279C277.224 -1.39188 276.013 0.254866 275.961 2.13096L275.922 3.5618C275.922 17.0587 264.981 28 251.484 28H123.516C110.019 28 99.078 17.0587 99.078 3.5618L99.0385 2.13097C98.9868 0.254869 97.7756 -1.39188 96 -2Z" fill="black"/>
<path opacity="0.35" d="M338.667 17.8334H355.333C356.53 17.8334 357.5 18.8037 357.5 20.0004V26.0004C357.5 27.1968 356.53 28.1664 355.333 28.1664H338.667C337.47 28.1664 336.5 27.1968 336.5 26.0004V20.0004L336.511 19.7787C336.622 18.686 337.545 17.8334 338.667 17.8334Z" stroke="black"/>
<path opacity="0.4" d="M359 21V25C359.805 24.6612 360.328 23.8731 360.328 23C360.328 22.1269 359.805 21.3388 359 21Z" fill="black"/>
<path d="M338 20.6667C338 19.9303 338.597 19.3334 339.333 19.3334H354.667C355.403 19.3334 356 19.9303 356 20.6667V25.3334C356 26.0698 355.403 26.6667 354.667 26.6667H339.333C338.597 26.6667 338 26.0698 338 25.3334V20.6667Z" fill="black"/>
<path d="M321.121 25.7311C322.396 24.6522 324.265 24.6522 325.541 25.7311C325.605 25.7891 325.641 25.8712 325.643 25.9576C325.645 26.0441 325.611 26.1275 325.549 26.1881L323.552 28.2037C323.494 28.2629 323.414 28.2965 323.331 28.2965C323.247 28.2965 323.167 28.2629 323.109 28.2037L321.111 26.1881C321.049 26.1275 321.015 26.044 321.017 25.9576C321.019 25.8712 321.056 25.7891 321.121 25.7311ZM318.456 23.0416C321.204 20.4856 325.459 20.4856 328.208 23.0416C328.269 23.1015 328.305 23.184 328.306 23.2701C328.307 23.3563 328.273 23.4394 328.212 23.5006L327.058 24.6676C326.939 24.7867 326.747 24.7894 326.625 24.6735C325.722 23.8563 324.548 23.4039 323.331 23.4039C322.114 23.4044 320.94 23.8568 320.039 24.6735C319.917 24.7893 319.724 24.7867 319.605 24.6676L318.451 23.5006C318.39 23.4395 318.356 23.3562 318.357 23.2701C318.358 23.184 318.394 23.1015 318.456 23.0416ZM315.791 20.36C320.006 16.3208 326.656 16.3206 330.871 20.36C330.932 20.4199 330.966 20.5021 330.966 20.5875C330.967 20.6731 330.933 20.7553 330.873 20.816L329.716 21.983C329.597 22.1025 329.405 22.1038 329.284 21.986C327.678 20.4592 325.546 19.6082 323.331 19.608C321.114 19.608 318.983 20.4591 317.376 21.986C317.256 22.104 317.063 22.1027 316.944 21.983L315.788 20.816C315.727 20.7553 315.693 20.6731 315.694 20.5875C315.694 20.502 315.73 20.4199 315.791 20.36Z" fill="black"/>
<path d="M295.667 24.3336C296.219 24.3336 296.667 24.7813 296.667 25.3336V27.3336C296.667 27.8858 296.219 28.3336 295.667 28.3336H294.667C294.115 28.3336 293.667 27.8858 293.667 27.3336V25.3336C293.667 24.7813 294.114 24.3336 294.667 24.3336H295.667ZM300.334 22.3336C300.886 22.3338 301.334 22.7814 301.334 23.3336V27.3336C301.334 27.8856 300.886 28.3334 300.334 28.3336H299.334C298.782 28.3336 298.334 27.8858 298.334 27.3336V23.3336C298.334 22.7813 298.781 22.3336 299.334 22.3336H300.334ZM305 19.9996C305.552 19.9996 306 20.4475 306 20.9996V27.3336C306 27.8858 305.552 28.3336 305 28.3336H304C303.448 28.3334 303 27.8856 303 27.3336V20.9996C303 20.4476 303.448 19.9998 304 19.9996H305ZM309.667 17.6666C310.219 17.6666 310.667 18.1143 310.667 18.6666V27.3336C310.667 27.8858 310.219 28.3336 309.667 28.3336H308.667C308.115 28.3336 307.667 27.8858 307.667 27.3336V18.6666C307.667 18.1143 308.114 17.6666 308.667 17.6666H309.667Z" fill="black"/>
<path d="M37.3208 28.2563C40.0088 28.2563 41.6055 26.1543 41.6055 22.5947C41.6055 21.2544 41.3491 20.1265 40.8584 19.2549C40.1479 17.8999 38.9248 17.1675 37.3794 17.1675C35.0796 17.1675 33.4536 18.7129 33.4536 20.8809C33.4536 22.917 34.9185 24.3965 36.9326 24.3965C38.1704 24.3965 39.1738 23.8179 39.6719 22.8145H39.6938C39.6938 22.8145 39.7231 22.8145 39.7305 22.8145C39.7451 22.8145 39.7964 22.8145 39.7964 22.8145C39.7964 25.2314 38.8809 26.6743 37.3354 26.6743C36.4272 26.6743 35.7241 26.1763 35.4824 25.3779H33.6001C33.915 27.1138 35.3872 28.2563 37.3208 28.2563ZM37.3867 22.895C36.1709 22.895 35.3066 22.0308 35.3066 20.8223C35.3066 19.6431 36.2148 18.7422 37.394 18.7422C38.5732 18.7422 39.4814 19.6577 39.4814 20.8516C39.4814 22.0308 38.5952 22.895 37.3867 22.895Z" fill="black"/>
<path d="M44.6966 28.1538C45.3924 28.1538 45.8685 27.6558 45.8685 26.9966C45.8685 26.3301 45.3924 25.8394 44.6966 25.8394C44.0081 25.8394 43.5247 26.3301 43.5247 26.9966C43.5247 27.6558 44.0081 28.1538 44.6966 28.1538ZM44.6966 22.6606C45.3924 22.6606 45.8685 22.1699 45.8685 21.5107C45.8685 20.8442 45.3924 20.3535 44.6966 20.3535C44.0081 20.3535 43.5247 20.8442 43.5247 21.5107C43.5247 22.1699 44.0081 22.6606 44.6966 22.6606Z" fill="black"/>
<path d="M52.7242 28H54.5333V26.0298H55.9615V24.4331H54.5333V17.4312H51.8673C49.9996 20.2437 48.5128 22.5947 47.5606 24.3452V26.0298H52.7242V28ZM49.3111 24.3672C50.5416 22.1992 51.6402 20.4634 52.651 18.9692H52.7535V24.4771H49.3111V24.3672Z" fill="black"/>
<path d="M59.9901 28H61.8798V17.4312H59.9975L57.2362 19.3647V21.1812L59.8656 19.3354H59.9901V28Z" fill="black"/>
</g>
<defs>
<clipPath id="clip0_50_6002">
<rect width="375" height="44" fill="white"/>
</clipPath>
</defs>
</svg>
