<svg width="16" height="16" viewBox="0 0 16 16" fill="none" xmlns="http://www.w3.org/2000/svg">
<path d="M3.37295 8.75005L8.5422 13.9193C8.69087 14.068 8.76429 14.242 8.76245 14.4413C8.76045 14.6406 8.68195 14.8179 8.52695 14.9731C8.37179 15.1179 8.19612 15.1929 7.99995 15.1981C7.80379 15.2032 7.62812 15.1282 7.47295 14.9731L1.1327 8.6328C1.03904 8.53914 0.973036 8.44039 0.934703 8.33655C0.896203 8.23272 0.876953 8.12055 0.876953 8.00005C0.876953 7.87955 0.896203 7.76739 0.934703 7.66355C0.973036 7.55972 1.03904 7.46097 1.1327 7.3673L7.47295 1.02705C7.61145 0.888555 7.78295 0.817721 7.98745 0.814555C8.19195 0.811388 8.37179 0.882221 8.52695 1.02705C8.68195 1.18222 8.75945 1.36039 8.75945 1.56155C8.75945 1.76289 8.68195 1.94114 8.52695 2.0963L3.37295 7.25005H14.75C14.9628 7.25005 15.141 7.32189 15.2845 7.46555C15.4281 7.60905 15.5 7.78722 15.5 8.00005C15.5 8.21289 15.4281 8.39105 15.2845 8.53455C15.141 8.67822 14.9628 8.75005 14.75 8.75005H3.37295Z" fill="#1F1F1F"/>
</svg>
