<svg width="37" height="36" viewBox="0 0 37 36" fill="none" xmlns="http://www.w3.org/2000/svg">
<rect x="0.5" width="36" height="36" rx="18" fill="#F41E14"/>
<g clip-path="url(#clip0_108_1283)">
<path d="M20.0485 26.8899C19.9071 27.2199 19.6625 27.4232 19.3149 27.4998C18.9672 27.5764 18.6638 27.485 18.4045 27.2258L15.2225 24.0438L19.4651 16.9727L12.3941 21.2154L9.21209 18.0334C8.95282 17.7741 8.86149 17.4706 8.93809 17.123C9.01469 16.7753 9.21799 16.5308 9.54797 16.3894L25.0336 10.0961C25.4579 9.93112 25.8232 10.0018 26.1296 10.3082C26.436 10.6147 26.5067 10.98 26.3418 11.4043L20.0485 26.8899Z" fill="#F9F9F9"/>
</g>
<defs>
<clipPath id="clip0_108_1283">
<rect width="24" height="24" fill="white" transform="translate(6.5 6)"/>
</clipPath>
</defs>
</svg>
