<svg width="40" height="40" viewBox="0 0 40 40" fill="none" xmlns="http://www.w3.org/2000/svg">
<rect width="40" height="40" rx="10.9091" fill="#9C9C9C"/>
<g clip-path="url(#clip0_87_63779)">
<path d="M20 20C24.0166 20 27.2727 16.7439 27.2727 12.7273C27.2727 8.71067 24.0166 5.45456 20 5.45456C15.9834 5.45456 12.7273 8.71067 12.7273 12.7273C12.7273 16.7439 15.9834 20 20 20Z" fill="white"/>
<path d="M20.0002 22.4231C13.978 22.4298 9.09777 27.3101 9.09106 33.3322C9.09106 34.0016 9.63373 34.5443 10.3032 34.5443H29.6971C30.3665 34.5443 30.9092 34.0016 30.9092 33.3322C30.9025 27.3101 26.0223 22.4298 20.0002 22.4231Z" fill="white"/>
</g>
<defs>
<clipPath id="clip0_87_63779">
<rect width="29.0909" height="29.0909" fill="white" transform="translate(5.45459 5.45456)"/>
</clipPath>
</defs>
</svg>
