<svg width="24" height="24" viewBox="0 0 24 24" fill="none" xmlns="http://www.w3.org/2000/svg">
<path d="M15.3333 11.3333H12.6667V8.66667C12.6667 8.48986 12.5964 8.32029 12.4714 8.19526C12.3464 8.07024 12.1768 8 12 8C11.8232 8 11.6536 8.07024 11.5286 8.19526C11.4036 8.32029 11.3333 8.48986 11.3333 8.66667V11.3333H8.66667C8.48986 11.3333 8.32029 11.4036 8.19526 11.5286C8.07024 11.6536 8 11.8232 8 12C8 12.1768 8.07024 12.3464 8.19526 12.4714C8.32029 12.5964 8.48986 12.6667 8.66667 12.6667H11.3333V15.3333C11.3333 15.5101 11.4036 15.6797 11.5286 15.8047C11.6536 15.9298 11.8232 16 12 16C12.1768 16 12.3464 15.9298 12.4714 15.8047C12.5964 15.6797 12.6667 15.5101 12.6667 15.3333V12.6667H15.3333C15.5101 12.6667 15.6797 12.5964 15.8047 12.4714C15.9298 12.3464 16 12.1768 16 12C16 11.8232 15.9298 11.6536 15.8047 11.5286C15.6797 11.4036 15.5101 11.3333 15.3333 11.3333Z" fill="black"/>
<path d="M15.3333 11.3333H12.6667V8.66667C12.6667 8.48986 12.5964 8.32029 12.4714 8.19526C12.3464 8.07024 12.1768 8 12 8C11.8232 8 11.6536 8.07024 11.5286 8.19526C11.4036 8.32029 11.3333 8.48986 11.3333 8.66667V11.3333H8.66667C8.48986 11.3333 8.32029 11.4036 8.19526 11.5286C8.07024 11.6536 8 11.8232 8 12C8 12.1768 8.07024 12.3464 8.19526 12.4714C8.32029 12.5964 8.48986 12.6667 8.66667 12.6667H11.3333V15.3333C11.3333 15.5101 11.4036 15.6797 11.5286 15.8047C11.6536 15.9298 11.8232 16 12 16C12.1768 16 12.3464 15.9298 12.4714 15.8047C12.5964 15.6797 12.6667 15.5101 12.6667 15.3333V12.6667H15.3333C15.5101 12.6667 15.6797 12.5964 15.8047 12.4714C15.9298 12.3464 16 12.1768 16 12C16 11.8232 15.9298 11.6536 15.8047 11.5286C15.6797 11.4036 15.5101 11.3333 15.3333 11.3333Z" fill="black" fill-opacity="0.2"/>
<path d="M15.3333 11.3333H12.6667V8.66667C12.6667 8.48986 12.5964 8.32029 12.4714 8.19526C12.3464 8.07024 12.1768 8 12 8C11.8232 8 11.6536 8.07024 11.5286 8.19526C11.4036 8.32029 11.3333 8.48986 11.3333 8.66667V11.3333H8.66667C8.48986 11.3333 8.32029 11.4036 8.19526 11.5286C8.07024 11.6536 8 11.8232 8 12C8 12.1768 8.07024 12.3464 8.19526 12.4714C8.32029 12.5964 8.48986 12.6667 8.66667 12.6667H11.3333V15.3333C11.3333 15.5101 11.4036 15.6797 11.5286 15.8047C11.6536 15.9298 11.8232 16 12 16C12.1768 16 12.3464 15.9298 12.4714 15.8047C12.5964 15.6797 12.6667 15.5101 12.6667 15.3333V12.6667H15.3333C15.5101 12.6667 15.6797 12.5964 15.8047 12.4714C15.9298 12.3464 16 12.1768 16 12C16 11.8232 15.9298 11.6536 15.8047 11.5286C15.6797 11.4036 15.5101 11.3333 15.3333 11.3333Z" fill="black" fill-opacity="0.2"/>
<path d="M15.3333 11.3333H12.6667V8.66667C12.6667 8.48986 12.5964 8.32029 12.4714 8.19526C12.3464 8.07024 12.1768 8 12 8C11.8232 8 11.6536 8.07024 11.5286 8.19526C11.4036 8.32029 11.3333 8.48986 11.3333 8.66667V11.3333H8.66667C8.48986 11.3333 8.32029 11.4036 8.19526 11.5286C8.07024 11.6536 8 11.8232 8 12C8 12.1768 8.07024 12.3464 8.19526 12.4714C8.32029 12.5964 8.48986 12.6667 8.66667 12.6667H11.3333V15.3333C11.3333 15.5101 11.4036 15.6797 11.5286 15.8047C11.6536 15.9298 11.8232 16 12 16C12.1768 16 12.3464 15.9298 12.4714 15.8047C12.5964 15.6797 12.6667 15.5101 12.6667 15.3333V12.6667H15.3333C15.5101 12.6667 15.6797 12.5964 15.8047 12.4714C15.9298 12.3464 16 12.1768 16 12C16 11.8232 15.9298 11.6536 15.8047 11.5286C15.6797 11.4036 15.5101 11.3333 15.3333 11.3333Z" fill="black" fill-opacity="0.2"/>
<path fill-rule="evenodd" clip-rule="evenodd" d="M10.9744 4.50037C6.86763 4.50037 3.53846 7.7471 3.53846 11.7521C3.53846 13.5158 4.18307 15.1307 5.25587 16.3878C5.42357 16.5843 5.4771 16.8506 5.39789 17.0944L4.64051 19.4247L7.72106 18.4783C7.88963 18.4265 8.07135 18.4329 8.23565 18.4964C9.08219 18.8237 10.0057 19.0039 10.9744 19.0039H13.0256C17.1324 19.0039 20.4615 15.7572 20.4615 11.7521C20.4615 7.7471 17.1324 4.50037 13.0256 4.50037H10.9744ZM2 11.7521C2 6.91847 6.01796 3 10.9744 3H13.0256C17.9821 3 22 6.91847 22 11.7521C22 16.5858 17.9821 20.5043 13.0256 20.5043H10.9744C9.90664 20.5043 8.88099 20.3221 7.92931 19.9874L4.63227 21.0003C3.64221 21.3045 2.71128 20.3951 3.0249 19.43L3.52626 19.5851L3.0249 19.43L3.80785 17.021C2.67329 15.5554 2 13.7296 2 11.7521Z" fill="black"/>
<path fill-rule="evenodd" clip-rule="evenodd" d="M10.9744 4.50037C6.86763 4.50037 3.53846 7.7471 3.53846 11.7521C3.53846 13.5158 4.18307 15.1307 5.25587 16.3878C5.42357 16.5843 5.4771 16.8506 5.39789 17.0944L4.64051 19.4247L7.72106 18.4783C7.88963 18.4265 8.07135 18.4329 8.23565 18.4964C9.08219 18.8237 10.0057 19.0039 10.9744 19.0039H13.0256C17.1324 19.0039 20.4615 15.7572 20.4615 11.7521C20.4615 7.7471 17.1324 4.50037 13.0256 4.50037H10.9744ZM2 11.7521C2 6.91847 6.01796 3 10.9744 3H13.0256C17.9821 3 22 6.91847 22 11.7521C22 16.5858 17.9821 20.5043 13.0256 20.5043H10.9744C9.90664 20.5043 8.88099 20.3221 7.92931 19.9874L4.63227 21.0003C3.64221 21.3045 2.71128 20.3951 3.0249 19.43L3.52626 19.5851L3.0249 19.43L3.80785 17.021C2.67329 15.5554 2 13.7296 2 11.7521Z" fill="black" fill-opacity="0.2"/>
<path fill-rule="evenodd" clip-rule="evenodd" d="M10.9744 4.50037C6.86763 4.50037 3.53846 7.7471 3.53846 11.7521C3.53846 13.5158 4.18307 15.1307 5.25587 16.3878C5.42357 16.5843 5.4771 16.8506 5.39789 17.0944L4.64051 19.4247L7.72106 18.4783C7.88963 18.4265 8.07135 18.4329 8.23565 18.4964C9.08219 18.8237 10.0057 19.0039 10.9744 19.0039H13.0256C17.1324 19.0039 20.4615 15.7572 20.4615 11.7521C20.4615 7.7471 17.1324 4.50037 13.0256 4.50037H10.9744ZM2 11.7521C2 6.91847 6.01796 3 10.9744 3H13.0256C17.9821 3 22 6.91847 22 11.7521C22 16.5858 17.9821 20.5043 13.0256 20.5043H10.9744C9.90664 20.5043 8.88099 20.3221 7.92931 19.9874L4.63227 21.0003C3.64221 21.3045 2.71128 20.3951 3.0249 19.43L3.52626 19.5851L3.0249 19.43L3.80785 17.021C2.67329 15.5554 2 13.7296 2 11.7521Z" fill="black" fill-opacity="0.2"/>
<path fill-rule="evenodd" clip-rule="evenodd" d="M10.9744 4.50037C6.86763 4.50037 3.53846 7.7471 3.53846 11.7521C3.53846 13.5158 4.18307 15.1307 5.25587 16.3878C5.42357 16.5843 5.4771 16.8506 5.39789 17.0944L4.64051 19.4247L7.72106 18.4783C7.88963 18.4265 8.07135 18.4329 8.23565 18.4964C9.08219 18.8237 10.0057 19.0039 10.9744 19.0039H13.0256C17.1324 19.0039 20.4615 15.7572 20.4615 11.7521C20.4615 7.7471 17.1324 4.50037 13.0256 4.50037H10.9744ZM2 11.7521C2 6.91847 6.01796 3 10.9744 3H13.0256C17.9821 3 22 6.91847 22 11.7521C22 16.5858 17.9821 20.5043 13.0256 20.5043H10.9744C9.90664 20.5043 8.88099 20.3221 7.92931 19.9874L4.63227 21.0003C3.64221 21.3045 2.71128 20.3951 3.0249 19.43L3.52626 19.5851L3.0249 19.43L3.80785 17.021C2.67329 15.5554 2 13.7296 2 11.7521Z" fill="black" fill-opacity="0.2"/>
</svg>
