<svg width="16" height="16" viewBox="0 0 16 16" fill="none" xmlns="http://www.w3.org/2000/svg">
<path d="M11.9995 10.3797C11.9117 10.3802 11.8248 10.3634 11.7435 10.3302C11.6623 10.2971 11.5884 10.2482 11.5261 10.1864L8.47281 7.12641C8.41083 7.06392 8.3371 7.01432 8.25586 6.98048C8.17462 6.94663 8.08748 6.92921 7.99947 6.92921C7.91146 6.92921 7.82433 6.94663 7.74309 6.98048C7.66185 7.01432 7.58811 7.06392 7.52614 7.12641L4.47281 10.1864C4.34727 10.3119 4.17701 10.3825 3.99947 10.3825C3.82194 10.3825 3.65168 10.3119 3.52614 10.1864C3.4006 10.0609 3.33008 9.8906 3.33008 9.71307C3.33008 9.62516 3.34739 9.53812 3.38103 9.4569C3.41467 9.37569 3.46398 9.30189 3.52614 9.23973L6.58614 6.18641C6.9661 5.82136 7.47257 5.61749 7.99947 5.61749C8.52638 5.61749 9.03285 5.82136 9.41281 6.18641L12.4728 9.23973C12.5353 9.30171 12.5849 9.37544 12.6187 9.45668C12.6526 9.53792 12.67 9.62506 12.67 9.71307C12.67 9.80107 12.6526 9.88821 12.6187 9.96945C12.5849 10.0507 12.5353 10.1244 12.4728 10.1864C12.4105 10.2482 12.3366 10.2971 12.2554 10.3302C12.1742 10.3634 12.0872 10.3802 11.9995 10.3797Z" fill="#D5D5D5"/>
</svg>
