<svg width="24" height="24" viewBox="0 0 24 24" fill="none" xmlns="http://www.w3.org/2000/svg">
<g clip-path="url(#clip0_87_63620)">
<path d="M18.6667 7.83333H17.2183C17.6895 7.418 18.0635 6.90407 18.3138 6.328C18.5641 5.75193 18.6846 5.12784 18.6667 4.5C18.6667 4.27899 18.5789 4.06702 18.4226 3.91074C18.2663 3.75446 18.0543 3.66667 17.8333 3.66667C17.6123 3.66667 17.4004 3.75446 17.2441 3.91074C17.0878 4.06702 17 4.27899 17 4.5C17 6.685 15.0242 7.44167 13.5217 7.70083C14.0762 6.71755 14.4101 5.62531 14.5 4.5C14.5 3.83696 14.2366 3.20107 13.7678 2.73223C13.2989 2.26339 12.663 2 12 2C11.337 2 10.7011 2.26339 10.2322 2.73223C9.76339 3.20107 9.5 3.83696 9.5 4.5C9.58992 5.62531 9.92376 6.71755 10.4783 7.70083C8.97583 7.44167 7 6.685 7 4.5C7 4.27899 6.9122 4.06702 6.75592 3.91074C6.59964 3.75446 6.38768 3.66667 6.16667 3.66667C5.94565 3.66667 5.73369 3.75446 5.57741 3.91074C5.42113 4.06702 5.33333 4.27899 5.33333 4.5C5.31543 5.12784 5.4359 5.75193 5.6862 6.328C5.9365 6.90407 6.3105 7.418 6.78167 7.83333H5.33333C4.44928 7.83333 3.60143 8.18452 2.97631 8.80964C2.35119 9.43476 2 10.2826 2 11.1667L2 12C2 12.442 2.17559 12.8659 2.48816 13.1785C2.80072 13.4911 3.22464 13.6667 3.66667 13.6667V17.8333C3.66799 18.938 4.1074 19.997 4.88852 20.7782C5.66963 21.5593 6.72867 21.9987 7.83333 22H16.1667C17.2713 21.9987 18.3304 21.5593 19.1115 20.7782C19.8926 19.997 20.332 18.938 20.3333 17.8333V13.6667C20.7754 13.6667 21.1993 13.4911 21.5118 13.1785C21.8244 12.8659 22 12.442 22 12V11.1667C22 10.2826 21.6488 9.43476 21.0237 8.80964C20.3986 8.18452 19.5507 7.83333 18.6667 7.83333ZM12 3.66667C12.221 3.66667 12.433 3.75446 12.5893 3.91074C12.7455 4.06702 12.8333 4.27899 12.8333 4.5C12.7327 5.38569 12.4489 6.24076 12 7.01083C11.5511 6.24076 11.2673 5.38569 11.1667 4.5C11.1667 4.27899 11.2545 4.06702 11.4107 3.91074C11.567 3.75446 11.779 3.66667 12 3.66667ZM3.66667 11.1667C3.66667 10.7246 3.84226 10.3007 4.15482 9.98816C4.46738 9.67559 4.89131 9.5 5.33333 9.5H11.1667V12H3.66667V11.1667ZM5.33333 17.8333V13.6667H11.1667V20.3333H7.83333C7.17029 20.3333 6.53441 20.0699 6.06557 19.6011C5.59673 19.1323 5.33333 18.4964 5.33333 17.8333ZM18.6667 17.8333C18.6667 18.4964 18.4033 19.1323 17.9344 19.6011C17.4656 20.0699 16.8297 20.3333 16.1667 20.3333H12.8333V13.6667H18.6667V17.8333ZM12.8333 12V9.5H18.6667C19.1087 9.5 19.5326 9.67559 19.8452 9.98816C20.1577 10.3007 20.3333 10.7246 20.3333 11.1667V12H12.8333Z" fill="black"/>
<path d="M18.6667 7.83333H17.2183C17.6895 7.418 18.0635 6.90407 18.3138 6.328C18.5641 5.75193 18.6846 5.12784 18.6667 4.5C18.6667 4.27899 18.5789 4.06702 18.4226 3.91074C18.2663 3.75446 18.0543 3.66667 17.8333 3.66667C17.6123 3.66667 17.4004 3.75446 17.2441 3.91074C17.0878 4.06702 17 4.27899 17 4.5C17 6.685 15.0242 7.44167 13.5217 7.70083C14.0762 6.71755 14.4101 5.62531 14.5 4.5C14.5 3.83696 14.2366 3.20107 13.7678 2.73223C13.2989 2.26339 12.663 2 12 2C11.337 2 10.7011 2.26339 10.2322 2.73223C9.76339 3.20107 9.5 3.83696 9.5 4.5C9.58992 5.62531 9.92376 6.71755 10.4783 7.70083C8.97583 7.44167 7 6.685 7 4.5C7 4.27899 6.9122 4.06702 6.75592 3.91074C6.59964 3.75446 6.38768 3.66667 6.16667 3.66667C5.94565 3.66667 5.73369 3.75446 5.57741 3.91074C5.42113 4.06702 5.33333 4.27899 5.33333 4.5C5.31543 5.12784 5.4359 5.75193 5.6862 6.328C5.9365 6.90407 6.3105 7.418 6.78167 7.83333H5.33333C4.44928 7.83333 3.60143 8.18452 2.97631 8.80964C2.35119 9.43476 2 10.2826 2 11.1667L2 12C2 12.442 2.17559 12.8659 2.48816 13.1785C2.80072 13.4911 3.22464 13.6667 3.66667 13.6667V17.8333C3.66799 18.938 4.1074 19.997 4.88852 20.7782C5.66963 21.5593 6.72867 21.9987 7.83333 22H16.1667C17.2713 21.9987 18.3304 21.5593 19.1115 20.7782C19.8926 19.997 20.332 18.938 20.3333 17.8333V13.6667C20.7754 13.6667 21.1993 13.4911 21.5118 13.1785C21.8244 12.8659 22 12.442 22 12V11.1667C22 10.2826 21.6488 9.43476 21.0237 8.80964C20.3986 8.18452 19.5507 7.83333 18.6667 7.83333ZM12 3.66667C12.221 3.66667 12.433 3.75446 12.5893 3.91074C12.7455 4.06702 12.8333 4.27899 12.8333 4.5C12.7327 5.38569 12.4489 6.24076 12 7.01083C11.5511 6.24076 11.2673 5.38569 11.1667 4.5C11.1667 4.27899 11.2545 4.06702 11.4107 3.91074C11.567 3.75446 11.779 3.66667 12 3.66667ZM3.66667 11.1667C3.66667 10.7246 3.84226 10.3007 4.15482 9.98816C4.46738 9.67559 4.89131 9.5 5.33333 9.5H11.1667V12H3.66667V11.1667ZM5.33333 17.8333V13.6667H11.1667V20.3333H7.83333C7.17029 20.3333 6.53441 20.0699 6.06557 19.6011C5.59673 19.1323 5.33333 18.4964 5.33333 17.8333ZM18.6667 17.8333C18.6667 18.4964 18.4033 19.1323 17.9344 19.6011C17.4656 20.0699 16.8297 20.3333 16.1667 20.3333H12.8333V13.6667H18.6667V17.8333ZM12.8333 12V9.5H18.6667C19.1087 9.5 19.5326 9.67559 19.8452 9.98816C20.1577 10.3007 20.3333 10.7246 20.3333 11.1667V12H12.8333Z" fill="black" fill-opacity="0.2"/>
<path d="M18.6667 7.83333H17.2183C17.6895 7.418 18.0635 6.90407 18.3138 6.328C18.5641 5.75193 18.6846 5.12784 18.6667 4.5C18.6667 4.27899 18.5789 4.06702 18.4226 3.91074C18.2663 3.75446 18.0543 3.66667 17.8333 3.66667C17.6123 3.66667 17.4004 3.75446 17.2441 3.91074C17.0878 4.06702 17 4.27899 17 4.5C17 6.685 15.0242 7.44167 13.5217 7.70083C14.0762 6.71755 14.4101 5.62531 14.5 4.5C14.5 3.83696 14.2366 3.20107 13.7678 2.73223C13.2989 2.26339 12.663 2 12 2C11.337 2 10.7011 2.26339 10.2322 2.73223C9.76339 3.20107 9.5 3.83696 9.5 4.5C9.58992 5.62531 9.92376 6.71755 10.4783 7.70083C8.97583 7.44167 7 6.685 7 4.5C7 4.27899 6.9122 4.06702 6.75592 3.91074C6.59964 3.75446 6.38768 3.66667 6.16667 3.66667C5.94565 3.66667 5.73369 3.75446 5.57741 3.91074C5.42113 4.06702 5.33333 4.27899 5.33333 4.5C5.31543 5.12784 5.4359 5.75193 5.6862 6.328C5.9365 6.90407 6.3105 7.418 6.78167 7.83333H5.33333C4.44928 7.83333 3.60143 8.18452 2.97631 8.80964C2.35119 9.43476 2 10.2826 2 11.1667L2 12C2 12.442 2.17559 12.8659 2.48816 13.1785C2.80072 13.4911 3.22464 13.6667 3.66667 13.6667V17.8333C3.66799 18.938 4.1074 19.997 4.88852 20.7782C5.66963 21.5593 6.72867 21.9987 7.83333 22H16.1667C17.2713 21.9987 18.3304 21.5593 19.1115 20.7782C19.8926 19.997 20.332 18.938 20.3333 17.8333V13.6667C20.7754 13.6667 21.1993 13.4911 21.5118 13.1785C21.8244 12.8659 22 12.442 22 12V11.1667C22 10.2826 21.6488 9.43476 21.0237 8.80964C20.3986 8.18452 19.5507 7.83333 18.6667 7.83333ZM12 3.66667C12.221 3.66667 12.433 3.75446 12.5893 3.91074C12.7455 4.06702 12.8333 4.27899 12.8333 4.5C12.7327 5.38569 12.4489 6.24076 12 7.01083C11.5511 6.24076 11.2673 5.38569 11.1667 4.5C11.1667 4.27899 11.2545 4.06702 11.4107 3.91074C11.567 3.75446 11.779 3.66667 12 3.66667ZM3.66667 11.1667C3.66667 10.7246 3.84226 10.3007 4.15482 9.98816C4.46738 9.67559 4.89131 9.5 5.33333 9.5H11.1667V12H3.66667V11.1667ZM5.33333 17.8333V13.6667H11.1667V20.3333H7.83333C7.17029 20.3333 6.53441 20.0699 6.06557 19.6011C5.59673 19.1323 5.33333 18.4964 5.33333 17.8333ZM18.6667 17.8333C18.6667 18.4964 18.4033 19.1323 17.9344 19.6011C17.4656 20.0699 16.8297 20.3333 16.1667 20.3333H12.8333V13.6667H18.6667V17.8333ZM12.8333 12V9.5H18.6667C19.1087 9.5 19.5326 9.67559 19.8452 9.98816C20.1577 10.3007 20.3333 10.7246 20.3333 11.1667V12H12.8333Z" fill="black" fill-opacity="0.2"/>
<path d="M18.6667 7.83333H17.2183C17.6895 7.418 18.0635 6.90407 18.3138 6.328C18.5641 5.75193 18.6846 5.12784 18.6667 4.5C18.6667 4.27899 18.5789 4.06702 18.4226 3.91074C18.2663 3.75446 18.0543 3.66667 17.8333 3.66667C17.6123 3.66667 17.4004 3.75446 17.2441 3.91074C17.0878 4.06702 17 4.27899 17 4.5C17 6.685 15.0242 7.44167 13.5217 7.70083C14.0762 6.71755 14.4101 5.62531 14.5 4.5C14.5 3.83696 14.2366 3.20107 13.7678 2.73223C13.2989 2.26339 12.663 2 12 2C11.337 2 10.7011 2.26339 10.2322 2.73223C9.76339 3.20107 9.5 3.83696 9.5 4.5C9.58992 5.62531 9.92376 6.71755 10.4783 7.70083C8.97583 7.44167 7 6.685 7 4.5C7 4.27899 6.9122 4.06702 6.75592 3.91074C6.59964 3.75446 6.38768 3.66667 6.16667 3.66667C5.94565 3.66667 5.73369 3.75446 5.57741 3.91074C5.42113 4.06702 5.33333 4.27899 5.33333 4.5C5.31543 5.12784 5.4359 5.75193 5.6862 6.328C5.9365 6.90407 6.3105 7.418 6.78167 7.83333H5.33333C4.44928 7.83333 3.60143 8.18452 2.97631 8.80964C2.35119 9.43476 2 10.2826 2 11.1667L2 12C2 12.442 2.17559 12.8659 2.48816 13.1785C2.80072 13.4911 3.22464 13.6667 3.66667 13.6667V17.8333C3.66799 18.938 4.1074 19.997 4.88852 20.7782C5.66963 21.5593 6.72867 21.9987 7.83333 22H16.1667C17.2713 21.9987 18.3304 21.5593 19.1115 20.7782C19.8926 19.997 20.332 18.938 20.3333 17.8333V13.6667C20.7754 13.6667 21.1993 13.4911 21.5118 13.1785C21.8244 12.8659 22 12.442 22 12V11.1667C22 10.2826 21.6488 9.43476 21.0237 8.80964C20.3986 8.18452 19.5507 7.83333 18.6667 7.83333ZM12 3.66667C12.221 3.66667 12.433 3.75446 12.5893 3.91074C12.7455 4.06702 12.8333 4.27899 12.8333 4.5C12.7327 5.38569 12.4489 6.24076 12 7.01083C11.5511 6.24076 11.2673 5.38569 11.1667 4.5C11.1667 4.27899 11.2545 4.06702 11.4107 3.91074C11.567 3.75446 11.779 3.66667 12 3.66667ZM3.66667 11.1667C3.66667 10.7246 3.84226 10.3007 4.15482 9.98816C4.46738 9.67559 4.89131 9.5 5.33333 9.5H11.1667V12H3.66667V11.1667ZM5.33333 17.8333V13.6667H11.1667V20.3333H7.83333C7.17029 20.3333 6.53441 20.0699 6.06557 19.6011C5.59673 19.1323 5.33333 18.4964 5.33333 17.8333ZM18.6667 17.8333C18.6667 18.4964 18.4033 19.1323 17.9344 19.6011C17.4656 20.0699 16.8297 20.3333 16.1667 20.3333H12.8333V13.6667H18.6667V17.8333ZM12.8333 12V9.5H18.6667C19.1087 9.5 19.5326 9.67559 19.8452 9.98816C20.1577 10.3007 20.3333 10.7246 20.3333 11.1667V12H12.8333Z" fill="black" fill-opacity="0.2"/>
</g>
<defs>
<clipPath id="clip0_87_63620">
<rect width="20" height="20" fill="white" transform="translate(2 2)"/>
</clipPath>
</defs>
</svg>
