<svg width="64" height="40" viewBox="0 0 64 40" fill="none" xmlns="http://www.w3.org/2000/svg">
<rect width="40" height="40" rx="10.9091" fill="#FFDD00"/>
<g clip-path="url(#clip0_87_63758)">
<path d="M20 20C24.0166 20 27.2727 16.7439 27.2727 12.7273C27.2727 8.71067 24.0166 5.45456 20 5.45456C15.9834 5.45456 12.7273 8.71067 12.7273 12.7273C12.7273 16.7439 15.9834 20 20 20Z" fill="white"/>
<path d="M20 22.4232C13.9779 22.4299 9.09765 27.3101 9.09094 33.3323C9.09094 34.0017 9.63361 34.5444 10.303 34.5444H29.697C30.3664 34.5444 30.9091 34.0017 30.9091 33.3323C30.9024 27.3101 26.0222 22.4299 20 22.4232Z" fill="white"/>
</g>
<path d="M55.3998 17.88L50.8098 13.29C50.6224 13.1037 50.369 12.9992 50.1048 12.9992C49.8406 12.9992 49.5872 13.1037 49.3998 13.29C49.3061 13.383 49.2317 13.4936 49.1809 13.6154C49.1301 13.7373 49.104 13.868 49.104 14C49.104 14.132 49.1301 14.2627 49.1809 14.3846C49.2317 14.5064 49.3061 14.617 49.3998 14.71L53.9998 19.29C54.0935 19.383 54.1679 19.4936 54.2187 19.6154C54.2695 19.7373 54.2956 19.868 54.2956 20C54.2956 20.132 54.2695 20.2627 54.2187 20.3846C54.1679 20.5064 54.0935 20.617 53.9998 20.71L49.3998 25.29C49.2115 25.477 49.1052 25.7311 49.1042 25.9965C49.1033 26.2618 49.2078 26.5167 49.3948 26.705C49.5818 26.8933 49.8359 26.9996 50.1013 27.0006C50.3666 27.0015 50.6215 26.897 50.8098 26.71L55.3998 22.12C55.9616 21.5575 56.2772 20.795 56.2772 20C56.2772 19.205 55.9616 18.4425 55.3998 17.88Z" fill="#222222"/>
<defs>
<clipPath id="clip0_87_63758">
<rect width="29.0909" height="29.0909" fill="white" transform="translate(5.45459 5.45456)"/>
</clipPath>
</defs>
</svg>
