<svg width="183" height="28" viewBox="0 0 183 28" fill="none" xmlns="http://www.w3.org/2000/svg">
<path d="M0 -2H183C181.224 -1.39188 180.013 0.254866 179.961 2.13096L179.922 3.5618C179.922 17.0587 168.981 28 155.484 28H27.5162C14.0193 28 3.07798 17.0587 3.07798 3.5618L3.03854 2.13097C2.98683 0.254869 1.77556 -1.39188 0 -2Z" fill="black"/>
<path d="M0 -2H183C181.224 -1.39188 180.013 0.254866 179.961 2.13096L179.922 3.5618C179.922 17.0587 168.981 28 155.484 28H27.5162C14.0193 28 3.07798 17.0587 3.07798 3.5618L3.03854 2.13097C2.98683 0.254869 1.77556 -1.39188 0 -2Z" fill="black" fill-opacity="0.2"/>
<path d="M0 -2H183C181.224 -1.39188 180.013 0.254866 179.961 2.13096L179.922 3.5618C179.922 17.0587 168.981 28 155.484 28H27.5162C14.0193 28 3.07798 17.0587 3.07798 3.5618L3.03854 2.13097C2.98683 0.254869 1.77556 -1.39188 0 -2Z" fill="black" fill-opacity="0.2"/>
<path d="M0 -2H183C181.224 -1.39188 180.013 0.254866 179.961 2.13096L179.922 3.5618C179.922 17.0587 168.981 28 155.484 28H27.5162C14.0193 28 3.07798 17.0587 3.07798 3.5618L3.03854 2.13097C2.98683 0.254869 1.77556 -1.39188 0 -2Z" fill="black" fill-opacity="0.2"/>
</svg>
