<svg width="24" height="24" viewBox="0 0 24 24" fill="none" xmlns="http://www.w3.org/2000/svg">
<g clip-path="url(#clip0_87_63603)">
<path d="M19.3332 11.3337H17.9998V10.0004C17.9998 9.82359 17.9296 9.65403 17.8046 9.529C17.6795 9.40398 17.51 9.33374 17.3332 9.33374C17.1564 9.33374 16.9868 9.40398 16.8618 9.529C16.7367 9.65403 16.6665 9.82359 16.6665 10.0004V11.3337H15.3332C15.1564 11.3337 14.9868 11.404 14.8618 11.529C14.7367 11.654 14.6665 11.8236 14.6665 12.0004C14.6665 12.1772 14.7367 12.3468 14.8618 12.4718C14.9868 12.5968 15.1564 12.6671 15.3332 12.6671H16.6665V14.0004C16.6665 14.1772 16.7367 14.3468 16.8618 14.4718C16.9868 14.5968 17.1564 14.6671 17.3332 14.6671C17.51 14.6671 17.6795 14.5968 17.8046 14.4718C17.9296 14.3468 17.9998 14.1772 17.9998 14.0004V12.6671H19.3332C19.51 12.6671 19.6795 12.5968 19.8046 12.4718C19.9296 12.3468 19.9998 12.1772 19.9998 12.0004C19.9998 11.8236 19.9296 11.654 19.8046 11.529C19.6795 11.404 19.51 11.3337 19.3332 11.3337Z" fill="black"/>
<path d="M19.3332 11.3337H17.9998V10.0004C17.9998 9.82359 17.9296 9.65403 17.8046 9.529C17.6795 9.40398 17.51 9.33374 17.3332 9.33374C17.1564 9.33374 16.9868 9.40398 16.8618 9.529C16.7367 9.65403 16.6665 9.82359 16.6665 10.0004V11.3337H15.3332C15.1564 11.3337 14.9868 11.404 14.8618 11.529C14.7367 11.654 14.6665 11.8236 14.6665 12.0004C14.6665 12.1772 14.7367 12.3468 14.8618 12.4718C14.9868 12.5968 15.1564 12.6671 15.3332 12.6671H16.6665V14.0004C16.6665 14.1772 16.7367 14.3468 16.8618 14.4718C16.9868 14.5968 17.1564 14.6671 17.3332 14.6671C17.51 14.6671 17.6795 14.5968 17.8046 14.4718C17.9296 14.3468 17.9998 14.1772 17.9998 14.0004V12.6671H19.3332C19.51 12.6671 19.6795 12.5968 19.8046 12.4718C19.9296 12.3468 19.9998 12.1772 19.9998 12.0004C19.9998 11.8236 19.9296 11.654 19.8046 11.529C19.6795 11.404 19.51 11.3337 19.3332 11.3337Z" fill="black" fill-opacity="0.2"/>
<path d="M19.3332 11.3337H17.9998V10.0004C17.9998 9.82359 17.9296 9.65403 17.8046 9.529C17.6795 9.40398 17.51 9.33374 17.3332 9.33374C17.1564 9.33374 16.9868 9.40398 16.8618 9.529C16.7367 9.65403 16.6665 9.82359 16.6665 10.0004V11.3337H15.3332C15.1564 11.3337 14.9868 11.404 14.8618 11.529C14.7367 11.654 14.6665 11.8236 14.6665 12.0004C14.6665 12.1772 14.7367 12.3468 14.8618 12.4718C14.9868 12.5968 15.1564 12.6671 15.3332 12.6671H16.6665V14.0004C16.6665 14.1772 16.7367 14.3468 16.8618 14.4718C16.9868 14.5968 17.1564 14.6671 17.3332 14.6671C17.51 14.6671 17.6795 14.5968 17.8046 14.4718C17.9296 14.3468 17.9998 14.1772 17.9998 14.0004V12.6671H19.3332C19.51 12.6671 19.6795 12.5968 19.8046 12.4718C19.9296 12.3468 19.9998 12.1772 19.9998 12.0004C19.9998 11.8236 19.9296 11.654 19.8046 11.529C19.6795 11.404 19.51 11.3337 19.3332 11.3337Z" fill="black" fill-opacity="0.2"/>
<path d="M19.3332 11.3337H17.9998V10.0004C17.9998 9.82359 17.9296 9.65403 17.8046 9.529C17.6795 9.40398 17.51 9.33374 17.3332 9.33374C17.1564 9.33374 16.9868 9.40398 16.8618 9.529C16.7367 9.65403 16.6665 9.82359 16.6665 10.0004V11.3337H15.3332C15.1564 11.3337 14.9868 11.404 14.8618 11.529C14.7367 11.654 14.6665 11.8236 14.6665 12.0004C14.6665 12.1772 14.7367 12.3468 14.8618 12.4718C14.9868 12.5968 15.1564 12.6671 15.3332 12.6671H16.6665V14.0004C16.6665 14.1772 16.7367 14.3468 16.8618 14.4718C16.9868 14.5968 17.1564 14.6671 17.3332 14.6671C17.51 14.6671 17.6795 14.5968 17.8046 14.4718C17.9296 14.3468 17.9998 14.1772 17.9998 14.0004V12.6671H19.3332C19.51 12.6671 19.6795 12.5968 19.8046 12.4718C19.9296 12.3468 19.9998 12.1772 19.9998 12.0004C19.9998 11.8236 19.9296 11.654 19.8046 11.529C19.6795 11.404 19.51 11.3337 19.3332 11.3337Z" fill="black" fill-opacity="0.2"/>
<path d="M10 11.9999C10.7911 11.9999 11.5645 11.7653 12.2223 11.3258C12.8801 10.8863 13.3928 10.2616 13.6955 9.53067C13.9983 8.79977 14.0775 7.9955 13.9231 7.21958C13.7688 6.44366 13.3878 5.73092 12.8284 5.17151C12.269 4.6121 11.5563 4.23114 10.7804 4.0768C10.0044 3.92246 9.20017 4.00167 8.46927 4.30442C7.73836 4.60717 7.11365 5.11986 6.67412 5.77766C6.2346 6.43546 6 7.20882 6 7.99994C6.00106 9.06048 6.42283 10.0773 7.17274 10.8272C7.92266 11.5771 8.93946 11.9989 10 11.9999ZM10 5.33327C10.5274 5.33327 11.043 5.48967 11.4815 5.78269C11.9201 6.07571 12.2618 6.49218 12.4637 6.97945C12.6655 7.46672 12.7183 8.0029 12.6154 8.52018C12.5125 9.03746 12.2586 9.51262 11.8856 9.88556C11.5127 10.2585 11.0375 10.5125 10.5202 10.6154C10.003 10.7183 9.46678 10.6655 8.97951 10.4636C8.49224 10.2618 8.07576 9.91999 7.78275 9.48146C7.48973 9.04293 7.33333 8.52736 7.33333 7.99994C7.33333 7.2927 7.61428 6.61442 8.11438 6.11432C8.61448 5.61423 9.29276 5.33327 10 5.33327Z" fill="black"/>
<path d="M10 11.9999C10.7911 11.9999 11.5645 11.7653 12.2223 11.3258C12.8801 10.8863 13.3928 10.2616 13.6955 9.53067C13.9983 8.79977 14.0775 7.9955 13.9231 7.21958C13.7688 6.44366 13.3878 5.73092 12.8284 5.17151C12.269 4.6121 11.5563 4.23114 10.7804 4.0768C10.0044 3.92246 9.20017 4.00167 8.46927 4.30442C7.73836 4.60717 7.11365 5.11986 6.67412 5.77766C6.2346 6.43546 6 7.20882 6 7.99994C6.00106 9.06048 6.42283 10.0773 7.17274 10.8272C7.92266 11.5771 8.93946 11.9989 10 11.9999ZM10 5.33327C10.5274 5.33327 11.043 5.48967 11.4815 5.78269C11.9201 6.07571 12.2618 6.49218 12.4637 6.97945C12.6655 7.46672 12.7183 8.0029 12.6154 8.52018C12.5125 9.03746 12.2586 9.51262 11.8856 9.88556C11.5127 10.2585 11.0375 10.5125 10.5202 10.6154C10.003 10.7183 9.46678 10.6655 8.97951 10.4636C8.49224 10.2618 8.07576 9.91999 7.78275 9.48146C7.48973 9.04293 7.33333 8.52736 7.33333 7.99994C7.33333 7.2927 7.61428 6.61442 8.11438 6.11432C8.61448 5.61423 9.29276 5.33327 10 5.33327Z" fill="black" fill-opacity="0.2"/>
<path d="M10 11.9999C10.7911 11.9999 11.5645 11.7653 12.2223 11.3258C12.8801 10.8863 13.3928 10.2616 13.6955 9.53067C13.9983 8.79977 14.0775 7.9955 13.9231 7.21958C13.7688 6.44366 13.3878 5.73092 12.8284 5.17151C12.269 4.6121 11.5563 4.23114 10.7804 4.0768C10.0044 3.92246 9.20017 4.00167 8.46927 4.30442C7.73836 4.60717 7.11365 5.11986 6.67412 5.77766C6.2346 6.43546 6 7.20882 6 7.99994C6.00106 9.06048 6.42283 10.0773 7.17274 10.8272C7.92266 11.5771 8.93946 11.9989 10 11.9999ZM10 5.33327C10.5274 5.33327 11.043 5.48967 11.4815 5.78269C11.9201 6.07571 12.2618 6.49218 12.4637 6.97945C12.6655 7.46672 12.7183 8.0029 12.6154 8.52018C12.5125 9.03746 12.2586 9.51262 11.8856 9.88556C11.5127 10.2585 11.0375 10.5125 10.5202 10.6154C10.003 10.7183 9.46678 10.6655 8.97951 10.4636C8.49224 10.2618 8.07576 9.91999 7.78275 9.48146C7.48973 9.04293 7.33333 8.52736 7.33333 7.99994C7.33333 7.2927 7.61428 6.61442 8.11438 6.11432C8.61448 5.61423 9.29276 5.33327 10 5.33327Z" fill="black" fill-opacity="0.2"/>
<path d="M10 11.9999C10.7911 11.9999 11.5645 11.7653 12.2223 11.3258C12.8801 10.8863 13.3928 10.2616 13.6955 9.53067C13.9983 8.79977 14.0775 7.9955 13.9231 7.21958C13.7688 6.44366 13.3878 5.73092 12.8284 5.17151C12.269 4.6121 11.5563 4.23114 10.7804 4.0768C10.0044 3.92246 9.20017 4.00167 8.46927 4.30442C7.73836 4.60717 7.11365 5.11986 6.67412 5.77766C6.2346 6.43546 6 7.20882 6 7.99994C6.00106 9.06048 6.42283 10.0773 7.17274 10.8272C7.92266 11.5771 8.93946 11.9989 10 11.9999ZM10 5.33327C10.5274 5.33327 11.043 5.48967 11.4815 5.78269C11.9201 6.07571 12.2618 6.49218 12.4637 6.97945C12.6655 7.46672 12.7183 8.0029 12.6154 8.52018C12.5125 9.03746 12.2586 9.51262 11.8856 9.88556C11.5127 10.2585 11.0375 10.5125 10.5202 10.6154C10.003 10.7183 9.46678 10.6655 8.97951 10.4636C8.49224 10.2618 8.07576 9.91999 7.78275 9.48146C7.48973 9.04293 7.33333 8.52736 7.33333 7.99994C7.33333 7.2927 7.61428 6.61442 8.11438 6.11432C8.61448 5.61423 9.29276 5.33327 10 5.33327Z" fill="black" fill-opacity="0.2"/>
<path d="M10 13.3337C8.40924 13.3355 6.88414 13.9682 5.75931 15.093C4.63447 16.2179 4.00176 17.743 4 19.3337C4 19.5106 4.07024 19.6801 4.19526 19.8051C4.32029 19.9302 4.48986 20.0004 4.66667 20.0004C4.84348 20.0004 5.01305 19.9302 5.13807 19.8051C5.2631 19.6801 5.33333 19.5106 5.33333 19.3337C5.33333 18.0961 5.825 16.9091 6.70017 16.0339C7.57534 15.1587 8.76232 14.6671 10 14.6671C11.2377 14.6671 12.4247 15.1587 13.2998 16.0339C14.175 16.9091 14.6667 18.0961 14.6667 19.3337C14.6667 19.5106 14.7369 19.6801 14.8619 19.8051C14.987 19.9302 15.1565 20.0004 15.3333 20.0004C15.5101 20.0004 15.6797 19.9302 15.8047 19.8051C15.9298 19.6801 16 19.5106 16 19.3337C15.9982 17.743 15.3655 16.2179 14.2407 15.093C13.1159 13.9682 11.5908 13.3355 10 13.3337Z" fill="black"/>
<path d="M10 13.3337C8.40924 13.3355 6.88414 13.9682 5.75931 15.093C4.63447 16.2179 4.00176 17.743 4 19.3337C4 19.5106 4.07024 19.6801 4.19526 19.8051C4.32029 19.9302 4.48986 20.0004 4.66667 20.0004C4.84348 20.0004 5.01305 19.9302 5.13807 19.8051C5.2631 19.6801 5.33333 19.5106 5.33333 19.3337C5.33333 18.0961 5.825 16.9091 6.70017 16.0339C7.57534 15.1587 8.76232 14.6671 10 14.6671C11.2377 14.6671 12.4247 15.1587 13.2998 16.0339C14.175 16.9091 14.6667 18.0961 14.6667 19.3337C14.6667 19.5106 14.7369 19.6801 14.8619 19.8051C14.987 19.9302 15.1565 20.0004 15.3333 20.0004C15.5101 20.0004 15.6797 19.9302 15.8047 19.8051C15.9298 19.6801 16 19.5106 16 19.3337C15.9982 17.743 15.3655 16.2179 14.2407 15.093C13.1159 13.9682 11.5908 13.3355 10 13.3337Z" fill="black" fill-opacity="0.2"/>
<path d="M10 13.3337C8.40924 13.3355 6.88414 13.9682 5.75931 15.093C4.63447 16.2179 4.00176 17.743 4 19.3337C4 19.5106 4.07024 19.6801 4.19526 19.8051C4.32029 19.9302 4.48986 20.0004 4.66667 20.0004C4.84348 20.0004 5.01305 19.9302 5.13807 19.8051C5.2631 19.6801 5.33333 19.5106 5.33333 19.3337C5.33333 18.0961 5.825 16.9091 6.70017 16.0339C7.57534 15.1587 8.76232 14.6671 10 14.6671C11.2377 14.6671 12.4247 15.1587 13.2998 16.0339C14.175 16.9091 14.6667 18.0961 14.6667 19.3337C14.6667 19.5106 14.7369 19.6801 14.8619 19.8051C14.987 19.9302 15.1565 20.0004 15.3333 20.0004C15.5101 20.0004 15.6797 19.9302 15.8047 19.8051C15.9298 19.6801 16 19.5106 16 19.3337C15.9982 17.743 15.3655 16.2179 14.2407 15.093C13.1159 13.9682 11.5908 13.3355 10 13.3337Z" fill="black" fill-opacity="0.2"/>
<path d="M10 13.3337C8.40924 13.3355 6.88414 13.9682 5.75931 15.093C4.63447 16.2179 4.00176 17.743 4 19.3337C4 19.5106 4.07024 19.6801 4.19526 19.8051C4.32029 19.9302 4.48986 20.0004 4.66667 20.0004C4.84348 20.0004 5.01305 19.9302 5.13807 19.8051C5.2631 19.6801 5.33333 19.5106 5.33333 19.3337C5.33333 18.0961 5.825 16.9091 6.70017 16.0339C7.57534 15.1587 8.76232 14.6671 10 14.6671C11.2377 14.6671 12.4247 15.1587 13.2998 16.0339C14.175 16.9091 14.6667 18.0961 14.6667 19.3337C14.6667 19.5106 14.7369 19.6801 14.8619 19.8051C14.987 19.9302 15.1565 20.0004 15.3333 20.0004C15.5101 20.0004 15.6797 19.9302 15.8047 19.8051C15.9298 19.6801 16 19.5106 16 19.3337C15.9982 17.743 15.3655 16.2179 14.2407 15.093C13.1159 13.9682 11.5908 13.3355 10 13.3337Z" fill="black" fill-opacity="0.2"/>
</g>
<defs>
<clipPath id="clip0_87_63603">
<rect width="16" height="16" fill="white" transform="translate(4 4)"/>
</clipPath>
</defs>
</svg>
