<svg width="24" height="24" viewBox="0 0 24 24" fill="none" xmlns="http://www.w3.org/2000/svg">
<g clip-path="url(#clip0_87_63622)">
<path d="M17.8333 22H17C16.779 22 16.567 21.9122 16.4107 21.7559C16.2545 21.5996 16.1667 21.3877 16.1667 21.1667C16.1667 20.9457 16.2545 20.7337 16.4107 20.5774C16.567 20.4211 16.779 20.3333 17 20.3333H17.8333C18.4964 20.3333 19.1323 20.0699 19.6011 19.6011C20.0699 19.1323 20.3333 18.4964 20.3333 17.8333V17C20.3333 16.779 20.4211 16.567 20.5774 16.4107C20.7337 16.2545 20.9457 16.1667 21.1667 16.1667C21.3877 16.1667 21.5996 16.2545 21.7559 16.4107C21.9122 16.567 22 16.779 22 17V17.8333C21.9987 18.938 21.5593 19.997 20.7782 20.7782C19.997 21.5593 18.938 21.9987 17.8333 22ZM22 7V6.16667C21.9987 5.062 21.5593 4.00296 20.7782 3.22185C19.997 2.44073 18.938 2.00132 17.8333 2L17 2C16.779 2 16.567 2.0878 16.4107 2.24408C16.2545 2.40036 16.1667 2.61232 16.1667 2.83333C16.1667 3.05435 16.2545 3.26631 16.4107 3.42259C16.567 3.57887 16.779 3.66667 17 3.66667H17.8333C18.4964 3.66667 19.1323 3.93006 19.6011 4.3989C20.0699 4.86774 20.3333 5.50363 20.3333 6.16667V7C20.3333 7.22101 20.4211 7.43297 20.5774 7.58926C20.7337 7.74554 20.9457 7.83333 21.1667 7.83333C21.3877 7.83333 21.5996 7.74554 21.7559 7.58926C21.9122 7.43297 22 7.22101 22 7ZM7.83333 21.1667C7.83333 20.9457 7.74554 20.7337 7.58926 20.5774C7.43297 20.4211 7.22101 20.3333 7 20.3333H6.16667C5.50363 20.3333 4.86774 20.0699 4.3989 19.6011C3.93006 19.1323 3.66667 18.4964 3.66667 17.8333V17C3.66667 16.779 3.57887 16.567 3.42259 16.4107C3.26631 16.2545 3.05435 16.1667 2.83333 16.1667C2.61232 16.1667 2.40036 16.2545 2.24408 16.4107C2.0878 16.567 2 16.779 2 17V17.8333C2.00132 18.938 2.44073 19.997 3.22185 20.7782C4.00296 21.5593 5.062 21.9987 6.16667 22H7C7.22101 22 7.43297 21.9122 7.58926 21.7559C7.74554 21.5996 7.83333 21.3877 7.83333 21.1667ZM3.66667 7V6.16667C3.66667 5.50363 3.93006 4.86774 4.3989 4.3989C4.86774 3.93006 5.50363 3.66667 6.16667 3.66667H7C7.22101 3.66667 7.43297 3.57887 7.58926 3.42259C7.74554 3.26631 7.83333 3.05435 7.83333 2.83333C7.83333 2.61232 7.74554 2.40036 7.58926 2.24408C7.43297 2.0878 7.22101 2 7 2H6.16667C5.062 2.00132 4.00296 2.44073 3.22185 3.22185C2.44073 4.00296 2.00132 5.062 2 6.16667L2 7C2 7.22101 2.0878 7.43297 2.24408 7.58926C2.40036 7.74554 2.61232 7.83333 2.83333 7.83333C3.05435 7.83333 3.26631 7.74554 3.42259 7.58926C3.57887 7.43297 3.66667 7.22101 3.66667 7ZM15.3333 12C15.3333 11.3407 15.1378 10.6963 14.7716 10.1481C14.4053 9.59994 13.8847 9.17269 13.2756 8.9204C12.6665 8.66811 11.9963 8.6021 11.3497 8.73072C10.7031 8.85933 10.1092 9.1768 9.64298 9.64298C9.1768 10.1092 8.85933 10.7031 8.73072 11.3497C8.6021 11.9963 8.66811 12.6665 8.9204 13.2756C9.17269 13.8847 9.59994 14.4053 10.1481 14.7716C10.6963 15.1378 11.3407 15.3333 12 15.3333C12.8841 15.3333 13.7319 14.9821 14.357 14.357C14.9821 13.7319 15.3333 12.8841 15.3333 12ZM13.6667 12C13.6667 12.3296 13.5689 12.6519 13.3858 12.926C13.2026 13.2 12.9423 13.4137 12.6378 13.5398C12.3333 13.6659 11.9982 13.699 11.6748 13.6346C11.3515 13.5703 11.0546 13.4116 10.8215 13.1785C10.5884 12.9454 10.4297 12.6485 10.3654 12.3252C10.301 12.0018 10.3341 11.6667 10.4602 11.3622C10.5863 11.0577 10.8 10.7974 11.074 10.6142C11.3481 10.4311 11.6704 10.3333 12 10.3333C12.442 10.3333 12.8659 10.5089 13.1785 10.8215C13.4911 11.134 13.6667 11.558 13.6667 12Z" fill="black"/>
<path d="M17.8333 22H17C16.779 22 16.567 21.9122 16.4107 21.7559C16.2545 21.5996 16.1667 21.3877 16.1667 21.1667C16.1667 20.9457 16.2545 20.7337 16.4107 20.5774C16.567 20.4211 16.779 20.3333 17 20.3333H17.8333C18.4964 20.3333 19.1323 20.0699 19.6011 19.6011C20.0699 19.1323 20.3333 18.4964 20.3333 17.8333V17C20.3333 16.779 20.4211 16.567 20.5774 16.4107C20.7337 16.2545 20.9457 16.1667 21.1667 16.1667C21.3877 16.1667 21.5996 16.2545 21.7559 16.4107C21.9122 16.567 22 16.779 22 17V17.8333C21.9987 18.938 21.5593 19.997 20.7782 20.7782C19.997 21.5593 18.938 21.9987 17.8333 22ZM22 7V6.16667C21.9987 5.062 21.5593 4.00296 20.7782 3.22185C19.997 2.44073 18.938 2.00132 17.8333 2L17 2C16.779 2 16.567 2.0878 16.4107 2.24408C16.2545 2.40036 16.1667 2.61232 16.1667 2.83333C16.1667 3.05435 16.2545 3.26631 16.4107 3.42259C16.567 3.57887 16.779 3.66667 17 3.66667H17.8333C18.4964 3.66667 19.1323 3.93006 19.6011 4.3989C20.0699 4.86774 20.3333 5.50363 20.3333 6.16667V7C20.3333 7.22101 20.4211 7.43297 20.5774 7.58926C20.7337 7.74554 20.9457 7.83333 21.1667 7.83333C21.3877 7.83333 21.5996 7.74554 21.7559 7.58926C21.9122 7.43297 22 7.22101 22 7ZM7.83333 21.1667C7.83333 20.9457 7.74554 20.7337 7.58926 20.5774C7.43297 20.4211 7.22101 20.3333 7 20.3333H6.16667C5.50363 20.3333 4.86774 20.0699 4.3989 19.6011C3.93006 19.1323 3.66667 18.4964 3.66667 17.8333V17C3.66667 16.779 3.57887 16.567 3.42259 16.4107C3.26631 16.2545 3.05435 16.1667 2.83333 16.1667C2.61232 16.1667 2.40036 16.2545 2.24408 16.4107C2.0878 16.567 2 16.779 2 17V17.8333C2.00132 18.938 2.44073 19.997 3.22185 20.7782C4.00296 21.5593 5.062 21.9987 6.16667 22H7C7.22101 22 7.43297 21.9122 7.58926 21.7559C7.74554 21.5996 7.83333 21.3877 7.83333 21.1667ZM3.66667 7V6.16667C3.66667 5.50363 3.93006 4.86774 4.3989 4.3989C4.86774 3.93006 5.50363 3.66667 6.16667 3.66667H7C7.22101 3.66667 7.43297 3.57887 7.58926 3.42259C7.74554 3.26631 7.83333 3.05435 7.83333 2.83333C7.83333 2.61232 7.74554 2.40036 7.58926 2.24408C7.43297 2.0878 7.22101 2 7 2H6.16667C5.062 2.00132 4.00296 2.44073 3.22185 3.22185C2.44073 4.00296 2.00132 5.062 2 6.16667L2 7C2 7.22101 2.0878 7.43297 2.24408 7.58926C2.40036 7.74554 2.61232 7.83333 2.83333 7.83333C3.05435 7.83333 3.26631 7.74554 3.42259 7.58926C3.57887 7.43297 3.66667 7.22101 3.66667 7ZM15.3333 12C15.3333 11.3407 15.1378 10.6963 14.7716 10.1481C14.4053 9.59994 13.8847 9.17269 13.2756 8.9204C12.6665 8.66811 11.9963 8.6021 11.3497 8.73072C10.7031 8.85933 10.1092 9.1768 9.64298 9.64298C9.1768 10.1092 8.85933 10.7031 8.73072 11.3497C8.6021 11.9963 8.66811 12.6665 8.9204 13.2756C9.17269 13.8847 9.59994 14.4053 10.1481 14.7716C10.6963 15.1378 11.3407 15.3333 12 15.3333C12.8841 15.3333 13.7319 14.9821 14.357 14.357C14.9821 13.7319 15.3333 12.8841 15.3333 12ZM13.6667 12C13.6667 12.3296 13.5689 12.6519 13.3858 12.926C13.2026 13.2 12.9423 13.4137 12.6378 13.5398C12.3333 13.6659 11.9982 13.699 11.6748 13.6346C11.3515 13.5703 11.0546 13.4116 10.8215 13.1785C10.5884 12.9454 10.4297 12.6485 10.3654 12.3252C10.301 12.0018 10.3341 11.6667 10.4602 11.3622C10.5863 11.0577 10.8 10.7974 11.074 10.6142C11.3481 10.4311 11.6704 10.3333 12 10.3333C12.442 10.3333 12.8659 10.5089 13.1785 10.8215C13.4911 11.134 13.6667 11.558 13.6667 12Z" fill="black" fill-opacity="0.2"/>
<path d="M17.8333 22H17C16.779 22 16.567 21.9122 16.4107 21.7559C16.2545 21.5996 16.1667 21.3877 16.1667 21.1667C16.1667 20.9457 16.2545 20.7337 16.4107 20.5774C16.567 20.4211 16.779 20.3333 17 20.3333H17.8333C18.4964 20.3333 19.1323 20.0699 19.6011 19.6011C20.0699 19.1323 20.3333 18.4964 20.3333 17.8333V17C20.3333 16.779 20.4211 16.567 20.5774 16.4107C20.7337 16.2545 20.9457 16.1667 21.1667 16.1667C21.3877 16.1667 21.5996 16.2545 21.7559 16.4107C21.9122 16.567 22 16.779 22 17V17.8333C21.9987 18.938 21.5593 19.997 20.7782 20.7782C19.997 21.5593 18.938 21.9987 17.8333 22ZM22 7V6.16667C21.9987 5.062 21.5593 4.00296 20.7782 3.22185C19.997 2.44073 18.938 2.00132 17.8333 2L17 2C16.779 2 16.567 2.0878 16.4107 2.24408C16.2545 2.40036 16.1667 2.61232 16.1667 2.83333C16.1667 3.05435 16.2545 3.26631 16.4107 3.42259C16.567 3.57887 16.779 3.66667 17 3.66667H17.8333C18.4964 3.66667 19.1323 3.93006 19.6011 4.3989C20.0699 4.86774 20.3333 5.50363 20.3333 6.16667V7C20.3333 7.22101 20.4211 7.43297 20.5774 7.58926C20.7337 7.74554 20.9457 7.83333 21.1667 7.83333C21.3877 7.83333 21.5996 7.74554 21.7559 7.58926C21.9122 7.43297 22 7.22101 22 7ZM7.83333 21.1667C7.83333 20.9457 7.74554 20.7337 7.58926 20.5774C7.43297 20.4211 7.22101 20.3333 7 20.3333H6.16667C5.50363 20.3333 4.86774 20.0699 4.3989 19.6011C3.93006 19.1323 3.66667 18.4964 3.66667 17.8333V17C3.66667 16.779 3.57887 16.567 3.42259 16.4107C3.26631 16.2545 3.05435 16.1667 2.83333 16.1667C2.61232 16.1667 2.40036 16.2545 2.24408 16.4107C2.0878 16.567 2 16.779 2 17V17.8333C2.00132 18.938 2.44073 19.997 3.22185 20.7782C4.00296 21.5593 5.062 21.9987 6.16667 22H7C7.22101 22 7.43297 21.9122 7.58926 21.7559C7.74554 21.5996 7.83333 21.3877 7.83333 21.1667ZM3.66667 7V6.16667C3.66667 5.50363 3.93006 4.86774 4.3989 4.3989C4.86774 3.93006 5.50363 3.66667 6.16667 3.66667H7C7.22101 3.66667 7.43297 3.57887 7.58926 3.42259C7.74554 3.26631 7.83333 3.05435 7.83333 2.83333C7.83333 2.61232 7.74554 2.40036 7.58926 2.24408C7.43297 2.0878 7.22101 2 7 2H6.16667C5.062 2.00132 4.00296 2.44073 3.22185 3.22185C2.44073 4.00296 2.00132 5.062 2 6.16667L2 7C2 7.22101 2.0878 7.43297 2.24408 7.58926C2.40036 7.74554 2.61232 7.83333 2.83333 7.83333C3.05435 7.83333 3.26631 7.74554 3.42259 7.58926C3.57887 7.43297 3.66667 7.22101 3.66667 7ZM15.3333 12C15.3333 11.3407 15.1378 10.6963 14.7716 10.1481C14.4053 9.59994 13.8847 9.17269 13.2756 8.9204C12.6665 8.66811 11.9963 8.6021 11.3497 8.73072C10.7031 8.85933 10.1092 9.1768 9.64298 9.64298C9.1768 10.1092 8.85933 10.7031 8.73072 11.3497C8.6021 11.9963 8.66811 12.6665 8.9204 13.2756C9.17269 13.8847 9.59994 14.4053 10.1481 14.7716C10.6963 15.1378 11.3407 15.3333 12 15.3333C12.8841 15.3333 13.7319 14.9821 14.357 14.357C14.9821 13.7319 15.3333 12.8841 15.3333 12ZM13.6667 12C13.6667 12.3296 13.5689 12.6519 13.3858 12.926C13.2026 13.2 12.9423 13.4137 12.6378 13.5398C12.3333 13.6659 11.9982 13.699 11.6748 13.6346C11.3515 13.5703 11.0546 13.4116 10.8215 13.1785C10.5884 12.9454 10.4297 12.6485 10.3654 12.3252C10.301 12.0018 10.3341 11.6667 10.4602 11.3622C10.5863 11.0577 10.8 10.7974 11.074 10.6142C11.3481 10.4311 11.6704 10.3333 12 10.3333C12.442 10.3333 12.8659 10.5089 13.1785 10.8215C13.4911 11.134 13.6667 11.558 13.6667 12Z" fill="black" fill-opacity="0.2"/>
<path d="M17.8333 22H17C16.779 22 16.567 21.9122 16.4107 21.7559C16.2545 21.5996 16.1667 21.3877 16.1667 21.1667C16.1667 20.9457 16.2545 20.7337 16.4107 20.5774C16.567 20.4211 16.779 20.3333 17 20.3333H17.8333C18.4964 20.3333 19.1323 20.0699 19.6011 19.6011C20.0699 19.1323 20.3333 18.4964 20.3333 17.8333V17C20.3333 16.779 20.4211 16.567 20.5774 16.4107C20.7337 16.2545 20.9457 16.1667 21.1667 16.1667C21.3877 16.1667 21.5996 16.2545 21.7559 16.4107C21.9122 16.567 22 16.779 22 17V17.8333C21.9987 18.938 21.5593 19.997 20.7782 20.7782C19.997 21.5593 18.938 21.9987 17.8333 22ZM22 7V6.16667C21.9987 5.062 21.5593 4.00296 20.7782 3.22185C19.997 2.44073 18.938 2.00132 17.8333 2L17 2C16.779 2 16.567 2.0878 16.4107 2.24408C16.2545 2.40036 16.1667 2.61232 16.1667 2.83333C16.1667 3.05435 16.2545 3.26631 16.4107 3.42259C16.567 3.57887 16.779 3.66667 17 3.66667H17.8333C18.4964 3.66667 19.1323 3.93006 19.6011 4.3989C20.0699 4.86774 20.3333 5.50363 20.3333 6.16667V7C20.3333 7.22101 20.4211 7.43297 20.5774 7.58926C20.7337 7.74554 20.9457 7.83333 21.1667 7.83333C21.3877 7.83333 21.5996 7.74554 21.7559 7.58926C21.9122 7.43297 22 7.22101 22 7ZM7.83333 21.1667C7.83333 20.9457 7.74554 20.7337 7.58926 20.5774C7.43297 20.4211 7.22101 20.3333 7 20.3333H6.16667C5.50363 20.3333 4.86774 20.0699 4.3989 19.6011C3.93006 19.1323 3.66667 18.4964 3.66667 17.8333V17C3.66667 16.779 3.57887 16.567 3.42259 16.4107C3.26631 16.2545 3.05435 16.1667 2.83333 16.1667C2.61232 16.1667 2.40036 16.2545 2.24408 16.4107C2.0878 16.567 2 16.779 2 17V17.8333C2.00132 18.938 2.44073 19.997 3.22185 20.7782C4.00296 21.5593 5.062 21.9987 6.16667 22H7C7.22101 22 7.43297 21.9122 7.58926 21.7559C7.74554 21.5996 7.83333 21.3877 7.83333 21.1667ZM3.66667 7V6.16667C3.66667 5.50363 3.93006 4.86774 4.3989 4.3989C4.86774 3.93006 5.50363 3.66667 6.16667 3.66667H7C7.22101 3.66667 7.43297 3.57887 7.58926 3.42259C7.74554 3.26631 7.83333 3.05435 7.83333 2.83333C7.83333 2.61232 7.74554 2.40036 7.58926 2.24408C7.43297 2.0878 7.22101 2 7 2H6.16667C5.062 2.00132 4.00296 2.44073 3.22185 3.22185C2.44073 4.00296 2.00132 5.062 2 6.16667L2 7C2 7.22101 2.0878 7.43297 2.24408 7.58926C2.40036 7.74554 2.61232 7.83333 2.83333 7.83333C3.05435 7.83333 3.26631 7.74554 3.42259 7.58926C3.57887 7.43297 3.66667 7.22101 3.66667 7ZM15.3333 12C15.3333 11.3407 15.1378 10.6963 14.7716 10.1481C14.4053 9.59994 13.8847 9.17269 13.2756 8.9204C12.6665 8.66811 11.9963 8.6021 11.3497 8.73072C10.7031 8.85933 10.1092 9.1768 9.64298 9.64298C9.1768 10.1092 8.85933 10.7031 8.73072 11.3497C8.6021 11.9963 8.66811 12.6665 8.9204 13.2756C9.17269 13.8847 9.59994 14.4053 10.1481 14.7716C10.6963 15.1378 11.3407 15.3333 12 15.3333C12.8841 15.3333 13.7319 14.9821 14.357 14.357C14.9821 13.7319 15.3333 12.8841 15.3333 12ZM13.6667 12C13.6667 12.3296 13.5689 12.6519 13.3858 12.926C13.2026 13.2 12.9423 13.4137 12.6378 13.5398C12.3333 13.6659 11.9982 13.699 11.6748 13.6346C11.3515 13.5703 11.0546 13.4116 10.8215 13.1785C10.5884 12.9454 10.4297 12.6485 10.3654 12.3252C10.301 12.0018 10.3341 11.6667 10.4602 11.3622C10.5863 11.0577 10.8 10.7974 11.074 10.6142C11.3481 10.4311 11.6704 10.3333 12 10.3333C12.442 10.3333 12.8659 10.5089 13.1785 10.8215C13.4911 11.134 13.6667 11.558 13.6667 12Z" fill="black" fill-opacity="0.2"/>
</g>
<defs>
<clipPath id="clip0_87_63622">
<rect width="20" height="20" fill="white" transform="translate(2 2)"/>
</clipPath>
</defs>
</svg>
