<svg width="68" height="12" viewBox="0 0 68 12" fill="none" xmlns="http://www.w3.org/2000/svg">
<g opacity="0.35">
<path d="M45.667 0.833374H62.333C63.5296 0.833374 64.5 1.80375 64.5 3.00037V9.00037C64.4998 10.1968 63.5295 11.1664 62.333 11.1664H45.667C44.4705 11.1664 43.5002 10.1968 43.5 9.00037V3.00037L43.5107 2.77869C43.6216 1.68603 44.5451 0.833374 45.667 0.833374Z" stroke="black"/>
<path d="M45.667 0.833374H62.333C63.5296 0.833374 64.5 1.80375 64.5 3.00037V9.00037C64.4998 10.1968 63.5295 11.1664 62.333 11.1664H45.667C44.4705 11.1664 43.5002 10.1968 43.5 9.00037V3.00037L43.5107 2.77869C43.6216 1.68603 44.5451 0.833374 45.667 0.833374Z" stroke="black" stroke-opacity="0.2"/>
<path d="M45.667 0.833374H62.333C63.5296 0.833374 64.5 1.80375 64.5 3.00037V9.00037C64.4998 10.1968 63.5295 11.1664 62.333 11.1664H45.667C44.4705 11.1664 43.5002 10.1968 43.5 9.00037V3.00037L43.5107 2.77869C43.6216 1.68603 44.5451 0.833374 45.667 0.833374Z" stroke="black" stroke-opacity="0.2"/>
<path d="M45.667 0.833374H62.333C63.5296 0.833374 64.5 1.80375 64.5 3.00037V9.00037C64.4998 10.1968 63.5295 11.1664 62.333 11.1664H45.667C44.4705 11.1664 43.5002 10.1968 43.5 9.00037V3.00037L43.5107 2.77869C43.6216 1.68603 44.5451 0.833374 45.667 0.833374Z" stroke="black" stroke-opacity="0.2"/>
</g>
<g opacity="0.4">
<path d="M66 4.00006V8.00006C66.8047 7.66128 67.328 6.87319 67.328 6.00006C67.328 5.12693 66.8047 4.33884 66 4.00006Z" fill="black"/>
<path d="M66 4.00006V8.00006C66.8047 7.66128 67.328 6.87319 67.328 6.00006C67.328 5.12693 66.8047 4.33884 66 4.00006Z" fill="black" fill-opacity="0.2"/>
<path d="M66 4.00006V8.00006C66.8047 7.66128 67.328 6.87319 67.328 6.00006C67.328 5.12693 66.8047 4.33884 66 4.00006Z" fill="black" fill-opacity="0.2"/>
<path d="M66 4.00006V8.00006C66.8047 7.66128 67.328 6.87319 67.328 6.00006C67.328 5.12693 66.8047 4.33884 66 4.00006Z" fill="black" fill-opacity="0.2"/>
</g>
<path d="M45 3.66671C45 2.93033 45.597 2.33337 46.3333 2.33337H61.6667C62.403 2.33337 63 2.93033 63 3.66671V8.33337C63 9.06975 62.403 9.66671 61.6667 9.66671H46.3333C45.597 9.66671 45 9.06975 45 8.33337V3.66671Z" fill="black"/>
<path d="M45 3.66671C45 2.93033 45.597 2.33337 46.3333 2.33337H61.6667C62.403 2.33337 63 2.93033 63 3.66671V8.33337C63 9.06975 62.403 9.66671 61.6667 9.66671H46.3333C45.597 9.66671 45 9.06975 45 8.33337V3.66671Z" fill="black" fill-opacity="0.2"/>
<path d="M45 3.66671C45 2.93033 45.597 2.33337 46.3333 2.33337H61.6667C62.403 2.33337 63 2.93033 63 3.66671V8.33337C63 9.06975 62.403 9.66671 61.6667 9.66671H46.3333C45.597 9.66671 45 9.06975 45 8.33337V3.66671Z" fill="black" fill-opacity="0.2"/>
<path d="M45 3.66671C45 2.93033 45.597 2.33337 46.3333 2.33337H61.6667C62.403 2.33337 63 2.93033 63 3.66671V8.33337C63 9.06975 62.403 9.66671 61.6667 9.66671H46.3333C45.597 9.66671 45 9.06975 45 8.33337V3.66671Z" fill="black" fill-opacity="0.2"/>
<path d="M28.1206 8.7309C29.3962 7.65201 31.265 7.65201 32.5405 8.7309C32.6046 8.78891 32.6413 8.87104 32.6431 8.95746C32.6448 9.04397 32.6111 9.12732 32.5493 9.18793L30.5522 11.2036C30.4937 11.2628 30.4138 11.2963 30.3306 11.2963C30.2473 11.2963 30.1674 11.2628 30.1089 11.2036L28.1108 9.18793C28.0493 9.1273 28.0153 9.04387 28.0171 8.95746C28.0189 8.87097 28.0564 8.78888 28.1206 8.7309ZM25.4556 6.04242C28.2038 3.48604 32.4593 3.48604 35.2075 6.04242C35.2695 6.10236 35.3053 6.1847 35.3062 6.27094C35.3069 6.35705 35.2731 6.4403 35.2124 6.5014L34.0581 7.66742C33.9391 7.78655 33.7466 7.78926 33.6245 7.67328C32.7221 6.8561 31.548 6.4037 30.3306 6.40375C29.1139 6.40425 27.9404 6.85661 27.0386 7.67328C26.9165 7.78918 26.7239 7.78653 26.605 7.66742L25.4507 6.5014C25.3898 6.44038 25.3562 6.3571 25.3569 6.27094C25.3577 6.18471 25.3936 6.10235 25.4556 6.04242ZM22.7905 3.36078C27.0056 -0.678769 33.6555 -0.678769 37.8706 3.36078C37.9312 3.42065 37.9657 3.50214 37.9663 3.58734C37.9668 3.67286 37.9328 3.75515 37.8726 3.81586L36.7163 4.98285C36.5973 5.1023 36.4046 5.10426 36.2837 4.98676C34.6778 3.45998 32.5464 2.60797 30.3306 2.60785C28.1145 2.60784 25.9826 3.45986 24.3765 4.98676C24.2556 5.1044 24.0628 5.10251 23.9438 4.98285L22.7876 3.81586C22.7273 3.75509 22.6933 3.67292 22.6938 3.58734C22.6945 3.5019 22.7296 3.42066 22.7905 3.36078Z" fill="black"/>
<path d="M28.1206 8.7309C29.3962 7.65201 31.265 7.65201 32.5405 8.7309C32.6046 8.78891 32.6413 8.87104 32.6431 8.95746C32.6448 9.04397 32.6111 9.12732 32.5493 9.18793L30.5522 11.2036C30.4937 11.2628 30.4138 11.2963 30.3306 11.2963C30.2473 11.2963 30.1674 11.2628 30.1089 11.2036L28.1108 9.18793C28.0493 9.1273 28.0153 9.04387 28.0171 8.95746C28.0189 8.87097 28.0564 8.78888 28.1206 8.7309ZM25.4556 6.04242C28.2038 3.48604 32.4593 3.48604 35.2075 6.04242C35.2695 6.10236 35.3053 6.1847 35.3062 6.27094C35.3069 6.35705 35.2731 6.4403 35.2124 6.5014L34.0581 7.66742C33.9391 7.78655 33.7466 7.78926 33.6245 7.67328C32.7221 6.8561 31.548 6.4037 30.3306 6.40375C29.1139 6.40425 27.9404 6.85661 27.0386 7.67328C26.9165 7.78918 26.7239 7.78653 26.605 7.66742L25.4507 6.5014C25.3898 6.44038 25.3562 6.3571 25.3569 6.27094C25.3577 6.18471 25.3936 6.10235 25.4556 6.04242ZM22.7905 3.36078C27.0056 -0.678769 33.6555 -0.678769 37.8706 3.36078C37.9312 3.42065 37.9657 3.50214 37.9663 3.58734C37.9668 3.67286 37.9328 3.75515 37.8726 3.81586L36.7163 4.98285C36.5973 5.1023 36.4046 5.10426 36.2837 4.98676C34.6778 3.45998 32.5464 2.60797 30.3306 2.60785C28.1145 2.60784 25.9826 3.45986 24.3765 4.98676C24.2556 5.1044 24.0628 5.10251 23.9438 4.98285L22.7876 3.81586C22.7273 3.75509 22.6933 3.67292 22.6938 3.58734C22.6945 3.5019 22.7296 3.42066 22.7905 3.36078Z" fill="black" fill-opacity="0.2"/>
<path d="M28.1206 8.7309C29.3962 7.65201 31.265 7.65201 32.5405 8.7309C32.6046 8.78891 32.6413 8.87104 32.6431 8.95746C32.6448 9.04397 32.6111 9.12732 32.5493 9.18793L30.5522 11.2036C30.4937 11.2628 30.4138 11.2963 30.3306 11.2963C30.2473 11.2963 30.1674 11.2628 30.1089 11.2036L28.1108 9.18793C28.0493 9.1273 28.0153 9.04387 28.0171 8.95746C28.0189 8.87097 28.0564 8.78888 28.1206 8.7309ZM25.4556 6.04242C28.2038 3.48604 32.4593 3.48604 35.2075 6.04242C35.2695 6.10236 35.3053 6.1847 35.3062 6.27094C35.3069 6.35705 35.2731 6.4403 35.2124 6.5014L34.0581 7.66742C33.9391 7.78655 33.7466 7.78926 33.6245 7.67328C32.7221 6.8561 31.548 6.4037 30.3306 6.40375C29.1139 6.40425 27.9404 6.85661 27.0386 7.67328C26.9165 7.78918 26.7239 7.78653 26.605 7.66742L25.4507 6.5014C25.3898 6.44038 25.3562 6.3571 25.3569 6.27094C25.3577 6.18471 25.3936 6.10235 25.4556 6.04242ZM22.7905 3.36078C27.0056 -0.678769 33.6555 -0.678769 37.8706 3.36078C37.9312 3.42065 37.9657 3.50214 37.9663 3.58734C37.9668 3.67286 37.9328 3.75515 37.8726 3.81586L36.7163 4.98285C36.5973 5.1023 36.4046 5.10426 36.2837 4.98676C34.6778 3.45998 32.5464 2.60797 30.3306 2.60785C28.1145 2.60784 25.9826 3.45986 24.3765 4.98676C24.2556 5.1044 24.0628 5.10251 23.9438 4.98285L22.7876 3.81586C22.7273 3.75509 22.6933 3.67292 22.6938 3.58734C22.6945 3.5019 22.7296 3.42066 22.7905 3.36078Z" fill="black" fill-opacity="0.2"/>
<path d="M28.1206 8.7309C29.3962 7.65201 31.265 7.65201 32.5405 8.7309C32.6046 8.78891 32.6413 8.87104 32.6431 8.95746C32.6448 9.04397 32.6111 9.12732 32.5493 9.18793L30.5522 11.2036C30.4937 11.2628 30.4138 11.2963 30.3306 11.2963C30.2473 11.2963 30.1674 11.2628 30.1089 11.2036L28.1108 9.18793C28.0493 9.1273 28.0153 9.04387 28.0171 8.95746C28.0189 8.87097 28.0564 8.78888 28.1206 8.7309ZM25.4556 6.04242C28.2038 3.48604 32.4593 3.48604 35.2075 6.04242C35.2695 6.10236 35.3053 6.1847 35.3062 6.27094C35.3069 6.35705 35.2731 6.4403 35.2124 6.5014L34.0581 7.66742C33.9391 7.78655 33.7466 7.78926 33.6245 7.67328C32.7221 6.8561 31.548 6.4037 30.3306 6.40375C29.1139 6.40425 27.9404 6.85661 27.0386 7.67328C26.9165 7.78918 26.7239 7.78653 26.605 7.66742L25.4507 6.5014C25.3898 6.44038 25.3562 6.3571 25.3569 6.27094C25.3577 6.18471 25.3936 6.10235 25.4556 6.04242ZM22.7905 3.36078C27.0056 -0.678769 33.6555 -0.678769 37.8706 3.36078C37.9312 3.42065 37.9657 3.50214 37.9663 3.58734C37.9668 3.67286 37.9328 3.75515 37.8726 3.81586L36.7163 4.98285C36.5973 5.1023 36.4046 5.10426 36.2837 4.98676C34.6778 3.45998 32.5464 2.60797 30.3306 2.60785C28.1145 2.60784 25.9826 3.45986 24.3765 4.98676C24.2556 5.1044 24.0628 5.10251 23.9438 4.98285L22.7876 3.81586C22.7273 3.75509 22.6933 3.67292 22.6938 3.58734C22.6945 3.5019 22.7296 3.42066 22.7905 3.36078Z" fill="black" fill-opacity="0.2"/>
<path d="M2.66675 7.33319C3.21899 7.33319 3.66669 7.78096 3.66675 8.33319V10.3332C3.66675 10.8855 3.21903 11.3332 2.66675 11.3332H1.66675C1.11446 11.3332 0.666748 10.8855 0.666748 10.3332V8.33319C0.666811 7.78096 1.1145 7.33319 1.66675 7.33319H2.66675ZM7.33374 5.33319C7.88583 5.33337 8.33368 5.78107 8.33374 6.33319V10.3332C8.33374 10.8854 7.88587 11.333 7.33374 11.3332H6.33374C5.78146 11.3332 5.33374 10.8855 5.33374 10.3332V6.33319C5.3338 5.78096 5.78149 5.33319 6.33374 5.33319H7.33374ZM11.9998 3.00018C12.552 3.00018 12.9998 3.4479 12.9998 4.00018V10.3332C12.9998 10.8855 12.552 11.3332 11.9998 11.3332H10.9998C10.4476 11.333 9.99976 10.8854 9.99976 10.3332V4.00018C9.99976 3.44801 10.4476 3.00036 10.9998 3.00018H11.9998ZM16.6667 0.666199C17.2189 0.666199 17.6665 1.11412 17.6667 1.6662V10.3332C17.6667 10.8855 17.219 11.3332 16.6667 11.3332H15.6667C15.1145 11.3332 14.6667 10.8855 14.6667 10.3332V1.6662C14.667 1.11412 15.1146 0.666199 15.6667 0.666199H16.6667Z" fill="black"/>
<path d="M2.66675 7.33319C3.21899 7.33319 3.66669 7.78096 3.66675 8.33319V10.3332C3.66675 10.8855 3.21903 11.3332 2.66675 11.3332H1.66675C1.11446 11.3332 0.666748 10.8855 0.666748 10.3332V8.33319C0.666811 7.78096 1.1145 7.33319 1.66675 7.33319H2.66675ZM7.33374 5.33319C7.88583 5.33337 8.33368 5.78107 8.33374 6.33319V10.3332C8.33374 10.8854 7.88587 11.333 7.33374 11.3332H6.33374C5.78146 11.3332 5.33374 10.8855 5.33374 10.3332V6.33319C5.3338 5.78096 5.78149 5.33319 6.33374 5.33319H7.33374ZM11.9998 3.00018C12.552 3.00018 12.9998 3.4479 12.9998 4.00018V10.3332C12.9998 10.8855 12.552 11.3332 11.9998 11.3332H10.9998C10.4476 11.333 9.99976 10.8854 9.99976 10.3332V4.00018C9.99976 3.44801 10.4476 3.00036 10.9998 3.00018H11.9998ZM16.6667 0.666199C17.2189 0.666199 17.6665 1.11412 17.6667 1.6662V10.3332C17.6667 10.8855 17.219 11.3332 16.6667 11.3332H15.6667C15.1145 11.3332 14.6667 10.8855 14.6667 10.3332V1.6662C14.667 1.11412 15.1146 0.666199 15.6667 0.666199H16.6667Z" fill="black" fill-opacity="0.2"/>
<path d="M2.66675 7.33319C3.21899 7.33319 3.66669 7.78096 3.66675 8.33319V10.3332C3.66675 10.8855 3.21903 11.3332 2.66675 11.3332H1.66675C1.11446 11.3332 0.666748 10.8855 0.666748 10.3332V8.33319C0.666811 7.78096 1.1145 7.33319 1.66675 7.33319H2.66675ZM7.33374 5.33319C7.88583 5.33337 8.33368 5.78107 8.33374 6.33319V10.3332C8.33374 10.8854 7.88587 11.333 7.33374 11.3332H6.33374C5.78146 11.3332 5.33374 10.8855 5.33374 10.3332V6.33319C5.3338 5.78096 5.78149 5.33319 6.33374 5.33319H7.33374ZM11.9998 3.00018C12.552 3.00018 12.9998 3.4479 12.9998 4.00018V10.3332C12.9998 10.8855 12.552 11.3332 11.9998 11.3332H10.9998C10.4476 11.333 9.99976 10.8854 9.99976 10.3332V4.00018C9.99976 3.44801 10.4476 3.00036 10.9998 3.00018H11.9998ZM16.6667 0.666199C17.2189 0.666199 17.6665 1.11412 17.6667 1.6662V10.3332C17.6667 10.8855 17.219 11.3332 16.6667 11.3332H15.6667C15.1145 11.3332 14.6667 10.8855 14.6667 10.3332V1.6662C14.667 1.11412 15.1146 0.666199 15.6667 0.666199H16.6667Z" fill="black" fill-opacity="0.2"/>
<path d="M2.66675 7.33319C3.21899 7.33319 3.66669 7.78096 3.66675 8.33319V10.3332C3.66675 10.8855 3.21903 11.3332 2.66675 11.3332H1.66675C1.11446 11.3332 0.666748 10.8855 0.666748 10.3332V8.33319C0.666811 7.78096 1.1145 7.33319 1.66675 7.33319H2.66675ZM7.33374 5.33319C7.88583 5.33337 8.33368 5.78107 8.33374 6.33319V10.3332C8.33374 10.8854 7.88587 11.333 7.33374 11.3332H6.33374C5.78146 11.3332 5.33374 10.8855 5.33374 10.3332V6.33319C5.3338 5.78096 5.78149 5.33319 6.33374 5.33319H7.33374ZM11.9998 3.00018C12.552 3.00018 12.9998 3.4479 12.9998 4.00018V10.3332C12.9998 10.8855 12.552 11.3332 11.9998 11.3332H10.9998C10.4476 11.333 9.99976 10.8854 9.99976 10.3332V4.00018C9.99976 3.44801 10.4476 3.00036 10.9998 3.00018H11.9998ZM16.6667 0.666199C17.2189 0.666199 17.6665 1.11412 17.6667 1.6662V10.3332C17.6667 10.8855 17.219 11.3332 16.6667 11.3332H15.6667C15.1145 11.3332 14.6667 10.8855 14.6667 10.3332V1.6662C14.667 1.11412 15.1146 0.666199 15.6667 0.666199H16.6667Z" fill="black" fill-opacity="0.2"/>
</svg>
