<svg width="33" height="32" viewBox="0 0 33 32" fill="none" xmlns="http://www.w3.org/2000/svg">
<rect x="0.5" width="32" height="32" rx="16" fill="#E5E5E5"/>
<g clip-path="url(#clip0_189_2562)">
<path d="M24.2994 9.14548L11.9595 21.4821C12.2262 21.6121 12.5189 21.6804 12.8156 21.682H14.929C15.1058 21.6815 15.2754 21.7518 15.4001 21.8772L16.5454 23.0218C17.1665 23.6472 18.0112 23.9992 18.8926 23.9999C19.2565 23.9996 19.6179 23.9399 19.9626 23.8234C21.151 23.4337 22.0153 22.4036 22.1926 21.1656L24.4439 10.472C24.5514 10.0264 24.5003 9.55739 24.2994 9.14548Z" fill="black"/>
<path d="M22.0472 8.05144L11.3797 10.2988C9.55694 10.5492 8.28233 12.2298 8.53274 14.0525C8.63165 14.7723 8.96317 15.4401 9.4768 15.954L10.6215 17.0987C10.7466 17.2238 10.8168 17.3935 10.8167 17.5704V19.6838C10.8182 19.9805 10.8865 20.2732 11.0166 20.5399L23.3545 8.20004C22.949 8.00078 22.487 7.94828 22.0472 8.05144Z" fill="black"/>
</g>
<defs>
<clipPath id="clip0_189_2562">
<rect width="16" height="16" fill="white" transform="translate(8.5 8)"/>
</clipPath>
</defs>
</svg>
