<svg width="24" height="24" viewBox="0 0 24 24" fill="none" xmlns="http://www.w3.org/2000/svg">
<path d="M4.41699 8.46636L5.15032 7.19618C5.58366 6.44563 6.55542 6.17915 7.3132 6.61665C8.61945 7.37082 9.68683 6.75538 9.68426 5.24317C9.68399 4.37698 10.3952 3.66177 11.2686 3.66567L12.9297 3.67202C13.6956 3.662 14.3151 4.28907 14.3251 5.05504L14.3253 5.23799C14.3207 6.74604 15.3887 7.36271 16.6997 6.60882L16.8582 6.51754C17.5266 6.14324 18.3793 6.36616 18.7537 7.03452L19.5897 8.46983C20.0297 9.22427 19.766 10.1978 19.0157 10.6307C17.7047 11.3846 17.7055 12.6167 19.0117 13.3708C19.7623 13.8042 20.0288 14.7759 19.5913 15.5337L18.858 16.8038C18.4247 17.5544 17.4528 17.8209 16.6951 17.3834C15.3888 16.6292 14.3214 17.2447 14.324 18.7568C14.3202 19.6302 13.6131 20.3382 12.7397 20.3344L11.0787 20.328C10.3127 20.3381 9.69323 19.711 9.68321 18.945L9.68298 18.7621C9.68763 17.254 8.61953 16.6373 7.30863 17.3912L7.15008 17.4825C6.48172 17.8568 5.62893 17.6339 5.25463 16.9655L4.41861 15.5302C3.97854 14.7757 4.24232 13.8022 4.9926 13.3693C6.3035 12.6155 6.30278 11.3834 4.99653 10.6292C4.23876 10.1917 3.98366 9.21691 4.41699 8.46636Z" stroke="black" stroke-width="1.5" stroke-miterlimit="10" stroke-linecap="round" stroke-linejoin="round"/>
<path d="M4.41699 8.46636L5.15032 7.19618C5.58366 6.44563 6.55542 6.17915 7.3132 6.61665C8.61945 7.37082 9.68683 6.75538 9.68426 5.24317C9.68399 4.37698 10.3952 3.66177 11.2686 3.66567L12.9297 3.67202C13.6956 3.662 14.3151 4.28907 14.3251 5.05504L14.3253 5.23799C14.3207 6.74604 15.3887 7.36271 16.6997 6.60882L16.8582 6.51754C17.5266 6.14324 18.3793 6.36616 18.7537 7.03452L19.5897 8.46983C20.0297 9.22427 19.766 10.1978 19.0157 10.6307C17.7047 11.3846 17.7055 12.6167 19.0117 13.3708C19.7623 13.8042 20.0288 14.7759 19.5913 15.5337L18.858 16.8038C18.4247 17.5544 17.4528 17.8209 16.6951 17.3834C15.3888 16.6292 14.3214 17.2447 14.324 18.7568C14.3202 19.6302 13.6131 20.3382 12.7397 20.3344L11.0787 20.328C10.3127 20.3381 9.69323 19.711 9.68321 18.945L9.68298 18.7621C9.68763 17.254 8.61953 16.6373 7.30863 17.3912L7.15008 17.4825C6.48172 17.8568 5.62893 17.6339 5.25463 16.9655L4.41861 15.5302C3.97854 14.7757 4.24232 13.8022 4.9926 13.3693C6.3035 12.6155 6.30278 11.3834 4.99653 10.6292C4.23876 10.1917 3.98366 9.21691 4.41699 8.46636Z" stroke="black" stroke-opacity="0.2" stroke-width="1.5" stroke-miterlimit="10" stroke-linecap="round" stroke-linejoin="round"/>
<path d="M4.41699 8.46636L5.15032 7.19618C5.58366 6.44563 6.55542 6.17915 7.3132 6.61665C8.61945 7.37082 9.68683 6.75538 9.68426 5.24317C9.68399 4.37698 10.3952 3.66177 11.2686 3.66567L12.9297 3.67202C13.6956 3.662 14.3151 4.28907 14.3251 5.05504L14.3253 5.23799C14.3207 6.74604 15.3887 7.36271 16.6997 6.60882L16.8582 6.51754C17.5266 6.14324 18.3793 6.36616 18.7537 7.03452L19.5897 8.46983C20.0297 9.22427 19.766 10.1978 19.0157 10.6307C17.7047 11.3846 17.7055 12.6167 19.0117 13.3708C19.7623 13.8042 20.0288 14.7759 19.5913 15.5337L18.858 16.8038C18.4247 17.5544 17.4528 17.8209 16.6951 17.3834C15.3888 16.6292 14.3214 17.2447 14.324 18.7568C14.3202 19.6302 13.6131 20.3382 12.7397 20.3344L11.0787 20.328C10.3127 20.3381 9.69323 19.711 9.68321 18.945L9.68298 18.7621C9.68763 17.254 8.61953 16.6373 7.30863 17.3912L7.15008 17.4825C6.48172 17.8568 5.62893 17.6339 5.25463 16.9655L4.41861 15.5302C3.97854 14.7757 4.24232 13.8022 4.9926 13.3693C6.3035 12.6155 6.30278 11.3834 4.99653 10.6292C4.23876 10.1917 3.98366 9.21691 4.41699 8.46636Z" stroke="black" stroke-opacity="0.2" stroke-width="1.5" stroke-miterlimit="10" stroke-linecap="round" stroke-linejoin="round"/>
<path d="M4.41699 8.46636L5.15032 7.19618C5.58366 6.44563 6.55542 6.17915 7.3132 6.61665C8.61945 7.37082 9.68683 6.75538 9.68426 5.24317C9.68399 4.37698 10.3952 3.66177 11.2686 3.66567L12.9297 3.67202C13.6956 3.662 14.3151 4.28907 14.3251 5.05504L14.3253 5.23799C14.3207 6.74604 15.3887 7.36271 16.6997 6.60882L16.8582 6.51754C17.5266 6.14324 18.3793 6.36616 18.7537 7.03452L19.5897 8.46983C20.0297 9.22427 19.766 10.1978 19.0157 10.6307C17.7047 11.3846 17.7055 12.6167 19.0117 13.3708C19.7623 13.8042 20.0288 14.7759 19.5913 15.5337L18.858 16.8038C18.4247 17.5544 17.4528 17.8209 16.6951 17.3834C15.3888 16.6292 14.3214 17.2447 14.324 18.7568C14.3202 19.6302 13.6131 20.3382 12.7397 20.3344L11.0787 20.328C10.3127 20.3381 9.69323 19.711 9.68321 18.945L9.68298 18.7621C9.68763 17.254 8.61953 16.6373 7.30863 17.3912L7.15008 17.4825C6.48172 17.8568 5.62893 17.6339 5.25463 16.9655L4.41861 15.5302C3.97854 14.7757 4.24232 13.8022 4.9926 13.3693C6.3035 12.6155 6.30278 11.3834 4.99653 10.6292C4.23876 10.1917 3.98366 9.21691 4.41699 8.46636Z" stroke="black" stroke-opacity="0.2" stroke-width="1.5" stroke-miterlimit="10" stroke-linecap="round" stroke-linejoin="round"/>
<path d="M14.7084 12C14.7084 10.5042 13.4959 9.29169 12.0001 9.29169C10.5043 9.29169 9.29175 10.5042 9.29175 12C9.29175 13.4958 10.5043 14.7084 12.0001 14.7084C13.4959 14.7084 14.7084 13.4958 14.7084 12Z" stroke="black" stroke-width="1.5"/>
<path d="M14.7084 12C14.7084 10.5042 13.4959 9.29169 12.0001 9.29169C10.5043 9.29169 9.29175 10.5042 9.29175 12C9.29175 13.4958 10.5043 14.7084 12.0001 14.7084C13.4959 14.7084 14.7084 13.4958 14.7084 12Z" stroke="black" stroke-opacity="0.2" stroke-width="1.5"/>
<path d="M14.7084 12C14.7084 10.5042 13.4959 9.29169 12.0001 9.29169C10.5043 9.29169 9.29175 10.5042 9.29175 12C9.29175 13.4958 10.5043 14.7084 12.0001 14.7084C13.4959 14.7084 14.7084 13.4958 14.7084 12Z" stroke="black" stroke-opacity="0.2" stroke-width="1.5"/>
<path d="M14.7084 12C14.7084 10.5042 13.4959 9.29169 12.0001 9.29169C10.5043 9.29169 9.29175 10.5042 9.29175 12C9.29175 13.4958 10.5043 14.7084 12.0001 14.7084C13.4959 14.7084 14.7084 13.4958 14.7084 12Z" stroke="black" stroke-opacity="0.2" stroke-width="1.5"/>
</svg>
