<svg width="22" height="23" viewBox="0 0 22 23" fill="none" xmlns="http://www.w3.org/2000/svg">
<path d="M9.46926 15.7102H3.6936" stroke="#1B1A1F" stroke-width="1.5" stroke-linecap="round" stroke-linejoin="round"/>
<path d="M12.0454 6.82532H17.8211" stroke="#1B1A1F" stroke-width="1.5" stroke-linecap="round" stroke-linejoin="round"/>
<path fill-rule="evenodd" clip-rule="evenodd" d="M7.99918 6.77573C7.99918 5.58805 7.0292 4.625 5.83296 4.625C4.63673 4.625 3.66675 5.58805 3.66675 6.77573C3.66675 7.96342 4.63673 8.92646 5.83296 8.92646C7.0292 8.92646 7.99918 7.96342 7.99918 6.77573Z" stroke="#1B1A1F" stroke-width="1.5" stroke-linecap="round" stroke-linejoin="round"/>
<path fill-rule="evenodd" clip-rule="evenodd" d="M18.3334 15.6743C18.3334 14.4866 17.3642 13.5236 16.1679 13.5236C14.971 13.5236 14.001 14.4866 14.001 15.6743C14.001 16.862 14.971 17.825 16.1679 17.825C17.3642 17.825 18.3334 16.862 18.3334 15.6743Z" stroke="#1B1A1F" stroke-width="1.5" stroke-linecap="round" stroke-linejoin="round"/>
</svg>
