<svg width="18" height="18" viewBox="0 0 18 18" fill="none" xmlns="http://www.w3.org/2000/svg">
<mask id="mask0_2_399" style="mask-type:alpha" maskUnits="userSpaceOnUse" x="0" y="0" width="18" height="18">
<rect width="18" height="18" transform="matrix(1 0 0 -1 0 18)" fill="#D9D9D9"/>
</mask>
<g mask="url(#mask0_2_399)">
<path d="M8.99779 10.2798L13.0708 6.20651C13.2093 6.06817 13.3834 5.99734 13.593 5.99401C13.8025 5.99084 13.9798 6.06167 14.1248 6.20651C14.2696 6.35151 14.342 6.52717 14.342 6.73351C14.342 6.93984 14.2696 7.11551 14.1248 7.26051L9.63054 11.7548C9.53687 11.8483 9.43812 11.9143 9.33429 11.9528C9.23046 11.9913 9.11829 12.0105 8.99779 12.0105C8.87729 12.0105 8.76512 11.9913 8.66129 11.9528C8.55746 11.9143 8.45871 11.8483 8.36504 11.7548L3.87079 7.26051C3.73246 7.12201 3.66162 6.94792 3.65829 6.73826C3.65512 6.52876 3.72596 6.35151 3.87079 6.20651C4.01579 6.06167 4.19146 5.98926 4.39779 5.98926C4.60412 5.98926 4.77979 6.06167 4.92479 6.20651L8.99779 10.2798Z" fill="#6F7173"/>
</g>
</svg>
