<svg width="18" height="18" viewBox="0 0 18 18" fill="none" xmlns="http://www.w3.org/2000/svg">
<mask id="mask0_2_402" style="mask-type:alpha" maskUnits="userSpaceOnUse" x="0" y="0" width="18" height="18">
<rect width="18" height="18" transform="matrix(1 -1.74846e-07 -1.74846e-07 -1 0 18)" fill="#D9D9D9"/>
</mask>
<g mask="url(#mask0_2_402)">
<path d="M9.00221 7.72L4.92921 11.7932C4.79071 11.9316 4.61663 12.0024 4.40696 12.0057C4.19746 12.0089 4.02021 11.9381 3.87521 11.7932C3.73038 11.6482 3.65796 11.4726 3.65796 11.2662C3.65796 11.0599 3.73038 10.8842 3.87521 10.7392L8.36946 6.245C8.46313 6.1515 8.56188 6.0855 8.66571 6.047C8.76954 6.0085 8.88171 5.98925 9.00221 5.98925C9.12271 5.98925 9.23488 6.0085 9.33871 6.047C9.44254 6.0855 9.54129 6.1515 9.63496 6.245L14.1292 10.7392C14.2675 10.8777 14.3384 11.0518 14.3417 11.2615C14.3449 11.471 14.274 11.6482 14.1292 11.7932C13.9842 11.9381 13.8085 12.0105 13.6022 12.0105C13.3959 12.0105 13.2202 11.9381 13.0752 11.7932L9.00221 7.72Z" fill="#BABCBE"/>
</g>
</svg>
