<svg width="50" height="48" viewBox="0 0 50 48" fill="none" xmlns="http://www.w3.org/2000/svg">
<path d="M26.0254 2.97214C30.9818 2.97214 35 6.88965 35 11.7221C35 16.5546 30.9818 20.4721 26.0254 20.4721H23.9746C22.907 20.4721 21.8812 20.2901 20.9297 19.9555L17.6318 20.9682C16.6419 21.2719 15.7118 20.3626 16.0254 19.3979L16.8076 16.9897C15.6731 15.5244 15 13.6991 15 11.7221C15 6.88965 19.0182 2.97214 23.9746 2.97214H26.0254Z" fill="black"/>
<path d="M26.0254 2.97214C30.9818 2.97214 35 6.88965 35 11.7221C35 16.5546 30.9818 20.4721 26.0254 20.4721H23.9746C22.907 20.4721 21.8812 20.2901 20.9297 19.9555L17.6318 20.9682C16.6419 21.2719 15.7118 20.3626 16.0254 19.3979L16.8076 16.9897C15.6731 15.5244 15 13.6991 15 11.7221C15 6.88965 19.0182 2.97214 23.9746 2.97214H26.0254Z" fill="black" fill-opacity="0.2"/>
<path d="M26.0254 2.97214C30.9818 2.97214 35 6.88965 35 11.7221C35 16.5546 30.9818 20.4721 26.0254 20.4721H23.9746C22.907 20.4721 21.8812 20.2901 20.9297 19.9555L17.6318 20.9682C16.6419 21.2719 15.7118 20.3626 16.0254 19.3979L16.8076 16.9897C15.6731 15.5244 15 13.6991 15 11.7221C15 6.88965 19.0182 2.97214 23.9746 2.97214H26.0254Z" fill="black" fill-opacity="0.2"/>
<path d="M26.0254 2.97214C30.9818 2.97214 35 6.88965 35 11.7221C35 16.5546 30.9818 20.4721 26.0254 20.4721H23.9746C22.907 20.4721 21.8812 20.2901 20.9297 19.9555L17.6318 20.9682C16.6419 21.2719 15.7118 20.3626 16.0254 19.3979L16.8076 16.9897C15.6731 15.5244 15 13.6991 15 11.7221C15 6.88965 19.0182 2.97214 23.9746 2.97214H26.0254Z" fill="black" fill-opacity="0.2"/>
<path d="M16.79 35.6514C16.79 36.4854 16.6807 37.2965 16.4619 38.085C16.2432 38.8734 15.9242 39.582 15.5049 40.2109C15.0856 40.8353 14.5752 41.3184 13.9736 41.6602L13.2148 40.7031C13.7617 40.3887 14.2288 39.9626 14.6162 39.4248C15.0036 38.887 15.2952 38.2923 15.4912 37.6406C15.6917 36.9889 15.792 36.3258 15.792 35.6514V35.0908H16.79V35.6514ZM17.0156 35.6514C17.0156 36.3031 17.1136 36.9388 17.3096 37.5586C17.5101 38.1738 17.8063 38.7344 18.1982 39.2402C18.5902 39.7461 19.0618 40.1449 19.6133 40.4365L18.8682 41.4004C18.2666 41.0723 17.7516 40.612 17.3232 40.0195C16.8949 39.4271 16.5713 38.7572 16.3525 38.0098C16.1383 37.2578 16.0312 36.4717 16.0312 35.6514V35.0908H17.0156V35.6514ZM19.251 35.2002H13.543V34.1338H19.251V35.2002ZM17.0225 34.9336H15.792V32.3496H17.0225V34.9336ZM23.9336 44.1553H22.6826V31.9053H23.9336V44.1553ZM23.1406 37.873H20.8643V36.7861H23.1406V37.873ZM21.2266 43.5537H19.9961V32.1377H21.2266V43.5537ZM27.7959 37.6201C29.0309 37.6156 30.0199 37.5928 30.7627 37.5518C31.5055 37.5062 32.2529 37.4242 33.0049 37.3057L33.1348 38.3447C32.2962 38.4814 31.4531 38.5726 30.6055 38.6182C29.7578 38.6592 28.6117 38.6797 27.167 38.6797H26.1553V37.6201H27.167H27.7959ZM32.0479 33.8467H27.4609V38.1328H26.1553V32.8008H32.0479V33.8467ZM31.6992 36.2256H27.0439V35.1865H31.6992V36.2256ZM35.6094 39.4521H34.3174V31.9189H35.6094V39.4521ZM31.5146 39.6299C32.3669 39.6208 33.1051 39.7051 33.7295 39.8828C34.3538 40.0605 34.8324 40.318 35.165 40.6553C35.5023 40.9925 35.6709 41.4004 35.6709 41.8789C35.6709 42.3529 35.5023 42.7585 35.165 43.0957C34.8324 43.4375 34.3538 43.6973 33.7295 43.875C33.1097 44.0527 32.3714 44.1416 31.5146 44.1416C30.6488 44.1416 29.9036 44.0527 29.2793 43.875C28.6549 43.6973 28.1764 43.4375 27.8438 43.0957C27.5111 42.7585 27.3447 42.3529 27.3447 41.8789C27.3447 41.4004 27.5111 40.9925 27.8438 40.6553C28.1764 40.318 28.6549 40.0605 29.2793 39.8828C29.9036 39.7051 30.6488 39.6208 31.5146 39.6299ZM31.5146 40.6416C30.9085 40.6416 30.389 40.6895 29.9561 40.7852C29.5231 40.8809 29.195 41.0221 28.9717 41.209C28.7484 41.3913 28.6367 41.6146 28.6367 41.8789C28.6367 42.1387 28.7484 42.3643 28.9717 42.5557C29.195 42.7425 29.5231 42.8861 29.9561 42.9863C30.389 43.082 30.9085 43.1299 31.5146 43.1299C32.1117 43.1299 32.6243 43.082 33.0527 42.9863C33.4857 42.8861 33.8161 42.7425 34.0439 42.5557C34.2718 42.3643 34.3857 42.1387 34.3857 41.8789C34.3857 41.6191 34.2718 41.3958 34.0439 41.209C33.8161 41.0221 33.4857 40.8809 33.0527 40.7852C32.6243 40.6895 32.1117 40.6416 31.5146 40.6416Z" fill="black"/>
<path d="M16.79 35.6514C16.79 36.4854 16.6807 37.2965 16.4619 38.085C16.2432 38.8734 15.9242 39.582 15.5049 40.2109C15.0856 40.8353 14.5752 41.3184 13.9736 41.6602L13.2148 40.7031C13.7617 40.3887 14.2288 39.9626 14.6162 39.4248C15.0036 38.887 15.2952 38.2923 15.4912 37.6406C15.6917 36.9889 15.792 36.3258 15.792 35.6514V35.0908H16.79V35.6514ZM17.0156 35.6514C17.0156 36.3031 17.1136 36.9388 17.3096 37.5586C17.5101 38.1738 17.8063 38.7344 18.1982 39.2402C18.5902 39.7461 19.0618 40.1449 19.6133 40.4365L18.8682 41.4004C18.2666 41.0723 17.7516 40.612 17.3232 40.0195C16.8949 39.4271 16.5713 38.7572 16.3525 38.0098C16.1383 37.2578 16.0312 36.4717 16.0312 35.6514V35.0908H17.0156V35.6514ZM19.251 35.2002H13.543V34.1338H19.251V35.2002ZM17.0225 34.9336H15.792V32.3496H17.0225V34.9336ZM23.9336 44.1553H22.6826V31.9053H23.9336V44.1553ZM23.1406 37.873H20.8643V36.7861H23.1406V37.873ZM21.2266 43.5537H19.9961V32.1377H21.2266V43.5537ZM27.7959 37.6201C29.0309 37.6156 30.0199 37.5928 30.7627 37.5518C31.5055 37.5062 32.2529 37.4242 33.0049 37.3057L33.1348 38.3447C32.2962 38.4814 31.4531 38.5726 30.6055 38.6182C29.7578 38.6592 28.6117 38.6797 27.167 38.6797H26.1553V37.6201H27.167H27.7959ZM32.0479 33.8467H27.4609V38.1328H26.1553V32.8008H32.0479V33.8467ZM31.6992 36.2256H27.0439V35.1865H31.6992V36.2256ZM35.6094 39.4521H34.3174V31.9189H35.6094V39.4521ZM31.5146 39.6299C32.3669 39.6208 33.1051 39.7051 33.7295 39.8828C34.3538 40.0605 34.8324 40.318 35.165 40.6553C35.5023 40.9925 35.6709 41.4004 35.6709 41.8789C35.6709 42.3529 35.5023 42.7585 35.165 43.0957C34.8324 43.4375 34.3538 43.6973 33.7295 43.875C33.1097 44.0527 32.3714 44.1416 31.5146 44.1416C30.6488 44.1416 29.9036 44.0527 29.2793 43.875C28.6549 43.6973 28.1764 43.4375 27.8438 43.0957C27.5111 42.7585 27.3447 42.3529 27.3447 41.8789C27.3447 41.4004 27.5111 40.9925 27.8438 40.6553C28.1764 40.318 28.6549 40.0605 29.2793 39.8828C29.9036 39.7051 30.6488 39.6208 31.5146 39.6299ZM31.5146 40.6416C30.9085 40.6416 30.389 40.6895 29.9561 40.7852C29.5231 40.8809 29.195 41.0221 28.9717 41.209C28.7484 41.3913 28.6367 41.6146 28.6367 41.8789C28.6367 42.1387 28.7484 42.3643 28.9717 42.5557C29.195 42.7425 29.5231 42.8861 29.9561 42.9863C30.389 43.082 30.9085 43.1299 31.5146 43.1299C32.1117 43.1299 32.6243 43.082 33.0527 42.9863C33.4857 42.8861 33.8161 42.7425 34.0439 42.5557C34.2718 42.3643 34.3857 42.1387 34.3857 41.8789C34.3857 41.6191 34.2718 41.3958 34.0439 41.209C33.8161 41.0221 33.4857 40.8809 33.0527 40.7852C32.6243 40.6895 32.1117 40.6416 31.5146 40.6416Z" fill="black" fill-opacity="0.2"/>
<path d="M16.79 35.6514C16.79 36.4854 16.6807 37.2965 16.4619 38.085C16.2432 38.8734 15.9242 39.582 15.5049 40.2109C15.0856 40.8353 14.5752 41.3184 13.9736 41.6602L13.2148 40.7031C13.7617 40.3887 14.2288 39.9626 14.6162 39.4248C15.0036 38.887 15.2952 38.2923 15.4912 37.6406C15.6917 36.9889 15.792 36.3258 15.792 35.6514V35.0908H16.79V35.6514ZM17.0156 35.6514C17.0156 36.3031 17.1136 36.9388 17.3096 37.5586C17.5101 38.1738 17.8063 38.7344 18.1982 39.2402C18.5902 39.7461 19.0618 40.1449 19.6133 40.4365L18.8682 41.4004C18.2666 41.0723 17.7516 40.612 17.3232 40.0195C16.8949 39.4271 16.5713 38.7572 16.3525 38.0098C16.1383 37.2578 16.0312 36.4717 16.0312 35.6514V35.0908H17.0156V35.6514ZM19.251 35.2002H13.543V34.1338H19.251V35.2002ZM17.0225 34.9336H15.792V32.3496H17.0225V34.9336ZM23.9336 44.1553H22.6826V31.9053H23.9336V44.1553ZM23.1406 37.873H20.8643V36.7861H23.1406V37.873ZM21.2266 43.5537H19.9961V32.1377H21.2266V43.5537ZM27.7959 37.6201C29.0309 37.6156 30.0199 37.5928 30.7627 37.5518C31.5055 37.5062 32.2529 37.4242 33.0049 37.3057L33.1348 38.3447C32.2962 38.4814 31.4531 38.5726 30.6055 38.6182C29.7578 38.6592 28.6117 38.6797 27.167 38.6797H26.1553V37.6201H27.167H27.7959ZM32.0479 33.8467H27.4609V38.1328H26.1553V32.8008H32.0479V33.8467ZM31.6992 36.2256H27.0439V35.1865H31.6992V36.2256ZM35.6094 39.4521H34.3174V31.9189H35.6094V39.4521ZM31.5146 39.6299C32.3669 39.6208 33.1051 39.7051 33.7295 39.8828C34.3538 40.0605 34.8324 40.318 35.165 40.6553C35.5023 40.9925 35.6709 41.4004 35.6709 41.8789C35.6709 42.3529 35.5023 42.7585 35.165 43.0957C34.8324 43.4375 34.3538 43.6973 33.7295 43.875C33.1097 44.0527 32.3714 44.1416 31.5146 44.1416C30.6488 44.1416 29.9036 44.0527 29.2793 43.875C28.6549 43.6973 28.1764 43.4375 27.8438 43.0957C27.5111 42.7585 27.3447 42.3529 27.3447 41.8789C27.3447 41.4004 27.5111 40.9925 27.8438 40.6553C28.1764 40.318 28.6549 40.0605 29.2793 39.8828C29.9036 39.7051 30.6488 39.6208 31.5146 39.6299ZM31.5146 40.6416C30.9085 40.6416 30.389 40.6895 29.9561 40.7852C29.5231 40.8809 29.195 41.0221 28.9717 41.209C28.7484 41.3913 28.6367 41.6146 28.6367 41.8789C28.6367 42.1387 28.7484 42.3643 28.9717 42.5557C29.195 42.7425 29.5231 42.8861 29.9561 42.9863C30.389 43.082 30.9085 43.1299 31.5146 43.1299C32.1117 43.1299 32.6243 43.082 33.0527 42.9863C33.4857 42.8861 33.8161 42.7425 34.0439 42.5557C34.2718 42.3643 34.3857 42.1387 34.3857 41.8789C34.3857 41.6191 34.2718 41.3958 34.0439 41.209C33.8161 41.0221 33.4857 40.8809 33.0527 40.7852C32.6243 40.6895 32.1117 40.6416 31.5146 40.6416Z" fill="black" fill-opacity="0.2"/>
<path d="M16.79 35.6514C16.79 36.4854 16.6807 37.2965 16.4619 38.085C16.2432 38.8734 15.9242 39.582 15.5049 40.2109C15.0856 40.8353 14.5752 41.3184 13.9736 41.6602L13.2148 40.7031C13.7617 40.3887 14.2288 39.9626 14.6162 39.4248C15.0036 38.887 15.2952 38.2923 15.4912 37.6406C15.6917 36.9889 15.792 36.3258 15.792 35.6514V35.0908H16.79V35.6514ZM17.0156 35.6514C17.0156 36.3031 17.1136 36.9388 17.3096 37.5586C17.5101 38.1738 17.8063 38.7344 18.1982 39.2402C18.5902 39.7461 19.0618 40.1449 19.6133 40.4365L18.8682 41.4004C18.2666 41.0723 17.7516 40.612 17.3232 40.0195C16.8949 39.4271 16.5713 38.7572 16.3525 38.0098C16.1383 37.2578 16.0312 36.4717 16.0312 35.6514V35.0908H17.0156V35.6514ZM19.251 35.2002H13.543V34.1338H19.251V35.2002ZM17.0225 34.9336H15.792V32.3496H17.0225V34.9336ZM23.9336 44.1553H22.6826V31.9053H23.9336V44.1553ZM23.1406 37.873H20.8643V36.7861H23.1406V37.873ZM21.2266 43.5537H19.9961V32.1377H21.2266V43.5537ZM27.7959 37.6201C29.0309 37.6156 30.0199 37.5928 30.7627 37.5518C31.5055 37.5062 32.2529 37.4242 33.0049 37.3057L33.1348 38.3447C32.2962 38.4814 31.4531 38.5726 30.6055 38.6182C29.7578 38.6592 28.6117 38.6797 27.167 38.6797H26.1553V37.6201H27.167H27.7959ZM32.0479 33.8467H27.4609V38.1328H26.1553V32.8008H32.0479V33.8467ZM31.6992 36.2256H27.0439V35.1865H31.6992V36.2256ZM35.6094 39.4521H34.3174V31.9189H35.6094V39.4521ZM31.5146 39.6299C32.3669 39.6208 33.1051 39.7051 33.7295 39.8828C34.3538 40.0605 34.8324 40.318 35.165 40.6553C35.5023 40.9925 35.6709 41.4004 35.6709 41.8789C35.6709 42.3529 35.5023 42.7585 35.165 43.0957C34.8324 43.4375 34.3538 43.6973 33.7295 43.875C33.1097 44.0527 32.3714 44.1416 31.5146 44.1416C30.6488 44.1416 29.9036 44.0527 29.2793 43.875C28.6549 43.6973 28.1764 43.4375 27.8438 43.0957C27.5111 42.7585 27.3447 42.3529 27.3447 41.8789C27.3447 41.4004 27.5111 40.9925 27.8438 40.6553C28.1764 40.318 28.6549 40.0605 29.2793 39.8828C29.9036 39.7051 30.6488 39.6208 31.5146 39.6299ZM31.5146 40.6416C30.9085 40.6416 30.389 40.6895 29.9561 40.7852C29.5231 40.8809 29.195 41.0221 28.9717 41.209C28.7484 41.3913 28.6367 41.6146 28.6367 41.8789C28.6367 42.1387 28.7484 42.3643 28.9717 42.5557C29.195 42.7425 29.5231 42.8861 29.9561 42.9863C30.389 43.082 30.9085 43.1299 31.5146 43.1299C32.1117 43.1299 32.6243 43.082 33.0527 42.9863C33.4857 42.8861 33.8161 42.7425 34.0439 42.5557C34.2718 42.3643 34.3857 42.1387 34.3857 41.8789C34.3857 41.6191 34.2718 41.3958 34.0439 41.209C33.8161 41.0221 33.4857 40.8809 33.0527 40.7852C32.6243 40.6895 32.1117 40.6416 31.5146 40.6416Z" fill="black" fill-opacity="0.2"/>
</svg>
