<svg width="50" height="48" viewBox="0 0 50 48" fill="none" xmlns="http://www.w3.org/2000/svg">
<path d="M25 12C28.3137 12 31 9.31371 31 6C31 2.68629 28.3137 0 25 0C21.6863 0 19 2.68629 19 6C19 9.31371 21.6863 12 25 12Z" fill="black"/>
<path d="M25 12C28.3137 12 31 9.31371 31 6C31 2.68629 28.3137 0 25 0C21.6863 0 19 2.68629 19 6C19 9.31371 21.6863 12 25 12Z" fill="black" fill-opacity="0.2"/>
<path d="M25 12C28.3137 12 31 9.31371 31 6C31 2.68629 28.3137 0 25 0C21.6863 0 19 2.68629 19 6C19 9.31371 21.6863 12 25 12Z" fill="black" fill-opacity="0.2"/>
<path d="M25 12C28.3137 12 31 9.31371 31 6C31 2.68629 28.3137 0 25 0C21.6863 0 19 2.68629 19 6C19 9.31371 21.6863 12 25 12Z" fill="black" fill-opacity="0.2"/>
<path d="M25 13.9991C20.0317 14.0046 16.0055 18.0308 16 22.9991C16 23.5514 16.4477 23.9991 17 23.9991H33C33.5522 23.9991 34 23.5514 34 22.9991C33.9945 18.0308 29.9683 14.0046 25 13.9991Z" fill="black"/>
<path d="M25 13.9991C20.0317 14.0046 16.0055 18.0308 16 22.9991C16 23.5514 16.4477 23.9991 17 23.9991H33C33.5522 23.9991 34 23.5514 34 22.9991C33.9945 18.0308 29.9683 14.0046 25 13.9991Z" fill="black" fill-opacity="0.2"/>
<path d="M25 13.9991C20.0317 14.0046 16.0055 18.0308 16 22.9991C16 23.5514 16.4477 23.9991 17 23.9991H33C33.5522 23.9991 34 23.5514 34 22.9991C33.9945 18.0308 29.9683 14.0046 25 13.9991Z" fill="black" fill-opacity="0.2"/>
<path d="M25 13.9991C20.0317 14.0046 16.0055 18.0308 16 22.9991C16 23.5514 16.4477 23.9991 17 23.9991H33C33.5522 23.9991 34 23.5514 34 22.9991C33.9945 18.0308 29.9683 14.0046 25 13.9991Z" fill="black" fill-opacity="0.2"/>
<path d="M23.5098 40.9424H22.2178V31.9189H23.5098V40.9424ZM23.8789 43.916H15.5049V42.8428H23.8789V43.916ZM16.8037 43.4238H15.5049V40.1152H16.8037V43.4238ZM17.6855 34.7695C17.6855 35.4987 17.542 36.18 17.2549 36.8135C16.9723 37.4469 16.5713 37.9984 16.0518 38.4678C15.5322 38.9372 14.9147 39.2881 14.1992 39.5205L13.5498 38.502C14.1742 38.3014 14.7165 38.0143 15.1768 37.6406C15.637 37.2624 15.9902 36.8249 16.2363 36.3281C16.487 35.8268 16.6123 35.3073 16.6123 34.7695V34.2705H17.6855V34.7695ZM17.9043 34.7695C17.9043 35.2799 18.0296 35.7676 18.2803 36.2324C18.5309 36.6973 18.8887 37.1074 19.3535 37.4629C19.8184 37.8138 20.3607 38.085 20.9805 38.2764L20.3516 39.3018C19.6315 39.083 19.0072 38.7526 18.4785 38.3105C17.9544 37.8639 17.5511 37.3376 17.2686 36.7314C16.9906 36.1208 16.8516 35.4668 16.8516 34.7695V34.2705H17.9043V34.7695ZM20.6182 34.5234H13.8984V33.4912H20.6182V34.5234ZM17.918 33.9697H16.6123V31.9736H17.918V33.9697ZM34.5566 33.7305H26.8115V32.6777H34.5566V33.7305ZM36.6211 38.9873H25.4512V37.9277H36.6211V38.9873ZM31.6514 44.1826H30.3525V38.6455H31.6514V44.1826ZM35.1992 33.7578C35.1992 34.3503 35.1924 34.8607 35.1787 35.2891C35.165 35.7129 35.1217 36.2051 35.0488 36.7656C34.9805 37.3216 34.8711 37.9255 34.7207 38.5771L33.4355 38.4268C33.5859 37.8024 33.6953 37.2191 33.7637 36.6768C33.832 36.1344 33.873 35.6536 33.8867 35.2344C33.9004 34.8151 33.9072 34.3252 33.9072 33.7646V32.6777H35.1992V33.7578Z" fill="black"/>
<path d="M23.5098 40.9424H22.2178V31.9189H23.5098V40.9424ZM23.8789 43.916H15.5049V42.8428H23.8789V43.916ZM16.8037 43.4238H15.5049V40.1152H16.8037V43.4238ZM17.6855 34.7695C17.6855 35.4987 17.542 36.18 17.2549 36.8135C16.9723 37.4469 16.5713 37.9984 16.0518 38.4678C15.5322 38.9372 14.9147 39.2881 14.1992 39.5205L13.5498 38.502C14.1742 38.3014 14.7165 38.0143 15.1768 37.6406C15.637 37.2624 15.9902 36.8249 16.2363 36.3281C16.487 35.8268 16.6123 35.3073 16.6123 34.7695V34.2705H17.6855V34.7695ZM17.9043 34.7695C17.9043 35.2799 18.0296 35.7676 18.2803 36.2324C18.5309 36.6973 18.8887 37.1074 19.3535 37.4629C19.8184 37.8138 20.3607 38.085 20.9805 38.2764L20.3516 39.3018C19.6315 39.083 19.0072 38.7526 18.4785 38.3105C17.9544 37.8639 17.5511 37.3376 17.2686 36.7314C16.9906 36.1208 16.8516 35.4668 16.8516 34.7695V34.2705H17.9043V34.7695ZM20.6182 34.5234H13.8984V33.4912H20.6182V34.5234ZM17.918 33.9697H16.6123V31.9736H17.918V33.9697ZM34.5566 33.7305H26.8115V32.6777H34.5566V33.7305ZM36.6211 38.9873H25.4512V37.9277H36.6211V38.9873ZM31.6514 44.1826H30.3525V38.6455H31.6514V44.1826ZM35.1992 33.7578C35.1992 34.3503 35.1924 34.8607 35.1787 35.2891C35.165 35.7129 35.1217 36.2051 35.0488 36.7656C34.9805 37.3216 34.8711 37.9255 34.7207 38.5771L33.4355 38.4268C33.5859 37.8024 33.6953 37.2191 33.7637 36.6768C33.832 36.1344 33.873 35.6536 33.8867 35.2344C33.9004 34.8151 33.9072 34.3252 33.9072 33.7646V32.6777H35.1992V33.7578Z" fill="black" fill-opacity="0.2"/>
<path d="M23.5098 40.9424H22.2178V31.9189H23.5098V40.9424ZM23.8789 43.916H15.5049V42.8428H23.8789V43.916ZM16.8037 43.4238H15.5049V40.1152H16.8037V43.4238ZM17.6855 34.7695C17.6855 35.4987 17.542 36.18 17.2549 36.8135C16.9723 37.4469 16.5713 37.9984 16.0518 38.4678C15.5322 38.9372 14.9147 39.2881 14.1992 39.5205L13.5498 38.502C14.1742 38.3014 14.7165 38.0143 15.1768 37.6406C15.637 37.2624 15.9902 36.8249 16.2363 36.3281C16.487 35.8268 16.6123 35.3073 16.6123 34.7695V34.2705H17.6855V34.7695ZM17.9043 34.7695C17.9043 35.2799 18.0296 35.7676 18.2803 36.2324C18.5309 36.6973 18.8887 37.1074 19.3535 37.4629C19.8184 37.8138 20.3607 38.085 20.9805 38.2764L20.3516 39.3018C19.6315 39.083 19.0072 38.7526 18.4785 38.3105C17.9544 37.8639 17.5511 37.3376 17.2686 36.7314C16.9906 36.1208 16.8516 35.4668 16.8516 34.7695V34.2705H17.9043V34.7695ZM20.6182 34.5234H13.8984V33.4912H20.6182V34.5234ZM17.918 33.9697H16.6123V31.9736H17.918V33.9697ZM34.5566 33.7305H26.8115V32.6777H34.5566V33.7305ZM36.6211 38.9873H25.4512V37.9277H36.6211V38.9873ZM31.6514 44.1826H30.3525V38.6455H31.6514V44.1826ZM35.1992 33.7578C35.1992 34.3503 35.1924 34.8607 35.1787 35.2891C35.165 35.7129 35.1217 36.2051 35.0488 36.7656C34.9805 37.3216 34.8711 37.9255 34.7207 38.5771L33.4355 38.4268C33.5859 37.8024 33.6953 37.2191 33.7637 36.6768C33.832 36.1344 33.873 35.6536 33.8867 35.2344C33.9004 34.8151 33.9072 34.3252 33.9072 33.7646V32.6777H35.1992V33.7578Z" fill="black" fill-opacity="0.2"/>
<path d="M23.5098 40.9424H22.2178V31.9189H23.5098V40.9424ZM23.8789 43.916H15.5049V42.8428H23.8789V43.916ZM16.8037 43.4238H15.5049V40.1152H16.8037V43.4238ZM17.6855 34.7695C17.6855 35.4987 17.542 36.18 17.2549 36.8135C16.9723 37.4469 16.5713 37.9984 16.0518 38.4678C15.5322 38.9372 14.9147 39.2881 14.1992 39.5205L13.5498 38.502C14.1742 38.3014 14.7165 38.0143 15.1768 37.6406C15.637 37.2624 15.9902 36.8249 16.2363 36.3281C16.487 35.8268 16.6123 35.3073 16.6123 34.7695V34.2705H17.6855V34.7695ZM17.9043 34.7695C17.9043 35.2799 18.0296 35.7676 18.2803 36.2324C18.5309 36.6973 18.8887 37.1074 19.3535 37.4629C19.8184 37.8138 20.3607 38.085 20.9805 38.2764L20.3516 39.3018C19.6315 39.083 19.0072 38.7526 18.4785 38.3105C17.9544 37.8639 17.5511 37.3376 17.2686 36.7314C16.9906 36.1208 16.8516 35.4668 16.8516 34.7695V34.2705H17.9043V34.7695ZM20.6182 34.5234H13.8984V33.4912H20.6182V34.5234ZM17.918 33.9697H16.6123V31.9736H17.918V33.9697ZM34.5566 33.7305H26.8115V32.6777H34.5566V33.7305ZM36.6211 38.9873H25.4512V37.9277H36.6211V38.9873ZM31.6514 44.1826H30.3525V38.6455H31.6514V44.1826ZM35.1992 33.7578C35.1992 34.3503 35.1924 34.8607 35.1787 35.2891C35.165 35.7129 35.1217 36.2051 35.0488 36.7656C34.9805 37.3216 34.8711 37.9255 34.7207 38.5771L33.4355 38.4268C33.5859 37.8024 33.6953 37.2191 33.7637 36.6768C33.832 36.1344 33.873 35.6536 33.8867 35.2344C33.9004 34.8151 33.9072 34.3252 33.9072 33.7646V32.6777H35.1992V33.7578Z" fill="black" fill-opacity="0.2"/>
</svg>
