<svg width="50" height="48" viewBox="0 0 50 48" fill="none" xmlns="http://www.w3.org/2000/svg">
<circle cx="18" cy="12" r="2.5" fill="black"/>
<circle cx="18" cy="12" r="2.5" fill="black" fill-opacity="0.2"/>
<circle cx="18" cy="12" r="2.5" fill="black" fill-opacity="0.2"/>
<circle cx="18" cy="12" r="2.5" fill="black" fill-opacity="0.2"/>
<circle cx="25" cy="12" r="2.5" fill="black"/>
<circle cx="25" cy="12" r="2.5" fill="black" fill-opacity="0.2"/>
<circle cx="25" cy="12" r="2.5" fill="black" fill-opacity="0.2"/>
<circle cx="25" cy="12" r="2.5" fill="black" fill-opacity="0.2"/>
<circle cx="32" cy="12" r="2.5" fill="black"/>
<circle cx="32" cy="12" r="2.5" fill="black" fill-opacity="0.2"/>
<circle cx="32" cy="12" r="2.5" fill="black" fill-opacity="0.2"/>
<circle cx="32" cy="12" r="2.5" fill="black" fill-opacity="0.2"/>
<path d="M8.86719 40.0947C10.0658 40.0947 11.0661 40.0674 11.8682 40.0127C12.6702 39.958 13.4769 39.8555 14.2881 39.7051L14.4385 40.7646C13.5954 40.9287 12.7637 41.0404 11.9434 41.0996C11.123 41.1543 10.0977 41.1816 8.86719 41.1816H7.91016V40.0947H8.86719ZM13.5225 34.1201H9.21582V40.4912H7.91016V33.0469H13.5225V34.1201ZM17.5352 44.1895H16.2295V31.9053H17.5352V44.1895ZM16.7832 37.3604H12.832V36.2939H16.7832V37.3604ZM30.6123 42.6377H19.4014V41.5713H30.6123V42.6377ZM25.6152 41.8721H24.3438V38.7139H25.6152V41.8721ZM21.9854 34.8584H28.001V32.7461H29.2793V39.0557H20.6797V32.7461H21.9854V34.8584ZM28.001 38.0029V35.9043H21.9854V38.0029H28.001ZM41.6865 44.1553H40.374V31.9053H41.6865V44.1553ZM38.0498 33.2246C38.0498 34.4733 37.8561 35.6286 37.4688 36.6904C37.0859 37.7477 36.4707 38.723 35.623 39.6162C34.7754 40.5049 33.6725 41.2751 32.3145 41.9268L31.6172 40.874C32.7975 40.318 33.766 39.6709 34.5225 38.9326C35.2835 38.1943 35.8464 37.3695 36.2109 36.458C36.5755 35.5465 36.7578 34.5394 36.7578 33.4365V33.2246H38.0498ZM37.3184 34.2637H32.2119V33.2246H37.3184V34.2637Z" fill="black"/>
<path d="M8.86719 40.0947C10.0658 40.0947 11.0661 40.0674 11.8682 40.0127C12.6702 39.958 13.4769 39.8555 14.2881 39.7051L14.4385 40.7646C13.5954 40.9287 12.7637 41.0404 11.9434 41.0996C11.123 41.1543 10.0977 41.1816 8.86719 41.1816H7.91016V40.0947H8.86719ZM13.5225 34.1201H9.21582V40.4912H7.91016V33.0469H13.5225V34.1201ZM17.5352 44.1895H16.2295V31.9053H17.5352V44.1895ZM16.7832 37.3604H12.832V36.2939H16.7832V37.3604ZM30.6123 42.6377H19.4014V41.5713H30.6123V42.6377ZM25.6152 41.8721H24.3438V38.7139H25.6152V41.8721ZM21.9854 34.8584H28.001V32.7461H29.2793V39.0557H20.6797V32.7461H21.9854V34.8584ZM28.001 38.0029V35.9043H21.9854V38.0029H28.001ZM41.6865 44.1553H40.374V31.9053H41.6865V44.1553ZM38.0498 33.2246C38.0498 34.4733 37.8561 35.6286 37.4688 36.6904C37.0859 37.7477 36.4707 38.723 35.623 39.6162C34.7754 40.5049 33.6725 41.2751 32.3145 41.9268L31.6172 40.874C32.7975 40.318 33.766 39.6709 34.5225 38.9326C35.2835 38.1943 35.8464 37.3695 36.2109 36.458C36.5755 35.5465 36.7578 34.5394 36.7578 33.4365V33.2246H38.0498ZM37.3184 34.2637H32.2119V33.2246H37.3184V34.2637Z" fill="black" fill-opacity="0.2"/>
<path d="M8.86719 40.0947C10.0658 40.0947 11.0661 40.0674 11.8682 40.0127C12.6702 39.958 13.4769 39.8555 14.2881 39.7051L14.4385 40.7646C13.5954 40.9287 12.7637 41.0404 11.9434 41.0996C11.123 41.1543 10.0977 41.1816 8.86719 41.1816H7.91016V40.0947H8.86719ZM13.5225 34.1201H9.21582V40.4912H7.91016V33.0469H13.5225V34.1201ZM17.5352 44.1895H16.2295V31.9053H17.5352V44.1895ZM16.7832 37.3604H12.832V36.2939H16.7832V37.3604ZM30.6123 42.6377H19.4014V41.5713H30.6123V42.6377ZM25.6152 41.8721H24.3438V38.7139H25.6152V41.8721ZM21.9854 34.8584H28.001V32.7461H29.2793V39.0557H20.6797V32.7461H21.9854V34.8584ZM28.001 38.0029V35.9043H21.9854V38.0029H28.001ZM41.6865 44.1553H40.374V31.9053H41.6865V44.1553ZM38.0498 33.2246C38.0498 34.4733 37.8561 35.6286 37.4688 36.6904C37.0859 37.7477 36.4707 38.723 35.623 39.6162C34.7754 40.5049 33.6725 41.2751 32.3145 41.9268L31.6172 40.874C32.7975 40.318 33.766 39.6709 34.5225 38.9326C35.2835 38.1943 35.8464 37.3695 36.2109 36.458C36.5755 35.5465 36.7578 34.5394 36.7578 33.4365V33.2246H38.0498ZM37.3184 34.2637H32.2119V33.2246H37.3184V34.2637Z" fill="black" fill-opacity="0.2"/>
<path d="M8.86719 40.0947C10.0658 40.0947 11.0661 40.0674 11.8682 40.0127C12.6702 39.958 13.4769 39.8555 14.2881 39.7051L14.4385 40.7646C13.5954 40.9287 12.7637 41.0404 11.9434 41.0996C11.123 41.1543 10.0977 41.1816 8.86719 41.1816H7.91016V40.0947H8.86719ZM13.5225 34.1201H9.21582V40.4912H7.91016V33.0469H13.5225V34.1201ZM17.5352 44.1895H16.2295V31.9053H17.5352V44.1895ZM16.7832 37.3604H12.832V36.2939H16.7832V37.3604ZM30.6123 42.6377H19.4014V41.5713H30.6123V42.6377ZM25.6152 41.8721H24.3438V38.7139H25.6152V41.8721ZM21.9854 34.8584H28.001V32.7461H29.2793V39.0557H20.6797V32.7461H21.9854V34.8584ZM28.001 38.0029V35.9043H21.9854V38.0029H28.001ZM41.6865 44.1553H40.374V31.9053H41.6865V44.1553ZM38.0498 33.2246C38.0498 34.4733 37.8561 35.6286 37.4688 36.6904C37.0859 37.7477 36.4707 38.723 35.623 39.6162C34.7754 40.5049 33.6725 41.2751 32.3145 41.9268L31.6172 40.874C32.7975 40.318 33.766 39.6709 34.5225 38.9326C35.2835 38.1943 35.8464 37.3695 36.2109 36.458C36.5755 35.5465 36.7578 34.5394 36.7578 33.4365V33.2246H38.0498ZM37.3184 34.2637H32.2119V33.2246H37.3184V34.2637Z" fill="black" fill-opacity="0.2"/>
</svg>
