<svg width="50" height="48" viewBox="0 0 50 48" fill="none" xmlns="http://www.w3.org/2000/svg">
<g clip-path="url(#clip0_87_63643)">
<path d="M35 15.3332V19.4998C35 20.1629 34.7366 20.7987 34.2678 21.2676C33.7989 21.7364 33.163 21.9998 32.5 21.9998H28.3333C27.1642 21.9986 26.016 21.69 25.0039 21.1049C23.9917 20.5199 23.1512 19.6789 22.5667 18.6665C23.1949 18.662 23.821 18.5927 24.435 18.4598C24.9026 19.0445 25.4958 19.5165 26.1707 19.8408C26.8455 20.1651 27.5846 20.3334 28.3333 20.3332H32.5C32.721 20.3332 32.933 20.2454 33.0893 20.0891C33.2455 19.9328 33.3333 19.7208 33.3333 19.4998V15.3332C33.3331 14.5842 33.1643 13.8449 32.8395 13.17C32.5146 12.4952 32.042 11.9021 31.4567 11.4348C31.5907 10.8209 31.6611 10.1948 31.6667 9.56648C32.6791 10.151 33.5201 10.9915 34.1051 12.0037C34.6902 13.0159 34.9988 14.1641 35 15.3332ZM29.9808 10.0423C30.0588 8.96868 29.9047 7.89085 29.529 6.88206C29.1534 5.87328 28.565 4.95717 27.8038 4.196C27.0426 3.43483 26.1265 2.84643 25.1178 2.47078C24.109 2.09513 23.0311 1.94104 21.9575 2.01898C20.0549 2.23626 18.2974 3.14163 17.016 4.5646C15.7345 5.98757 15.0175 7.82996 15 9.74482V13.9448C15 16.0548 16.2558 16.9998 17.5 16.9998H22.25C24.1657 16.9833 26.0092 16.2668 27.4332 14.9853C28.8571 13.7037 29.7633 11.9457 29.9808 10.0423ZM26.625 5.37565C27.2166 5.96857 27.674 6.68165 27.9661 7.46664C28.2582 8.25163 28.3784 9.09021 28.3183 9.92565C28.1405 11.412 27.4254 12.7822 26.3078 13.7781C25.1901 14.774 23.747 15.3271 22.25 15.3332H17.5C16.7267 15.3332 16.6667 14.2707 16.6667 13.9448V9.74482C16.6736 8.24846 17.2272 6.80624 18.2233 5.68955C19.2193 4.57286 20.5892 3.85871 22.075 3.68148C22.2133 3.67148 22.3517 3.66648 22.49 3.66648C23.2577 3.66577 24.0181 3.81635 24.7276 4.10961C25.4371 4.40288 26.0818 4.83309 26.625 5.37565Z" fill="black"/>
<path d="M35 15.3332V19.4998C35 20.1629 34.7366 20.7987 34.2678 21.2676C33.7989 21.7364 33.163 21.9998 32.5 21.9998H28.3333C27.1642 21.9986 26.016 21.69 25.0039 21.1049C23.9917 20.5199 23.1512 19.6789 22.5667 18.6665C23.1949 18.662 23.821 18.5927 24.435 18.4598C24.9026 19.0445 25.4958 19.5165 26.1707 19.8408C26.8455 20.1651 27.5846 20.3334 28.3333 20.3332H32.5C32.721 20.3332 32.933 20.2454 33.0893 20.0891C33.2455 19.9328 33.3333 19.7208 33.3333 19.4998V15.3332C33.3331 14.5842 33.1643 13.8449 32.8395 13.17C32.5146 12.4952 32.042 11.9021 31.4567 11.4348C31.5907 10.8209 31.6611 10.1948 31.6667 9.56648C32.6791 10.151 33.5201 10.9915 34.1051 12.0037C34.6902 13.0159 34.9988 14.1641 35 15.3332ZM29.9808 10.0423C30.0588 8.96868 29.9047 7.89085 29.529 6.88206C29.1534 5.87328 28.565 4.95717 27.8038 4.196C27.0426 3.43483 26.1265 2.84643 25.1178 2.47078C24.109 2.09513 23.0311 1.94104 21.9575 2.01898C20.0549 2.23626 18.2974 3.14163 17.016 4.5646C15.7345 5.98757 15.0175 7.82996 15 9.74482V13.9448C15 16.0548 16.2558 16.9998 17.5 16.9998H22.25C24.1657 16.9833 26.0092 16.2668 27.4332 14.9853C28.8571 13.7037 29.7633 11.9457 29.9808 10.0423ZM26.625 5.37565C27.2166 5.96857 27.674 6.68165 27.9661 7.46664C28.2582 8.25163 28.3784 9.09021 28.3183 9.92565C28.1405 11.412 27.4254 12.7822 26.3078 13.7781C25.1901 14.774 23.747 15.3271 22.25 15.3332H17.5C16.7267 15.3332 16.6667 14.2707 16.6667 13.9448V9.74482C16.6736 8.24846 17.2272 6.80624 18.2233 5.68955C19.2193 4.57286 20.5892 3.85871 22.075 3.68148C22.2133 3.67148 22.3517 3.66648 22.49 3.66648C23.2577 3.66577 24.0181 3.81635 24.7276 4.10961C25.4371 4.40288 26.0818 4.83309 26.625 5.37565Z" fill="black" fill-opacity="0.2"/>
<path d="M35 15.3332V19.4998C35 20.1629 34.7366 20.7987 34.2678 21.2676C33.7989 21.7364 33.163 21.9998 32.5 21.9998H28.3333C27.1642 21.9986 26.016 21.69 25.0039 21.1049C23.9917 20.5199 23.1512 19.6789 22.5667 18.6665C23.1949 18.662 23.821 18.5927 24.435 18.4598C24.9026 19.0445 25.4958 19.5165 26.1707 19.8408C26.8455 20.1651 27.5846 20.3334 28.3333 20.3332H32.5C32.721 20.3332 32.933 20.2454 33.0893 20.0891C33.2455 19.9328 33.3333 19.7208 33.3333 19.4998V15.3332C33.3331 14.5842 33.1643 13.8449 32.8395 13.17C32.5146 12.4952 32.042 11.9021 31.4567 11.4348C31.5907 10.8209 31.6611 10.1948 31.6667 9.56648C32.6791 10.151 33.5201 10.9915 34.1051 12.0037C34.6902 13.0159 34.9988 14.1641 35 15.3332ZM29.9808 10.0423C30.0588 8.96868 29.9047 7.89085 29.529 6.88206C29.1534 5.87328 28.565 4.95717 27.8038 4.196C27.0426 3.43483 26.1265 2.84643 25.1178 2.47078C24.109 2.09513 23.0311 1.94104 21.9575 2.01898C20.0549 2.23626 18.2974 3.14163 17.016 4.5646C15.7345 5.98757 15.0175 7.82996 15 9.74482V13.9448C15 16.0548 16.2558 16.9998 17.5 16.9998H22.25C24.1657 16.9833 26.0092 16.2668 27.4332 14.9853C28.8571 13.7037 29.7633 11.9457 29.9808 10.0423ZM26.625 5.37565C27.2166 5.96857 27.674 6.68165 27.9661 7.46664C28.2582 8.25163 28.3784 9.09021 28.3183 9.92565C28.1405 11.412 27.4254 12.7822 26.3078 13.7781C25.1901 14.774 23.747 15.3271 22.25 15.3332H17.5C16.7267 15.3332 16.6667 14.2707 16.6667 13.9448V9.74482C16.6736 8.24846 17.2272 6.80624 18.2233 5.68955C19.2193 4.57286 20.5892 3.85871 22.075 3.68148C22.2133 3.67148 22.3517 3.66648 22.49 3.66648C23.2577 3.66577 24.0181 3.81635 24.7276 4.10961C25.4371 4.40288 26.0818 4.83309 26.625 5.37565Z" fill="black" fill-opacity="0.2"/>
<path d="M35 15.3332V19.4998C35 20.1629 34.7366 20.7987 34.2678 21.2676C33.7989 21.7364 33.163 21.9998 32.5 21.9998H28.3333C27.1642 21.9986 26.016 21.69 25.0039 21.1049C23.9917 20.5199 23.1512 19.6789 22.5667 18.6665C23.1949 18.662 23.821 18.5927 24.435 18.4598C24.9026 19.0445 25.4958 19.5165 26.1707 19.8408C26.8455 20.1651 27.5846 20.3334 28.3333 20.3332H32.5C32.721 20.3332 32.933 20.2454 33.0893 20.0891C33.2455 19.9328 33.3333 19.7208 33.3333 19.4998V15.3332C33.3331 14.5842 33.1643 13.8449 32.8395 13.17C32.5146 12.4952 32.042 11.9021 31.4567 11.4348C31.5907 10.8209 31.6611 10.1948 31.6667 9.56648C32.6791 10.151 33.5201 10.9915 34.1051 12.0037C34.6902 13.0159 34.9988 14.1641 35 15.3332ZM29.9808 10.0423C30.0588 8.96868 29.9047 7.89085 29.529 6.88206C29.1534 5.87328 28.565 4.95717 27.8038 4.196C27.0426 3.43483 26.1265 2.84643 25.1178 2.47078C24.109 2.09513 23.0311 1.94104 21.9575 2.01898C20.0549 2.23626 18.2974 3.14163 17.016 4.5646C15.7345 5.98757 15.0175 7.82996 15 9.74482V13.9448C15 16.0548 16.2558 16.9998 17.5 16.9998H22.25C24.1657 16.9833 26.0092 16.2668 27.4332 14.9853C28.8571 13.7037 29.7633 11.9457 29.9808 10.0423ZM26.625 5.37565C27.2166 5.96857 27.674 6.68165 27.9661 7.46664C28.2582 8.25163 28.3784 9.09021 28.3183 9.92565C28.1405 11.412 27.4254 12.7822 26.3078 13.7781C25.1901 14.774 23.747 15.3271 22.25 15.3332H17.5C16.7267 15.3332 16.6667 14.2707 16.6667 13.9448V9.74482C16.6736 8.24846 17.2272 6.80624 18.2233 5.68955C19.2193 4.57286 20.5892 3.85871 22.075 3.68148C22.2133 3.67148 22.3517 3.66648 22.49 3.66648C23.2577 3.66577 24.0181 3.81635 24.7276 4.10961C25.4371 4.40288 26.0818 4.83309 26.625 5.37565Z" fill="black" fill-opacity="0.2"/>
</g>
<path d="M15.8333 8.24999L17.9166 5.33332L20.8333 3.66666H24.5833L27.4999 5.33332L28.7499 7.41666V10.3333L27.4999 13.6667L24.1666 15.3333H16.6666L15.8333 8.24999Z" fill="black"/>
<path d="M15.8333 8.24999L17.9166 5.33332L20.8333 3.66666H24.5833L27.4999 5.33332L28.7499 7.41666V10.3333L27.4999 13.6667L24.1666 15.3333H16.6666L15.8333 8.24999Z" fill="black" fill-opacity="0.2"/>
<path d="M15.8333 8.24999L17.9166 5.33332L20.8333 3.66666H24.5833L27.4999 5.33332L28.7499 7.41666V10.3333L27.4999 13.6667L24.1666 15.3333H16.6666L15.8333 8.24999Z" fill="black" fill-opacity="0.2"/>
<path d="M15.8333 8.24999L17.9166 5.33332L20.8333 3.66666H24.5833L27.4999 5.33332L28.7499 7.41666V10.3333L27.4999 13.6667L24.1666 15.3333H16.6666L15.8333 8.24999Z" fill="black" fill-opacity="0.2"/>
<path d="M7.46582 41.7969H6.19434V38.8096H7.46582V41.7969ZM6.83691 32.6504C7.7028 32.6504 8.47982 32.7871 9.16797 33.0605C9.85612 33.3294 10.3916 33.7122 10.7744 34.209C11.1618 34.7012 11.3555 35.2686 11.3555 35.9111C11.3555 36.5628 11.1618 37.1348 10.7744 37.627C10.3916 38.1191 9.85612 38.502 9.16797 38.7754C8.47982 39.0443 7.7028 39.1787 6.83691 39.1787C5.96647 39.1787 5.18717 39.0443 4.49902 38.7754C3.81543 38.502 3.27995 38.1191 2.89258 37.627C2.50521 37.1348 2.31152 36.5628 2.31152 35.9111C2.31152 35.2686 2.50521 34.7012 2.89258 34.209C3.27995 33.7122 3.81543 33.3294 4.49902 33.0605C5.18717 32.7871 5.96647 32.6504 6.83691 32.6504ZM6.83691 33.7031C6.21257 33.7031 5.65202 33.7943 5.15527 33.9766C4.65853 34.1589 4.27116 34.4186 3.99316 34.7559C3.71973 35.0885 3.58301 35.4736 3.58301 35.9111C3.58301 36.3532 3.71973 36.7428 3.99316 37.0801C4.27116 37.4173 4.65625 37.6771 5.14844 37.8594C5.64062 38.0417 6.20345 38.1351 6.83691 38.1396C7.47038 38.1351 8.03092 38.0417 8.51855 37.8594C9.01074 37.6771 9.39583 37.4173 9.67383 37.0801C9.95182 36.7428 10.0908 36.3532 10.0908 35.9111C10.0908 35.4736 9.95182 35.0885 9.67383 34.7559C9.39583 34.4186 9.01074 34.1589 8.51855 33.9766C8.02637 33.7943 7.46582 33.7031 6.83691 33.7031ZM12.4629 42.6309H1.25195V41.5576H12.4629V42.6309ZM23.4756 33.5391H14.377V32.5H23.4756V33.5391ZM23.4209 37.1621H14.4316V36.1299H23.4209V37.1621ZM17.4531 36.6221H16.1611V32.9512H17.4531V36.6221ZM21.6914 36.6221H20.3926V32.9512H21.6914V36.6221ZM24.5215 39.4316H13.3516V38.3789H24.5215V39.4316ZM23.2705 43.916H14.7666V42.8428H23.2705V43.916ZM16.0654 43.1846H14.7666V40.4502H16.0654V43.1846ZM28.8896 35.6514C28.8896 36.4854 28.7803 37.2965 28.5615 38.085C28.3428 38.8734 28.0238 39.582 27.6045 40.2109C27.1852 40.8353 26.6748 41.3184 26.0732 41.6602L25.3145 40.7031C25.8613 40.3887 26.3285 39.9626 26.7158 39.4248C27.1032 38.887 27.3949 38.2923 27.5908 37.6406C27.7913 36.9889 27.8916 36.3258 27.8916 35.6514V35.0908H28.8896V35.6514ZM29.1152 35.6514C29.1152 36.3031 29.2132 36.9388 29.4092 37.5586C29.6097 38.1738 29.9059 38.7344 30.2979 39.2402C30.6898 39.7461 31.1615 40.1449 31.7129 40.4365L30.9678 41.4004C30.3662 41.0723 29.8512 40.612 29.4229 40.0195C28.9945 39.4271 28.6709 38.7572 28.4521 38.0098C28.238 37.2578 28.1309 36.4717 28.1309 35.6514V35.0908H29.1152V35.6514ZM31.3506 35.2002H25.6426V34.1338H31.3506V35.2002ZM29.1221 34.9336H27.8916V32.3496H29.1221V34.9336ZM36.0332 44.1553H34.7822V31.9053H36.0332V44.1553ZM35.2402 37.873H32.9639V36.7861H35.2402V37.873ZM33.3262 43.5537H32.0957V32.1377H33.3262V43.5537ZM39.8955 37.6201C41.1305 37.6156 42.1195 37.5928 42.8623 37.5518C43.6051 37.5062 44.3525 37.4242 45.1045 37.3057L45.2344 38.3447C44.3958 38.4814 43.5527 38.5726 42.7051 38.6182C41.8574 38.6592 40.7113 38.6797 39.2666 38.6797H38.2549V37.6201H39.2666H39.8955ZM44.1475 33.8467H39.5605V38.1328H38.2549V32.8008H44.1475V33.8467ZM43.7988 36.2256H39.1436V35.1865H43.7988V36.2256ZM47.709 39.4521H46.417V31.9189H47.709V39.4521ZM43.6143 39.6299C44.4665 39.6208 45.2048 39.7051 45.8291 39.8828C46.4535 40.0605 46.932 40.318 47.2646 40.6553C47.6019 40.9925 47.7705 41.4004 47.7705 41.8789C47.7705 42.3529 47.6019 42.7585 47.2646 43.0957C46.932 43.4375 46.4535 43.6973 45.8291 43.875C45.2093 44.0527 44.471 44.1416 43.6143 44.1416C42.7484 44.1416 42.0033 44.0527 41.3789 43.875C40.7546 43.6973 40.276 43.4375 39.9434 43.0957C39.6107 42.7585 39.4443 42.3529 39.4443 41.8789C39.4443 41.4004 39.6107 40.9925 39.9434 40.6553C40.276 40.318 40.7546 40.0605 41.3789 39.8828C42.0033 39.7051 42.7484 39.6208 43.6143 39.6299ZM43.6143 40.6416C43.0081 40.6416 42.4886 40.6895 42.0557 40.7852C41.6227 40.8809 41.2946 41.0221 41.0713 41.209C40.848 41.3913 40.7363 41.6146 40.7363 41.8789C40.7363 42.1387 40.848 42.3643 41.0713 42.5557C41.2946 42.7425 41.6227 42.8861 42.0557 42.9863C42.4886 43.082 43.0081 43.1299 43.6143 43.1299C44.2113 43.1299 44.724 43.082 45.1523 42.9863C45.5853 42.8861 45.9157 42.7425 46.1436 42.5557C46.3714 42.3643 46.4854 42.1387 46.4854 41.8789C46.4854 41.6191 46.3714 41.3958 46.1436 41.209C45.9157 41.0221 45.5853 40.8809 45.1523 40.7852C44.724 40.6895 44.2113 40.6416 43.6143 40.6416Z" fill="black"/>
<path d="M7.46582 41.7969H6.19434V38.8096H7.46582V41.7969ZM6.83691 32.6504C7.7028 32.6504 8.47982 32.7871 9.16797 33.0605C9.85612 33.3294 10.3916 33.7122 10.7744 34.209C11.1618 34.7012 11.3555 35.2686 11.3555 35.9111C11.3555 36.5628 11.1618 37.1348 10.7744 37.627C10.3916 38.1191 9.85612 38.502 9.16797 38.7754C8.47982 39.0443 7.7028 39.1787 6.83691 39.1787C5.96647 39.1787 5.18717 39.0443 4.49902 38.7754C3.81543 38.502 3.27995 38.1191 2.89258 37.627C2.50521 37.1348 2.31152 36.5628 2.31152 35.9111C2.31152 35.2686 2.50521 34.7012 2.89258 34.209C3.27995 33.7122 3.81543 33.3294 4.49902 33.0605C5.18717 32.7871 5.96647 32.6504 6.83691 32.6504ZM6.83691 33.7031C6.21257 33.7031 5.65202 33.7943 5.15527 33.9766C4.65853 34.1589 4.27116 34.4186 3.99316 34.7559C3.71973 35.0885 3.58301 35.4736 3.58301 35.9111C3.58301 36.3532 3.71973 36.7428 3.99316 37.0801C4.27116 37.4173 4.65625 37.6771 5.14844 37.8594C5.64062 38.0417 6.20345 38.1351 6.83691 38.1396C7.47038 38.1351 8.03092 38.0417 8.51855 37.8594C9.01074 37.6771 9.39583 37.4173 9.67383 37.0801C9.95182 36.7428 10.0908 36.3532 10.0908 35.9111C10.0908 35.4736 9.95182 35.0885 9.67383 34.7559C9.39583 34.4186 9.01074 34.1589 8.51855 33.9766C8.02637 33.7943 7.46582 33.7031 6.83691 33.7031ZM12.4629 42.6309H1.25195V41.5576H12.4629V42.6309ZM23.4756 33.5391H14.377V32.5H23.4756V33.5391ZM23.4209 37.1621H14.4316V36.1299H23.4209V37.1621ZM17.4531 36.6221H16.1611V32.9512H17.4531V36.6221ZM21.6914 36.6221H20.3926V32.9512H21.6914V36.6221ZM24.5215 39.4316H13.3516V38.3789H24.5215V39.4316ZM23.2705 43.916H14.7666V42.8428H23.2705V43.916ZM16.0654 43.1846H14.7666V40.4502H16.0654V43.1846ZM28.8896 35.6514C28.8896 36.4854 28.7803 37.2965 28.5615 38.085C28.3428 38.8734 28.0238 39.582 27.6045 40.2109C27.1852 40.8353 26.6748 41.3184 26.0732 41.6602L25.3145 40.7031C25.8613 40.3887 26.3285 39.9626 26.7158 39.4248C27.1032 38.887 27.3949 38.2923 27.5908 37.6406C27.7913 36.9889 27.8916 36.3258 27.8916 35.6514V35.0908H28.8896V35.6514ZM29.1152 35.6514C29.1152 36.3031 29.2132 36.9388 29.4092 37.5586C29.6097 38.1738 29.9059 38.7344 30.2979 39.2402C30.6898 39.7461 31.1615 40.1449 31.7129 40.4365L30.9678 41.4004C30.3662 41.0723 29.8512 40.612 29.4229 40.0195C28.9945 39.4271 28.6709 38.7572 28.4521 38.0098C28.238 37.2578 28.1309 36.4717 28.1309 35.6514V35.0908H29.1152V35.6514ZM31.3506 35.2002H25.6426V34.1338H31.3506V35.2002ZM29.1221 34.9336H27.8916V32.3496H29.1221V34.9336ZM36.0332 44.1553H34.7822V31.9053H36.0332V44.1553ZM35.2402 37.873H32.9639V36.7861H35.2402V37.873ZM33.3262 43.5537H32.0957V32.1377H33.3262V43.5537ZM39.8955 37.6201C41.1305 37.6156 42.1195 37.5928 42.8623 37.5518C43.6051 37.5062 44.3525 37.4242 45.1045 37.3057L45.2344 38.3447C44.3958 38.4814 43.5527 38.5726 42.7051 38.6182C41.8574 38.6592 40.7113 38.6797 39.2666 38.6797H38.2549V37.6201H39.2666H39.8955ZM44.1475 33.8467H39.5605V38.1328H38.2549V32.8008H44.1475V33.8467ZM43.7988 36.2256H39.1436V35.1865H43.7988V36.2256ZM47.709 39.4521H46.417V31.9189H47.709V39.4521ZM43.6143 39.6299C44.4665 39.6208 45.2048 39.7051 45.8291 39.8828C46.4535 40.0605 46.932 40.318 47.2646 40.6553C47.6019 40.9925 47.7705 41.4004 47.7705 41.8789C47.7705 42.3529 47.6019 42.7585 47.2646 43.0957C46.932 43.4375 46.4535 43.6973 45.8291 43.875C45.2093 44.0527 44.471 44.1416 43.6143 44.1416C42.7484 44.1416 42.0033 44.0527 41.3789 43.875C40.7546 43.6973 40.276 43.4375 39.9434 43.0957C39.6107 42.7585 39.4443 42.3529 39.4443 41.8789C39.4443 41.4004 39.6107 40.9925 39.9434 40.6553C40.276 40.318 40.7546 40.0605 41.3789 39.8828C42.0033 39.7051 42.7484 39.6208 43.6143 39.6299ZM43.6143 40.6416C43.0081 40.6416 42.4886 40.6895 42.0557 40.7852C41.6227 40.8809 41.2946 41.0221 41.0713 41.209C40.848 41.3913 40.7363 41.6146 40.7363 41.8789C40.7363 42.1387 40.848 42.3643 41.0713 42.5557C41.2946 42.7425 41.6227 42.8861 42.0557 42.9863C42.4886 43.082 43.0081 43.1299 43.6143 43.1299C44.2113 43.1299 44.724 43.082 45.1523 42.9863C45.5853 42.8861 45.9157 42.7425 46.1436 42.5557C46.3714 42.3643 46.4854 42.1387 46.4854 41.8789C46.4854 41.6191 46.3714 41.3958 46.1436 41.209C45.9157 41.0221 45.5853 40.8809 45.1523 40.7852C44.724 40.6895 44.2113 40.6416 43.6143 40.6416Z" fill="black" fill-opacity="0.2"/>
<path d="M7.46582 41.7969H6.19434V38.8096H7.46582V41.7969ZM6.83691 32.6504C7.7028 32.6504 8.47982 32.7871 9.16797 33.0605C9.85612 33.3294 10.3916 33.7122 10.7744 34.209C11.1618 34.7012 11.3555 35.2686 11.3555 35.9111C11.3555 36.5628 11.1618 37.1348 10.7744 37.627C10.3916 38.1191 9.85612 38.502 9.16797 38.7754C8.47982 39.0443 7.7028 39.1787 6.83691 39.1787C5.96647 39.1787 5.18717 39.0443 4.49902 38.7754C3.81543 38.502 3.27995 38.1191 2.89258 37.627C2.50521 37.1348 2.31152 36.5628 2.31152 35.9111C2.31152 35.2686 2.50521 34.7012 2.89258 34.209C3.27995 33.7122 3.81543 33.3294 4.49902 33.0605C5.18717 32.7871 5.96647 32.6504 6.83691 32.6504ZM6.83691 33.7031C6.21257 33.7031 5.65202 33.7943 5.15527 33.9766C4.65853 34.1589 4.27116 34.4186 3.99316 34.7559C3.71973 35.0885 3.58301 35.4736 3.58301 35.9111C3.58301 36.3532 3.71973 36.7428 3.99316 37.0801C4.27116 37.4173 4.65625 37.6771 5.14844 37.8594C5.64062 38.0417 6.20345 38.1351 6.83691 38.1396C7.47038 38.1351 8.03092 38.0417 8.51855 37.8594C9.01074 37.6771 9.39583 37.4173 9.67383 37.0801C9.95182 36.7428 10.0908 36.3532 10.0908 35.9111C10.0908 35.4736 9.95182 35.0885 9.67383 34.7559C9.39583 34.4186 9.01074 34.1589 8.51855 33.9766C8.02637 33.7943 7.46582 33.7031 6.83691 33.7031ZM12.4629 42.6309H1.25195V41.5576H12.4629V42.6309ZM23.4756 33.5391H14.377V32.5H23.4756V33.5391ZM23.4209 37.1621H14.4316V36.1299H23.4209V37.1621ZM17.4531 36.6221H16.1611V32.9512H17.4531V36.6221ZM21.6914 36.6221H20.3926V32.9512H21.6914V36.6221ZM24.5215 39.4316H13.3516V38.3789H24.5215V39.4316ZM23.2705 43.916H14.7666V42.8428H23.2705V43.916ZM16.0654 43.1846H14.7666V40.4502H16.0654V43.1846ZM28.8896 35.6514C28.8896 36.4854 28.7803 37.2965 28.5615 38.085C28.3428 38.8734 28.0238 39.582 27.6045 40.2109C27.1852 40.8353 26.6748 41.3184 26.0732 41.6602L25.3145 40.7031C25.8613 40.3887 26.3285 39.9626 26.7158 39.4248C27.1032 38.887 27.3949 38.2923 27.5908 37.6406C27.7913 36.9889 27.8916 36.3258 27.8916 35.6514V35.0908H28.8896V35.6514ZM29.1152 35.6514C29.1152 36.3031 29.2132 36.9388 29.4092 37.5586C29.6097 38.1738 29.9059 38.7344 30.2979 39.2402C30.6898 39.7461 31.1615 40.1449 31.7129 40.4365L30.9678 41.4004C30.3662 41.0723 29.8512 40.612 29.4229 40.0195C28.9945 39.4271 28.6709 38.7572 28.4521 38.0098C28.238 37.2578 28.1309 36.4717 28.1309 35.6514V35.0908H29.1152V35.6514ZM31.3506 35.2002H25.6426V34.1338H31.3506V35.2002ZM29.1221 34.9336H27.8916V32.3496H29.1221V34.9336ZM36.0332 44.1553H34.7822V31.9053H36.0332V44.1553ZM35.2402 37.873H32.9639V36.7861H35.2402V37.873ZM33.3262 43.5537H32.0957V32.1377H33.3262V43.5537ZM39.8955 37.6201C41.1305 37.6156 42.1195 37.5928 42.8623 37.5518C43.6051 37.5062 44.3525 37.4242 45.1045 37.3057L45.2344 38.3447C44.3958 38.4814 43.5527 38.5726 42.7051 38.6182C41.8574 38.6592 40.7113 38.6797 39.2666 38.6797H38.2549V37.6201H39.2666H39.8955ZM44.1475 33.8467H39.5605V38.1328H38.2549V32.8008H44.1475V33.8467ZM43.7988 36.2256H39.1436V35.1865H43.7988V36.2256ZM47.709 39.4521H46.417V31.9189H47.709V39.4521ZM43.6143 39.6299C44.4665 39.6208 45.2048 39.7051 45.8291 39.8828C46.4535 40.0605 46.932 40.318 47.2646 40.6553C47.6019 40.9925 47.7705 41.4004 47.7705 41.8789C47.7705 42.3529 47.6019 42.7585 47.2646 43.0957C46.932 43.4375 46.4535 43.6973 45.8291 43.875C45.2093 44.0527 44.471 44.1416 43.6143 44.1416C42.7484 44.1416 42.0033 44.0527 41.3789 43.875C40.7546 43.6973 40.276 43.4375 39.9434 43.0957C39.6107 42.7585 39.4443 42.3529 39.4443 41.8789C39.4443 41.4004 39.6107 40.9925 39.9434 40.6553C40.276 40.318 40.7546 40.0605 41.3789 39.8828C42.0033 39.7051 42.7484 39.6208 43.6143 39.6299ZM43.6143 40.6416C43.0081 40.6416 42.4886 40.6895 42.0557 40.7852C41.6227 40.8809 41.2946 41.0221 41.0713 41.209C40.848 41.3913 40.7363 41.6146 40.7363 41.8789C40.7363 42.1387 40.848 42.3643 41.0713 42.5557C41.2946 42.7425 41.6227 42.8861 42.0557 42.9863C42.4886 43.082 43.0081 43.1299 43.6143 43.1299C44.2113 43.1299 44.724 43.082 45.1523 42.9863C45.5853 42.8861 45.9157 42.7425 46.1436 42.5557C46.3714 42.3643 46.4854 42.1387 46.4854 41.8789C46.4854 41.6191 46.3714 41.3958 46.1436 41.209C45.9157 41.0221 45.5853 40.8809 45.1523 40.7852C44.724 40.6895 44.2113 40.6416 43.6143 40.6416Z" fill="black" fill-opacity="0.2"/>
<path d="M7.46582 41.7969H6.19434V38.8096H7.46582V41.7969ZM6.83691 32.6504C7.7028 32.6504 8.47982 32.7871 9.16797 33.0605C9.85612 33.3294 10.3916 33.7122 10.7744 34.209C11.1618 34.7012 11.3555 35.2686 11.3555 35.9111C11.3555 36.5628 11.1618 37.1348 10.7744 37.627C10.3916 38.1191 9.85612 38.502 9.16797 38.7754C8.47982 39.0443 7.7028 39.1787 6.83691 39.1787C5.96647 39.1787 5.18717 39.0443 4.49902 38.7754C3.81543 38.502 3.27995 38.1191 2.89258 37.627C2.50521 37.1348 2.31152 36.5628 2.31152 35.9111C2.31152 35.2686 2.50521 34.7012 2.89258 34.209C3.27995 33.7122 3.81543 33.3294 4.49902 33.0605C5.18717 32.7871 5.96647 32.6504 6.83691 32.6504ZM6.83691 33.7031C6.21257 33.7031 5.65202 33.7943 5.15527 33.9766C4.65853 34.1589 4.27116 34.4186 3.99316 34.7559C3.71973 35.0885 3.58301 35.4736 3.58301 35.9111C3.58301 36.3532 3.71973 36.7428 3.99316 37.0801C4.27116 37.4173 4.65625 37.6771 5.14844 37.8594C5.64062 38.0417 6.20345 38.1351 6.83691 38.1396C7.47038 38.1351 8.03092 38.0417 8.51855 37.8594C9.01074 37.6771 9.39583 37.4173 9.67383 37.0801C9.95182 36.7428 10.0908 36.3532 10.0908 35.9111C10.0908 35.4736 9.95182 35.0885 9.67383 34.7559C9.39583 34.4186 9.01074 34.1589 8.51855 33.9766C8.02637 33.7943 7.46582 33.7031 6.83691 33.7031ZM12.4629 42.6309H1.25195V41.5576H12.4629V42.6309ZM23.4756 33.5391H14.377V32.5H23.4756V33.5391ZM23.4209 37.1621H14.4316V36.1299H23.4209V37.1621ZM17.4531 36.6221H16.1611V32.9512H17.4531V36.6221ZM21.6914 36.6221H20.3926V32.9512H21.6914V36.6221ZM24.5215 39.4316H13.3516V38.3789H24.5215V39.4316ZM23.2705 43.916H14.7666V42.8428H23.2705V43.916ZM16.0654 43.1846H14.7666V40.4502H16.0654V43.1846ZM28.8896 35.6514C28.8896 36.4854 28.7803 37.2965 28.5615 38.085C28.3428 38.8734 28.0238 39.582 27.6045 40.2109C27.1852 40.8353 26.6748 41.3184 26.0732 41.6602L25.3145 40.7031C25.8613 40.3887 26.3285 39.9626 26.7158 39.4248C27.1032 38.887 27.3949 38.2923 27.5908 37.6406C27.7913 36.9889 27.8916 36.3258 27.8916 35.6514V35.0908H28.8896V35.6514ZM29.1152 35.6514C29.1152 36.3031 29.2132 36.9388 29.4092 37.5586C29.6097 38.1738 29.9059 38.7344 30.2979 39.2402C30.6898 39.7461 31.1615 40.1449 31.7129 40.4365L30.9678 41.4004C30.3662 41.0723 29.8512 40.612 29.4229 40.0195C28.9945 39.4271 28.6709 38.7572 28.4521 38.0098C28.238 37.2578 28.1309 36.4717 28.1309 35.6514V35.0908H29.1152V35.6514ZM31.3506 35.2002H25.6426V34.1338H31.3506V35.2002ZM29.1221 34.9336H27.8916V32.3496H29.1221V34.9336ZM36.0332 44.1553H34.7822V31.9053H36.0332V44.1553ZM35.2402 37.873H32.9639V36.7861H35.2402V37.873ZM33.3262 43.5537H32.0957V32.1377H33.3262V43.5537ZM39.8955 37.6201C41.1305 37.6156 42.1195 37.5928 42.8623 37.5518C43.6051 37.5062 44.3525 37.4242 45.1045 37.3057L45.2344 38.3447C44.3958 38.4814 43.5527 38.5726 42.7051 38.6182C41.8574 38.6592 40.7113 38.6797 39.2666 38.6797H38.2549V37.6201H39.2666H39.8955ZM44.1475 33.8467H39.5605V38.1328H38.2549V32.8008H44.1475V33.8467ZM43.7988 36.2256H39.1436V35.1865H43.7988V36.2256ZM47.709 39.4521H46.417V31.9189H47.709V39.4521ZM43.6143 39.6299C44.4665 39.6208 45.2048 39.7051 45.8291 39.8828C46.4535 40.0605 46.932 40.318 47.2646 40.6553C47.6019 40.9925 47.7705 41.4004 47.7705 41.8789C47.7705 42.3529 47.6019 42.7585 47.2646 43.0957C46.932 43.4375 46.4535 43.6973 45.8291 43.875C45.2093 44.0527 44.471 44.1416 43.6143 44.1416C42.7484 44.1416 42.0033 44.0527 41.3789 43.875C40.7546 43.6973 40.276 43.4375 39.9434 43.0957C39.6107 42.7585 39.4443 42.3529 39.4443 41.8789C39.4443 41.4004 39.6107 40.9925 39.9434 40.6553C40.276 40.318 40.7546 40.0605 41.3789 39.8828C42.0033 39.7051 42.7484 39.6208 43.6143 39.6299ZM43.6143 40.6416C43.0081 40.6416 42.4886 40.6895 42.0557 40.7852C41.6227 40.8809 41.2946 41.0221 41.0713 41.209C40.848 41.3913 40.7363 41.6146 40.7363 41.8789C40.7363 42.1387 40.848 42.3643 41.0713 42.5557C41.2946 42.7425 41.6227 42.8861 42.0557 42.9863C42.4886 43.082 43.0081 43.1299 43.6143 43.1299C44.2113 43.1299 44.724 43.082 45.1523 42.9863C45.5853 42.8861 45.9157 42.7425 46.1436 42.5557C46.3714 42.3643 46.4854 42.1387 46.4854 41.8789C46.4854 41.6191 46.3714 41.3958 46.1436 41.209C45.9157 41.0221 45.5853 40.8809 45.1523 40.7852C44.724 40.6895 44.2113 40.6416 43.6143 40.6416Z" fill="black" fill-opacity="0.2"/>
<defs>
<clipPath id="clip0_87_63643">
<rect width="20" height="20" fill="white" transform="translate(15 2)"/>
</clipPath>
</defs>
</svg>
