<svg width="50" height="48" viewBox="0 0 50 48" fill="none" xmlns="http://www.w3.org/2000/svg">
<path d="M30 6.75H20C17.6528 6.75 15.75 8.65279 15.75 11V17C15.75 19.3472 17.6528 21.25 20 21.25H30C32.3472 21.25 34.25 19.3472 34.25 17V11C34.25 8.65279 32.3472 6.75 30 6.75Z" stroke="black" stroke-width="1.5"/>
<path d="M30 6.75H20C17.6528 6.75 15.75 8.65279 15.75 11V17C15.75 19.3472 17.6528 21.25 20 21.25H30C32.3472 21.25 34.25 19.3472 34.25 17V11C34.25 8.65279 32.3472 6.75 30 6.75Z" stroke="black" stroke-opacity="0.2" stroke-width="1.5"/>
<path d="M30 6.75H20C17.6528 6.75 15.75 8.65279 15.75 11V17C15.75 19.3472 17.6528 21.25 20 21.25H30C32.3472 21.25 34.25 19.3472 34.25 17V11C34.25 8.65279 32.3472 6.75 30 6.75Z" stroke="black" stroke-opacity="0.2" stroke-width="1.5"/>
<path d="M30 6.75H20C17.6528 6.75 15.75 8.65279 15.75 11V17C15.75 19.3472 17.6528 21.25 20 21.25H30C32.3472 21.25 34.25 19.3472 34.25 17V11C34.25 8.65279 32.3472 6.75 30 6.75Z" stroke="black" stroke-opacity="0.2" stroke-width="1.5"/>
<path fill-rule="evenodd" clip-rule="evenodd" d="M20.8516 9C21.3896 9 21.7321 8.3671 21.6027 7.84493C21.5356 7.57434 21.5 7.29133 21.5 7C21.5 5.067 23.067 3.5 25 3.5C26.933 3.5 28.5 5.067 28.5 7C28.5 7.29133 28.4644 7.57434 28.3973 7.84493C28.2679 8.3671 28.6105 9 29.1484 9C29.413 9 29.6563 8.84454 29.7406 8.59377C29.9088 8.0932 30 7.55725 30 7C30 4.23858 27.7614 2 25 2C22.2386 2 20 4.23858 20 7C20 7.55725 20.0912 8.0932 20.2594 8.59377C20.3436 8.84454 20.587 9 20.8516 9Z" fill="black"/>
<path fill-rule="evenodd" clip-rule="evenodd" d="M20.8516 9C21.3896 9 21.7321 8.3671 21.6027 7.84493C21.5356 7.57434 21.5 7.29133 21.5 7C21.5 5.067 23.067 3.5 25 3.5C26.933 3.5 28.5 5.067 28.5 7C28.5 7.29133 28.4644 7.57434 28.3973 7.84493C28.2679 8.3671 28.6105 9 29.1484 9C29.413 9 29.6563 8.84454 29.7406 8.59377C29.9088 8.0932 30 7.55725 30 7C30 4.23858 27.7614 2 25 2C22.2386 2 20 4.23858 20 7C20 7.55725 20.0912 8.0932 20.2594 8.59377C20.3436 8.84454 20.587 9 20.8516 9Z" fill="black" fill-opacity="0.2"/>
<path fill-rule="evenodd" clip-rule="evenodd" d="M20.8516 9C21.3896 9 21.7321 8.3671 21.6027 7.84493C21.5356 7.57434 21.5 7.29133 21.5 7C21.5 5.067 23.067 3.5 25 3.5C26.933 3.5 28.5 5.067 28.5 7C28.5 7.29133 28.4644 7.57434 28.3973 7.84493C28.2679 8.3671 28.6105 9 29.1484 9C29.413 9 29.6563 8.84454 29.7406 8.59377C29.9088 8.0932 30 7.55725 30 7C30 4.23858 27.7614 2 25 2C22.2386 2 20 4.23858 20 7C20 7.55725 20.0912 8.0932 20.2594 8.59377C20.3436 8.84454 20.587 9 20.8516 9Z" fill="black" fill-opacity="0.2"/>
<path fill-rule="evenodd" clip-rule="evenodd" d="M20.8516 9C21.3896 9 21.7321 8.3671 21.6027 7.84493C21.5356 7.57434 21.5 7.29133 21.5 7C21.5 5.067 23.067 3.5 25 3.5C26.933 3.5 28.5 5.067 28.5 7C28.5 7.29133 28.4644 7.57434 28.3973 7.84493C28.2679 8.3671 28.6105 9 29.1484 9C29.413 9 29.6563 8.84454 29.7406 8.59377C29.9088 8.0932 30 7.55725 30 7C30 4.23858 27.7614 2 25 2C22.2386 2 20 4.23858 20 7C20 7.55725 20.0912 8.0932 20.2594 8.59377C20.3436 8.84454 20.587 9 20.8516 9Z" fill="black" fill-opacity="0.2"/>
<rect x="16" y="7" width="18" height="14" rx="3" fill="black"/>
<rect x="16" y="7" width="18" height="14" rx="3" fill="black" fill-opacity="0.2"/>
<rect x="16" y="7" width="18" height="14" rx="3" fill="black" fill-opacity="0.2"/>
<rect x="16" y="7" width="18" height="14" rx="3" fill="black" fill-opacity="0.2"/>
<path d="M17.6104 42.1523H16.3389V38.8848H17.6104V42.1523ZM21.5684 42.1523H20.2764V38.8848H21.5684V42.1523ZM24.5625 42.6309H13.3516V41.5781H24.5625V42.6309ZM19.3467 33.6074C19.3467 34.4323 19.1143 35.2002 18.6494 35.9111C18.1846 36.6221 17.5625 37.2191 16.7832 37.7021C16.0085 38.1852 15.1654 38.5111 14.2539 38.6797L13.7139 37.6064C14.4977 37.4743 15.2337 37.21 15.9219 36.8135C16.6146 36.4124 17.1683 35.9316 17.583 35.3711C17.9977 34.806 18.2051 34.2181 18.2051 33.6074V32.6846H19.3467V33.6074ZM19.5723 33.6074C19.5723 34.2181 19.7796 34.8083 20.1943 35.3779C20.6136 35.943 21.1696 36.4238 21.8623 36.8203C22.555 37.2168 23.291 37.4788 24.0703 37.6064L23.5508 38.6797C22.6348 38.5111 21.7848 38.1852 21.001 37.7021C20.2217 37.2191 19.6019 36.6243 19.1416 35.918C18.6859 35.207 18.458 34.4368 18.458 33.6074V32.6846H19.5723V33.6074ZM32.6357 33.9902H25.998V32.9238H32.6357V33.9902ZM25.6562 37.5449C27.0007 37.5449 28.3177 37.5199 29.6074 37.4697C30.8971 37.4196 32.0934 37.3239 33.1963 37.1826L33.2852 38.1602C32.1732 38.3424 30.9906 38.4655 29.7373 38.5293C28.4886 38.5885 27.1807 38.6182 25.8135 38.6182L25.6562 37.5449ZM28.3906 38.0371H27.1396V33.71H28.3906V38.0371ZM31.4668 38.0371H30.2227V33.71H31.4668V38.0371ZM35.6094 39.3838H34.3174V31.9189H35.6094V39.3838ZM31.5146 39.6367C32.3851 39.6367 33.1325 39.7233 33.7568 39.8965C34.3812 40.0697 34.8597 40.3249 35.1924 40.6621C35.5251 40.9948 35.6914 41.4004 35.6914 41.8789C35.6914 42.3529 35.5251 42.7585 35.1924 43.0957C34.8597 43.4375 34.3812 43.6973 33.7568 43.875C33.1325 44.0527 32.3851 44.1416 31.5146 44.1416C30.6579 44.1416 29.9173 44.0527 29.293 43.875C28.6686 43.6973 28.1901 43.4375 27.8574 43.0957C27.5247 42.7585 27.3584 42.3529 27.3584 41.8789C27.3584 41.4004 27.5247 40.9948 27.8574 40.6621C28.1901 40.3249 28.6686 40.0697 29.293 39.8965C29.9173 39.7233 30.6579 39.6367 31.5146 39.6367ZM31.5146 40.6553C30.9176 40.6553 30.4027 40.7031 29.9697 40.7988C29.5368 40.8945 29.2064 41.0335 28.9785 41.2158C28.7507 41.3981 28.6367 41.6191 28.6367 41.8789C28.6367 42.1387 28.7507 42.3643 28.9785 42.5557C29.2064 42.7425 29.5368 42.8861 29.9697 42.9863C30.4027 43.082 30.9176 43.1299 31.5146 43.1299C32.1208 43.1299 32.638 43.082 33.0664 42.9863C33.4993 42.8861 33.8275 42.7425 34.0508 42.5557C34.2786 42.3643 34.3926 42.1387 34.3926 41.8789C34.3926 41.6191 34.2786 41.3981 34.0508 41.2158C33.8275 41.0335 33.4993 40.8945 33.0664 40.7988C32.638 40.7031 32.1208 40.6553 31.5146 40.6553Z" fill="black"/>
<path d="M17.6104 42.1523H16.3389V38.8848H17.6104V42.1523ZM21.5684 42.1523H20.2764V38.8848H21.5684V42.1523ZM24.5625 42.6309H13.3516V41.5781H24.5625V42.6309ZM19.3467 33.6074C19.3467 34.4323 19.1143 35.2002 18.6494 35.9111C18.1846 36.6221 17.5625 37.2191 16.7832 37.7021C16.0085 38.1852 15.1654 38.5111 14.2539 38.6797L13.7139 37.6064C14.4977 37.4743 15.2337 37.21 15.9219 36.8135C16.6146 36.4124 17.1683 35.9316 17.583 35.3711C17.9977 34.806 18.2051 34.2181 18.2051 33.6074V32.6846H19.3467V33.6074ZM19.5723 33.6074C19.5723 34.2181 19.7796 34.8083 20.1943 35.3779C20.6136 35.943 21.1696 36.4238 21.8623 36.8203C22.555 37.2168 23.291 37.4788 24.0703 37.6064L23.5508 38.6797C22.6348 38.5111 21.7848 38.1852 21.001 37.7021C20.2217 37.2191 19.6019 36.6243 19.1416 35.918C18.6859 35.207 18.458 34.4368 18.458 33.6074V32.6846H19.5723V33.6074ZM32.6357 33.9902H25.998V32.9238H32.6357V33.9902ZM25.6562 37.5449C27.0007 37.5449 28.3177 37.5199 29.6074 37.4697C30.8971 37.4196 32.0934 37.3239 33.1963 37.1826L33.2852 38.1602C32.1732 38.3424 30.9906 38.4655 29.7373 38.5293C28.4886 38.5885 27.1807 38.6182 25.8135 38.6182L25.6562 37.5449ZM28.3906 38.0371H27.1396V33.71H28.3906V38.0371ZM31.4668 38.0371H30.2227V33.71H31.4668V38.0371ZM35.6094 39.3838H34.3174V31.9189H35.6094V39.3838ZM31.5146 39.6367C32.3851 39.6367 33.1325 39.7233 33.7568 39.8965C34.3812 40.0697 34.8597 40.3249 35.1924 40.6621C35.5251 40.9948 35.6914 41.4004 35.6914 41.8789C35.6914 42.3529 35.5251 42.7585 35.1924 43.0957C34.8597 43.4375 34.3812 43.6973 33.7568 43.875C33.1325 44.0527 32.3851 44.1416 31.5146 44.1416C30.6579 44.1416 29.9173 44.0527 29.293 43.875C28.6686 43.6973 28.1901 43.4375 27.8574 43.0957C27.5247 42.7585 27.3584 42.3529 27.3584 41.8789C27.3584 41.4004 27.5247 40.9948 27.8574 40.6621C28.1901 40.3249 28.6686 40.0697 29.293 39.8965C29.9173 39.7233 30.6579 39.6367 31.5146 39.6367ZM31.5146 40.6553C30.9176 40.6553 30.4027 40.7031 29.9697 40.7988C29.5368 40.8945 29.2064 41.0335 28.9785 41.2158C28.7507 41.3981 28.6367 41.6191 28.6367 41.8789C28.6367 42.1387 28.7507 42.3643 28.9785 42.5557C29.2064 42.7425 29.5368 42.8861 29.9697 42.9863C30.4027 43.082 30.9176 43.1299 31.5146 43.1299C32.1208 43.1299 32.638 43.082 33.0664 42.9863C33.4993 42.8861 33.8275 42.7425 34.0508 42.5557C34.2786 42.3643 34.3926 42.1387 34.3926 41.8789C34.3926 41.6191 34.2786 41.3981 34.0508 41.2158C33.8275 41.0335 33.4993 40.8945 33.0664 40.7988C32.638 40.7031 32.1208 40.6553 31.5146 40.6553Z" fill="black" fill-opacity="0.2"/>
<path d="M17.6104 42.1523H16.3389V38.8848H17.6104V42.1523ZM21.5684 42.1523H20.2764V38.8848H21.5684V42.1523ZM24.5625 42.6309H13.3516V41.5781H24.5625V42.6309ZM19.3467 33.6074C19.3467 34.4323 19.1143 35.2002 18.6494 35.9111C18.1846 36.6221 17.5625 37.2191 16.7832 37.7021C16.0085 38.1852 15.1654 38.5111 14.2539 38.6797L13.7139 37.6064C14.4977 37.4743 15.2337 37.21 15.9219 36.8135C16.6146 36.4124 17.1683 35.9316 17.583 35.3711C17.9977 34.806 18.2051 34.2181 18.2051 33.6074V32.6846H19.3467V33.6074ZM19.5723 33.6074C19.5723 34.2181 19.7796 34.8083 20.1943 35.3779C20.6136 35.943 21.1696 36.4238 21.8623 36.8203C22.555 37.2168 23.291 37.4788 24.0703 37.6064L23.5508 38.6797C22.6348 38.5111 21.7848 38.1852 21.001 37.7021C20.2217 37.2191 19.6019 36.6243 19.1416 35.918C18.6859 35.207 18.458 34.4368 18.458 33.6074V32.6846H19.5723V33.6074ZM32.6357 33.9902H25.998V32.9238H32.6357V33.9902ZM25.6562 37.5449C27.0007 37.5449 28.3177 37.5199 29.6074 37.4697C30.8971 37.4196 32.0934 37.3239 33.1963 37.1826L33.2852 38.1602C32.1732 38.3424 30.9906 38.4655 29.7373 38.5293C28.4886 38.5885 27.1807 38.6182 25.8135 38.6182L25.6562 37.5449ZM28.3906 38.0371H27.1396V33.71H28.3906V38.0371ZM31.4668 38.0371H30.2227V33.71H31.4668V38.0371ZM35.6094 39.3838H34.3174V31.9189H35.6094V39.3838ZM31.5146 39.6367C32.3851 39.6367 33.1325 39.7233 33.7568 39.8965C34.3812 40.0697 34.8597 40.3249 35.1924 40.6621C35.5251 40.9948 35.6914 41.4004 35.6914 41.8789C35.6914 42.3529 35.5251 42.7585 35.1924 43.0957C34.8597 43.4375 34.3812 43.6973 33.7568 43.875C33.1325 44.0527 32.3851 44.1416 31.5146 44.1416C30.6579 44.1416 29.9173 44.0527 29.293 43.875C28.6686 43.6973 28.1901 43.4375 27.8574 43.0957C27.5247 42.7585 27.3584 42.3529 27.3584 41.8789C27.3584 41.4004 27.5247 40.9948 27.8574 40.6621C28.1901 40.3249 28.6686 40.0697 29.293 39.8965C29.9173 39.7233 30.6579 39.6367 31.5146 39.6367ZM31.5146 40.6553C30.9176 40.6553 30.4027 40.7031 29.9697 40.7988C29.5368 40.8945 29.2064 41.0335 28.9785 41.2158C28.7507 41.3981 28.6367 41.6191 28.6367 41.8789C28.6367 42.1387 28.7507 42.3643 28.9785 42.5557C29.2064 42.7425 29.5368 42.8861 29.9697 42.9863C30.4027 43.082 30.9176 43.1299 31.5146 43.1299C32.1208 43.1299 32.638 43.082 33.0664 42.9863C33.4993 42.8861 33.8275 42.7425 34.0508 42.5557C34.2786 42.3643 34.3926 42.1387 34.3926 41.8789C34.3926 41.6191 34.2786 41.3981 34.0508 41.2158C33.8275 41.0335 33.4993 40.8945 33.0664 40.7988C32.638 40.7031 32.1208 40.6553 31.5146 40.6553Z" fill="black" fill-opacity="0.2"/>
<path d="M17.6104 42.1523H16.3389V38.8848H17.6104V42.1523ZM21.5684 42.1523H20.2764V38.8848H21.5684V42.1523ZM24.5625 42.6309H13.3516V41.5781H24.5625V42.6309ZM19.3467 33.6074C19.3467 34.4323 19.1143 35.2002 18.6494 35.9111C18.1846 36.6221 17.5625 37.2191 16.7832 37.7021C16.0085 38.1852 15.1654 38.5111 14.2539 38.6797L13.7139 37.6064C14.4977 37.4743 15.2337 37.21 15.9219 36.8135C16.6146 36.4124 17.1683 35.9316 17.583 35.3711C17.9977 34.806 18.2051 34.2181 18.2051 33.6074V32.6846H19.3467V33.6074ZM19.5723 33.6074C19.5723 34.2181 19.7796 34.8083 20.1943 35.3779C20.6136 35.943 21.1696 36.4238 21.8623 36.8203C22.555 37.2168 23.291 37.4788 24.0703 37.6064L23.5508 38.6797C22.6348 38.5111 21.7848 38.1852 21.001 37.7021C20.2217 37.2191 19.6019 36.6243 19.1416 35.918C18.6859 35.207 18.458 34.4368 18.458 33.6074V32.6846H19.5723V33.6074ZM32.6357 33.9902H25.998V32.9238H32.6357V33.9902ZM25.6562 37.5449C27.0007 37.5449 28.3177 37.5199 29.6074 37.4697C30.8971 37.4196 32.0934 37.3239 33.1963 37.1826L33.2852 38.1602C32.1732 38.3424 30.9906 38.4655 29.7373 38.5293C28.4886 38.5885 27.1807 38.6182 25.8135 38.6182L25.6562 37.5449ZM28.3906 38.0371H27.1396V33.71H28.3906V38.0371ZM31.4668 38.0371H30.2227V33.71H31.4668V38.0371ZM35.6094 39.3838H34.3174V31.9189H35.6094V39.3838ZM31.5146 39.6367C32.3851 39.6367 33.1325 39.7233 33.7568 39.8965C34.3812 40.0697 34.8597 40.3249 35.1924 40.6621C35.5251 40.9948 35.6914 41.4004 35.6914 41.8789C35.6914 42.3529 35.5251 42.7585 35.1924 43.0957C34.8597 43.4375 34.3812 43.6973 33.7568 43.875C33.1325 44.0527 32.3851 44.1416 31.5146 44.1416C30.6579 44.1416 29.9173 44.0527 29.293 43.875C28.6686 43.6973 28.1901 43.4375 27.8574 43.0957C27.5247 42.7585 27.3584 42.3529 27.3584 41.8789C27.3584 41.4004 27.5247 40.9948 27.8574 40.6621C28.1901 40.3249 28.6686 40.0697 29.293 39.8965C29.9173 39.7233 30.6579 39.6367 31.5146 39.6367ZM31.5146 40.6553C30.9176 40.6553 30.4027 40.7031 29.9697 40.7988C29.5368 40.8945 29.2064 41.0335 28.9785 41.2158C28.7507 41.3981 28.6367 41.6191 28.6367 41.8789C28.6367 42.1387 28.7507 42.3643 28.9785 42.5557C29.2064 42.7425 29.5368 42.8861 29.9697 42.9863C30.4027 43.082 30.9176 43.1299 31.5146 43.1299C32.1208 43.1299 32.638 43.082 33.0664 42.9863C33.4993 42.8861 33.8275 42.7425 34.0508 42.5557C34.2786 42.3643 34.3926 42.1387 34.3926 41.8789C34.3926 41.6191 34.2786 41.3981 34.0508 41.2158C33.8275 41.0335 33.4993 40.8945 33.0664 40.7988C32.638 40.7031 32.1208 40.6553 31.5146 40.6553Z" fill="black" fill-opacity="0.2"/>
</svg>
