<svg width="32" height="32" viewBox="0 0 32 32" fill="none" xmlns="http://www.w3.org/2000/svg">
<g clip-path="url(#clip0_87_63583)">
<path d="M19.3 24.8H8.30005C6.84189 24.7982 5.44396 24.2182 4.41289 23.1871C3.38182 22.1561 2.8018 20.7581 2.80005 19.3L2.80005 8.29999C2.8018 6.84183 3.38182 5.4439 4.41289 4.41283C5.44396 3.38176 6.84189 2.80173 8.30005 2.79999L19.3 2.79999C20.7582 2.80173 22.1561 3.38176 23.1872 4.41283C24.2183 5.4439 24.7983 6.84183 24.8 8.29999V19.3C24.7983 20.7581 24.2183 22.1561 23.1872 23.1871C22.1561 24.2182 20.7582 24.7982 19.3 24.8ZM29.2001 23.7V9.39999C29.2001 9.10825 29.0842 8.82846 28.8779 8.62217C28.6716 8.41588 28.3918 8.29999 28.1 8.29999C27.8083 8.29999 27.5285 8.41588 27.3222 8.62217C27.1159 8.82846 27 9.10825 27 9.39999V23.7C27 24.5752 26.6524 25.4146 26.0335 26.0334C25.4146 26.6523 24.5753 27 23.7 27H9.40005C9.10831 27 8.82852 27.1159 8.62223 27.3222C8.41594 27.5285 8.30005 27.8083 8.30005 28.1C8.30005 28.3917 8.41594 28.6715 8.62223 28.8778C8.82852 29.0841 9.10831 29.2 9.40005 29.2H23.7C25.1582 29.1982 26.5561 28.6182 27.5872 27.5871C28.6183 26.5561 29.1983 25.1581 29.2001 23.7Z" fill="black"/>
<path d="M19.3 24.8H8.30005C6.84189 24.7982 5.44396 24.2182 4.41289 23.1871C3.38182 22.1561 2.8018 20.7581 2.80005 19.3L2.80005 8.29999C2.8018 6.84183 3.38182 5.4439 4.41289 4.41283C5.44396 3.38176 6.84189 2.80173 8.30005 2.79999L19.3 2.79999C20.7582 2.80173 22.1561 3.38176 23.1872 4.41283C24.2183 5.4439 24.7983 6.84183 24.8 8.29999V19.3C24.7983 20.7581 24.2183 22.1561 23.1872 23.1871C22.1561 24.2182 20.7582 24.7982 19.3 24.8ZM29.2001 23.7V9.39999C29.2001 9.10825 29.0842 8.82846 28.8779 8.62217C28.6716 8.41588 28.3918 8.29999 28.1 8.29999C27.8083 8.29999 27.5285 8.41588 27.3222 8.62217C27.1159 8.82846 27 9.10825 27 9.39999V23.7C27 24.5752 26.6524 25.4146 26.0335 26.0334C25.4146 26.6523 24.5753 27 23.7 27H9.40005C9.10831 27 8.82852 27.1159 8.62223 27.3222C8.41594 27.5285 8.30005 27.8083 8.30005 28.1C8.30005 28.3917 8.41594 28.6715 8.62223 28.8778C8.82852 29.0841 9.10831 29.2 9.40005 29.2H23.7C25.1582 29.1982 26.5561 28.6182 27.5872 27.5871C28.6183 26.5561 29.1983 25.1581 29.2001 23.7Z" fill="black" fill-opacity="0.2"/>
<path d="M19.3 24.8H8.30005C6.84189 24.7982 5.44396 24.2182 4.41289 23.1871C3.38182 22.1561 2.8018 20.7581 2.80005 19.3L2.80005 8.29999C2.8018 6.84183 3.38182 5.4439 4.41289 4.41283C5.44396 3.38176 6.84189 2.80173 8.30005 2.79999L19.3 2.79999C20.7582 2.80173 22.1561 3.38176 23.1872 4.41283C24.2183 5.4439 24.7983 6.84183 24.8 8.29999V19.3C24.7983 20.7581 24.2183 22.1561 23.1872 23.1871C22.1561 24.2182 20.7582 24.7982 19.3 24.8ZM29.2001 23.7V9.39999C29.2001 9.10825 29.0842 8.82846 28.8779 8.62217C28.6716 8.41588 28.3918 8.29999 28.1 8.29999C27.8083 8.29999 27.5285 8.41588 27.3222 8.62217C27.1159 8.82846 27 9.10825 27 9.39999V23.7C27 24.5752 26.6524 25.4146 26.0335 26.0334C25.4146 26.6523 24.5753 27 23.7 27H9.40005C9.10831 27 8.82852 27.1159 8.62223 27.3222C8.41594 27.5285 8.30005 27.8083 8.30005 28.1C8.30005 28.3917 8.41594 28.6715 8.62223 28.8778C8.82852 29.0841 9.10831 29.2 9.40005 29.2H23.7C25.1582 29.1982 26.5561 28.6182 27.5872 27.5871C28.6183 26.5561 29.1983 25.1581 29.2001 23.7Z" fill="black" fill-opacity="0.2"/>
<path d="M19.3 24.8H8.30005C6.84189 24.7982 5.44396 24.2182 4.41289 23.1871C3.38182 22.1561 2.8018 20.7581 2.80005 19.3L2.80005 8.29999C2.8018 6.84183 3.38182 5.4439 4.41289 4.41283C5.44396 3.38176 6.84189 2.80173 8.30005 2.79999L19.3 2.79999C20.7582 2.80173 22.1561 3.38176 23.1872 4.41283C24.2183 5.4439 24.7983 6.84183 24.8 8.29999V19.3C24.7983 20.7581 24.2183 22.1561 23.1872 23.1871C22.1561 24.2182 20.7582 24.7982 19.3 24.8ZM29.2001 23.7V9.39999C29.2001 9.10825 29.0842 8.82846 28.8779 8.62217C28.6716 8.41588 28.3918 8.29999 28.1 8.29999C27.8083 8.29999 27.5285 8.41588 27.3222 8.62217C27.1159 8.82846 27 9.10825 27 9.39999V23.7C27 24.5752 26.6524 25.4146 26.0335 26.0334C25.4146 26.6523 24.5753 27 23.7 27H9.40005C9.10831 27 8.82852 27.1159 8.62223 27.3222C8.41594 27.5285 8.30005 27.8083 8.30005 28.1C8.30005 28.3917 8.41594 28.6715 8.62223 28.8778C8.82852 29.0841 9.10831 29.2 9.40005 29.2H23.7C25.1582 29.1982 26.5561 28.6182 27.5872 27.5871C28.6183 26.5561 29.1983 25.1581 29.2001 23.7Z" fill="black" fill-opacity="0.2"/>
</g>
<defs>
<clipPath id="clip0_87_63583">
<rect width="26.4" height="26.4" fill="white" transform="translate(2.80005 2.79999)"/>
</clipPath>
</defs>
</svg>
