<svg width="324" height="124" viewBox="0 0 324 124" fill="none" xmlns="http://www.w3.org/2000/svg">
<rect width="324" height="124" rx="16" fill="#E5E5E5"/>
<rect x="12" y="12" width="100" height="100" rx="24" fill="#FFDD00"/>
<path d="M62 62C71.3888 62 79 54.3888 79 45C79 35.6112 71.3888 28 62 28C52.6112 28 45 35.6112 45 45C45 54.3888 52.6112 62 62 62Z" fill="white"/>
<path d="M62 67.6642C47.9232 67.6799 36.5157 79.0874 36.5 93.1642C36.5 94.729 37.7685 95.9975 39.3333 95.9975H84.6666C86.2314 95.9975 87.4999 94.729 87.4999 93.1642C87.4843 79.0874 76.0768 67.6798 62 67.6642Z" fill="white"/>
<path d="M144.521 51.0605H130.578V48.8584H144.521V51.0605ZM146.466 57.7422H128.591V55.5508H146.466V57.7422ZM138.882 56.1631H136.143V50.1367H138.882V56.1631ZM133.382 49.793H130.578V41.9189H133.382V49.793ZM154.458 43.2188C154.458 44.5579 154.25 45.8005 153.835 46.9463C153.427 48.085 152.807 49.0768 151.977 49.9219C151.146 50.7669 150.111 51.4043 148.872 51.834L147.411 49.6318C148.493 49.2881 149.391 48.7904 150.107 48.1387C150.831 47.4798 151.364 46.7314 151.708 45.8936C152.052 45.0557 152.224 44.1641 152.224 43.2188V41.4463H154.458V43.2188ZM154.984 43.0791C154.984 43.9814 155.142 44.8301 155.457 45.625C155.772 46.4128 156.266 47.111 156.939 47.7197C157.613 48.3213 158.454 48.7796 159.464 49.0947L157.992 51.2324C156.825 50.8242 155.851 50.2262 155.07 49.4385C154.297 48.6507 153.72 47.7197 153.341 46.6455C152.968 45.5713 152.782 44.3825 152.782 43.0791V41.4463H154.984V43.0791ZM164.072 51.877H161.344V40.4043H164.072V51.877ZM157.391 52.3926C158.787 52.3926 159.99 52.5394 161 52.833C162.01 53.1266 162.783 53.5599 163.32 54.1328C163.865 54.7057 164.137 55.3932 164.137 56.1953C164.137 56.9831 163.865 57.6634 163.32 58.2363C162.783 58.8092 162.01 59.2425 161 59.5361C159.99 59.8298 158.787 59.9766 157.391 59.9766C156.008 59.9766 154.812 59.8298 153.803 59.5361C152.8 59.2425 152.027 58.8092 151.482 58.2363C150.945 57.6634 150.677 56.9831 150.677 56.1953C150.677 55.3932 150.945 54.7057 151.482 54.1328C152.027 53.5599 152.8 53.1266 153.803 52.833C154.812 52.5394 156.008 52.3926 157.391 52.3926ZM157.391 54.5088C156.531 54.5088 155.804 54.5697 155.21 54.6914C154.616 54.8132 154.164 54.9993 153.856 55.25C153.549 55.5007 153.395 55.8158 153.395 56.1953C153.395 56.5462 153.549 56.847 153.856 57.0977C154.164 57.3411 154.616 57.5273 155.21 57.6562C155.804 57.7852 156.531 57.8496 157.391 57.8496C158.271 57.8496 159.009 57.7852 159.604 57.6562C160.198 57.5273 160.646 57.3411 160.946 57.0977C161.247 56.847 161.397 56.5462 161.397 56.1953C161.397 55.8158 161.247 55.5007 160.946 55.25C160.646 54.9993 160.198 54.8132 159.604 54.6914C159.009 54.5697 158.271 54.5088 157.391 54.5088ZM161.72 46.248H157.67V44.0137H161.72V46.248ZM176.329 43.1865C176.329 44.3395 176.014 45.3958 175.384 46.3555C174.761 47.3151 173.862 48.1208 172.688 48.7725C171.513 49.417 170.117 49.8503 168.498 50.0723L167.478 47.9346C168.845 47.7627 170.016 47.4333 170.99 46.9463C171.971 46.4593 172.709 45.8864 173.203 45.2275C173.697 44.5687 173.944 43.8883 173.944 43.1865V42.5957H176.329V43.1865ZM177.113 43.1865C177.113 43.8883 177.357 44.5687 177.844 45.2275C178.338 45.8864 179.076 46.4593 180.057 46.9463C181.038 47.4333 182.219 47.7627 183.602 47.9346L182.613 50.0723C180.988 49.8503 179.58 49.417 178.392 48.7725C177.21 48.1279 176.304 47.3258 175.674 46.3662C175.044 45.3994 174.729 44.3395 174.729 43.1865V42.5957H177.113V43.1865ZM176.834 59.9873H174.116V52.7793H176.834V59.9873ZM184.45 53.4023H166.618V51.2217H184.45V53.4023ZM182.839 43.5947H168.219V41.457H182.839V43.5947Z" fill="#222222"/>
<path d="M133.086 73.4375C133.086 74.3438 132.93 75.1901 132.617 75.9766C132.305 76.763 131.859 77.4479 131.281 78.0312C130.703 78.6146 130.013 79.0573 129.211 79.3594L128.414 78.1797C129.128 77.9193 129.742 77.5495 130.258 77.0703C130.779 76.5911 131.177 76.0391 131.453 75.4141C131.729 74.7891 131.867 74.1302 131.867 73.4375V72.0547H133.086V73.4375ZM133.336 73.5703C133.336 74.1745 133.474 74.7604 133.75 75.3281C134.026 75.8906 134.419 76.388 134.93 76.8203C135.44 77.2474 136.039 77.5755 136.727 77.8047L135.922 78.9609C135.151 78.6901 134.479 78.2865 133.906 77.75C133.333 77.2135 132.893 76.5885 132.586 75.875C132.284 75.1562 132.133 74.388 132.133 73.5703V72.0547H133.336V73.5703ZM139.516 79.7656H138.039V71.3203H139.516V79.7656ZM141.555 76.0859H139.102V74.8438H141.555V76.0859ZM134.992 80.1016C135.951 80.1016 136.779 80.2057 137.477 80.4141C138.174 80.6172 138.708 80.9115 139.078 81.2969C139.453 81.6823 139.641 82.1484 139.641 82.6953C139.641 83.2422 139.453 83.7109 139.078 84.1016C138.708 84.4922 138.177 84.7891 137.484 84.9922C136.792 85.2005 135.961 85.3047 134.992 85.3047C134.029 85.3047 133.193 85.2005 132.484 84.9922C131.781 84.7891 131.24 84.4922 130.859 84.1016C130.484 83.7109 130.297 83.2422 130.297 82.6953C130.297 82.1484 130.484 81.6823 130.859 81.2969C131.24 80.9115 131.781 80.6172 132.484 80.4141C133.193 80.2057 134.029 80.1016 134.992 80.1016ZM134.992 81.2812C134.331 81.2812 133.758 81.3359 133.273 81.4453C132.789 81.5547 132.419 81.7188 132.164 81.9375C131.914 82.151 131.789 82.4036 131.789 82.6953C131.789 82.9974 131.914 83.2578 132.164 83.4766C132.419 83.6901 132.786 83.8516 133.266 83.9609C133.745 84.0703 134.32 84.1276 134.992 84.1328C135.674 84.1276 136.253 84.0703 136.727 83.9609C137.206 83.8516 137.57 83.6901 137.82 83.4766C138.07 83.2578 138.195 82.9974 138.195 82.6953C138.195 82.3932 138.068 82.138 137.812 81.9297C137.562 81.7161 137.198 81.5547 136.719 81.4453C136.24 81.3359 135.664 81.2812 134.992 81.2812ZM143.485 80.6953C144.693 80.6953 145.659 80.6745 146.383 80.6328C147.112 80.5859 147.852 80.5 148.602 80.375L148.727 81.5938C147.956 81.7344 147.188 81.8281 146.422 81.875C145.662 81.9219 144.683 81.9453 143.485 81.9453H142.563V80.6953H143.485ZM148.157 74.0781H143.977V81.1797H142.563V72.8906H148.157V74.0781ZM147.93 77.75H143.555V76.5781H147.93V77.75ZM154.071 85.3203H152.641V71.3203H154.071V85.3203ZM153.157 78.1016H150.539V76.8906H153.157V78.1016ZM150.961 84.6328H149.539V71.5859H150.961V84.6328ZM161.438 81.6406H156.008V72.8984H161.438V81.6406ZM157.399 80.4609H160.048V74.0781H157.399V80.4609ZM167.579 85.3203H166.149V71.3203H167.579V85.3203ZM163.938 77.7578H160.712V76.5469H163.938V77.7578ZM164.727 84.6328H163.321V71.5859H164.727V84.6328ZM173.915 74.8828C173.915 75.987 173.746 77.0443 173.407 78.0547C173.069 79.0599 172.595 79.9479 171.985 80.7188C171.376 81.4844 170.665 82.0651 169.853 82.4609L168.923 81.2188C169.652 80.8906 170.3 80.401 170.868 79.75C171.441 79.0938 171.886 78.3411 172.204 77.4922C172.527 76.638 172.688 75.7682 172.688 74.8828V72.4844H173.915V74.8828ZM174.181 74.8828C174.181 75.7318 174.337 76.5625 174.649 77.375C174.967 78.1875 175.407 78.9115 175.97 79.5469C176.537 80.1823 177.175 80.6589 177.884 80.9766L176.993 82.1562C176.207 81.7812 175.504 81.224 174.884 80.4844C174.269 79.7448 173.793 78.8906 173.454 77.9219C173.116 76.9531 172.946 75.9401 172.946 74.8828V72.4844H174.181V74.8828ZM180.642 85.3594H179.149V71.3203H180.642V85.3594ZM187.415 75.4531C187.415 76.4583 187.241 77.4427 186.892 78.4062C186.543 79.3646 186.064 80.2188 185.454 80.9688C184.845 81.7135 184.155 82.2734 183.384 82.6484L182.509 81.4844C183.202 81.151 183.829 80.6641 184.392 80.0234C184.954 79.3776 185.394 78.6562 185.712 77.8594C186.035 77.0573 186.197 76.2552 186.197 75.4531V73.375H187.415V75.4531ZM187.697 75.4531C187.697 76.224 187.853 76.9896 188.165 77.75C188.483 78.5104 188.923 79.1875 189.486 79.7812C190.053 80.375 190.691 80.8255 191.4 81.1328L190.579 82.2969C189.788 81.9427 189.082 81.4167 188.462 80.7188C187.848 80.0208 187.368 79.2161 187.025 78.3047C186.686 77.3932 186.517 76.4427 186.517 75.4531V73.375H187.697V75.4531ZM190.9 73.9609H183.001V72.7422H190.9V73.9609ZM194.15 85.3203H192.658V71.3203H194.15V85.3203Z" fill="#666666"/>
<path d="M303.4 59.88L298.81 55.29C298.622 55.1038 298.369 54.9992 298.105 54.9992C297.841 54.9992 297.587 55.1038 297.4 55.29C297.306 55.383 297.232 55.4936 297.181 55.6154C297.13 55.7373 297.104 55.868 297.104 56C297.104 56.132 297.13 56.2627 297.181 56.3846C297.232 56.5065 297.306 56.6171 297.4 56.71L302 61.29C302.094 61.383 302.168 61.4936 302.219 61.6154C302.269 61.7373 302.296 61.868 302.296 62C302.296 62.132 302.269 62.2627 302.219 62.3846C302.168 62.5065 302.094 62.6171 302 62.71L297.4 67.29C297.211 67.477 297.105 67.7311 297.104 67.9965C297.103 68.2618 297.208 68.5167 297.395 68.705C297.582 68.8933 297.836 68.9996 298.101 69.0006C298.367 69.0015 298.621 68.897 298.81 68.71L303.4 64.12C303.962 63.5575 304.277 62.795 304.277 62C304.277 61.205 303.962 60.4425 303.4 59.88Z" fill="#222222"/>
</svg>
