<svg width="343" height="56" viewBox="0 0 343 56" fill="none" xmlns="http://www.w3.org/2000/svg">
<rect width="343" height="56" rx="8" fill="#E5E5E5"/>
<rect x="8" y="8" width="40" height="40" rx="12" fill="#FFDD00"/>
<mask id="mask0_87_63706" style="mask-type:alpha" maskUnits="userSpaceOnUse" x="18" y="20" width="20" height="16">
<path fill-rule="evenodd" clip-rule="evenodd" d="M18.9587 26.2445C18.4743 25.9793 17.9984 25.5522 18.0015 24.9999C18.0136 22.8249 18.11 21.6471 18.8784 20.8787C19.7571 20 21.1713 20 23.9997 20H31.9998C34.8282 20 36.2424 20 37.1211 20.8787C37.8895 21.6471 37.9859 22.825 37.998 25C38.0011 25.5523 37.5253 25.9793 37.0409 26.2445C36.4205 26.5841 35.9999 27.2429 35.9999 28C35.9999 28.7571 36.4205 29.4159 37.0409 29.7555C37.5253 30.0207 38.0011 30.4478 37.998 31C37.9859 33.175 37.8895 34.3529 37.1211 35.1213C36.2424 36 34.8282 36 31.9998 36H23.9997C21.1713 36 19.7571 36 18.8784 35.1213C18.11 34.3529 18.0136 33.175 18.0015 31.0001C17.9984 30.4478 18.4743 30.0207 18.9587 29.7555C19.5791 29.4159 19.9997 28.7571 19.9997 28C19.9997 27.2429 19.5791 26.5841 18.9587 26.2445Z" fill="white"/>
</mask>
<g mask="url(#mask0_87_63706)">
<path d="M37.1211 35.1213L38.1818 36.182L37.1211 35.1213ZM18.8784 35.1213L17.8178 36.182H17.8178L18.8784 35.1213ZM37.0409 29.7555L37.7612 28.4398L37.0409 29.7555ZM37.998 31L36.4981 30.9917L37.998 31ZM37.998 25L36.4981 25.0083L37.998 25ZM37.0409 26.2445L37.7612 27.5602L37.0409 26.2445ZM18.0015 24.9999L16.5015 24.9916L18.0015 24.9999ZM18.9587 26.2445L18.2384 27.5602L18.9587 26.2445ZM17.8178 19.818C17.1521 20.4837 16.8378 21.2873 16.681 22.1408C16.5321 22.9515 16.5075 23.9161 16.5015 24.9916L19.5015 25.0083C19.5076 23.9088 19.5372 23.1969 19.6317 22.6828C19.7182 22.2116 19.8364 22.0421 19.9391 21.9393L17.8178 19.818ZM23.9997 18.5C22.6279 18.5 21.4482 18.4968 20.5081 18.6232C19.5248 18.7554 18.5823 19.0535 17.8178 19.818L19.9391 21.9393C20.0533 21.8252 20.2572 21.6839 20.9078 21.5965C21.6016 21.5032 22.5431 21.5 23.9997 21.5V18.5ZM31.9998 18.5H23.9997V21.5H31.9998V18.5ZM38.1818 19.818C37.4173 19.0535 36.4747 18.7554 35.4915 18.6232C34.5513 18.4968 33.3716 18.5 31.9998 18.5V21.5C33.4564 21.5 34.398 21.5032 35.0917 21.5965C35.7423 21.6839 35.9463 21.8252 36.0604 21.9393L38.1818 19.818ZM39.498 24.9916C39.492 23.9161 39.4674 22.9516 39.3185 22.1409C39.1617 21.2873 38.8474 20.4837 38.1818 19.818L36.0604 21.9393C36.1632 22.0421 36.2813 22.2116 36.3679 22.6828C36.4623 23.1969 36.492 23.9089 36.4981 25.0083L39.498 24.9916ZM37.4999 28C37.4999 27.8128 37.6022 27.6472 37.7612 27.5602L36.3206 24.9288C35.2388 25.521 34.4999 26.6731 34.4999 28H37.4999ZM37.7612 28.4398C37.6022 28.3528 37.4999 28.1872 37.4999 28H34.4999C34.4999 29.3269 35.2388 30.4791 36.3206 31.0712L37.7612 28.4398ZM38.1818 36.182C38.8474 35.5163 39.1617 34.7127 39.3185 33.8591C39.4674 33.0484 39.492 32.0839 39.498 31.0084L36.4981 30.9917C36.492 32.0911 36.4623 32.8031 36.3679 33.3172C36.2813 33.7884 36.1632 33.9579 36.0604 34.0607L38.1818 36.182ZM31.9998 37.5C33.3716 37.5 34.5513 37.5032 35.4915 37.3768C36.4747 37.2446 37.4173 36.9465 38.1818 36.182L36.0604 34.0607C35.9463 34.1748 35.7423 34.3161 35.0917 34.4035C34.398 34.4968 33.4564 34.5 31.9998 34.5V37.5ZM23.9997 37.5H31.9998V34.5H23.9997V37.5ZM17.8178 36.182C18.5823 36.9465 19.5248 37.2446 20.5081 37.3768C21.4482 37.5032 22.6279 37.5 23.9997 37.5V34.5C22.5431 34.5 21.6016 34.4968 20.9078 34.4035C20.2572 34.3161 20.0533 34.1748 19.9391 34.0607L17.8178 36.182ZM16.5015 31.0084C16.5075 32.0839 16.5321 33.0485 16.681 33.8592C16.8378 34.7128 17.1521 35.5163 17.8178 36.182L19.9391 34.0607C19.8364 33.9579 19.7182 33.7884 19.6317 33.3172C19.5372 32.8031 19.5076 32.0912 19.5015 30.9917L16.5015 31.0084ZM18.4997 28C18.4997 28.1873 18.3974 28.3528 18.2384 28.4398L19.679 31.0713C20.7607 30.4791 21.4997 29.3269 21.4997 28H18.4997ZM18.2384 27.5602C18.3974 27.6472 18.4997 27.8127 18.4997 28H21.4997C21.4997 26.6731 20.7607 25.5209 19.679 24.9287L18.2384 27.5602ZM19.5015 30.9917C19.5019 31.0759 19.483 31.1474 19.4623 31.1963C19.4433 31.241 19.4273 31.2566 19.4361 31.2464C19.4449 31.2362 19.4687 31.2114 19.5141 31.1768C19.5587 31.1428 19.6144 31.1066 19.679 31.0713L18.2384 28.4398C17.8949 28.6278 17.4917 28.9051 17.1585 29.2938C16.8186 29.6903 16.4974 30.2717 16.5015 31.0084L19.5015 30.9917ZM36.3206 31.0712C36.3851 31.1066 36.4409 31.1428 36.4855 31.1768C36.5308 31.2114 36.5547 31.2361 36.5635 31.2464C36.5722 31.2566 36.5562 31.2409 36.5373 31.1962C36.5165 31.1473 36.4976 31.0759 36.4981 30.9917L39.498 31.0084C39.5021 30.2716 39.181 29.6903 38.8411 29.2938C38.5079 28.9051 38.1047 28.6278 37.7612 28.4398L36.3206 31.0712ZM36.4981 25.0083C36.4976 24.9241 36.5165 24.8527 36.5373 24.8038C36.5562 24.7591 36.5722 24.7434 36.5635 24.7536C36.5547 24.7639 36.5308 24.7886 36.4855 24.8232C36.4409 24.8572 36.3851 24.8934 36.3206 24.9288L37.7612 27.5602C38.1047 27.3722 38.5079 27.0949 38.8411 26.7062C39.181 26.3097 39.5021 25.7284 39.498 24.9916L36.4981 25.0083ZM16.5015 24.9916C16.4974 25.7283 16.8186 26.3097 17.1585 26.7062C17.4917 27.0949 17.8949 27.3722 18.2384 27.5602L19.679 24.9287C19.6144 24.8934 19.5587 24.8572 19.5141 24.8232C19.4687 24.7886 19.4449 24.7638 19.4361 24.7536C19.4273 24.7434 19.4433 24.759 19.4623 24.8037C19.483 24.8526 19.5019 24.9241 19.5015 25.0083L16.5015 24.9916Z" fill="#222222"/>
<path d="M25.75 21.75V24.25" stroke="#222222" stroke-width="1.5" stroke-linecap="round"/>
<path d="M25.75 27.75V29.25" stroke="#222222" stroke-width="1.5" stroke-linecap="round"/>
<path d="M25.75 32.75V34.25" stroke="#222222" stroke-width="1.5" stroke-linecap="round"/>
</g>
<path d="M67.5522 34.8594H66.0756V20.8203H67.5522V34.8594ZM69.81 27.4766H67.2162V26.25H69.81V27.4766ZM58.3725 30.1484C59.6954 30.1484 60.8517 30.1146 61.8412 30.0469C62.8308 29.974 63.8282 29.8464 64.8334 29.6641L65.0131 30.9297C63.9923 31.112 62.9819 31.2344 61.9819 31.2969C60.9871 31.3542 59.784 31.3828 58.3725 31.3828H57.2397V30.1484H58.3725ZM63.7866 23.3828H58.7162V30.7266H57.2397V22.1641H63.7866V23.3828ZM83.1462 24.0391H80.7087V22.8203H83.1462V24.0391ZM83.1462 27.0547H80.7087V25.8203H83.1462V27.0547ZM74.0916 21.6484C74.7999 21.638 75.4353 21.7734 75.9978 22.0547C76.5655 22.3359 77.0108 22.7318 77.3337 23.2422C77.6619 23.7474 77.8259 24.3229 77.8259 24.9688C77.8259 25.6146 77.6619 26.1875 77.3337 26.6875C77.0108 27.1823 76.5655 27.5729 75.9978 27.8594C75.4353 28.1406 74.7999 28.2865 74.0916 28.2969C73.3832 28.2865 72.7452 28.1406 72.1775 27.8594C71.615 27.5729 71.1723 27.1823 70.8494 26.6875C70.5265 26.1875 70.365 25.6146 70.365 24.9688C70.365 24.3229 70.5265 23.7474 70.8494 23.2422C71.1723 22.7318 71.615 22.3359 72.1775 22.0547C72.74 21.7734 73.378 21.638 74.0916 21.6484ZM74.0916 22.8984C73.6593 22.8932 73.2686 22.9766 72.9197 23.1484C72.5759 23.3203 72.3051 23.5651 72.1072 23.8828C71.9145 24.1953 71.8181 24.5573 71.8181 24.9688C71.8181 25.375 71.9145 25.737 72.1072 26.0547C72.3051 26.3672 72.5759 26.6094 72.9197 26.7812C73.2686 26.9479 73.6593 27.0365 74.0916 27.0469C74.5239 27.0365 74.9145 26.9479 75.2634 26.7812C75.6124 26.6094 75.8832 26.3672 76.0759 26.0547C76.2739 25.737 76.3728 25.375 76.3728 24.9688C76.3728 24.5573 76.2739 24.1953 76.0759 23.8828C75.8832 23.5651 75.6124 23.3203 75.2634 23.1484C74.9145 22.9766 74.5239 22.8932 74.0916 22.8984ZM81.1541 29.0938H79.6775V20.8203H81.1541V29.0938ZM76.6306 29.4688C77.589 29.4688 78.4171 29.5755 79.115 29.7891C79.8129 30.0026 80.3468 30.3099 80.7166 30.7109C81.0916 31.1068 81.2791 31.5859 81.2791 32.1484C81.2791 32.6953 81.0916 33.1693 80.7166 33.5703C80.3416 33.9714 79.8025 34.276 79.0994 34.4844C78.4015 34.6979 77.5785 34.8047 76.6306 34.8047C75.6775 34.8047 74.8468 34.6979 74.1384 34.4844C73.4353 34.276 72.891 33.9714 72.5056 33.5703C72.1254 33.1693 71.9353 32.6953 71.9353 32.1484C71.9353 31.5859 72.1254 31.1068 72.5056 30.7109C72.891 30.3099 73.4327 30.0026 74.1306 29.7891C74.8337 29.5755 75.6671 29.4688 76.6306 29.4688ZM76.6306 30.6641C75.9587 30.6641 75.3832 30.7214 74.9041 30.8359C74.4249 30.9505 74.0577 31.1198 73.8025 31.3438C73.5525 31.5677 73.4275 31.8359 73.4275 32.1484C73.4275 32.4557 73.5525 32.7188 73.8025 32.9375C74.0577 33.1562 74.4249 33.3255 74.9041 33.4453C75.3884 33.5599 75.964 33.6172 76.6306 33.6172C77.3025 33.6172 77.878 33.5599 78.3572 33.4453C78.8416 33.3255 79.2087 33.1562 79.4587 32.9375C79.7087 32.7188 79.8337 32.4557 79.8337 32.1484C79.8337 31.8359 79.7061 31.5677 79.4509 31.3438C79.2009 31.1146 78.8364 30.9453 78.3572 30.8359C77.878 30.7214 77.3025 30.6641 76.6306 30.6641ZM94.6622 31.3125H93.1856V20.8359H94.6622V31.3125ZM96.7012 26.5703H94.2091V25.3438H96.7012V26.5703ZM92.0137 23.6562H83.6778V22.4688H92.0137V23.6562ZM87.8497 24.3359C88.5164 24.3359 89.1049 24.4453 89.6153 24.6641C90.1309 24.8828 90.532 25.1927 90.8184 25.5938C91.1049 25.9948 91.2481 26.4583 91.2481 26.9844C91.2481 27.5052 91.1049 27.9635 90.8184 28.3594C90.532 28.75 90.1309 29.0547 89.6153 29.2734C89.1049 29.4922 88.5164 29.6016 87.8497 29.6016C87.183 29.6016 86.5893 29.4922 86.0684 29.2734C85.5528 29.0547 85.1518 28.75 84.8653 28.3594C84.5841 27.9635 84.4434 27.5052 84.4434 26.9844C84.4434 26.4583 84.5841 25.9948 84.8653 25.5938C85.1518 25.1927 85.5528 24.8828 86.0684 24.6641C86.5893 24.4453 87.183 24.3359 87.8497 24.3359ZM87.8497 25.4922C87.4591 25.4922 87.1127 25.5521 86.8106 25.6719C86.5085 25.7865 86.2768 25.9583 86.1153 26.1875C85.9539 26.4167 85.8731 26.6823 85.8731 26.9844C85.8731 27.2865 85.9539 27.5469 86.1153 27.7656C86.2768 27.9844 86.5085 28.1536 86.8106 28.2734C87.1127 28.388 87.4591 28.4453 87.8497 28.4453C88.2403 28.4453 88.5867 28.388 88.8887 28.2734C89.196 28.1536 89.433 27.9844 89.5997 27.7656C89.7664 27.5469 89.8497 27.2865 89.8497 26.9844C89.8497 26.6823 89.7664 26.4167 89.5997 26.1875C89.433 25.9583 89.196 25.7865 88.8887 25.6719C88.5867 25.5521 88.2403 25.4922 87.8497 25.4922ZM88.5919 23.0703H87.1153V20.8281H88.5919V23.0703ZM95.2559 34.5469H85.795V33.3203H95.2559V34.5469ZM87.2637 33.8281H85.795V30.4922H87.2637V33.8281ZM104.686 25.1016C104.686 26.0547 104.561 26.9818 104.311 27.8828C104.061 28.7839 103.697 29.5938 103.217 30.3125C102.738 31.026 102.155 31.5781 101.467 31.9688L100.6 30.875C101.225 30.5156 101.759 30.0286 102.202 29.4141C102.645 28.7995 102.978 28.1198 103.202 27.375C103.431 26.6302 103.546 25.8724 103.546 25.1016V24.4609H104.686V25.1016ZM104.944 25.1016C104.944 25.8464 105.056 26.5729 105.28 27.2812C105.509 27.9844 105.848 28.625 106.296 29.2031C106.744 29.7812 107.283 30.237 107.913 30.5703L107.061 31.6719C106.374 31.2969 105.785 30.7708 105.296 30.0938C104.806 29.4167 104.436 28.651 104.186 27.7969C103.941 26.9375 103.819 26.0391 103.819 25.1016V24.4609H104.944V25.1016ZM107.499 24.5859H100.975V23.3672H107.499V24.5859ZM104.952 24.2812H103.546V21.3281H104.952V24.2812ZM112.85 34.8203H111.421V20.8203H112.85V34.8203ZM111.944 27.6406H109.342V26.3984H111.944V27.6406ZM109.757 34.1328H108.35V21.0859H109.757V34.1328ZM116.569 27.1172H115.085V21.4766H116.569V27.1172ZM116.179 26.2734C117.366 26.2682 118.452 26.2292 119.437 26.1562C120.421 26.0781 121.413 25.9453 122.413 25.7578L122.632 26.9766C121.564 27.1745 120.517 27.3151 119.491 27.3984C118.465 27.4818 117.361 27.5182 116.179 27.5078H115.085V26.2734H116.179ZM124.78 24.25H120.616V23.0547H124.78V24.25ZM125.937 28.0234H124.452V20.8203H125.937V28.0234ZM125.937 32.1406H118.288V34.1016H116.812V31H124.444V29.8125H116.788V28.625H125.937V32.1406ZM126.39 34.6484H116.812V33.4453H126.39V34.6484ZM132.703 26.2578L132.531 24.9766L141.5 24.6875V25.8125L132.703 26.2578ZM141.765 22.875H132.937V21.6719H141.765V22.875ZM144.125 29.5312H131.359V28.3047H144.125V29.5312ZM138.5 34.8125H137.007V29.2344H138.5V34.8125ZM142.554 22.9531C142.554 23.6406 142.547 24.2396 142.531 24.75C142.515 25.2604 142.466 25.849 142.382 26.5156C142.299 27.1771 142.169 27.8906 141.992 28.6562L140.554 28.4766C140.737 27.7526 140.869 27.0729 140.953 26.4375C141.041 25.8021 141.096 25.2448 141.117 24.7656C141.138 24.2812 141.148 23.6771 141.148 22.9531V21.6719H142.554V22.9531ZM156.438 22.6328H146.039V21.4219H156.438V22.6328ZM156.375 26.75H146.102V25.5781H156.375V26.75ZM149.555 26.1406H148.078V21.9531H149.555V26.1406ZM154.398 26.1406H152.914V21.9531H154.398V26.1406ZM157.633 29.5156H144.867V28.3281H157.633V29.5156ZM151.984 29.0547H150.5V26.3594H151.984V29.0547ZM156.203 34.5469H146.484V33.3203H156.203V34.5469ZM147.969 33.7422H146.484V30.6406H147.969V33.7422ZM164.758 21.0547C165.81 21.0547 166.709 21.1484 167.453 21.3359C168.198 21.5182 168.766 21.7891 169.157 22.1484C169.552 22.5078 169.75 22.9427 169.75 23.4531C169.75 23.974 169.552 24.4167 169.157 24.7812C168.766 25.1406 168.198 25.4141 167.453 25.6016C166.709 25.7891 165.81 25.888 164.758 25.8984C163.706 25.888 162.805 25.7891 162.055 25.6016C161.31 25.4141 160.737 25.1406 160.336 24.7812C159.94 24.4167 159.743 23.974 159.743 23.4531C159.743 22.9427 159.94 22.5078 160.336 22.1484C160.737 21.7891 161.31 21.5182 162.055 21.3359C162.805 21.1484 163.706 21.0547 164.758 21.0547ZM164.758 22.1562C164.019 22.1562 163.388 22.2057 162.868 22.3047C162.352 22.4036 161.961 22.5521 161.696 22.75C161.43 22.9479 161.297 23.1823 161.297 23.4531C161.297 23.75 161.427 23.9974 161.688 24.1953C161.948 24.388 162.336 24.5339 162.852 24.6328C163.368 24.7318 164.003 24.7812 164.758 24.7812C165.513 24.7812 166.149 24.7318 166.664 24.6328C167.18 24.5339 167.568 24.3854 167.828 24.1875C168.094 23.9844 168.227 23.7396 168.227 23.4531C168.227 23.1823 168.091 22.9505 167.821 22.7578C167.555 22.5651 167.162 22.4167 166.641 22.3125C166.125 22.2083 165.498 22.1562 164.758 22.1562ZM171.141 27.9375H158.375V26.75H171.141V27.9375ZM169.524 32.2969H161.383V33.8516H159.922V31.2266H168.071V30.125H159.899V29.0156H169.524V32.2969ZM169.93 34.6875H159.922V33.5391H169.93V34.6875ZM186.47 29H184.993V20.8203H186.47V29ZM188.509 25.375H186.056V24.1406H188.509V25.375ZM177.47 23.6562H181.134V21.6328H182.618V28.1875H176.009V21.6328H177.47V23.6562ZM181.134 27.0156V24.8203H177.47V27.0156H181.134ZM186.571 30.9219H179.032V34.2969H177.556V29.7422H186.571V30.9219ZM186.837 34.6406H177.556V33.4453H186.837V34.6406ZM192.736 21.875C193.434 21.875 194.051 22.0781 194.587 22.4844C195.129 22.8906 195.553 23.4635 195.861 24.2031C196.173 24.9427 196.329 25.8047 196.329 26.7891C196.329 27.7786 196.173 28.6432 195.861 29.3828C195.553 30.1224 195.129 30.6953 194.587 31.1016C194.046 31.5026 193.428 31.7031 192.736 31.7031C192.043 31.7031 191.423 31.5026 190.876 31.1016C190.335 30.6953 189.91 30.1224 189.603 29.3828C189.301 28.6432 189.15 27.7786 189.15 26.7891C189.15 25.8047 189.301 24.9427 189.603 24.2031C189.91 23.4635 190.335 22.8906 190.876 22.4844C191.423 22.0781 192.043 21.875 192.736 21.875ZM192.736 23.2031C192.309 23.2031 191.931 23.349 191.603 23.6406C191.275 23.9323 191.019 24.349 190.837 24.8906C190.655 25.4271 190.564 26.0599 190.564 26.7891C190.564 27.513 190.655 28.1458 190.837 28.6875C191.019 29.2292 191.277 29.6458 191.611 29.9375C191.944 30.224 192.319 30.3672 192.736 30.3672C193.163 30.3672 193.54 30.224 193.868 29.9375C194.197 29.6458 194.449 29.2292 194.626 28.6875C194.809 28.1458 194.9 27.513 194.9 26.7891C194.9 26.0599 194.809 25.4271 194.626 24.8906C194.449 24.349 194.197 23.9323 193.868 23.6406C193.54 23.349 193.163 23.2031 192.736 23.2031ZM199.884 34.8203H198.408V20.8203H199.884V34.8203ZM202.142 27.5703H199.548V26.3047H202.142V27.5703ZM215.298 33.0859H202.486V31.8672H215.298V33.0859ZM209.587 32.2109H208.134V28.6016H209.587V32.2109ZM205.439 24.1953H212.314V21.7812H213.775V28.9922H203.947V21.7812H205.439V24.1953ZM212.314 27.7891V25.3906H205.439V27.7891H212.314ZM224.182 26.9844H221.557V25.7422H224.182V26.9844ZM219.986 24.7109C219.986 25.7161 219.859 26.6875 219.603 27.625C219.353 28.5625 218.984 29.401 218.494 30.1406C218.004 30.875 217.416 31.4531 216.728 31.875L215.799 30.7656C216.439 30.3802 216.989 29.8672 217.447 29.2266C217.906 28.5807 218.249 27.8698 218.478 27.0938C218.713 26.3177 218.83 25.5234 218.83 24.7109V22.1016H219.986V24.7109ZM220.26 24.6484C220.26 25.4245 220.366 26.1823 220.58 26.9219C220.794 27.6562 221.111 28.3307 221.533 28.9453C221.96 29.5599 222.473 30.0521 223.072 30.4219L222.244 31.5625C221.567 31.1562 220.997 30.5911 220.533 29.8672C220.07 29.138 219.721 28.3281 219.486 27.4375C219.257 26.5469 219.143 25.6172 219.143 24.6484V22.1016H220.26V24.6484ZM228.041 34.8203H226.611V20.8203H228.041V34.8203ZM225.135 34.1328H223.736V21.0859H225.135V34.1328ZM234.033 32.1172H232.572V28.0156H234.033V32.1172ZM239.252 32.1172H237.76V28.0156H239.252V32.1172ZM242.315 33.0781H229.502V31.8516H242.315V33.0781ZM235.885 21.6328C236.885 21.6328 237.776 21.7865 238.557 22.0938C239.338 22.3958 239.947 22.8255 240.385 23.3828C240.828 23.9349 241.049 24.5703 241.049 25.2891C241.049 26.013 240.828 26.651 240.385 27.2031C239.947 27.75 239.338 28.1771 238.557 28.4844C237.776 28.7865 236.885 28.9375 235.885 28.9375C234.89 28.9375 234 28.7865 233.213 28.4844C232.432 28.1771 231.82 27.75 231.377 27.2031C230.934 26.651 230.713 26.013 230.713 25.2891C230.713 24.5703 230.934 23.9349 231.377 23.3828C231.82 22.8255 232.432 22.3958 233.213 22.0938C234 21.7865 234.89 21.6328 235.885 21.6328ZM235.885 22.8359C235.156 22.8307 234.51 22.9297 233.947 23.1328C233.39 23.3307 232.953 23.6172 232.635 23.9922C232.322 24.362 232.166 24.7943 232.166 25.2891C232.166 25.7839 232.322 26.2188 232.635 26.5938C232.953 26.9688 233.393 27.2604 233.955 27.4688C234.518 27.6771 235.161 27.7812 235.885 27.7812C236.604 27.7812 237.244 27.6771 237.807 27.4688C238.369 27.2604 238.809 26.9688 239.127 26.5938C239.445 26.2188 239.604 25.7839 239.604 25.2891C239.604 24.7943 239.445 24.362 239.127 23.9922C238.815 23.6172 238.377 23.3307 237.815 23.1328C237.252 22.9297 236.609 22.8307 235.885 22.8359ZM245.448 30.25H243.909L243.76 22.1875H245.588L245.448 30.25ZM244.674 33.6094C244.482 33.6094 244.299 33.5573 244.128 33.4531C243.956 33.349 243.82 33.2135 243.721 33.0469C243.622 32.875 243.573 32.6901 243.573 32.4922C243.573 32.2995 243.622 32.1172 243.721 31.9453C243.82 31.7734 243.956 31.6406 244.128 31.5469C244.299 31.4479 244.482 31.3984 244.674 31.3984C244.872 31.3984 245.055 31.4479 245.221 31.5469C245.393 31.6406 245.529 31.7734 245.628 31.9453C245.732 32.1172 245.784 32.2995 245.784 32.4922C245.784 32.6901 245.732 32.875 245.628 33.0469C245.529 33.2135 245.393 33.349 245.221 33.4531C245.055 33.5573 244.872 33.6094 244.674 33.6094Z" fill="#222222"/>
<path d="M326.4 25.88L321.81 21.29C321.622 21.1037 321.369 20.9992 321.105 20.9992C320.841 20.9992 320.587 21.1037 320.4 21.29C320.306 21.383 320.232 21.4936 320.181 21.6154C320.13 21.7373 320.104 21.868 320.104 22C320.104 22.132 320.13 22.2627 320.181 22.3846C320.232 22.5064 320.306 22.617 320.4 22.71L325 27.29C325.094 27.383 325.168 27.4936 325.219 27.6154C325.269 27.7373 325.296 27.868 325.296 28C325.296 28.132 325.269 28.2627 325.219 28.3846C325.168 28.5064 325.094 28.617 325 28.71L320.4 33.29C320.211 33.477 320.105 33.7311 320.104 33.9965C320.103 34.2618 320.208 34.5167 320.395 34.705C320.582 34.8933 320.836 34.9996 321.101 35.0006C321.367 35.0015 321.621 34.897 321.81 34.71L326.4 30.12C326.962 29.5575 327.277 28.795 327.277 28C327.277 27.205 326.962 26.4425 326.4 25.88Z" fill="#222222"/>
</svg>
