<svg width="32" height="32" viewBox="0 0 32 32" fill="none" xmlns="http://www.w3.org/2000/svg">
<path d="M15.8447 4.16815C18.1493 1.59044 22.0681 1.28111 24.751 3.4035L25.0068 3.61639L25.252 3.84198C27.7085 6.22797 27.8749 10.1365 25.5645 12.7209H25.5635L25.5625 12.7228C25.5614 12.7242 25.5597 12.7264 25.5576 12.7287C25.5529 12.7339 25.5452 12.742 25.5361 12.7521C25.5178 12.7727 25.4905 12.8034 25.4551 12.843C25.3833 12.9232 25.2771 13.042 25.1416 13.1935C24.8703 13.4969 24.4786 13.9346 23.999 14.4709C23.0395 15.5439 21.7252 17.0128 20.3086 18.5969C17.4751 21.7654 14.229 25.3949 12.5801 27.2385C10.6242 29.4263 8.0343 29.9685 6.05957 29.9992C5.06526 30.0147 4.19034 29.9025 3.56445 29.7873C3.2504 29.7295 2.99502 29.6702 2.81445 29.6242C2.72438 29.6012 2.65217 29.5813 2.60059 29.5666C2.57486 29.5592 2.55353 29.5527 2.53809 29.548C2.53052 29.5458 2.52356 29.5437 2.51855 29.5422C2.51639 29.5415 2.51434 29.5407 2.5127 29.5402H2.50977L2.50879 29.5392L2.86719 28.3937L2.50781 29.5392C2.18928 29.4394 1.92664 29.2108 1.7832 28.9094L2.86719 28.3937L1.78223 28.9084V28.9074L1.78125 28.9045C1.78052 28.9029 1.7793 28.9007 1.77832 28.8986C1.77613 28.8939 1.77279 28.8872 1.76953 28.8801C1.76281 28.8654 1.75392 28.8448 1.74316 28.8205C1.72153 28.7716 1.69208 28.7029 1.65723 28.6174C1.58736 28.4459 1.49403 28.2024 1.39551 27.9016C1.19922 27.3019 0.974946 26.4564 0.866211 25.4758C0.649639 23.5213 0.884729 20.9031 2.86621 18.6887C4.53757 16.8175 7.78189 13.1874 10.6084 10.0256C12.0218 8.4445 13.3314 6.98028 14.2871 5.91132C14.7648 5.377 15.1548 4.94089 15.4248 4.63885C15.5595 4.48816 15.665 4.37003 15.7363 4.29022C15.7717 4.25064 15.7991 4.21986 15.8174 4.1994C15.8263 4.18941 15.8333 4.18115 15.8379 4.17596L15.8447 4.16913L16.7393 4.96796L17.6338 5.76874L17.627 5.77557C17.6223 5.78076 17.6154 5.78901 17.6064 5.79901C17.5882 5.81947 17.5608 5.85024 17.5254 5.88983C17.454 5.96964 17.3486 6.08775 17.2139 6.23846C16.9438 6.5405 16.5539 6.9766 16.0762 7.51093C15.8635 7.74879 15.6327 8.0056 15.3877 8.27948L21.5234 13.6369C21.7675 13.3642 21.9979 13.1085 22.21 12.8713C22.6894 12.3351 23.0813 11.8973 23.3525 11.5939C23.488 11.4424 23.5943 11.3236 23.666 11.2433C23.7016 11.2035 23.7287 11.1721 23.7471 11.1516C23.756 11.1415 23.7639 11.1343 23.7686 11.1291C23.7706 11.1268 23.7723 11.1246 23.7734 11.1232L23.7744 11.1213H23.7754C25.2681 9.45156 25.1122 6.90251 23.4248 5.42108L23.2627 5.28632C21.5665 3.94506 19.0862 4.14313 17.6338 5.76776L15.8447 4.16815Z" fill="black"/>
<path d="M15.8447 4.16815C18.1493 1.59044 22.0681 1.28111 24.751 3.4035L25.0068 3.61639L25.252 3.84198C27.7085 6.22797 27.8749 10.1365 25.5645 12.7209H25.5635L25.5625 12.7228C25.5614 12.7242 25.5597 12.7264 25.5576 12.7287C25.5529 12.7339 25.5452 12.742 25.5361 12.7521C25.5178 12.7727 25.4905 12.8034 25.4551 12.843C25.3833 12.9232 25.2771 13.042 25.1416 13.1935C24.8703 13.4969 24.4786 13.9346 23.999 14.4709C23.0395 15.5439 21.7252 17.0128 20.3086 18.5969C17.4751 21.7654 14.229 25.3949 12.5801 27.2385C10.6242 29.4263 8.0343 29.9685 6.05957 29.9992C5.06526 30.0147 4.19034 29.9025 3.56445 29.7873C3.2504 29.7295 2.99502 29.6702 2.81445 29.6242C2.72438 29.6012 2.65217 29.5813 2.60059 29.5666C2.57486 29.5592 2.55353 29.5527 2.53809 29.548C2.53052 29.5458 2.52356 29.5437 2.51855 29.5422C2.51639 29.5415 2.51434 29.5407 2.5127 29.5402H2.50977L2.50879 29.5392L2.86719 28.3937L2.50781 29.5392C2.18928 29.4394 1.92664 29.2108 1.7832 28.9094L2.86719 28.3937L1.78223 28.9084V28.9074L1.78125 28.9045C1.78052 28.9029 1.7793 28.9007 1.77832 28.8986C1.77613 28.8939 1.77279 28.8872 1.76953 28.8801C1.76281 28.8654 1.75392 28.8448 1.74316 28.8205C1.72153 28.7716 1.69208 28.7029 1.65723 28.6174C1.58736 28.4459 1.49403 28.2024 1.39551 27.9016C1.19922 27.3019 0.974946 26.4564 0.866211 25.4758C0.649639 23.5213 0.884729 20.9031 2.86621 18.6887C4.53757 16.8175 7.78189 13.1874 10.6084 10.0256C12.0218 8.4445 13.3314 6.98028 14.2871 5.91132C14.7648 5.377 15.1548 4.94089 15.4248 4.63885C15.5595 4.48816 15.665 4.37003 15.7363 4.29022C15.7717 4.25064 15.7991 4.21986 15.8174 4.1994C15.8263 4.18941 15.8333 4.18115 15.8379 4.17596L15.8447 4.16913L16.7393 4.96796L17.6338 5.76874L17.627 5.77557C17.6223 5.78076 17.6154 5.78901 17.6064 5.79901C17.5882 5.81947 17.5608 5.85024 17.5254 5.88983C17.454 5.96964 17.3486 6.08775 17.2139 6.23846C16.9438 6.5405 16.5539 6.9766 16.0762 7.51093C15.8635 7.74879 15.6327 8.0056 15.3877 8.27948L21.5234 13.6369C21.7675 13.3642 21.9979 13.1085 22.21 12.8713C22.6894 12.3351 23.0813 11.8973 23.3525 11.5939C23.488 11.4424 23.5943 11.3236 23.666 11.2433C23.7016 11.2035 23.7287 11.1721 23.7471 11.1516C23.756 11.1415 23.7639 11.1343 23.7686 11.1291C23.7706 11.1268 23.7723 11.1246 23.7734 11.1232L23.7744 11.1213H23.7754C25.2681 9.45156 25.1122 6.90251 23.4248 5.42108L23.2627 5.28632C21.5665 3.94506 19.0862 4.14313 17.6338 5.76776L15.8447 4.16815Z" fill="black" fill-opacity="0.2"/>
<path d="M15.8447 4.16815C18.1493 1.59044 22.0681 1.28111 24.751 3.4035L25.0068 3.61639L25.252 3.84198C27.7085 6.22797 27.8749 10.1365 25.5645 12.7209H25.5635L25.5625 12.7228C25.5614 12.7242 25.5597 12.7264 25.5576 12.7287C25.5529 12.7339 25.5452 12.742 25.5361 12.7521C25.5178 12.7727 25.4905 12.8034 25.4551 12.843C25.3833 12.9232 25.2771 13.042 25.1416 13.1935C24.8703 13.4969 24.4786 13.9346 23.999 14.4709C23.0395 15.5439 21.7252 17.0128 20.3086 18.5969C17.4751 21.7654 14.229 25.3949 12.5801 27.2385C10.6242 29.4263 8.0343 29.9685 6.05957 29.9992C5.06526 30.0147 4.19034 29.9025 3.56445 29.7873C3.2504 29.7295 2.99502 29.6702 2.81445 29.6242C2.72438 29.6012 2.65217 29.5813 2.60059 29.5666C2.57486 29.5592 2.55353 29.5527 2.53809 29.548C2.53052 29.5458 2.52356 29.5437 2.51855 29.5422C2.51639 29.5415 2.51434 29.5407 2.5127 29.5402H2.50977L2.50879 29.5392L2.86719 28.3937L2.50781 29.5392C2.18928 29.4394 1.92664 29.2108 1.7832 28.9094L2.86719 28.3937L1.78223 28.9084V28.9074L1.78125 28.9045C1.78052 28.9029 1.7793 28.9007 1.77832 28.8986C1.77613 28.8939 1.77279 28.8872 1.76953 28.8801C1.76281 28.8654 1.75392 28.8448 1.74316 28.8205C1.72153 28.7716 1.69208 28.7029 1.65723 28.6174C1.58736 28.4459 1.49403 28.2024 1.39551 27.9016C1.19922 27.3019 0.974946 26.4564 0.866211 25.4758C0.649639 23.5213 0.884729 20.9031 2.86621 18.6887C4.53757 16.8175 7.78189 13.1874 10.6084 10.0256C12.0218 8.4445 13.3314 6.98028 14.2871 5.91132C14.7648 5.377 15.1548 4.94089 15.4248 4.63885C15.5595 4.48816 15.665 4.37003 15.7363 4.29022C15.7717 4.25064 15.7991 4.21986 15.8174 4.1994C15.8263 4.18941 15.8333 4.18115 15.8379 4.17596L15.8447 4.16913L16.7393 4.96796L17.6338 5.76874L17.627 5.77557C17.6223 5.78076 17.6154 5.78901 17.6064 5.79901C17.5882 5.81947 17.5608 5.85024 17.5254 5.88983C17.454 5.96964 17.3486 6.08775 17.2139 6.23846C16.9438 6.5405 16.5539 6.9766 16.0762 7.51093C15.8635 7.74879 15.6327 8.0056 15.3877 8.27948L21.5234 13.6369C21.7675 13.3642 21.9979 13.1085 22.21 12.8713C22.6894 12.3351 23.0813 11.8973 23.3525 11.5939C23.488 11.4424 23.5943 11.3236 23.666 11.2433C23.7016 11.2035 23.7287 11.1721 23.7471 11.1516C23.756 11.1415 23.7639 11.1343 23.7686 11.1291C23.7706 11.1268 23.7723 11.1246 23.7734 11.1232L23.7744 11.1213H23.7754C25.2681 9.45156 25.1122 6.90251 23.4248 5.42108L23.2627 5.28632C21.5665 3.94506 19.0862 4.14313 17.6338 5.76776L15.8447 4.16815Z" fill="black" fill-opacity="0.2"/>
<path d="M15.8447 4.16815C18.1493 1.59044 22.0681 1.28111 24.751 3.4035L25.0068 3.61639L25.252 3.84198C27.7085 6.22797 27.8749 10.1365 25.5645 12.7209H25.5635L25.5625 12.7228C25.5614 12.7242 25.5597 12.7264 25.5576 12.7287C25.5529 12.7339 25.5452 12.742 25.5361 12.7521C25.5178 12.7727 25.4905 12.8034 25.4551 12.843C25.3833 12.9232 25.2771 13.042 25.1416 13.1935C24.8703 13.4969 24.4786 13.9346 23.999 14.4709C23.0395 15.5439 21.7252 17.0128 20.3086 18.5969C17.4751 21.7654 14.229 25.3949 12.5801 27.2385C10.6242 29.4263 8.0343 29.9685 6.05957 29.9992C5.06526 30.0147 4.19034 29.9025 3.56445 29.7873C3.2504 29.7295 2.99502 29.6702 2.81445 29.6242C2.72438 29.6012 2.65217 29.5813 2.60059 29.5666C2.57486 29.5592 2.55353 29.5527 2.53809 29.548C2.53052 29.5458 2.52356 29.5437 2.51855 29.5422C2.51639 29.5415 2.51434 29.5407 2.5127 29.5402H2.50977L2.50879 29.5392L2.86719 28.3937L2.50781 29.5392C2.18928 29.4394 1.92664 29.2108 1.7832 28.9094L2.86719 28.3937L1.78223 28.9084V28.9074L1.78125 28.9045C1.78052 28.9029 1.7793 28.9007 1.77832 28.8986C1.77613 28.8939 1.77279 28.8872 1.76953 28.8801C1.76281 28.8654 1.75392 28.8448 1.74316 28.8205C1.72153 28.7716 1.69208 28.7029 1.65723 28.6174C1.58736 28.4459 1.49403 28.2024 1.39551 27.9016C1.19922 27.3019 0.974946 26.4564 0.866211 25.4758C0.649639 23.5213 0.884729 20.9031 2.86621 18.6887C4.53757 16.8175 7.78189 13.1874 10.6084 10.0256C12.0218 8.4445 13.3314 6.98028 14.2871 5.91132C14.7648 5.377 15.1548 4.94089 15.4248 4.63885C15.5595 4.48816 15.665 4.37003 15.7363 4.29022C15.7717 4.25064 15.7991 4.21986 15.8174 4.1994C15.8263 4.18941 15.8333 4.18115 15.8379 4.17596L15.8447 4.16913L16.7393 4.96796L17.6338 5.76874L17.627 5.77557C17.6223 5.78076 17.6154 5.78901 17.6064 5.79901C17.5882 5.81947 17.5608 5.85024 17.5254 5.88983C17.454 5.96964 17.3486 6.08775 17.2139 6.23846C16.9438 6.5405 16.5539 6.9766 16.0762 7.51093C15.8635 7.74879 15.6327 8.0056 15.3877 8.27948L21.5234 13.6369C21.7675 13.3642 21.9979 13.1085 22.21 12.8713C22.6894 12.3351 23.0813 11.8973 23.3525 11.5939C23.488 11.4424 23.5943 11.3236 23.666 11.2433C23.7016 11.2035 23.7287 11.1721 23.7471 11.1516C23.756 11.1415 23.7639 11.1343 23.7686 11.1291C23.7706 11.1268 23.7723 11.1246 23.7734 11.1232L23.7744 11.1213H23.7754C25.2681 9.45156 25.1122 6.90251 23.4248 5.42108L23.2627 5.28632C21.5665 3.94506 19.0862 4.14313 17.6338 5.76776L15.8447 4.16815Z" fill="black" fill-opacity="0.2"/>
</svg>
