<svg width="32" height="32" viewBox="0 0 32 32" fill="none" xmlns="http://www.w3.org/2000/svg">
<g clip-path="url(#clip0_87_63585)">
<path d="M17.3679 3.96289C23.9763 3.96306 29.3337 9.18667 29.3337 15.6299C29.3336 22.073 23.9762 27.2957 17.3679 27.2959H14.6326C13.2089 27.2959 11.8409 27.0537 10.572 26.6074L6.17651 27.957C4.85648 28.3625 3.61492 27.1506 4.03296 25.8643L5.0769 22.6533C3.56423 20.6997 2.66682 18.2658 2.66675 15.6299C2.66675 9.18656 8.02404 3.96289 14.6326 3.96289H17.3679Z" fill="black"/>
<path d="M17.3679 3.96289C23.9763 3.96306 29.3337 9.18667 29.3337 15.6299C29.3336 22.073 23.9762 27.2957 17.3679 27.2959H14.6326C13.2089 27.2959 11.8409 27.0537 10.572 26.6074L6.17651 27.957C4.85648 28.3625 3.61492 27.1506 4.03296 25.8643L5.0769 22.6533C3.56423 20.6997 2.66682 18.2658 2.66675 15.6299C2.66675 9.18656 8.02404 3.96289 14.6326 3.96289H17.3679Z" fill="black" fill-opacity="0.2"/>
<path d="M17.3679 3.96289C23.9763 3.96306 29.3337 9.18667 29.3337 15.6299C29.3336 22.073 23.9762 27.2957 17.3679 27.2959H14.6326C13.2089 27.2959 11.8409 27.0537 10.572 26.6074L6.17651 27.957C4.85648 28.3625 3.61492 27.1506 4.03296 25.8643L5.0769 22.6533C3.56423 20.6997 2.66682 18.2658 2.66675 15.6299C2.66675 9.18656 8.02404 3.96289 14.6326 3.96289H17.3679Z" fill="black" fill-opacity="0.2"/>
<path d="M17.3679 3.96289C23.9763 3.96306 29.3337 9.18667 29.3337 15.6299C29.3336 22.073 23.9762 27.2957 17.3679 27.2959H14.6326C13.2089 27.2959 11.8409 27.0537 10.572 26.6074L6.17651 27.957C4.85648 28.3625 3.61492 27.1506 4.03296 25.8643L5.0769 22.6533C3.56423 20.6997 2.66682 18.2658 2.66675 15.6299C2.66675 9.18656 8.02404 3.96289 14.6326 3.96289H17.3679Z" fill="black" fill-opacity="0.2"/>
</g>
<defs>
<clipPath id="clip0_87_63585">
<rect width="32" height="32" fill="white"/>
</clipPath>
</defs>
</svg>
