<svg width="64" height="58" viewBox="0 0 64 58" fill="none" xmlns="http://www.w3.org/2000/svg">
<g clip-path="url(#clip0_87_63652)">
<path d="M33.3679 3.96284C39.9763 3.96301 45.3337 9.18662 45.3337 15.6298C45.3336 22.0729 39.9762 27.2957 33.3679 27.2959H30.6326C29.2089 27.2959 27.8409 27.0536 26.572 26.6074L22.1765 27.957C20.8565 28.3624 19.6149 27.1506 20.033 25.8642L21.0769 22.6533C19.5642 20.6996 18.6668 18.2657 18.6667 15.6298C18.6667 9.18652 24.024 3.96284 30.6326 3.96284H33.3679Z" fill="black"/>
<path d="M33.3679 3.96284C39.9763 3.96301 45.3337 9.18662 45.3337 15.6298C45.3336 22.0729 39.9762 27.2957 33.3679 27.2959H30.6326C29.2089 27.2959 27.8409 27.0536 26.572 26.6074L22.1765 27.957C20.8565 28.3624 19.6149 27.1506 20.033 25.8642L21.0769 22.6533C19.5642 20.6996 18.6668 18.2657 18.6667 15.6298C18.6667 9.18652 24.024 3.96284 30.6326 3.96284H33.3679Z" fill="black" fill-opacity="0.2"/>
<path d="M33.3679 3.96284C39.9763 3.96301 45.3337 9.18662 45.3337 15.6298C45.3336 22.0729 39.9762 27.2957 33.3679 27.2959H30.6326C29.2089 27.2959 27.8409 27.0536 26.572 26.6074L22.1765 27.957C20.8565 28.3624 19.6149 27.1506 20.033 25.8642L21.0769 22.6533C19.5642 20.6996 18.6668 18.2657 18.6667 15.6298C18.6667 9.18652 24.024 3.96284 30.6326 3.96284H33.3679Z" fill="black" fill-opacity="0.2"/>
<path d="M33.3679 3.96284C39.9763 3.96301 45.3337 9.18662 45.3337 15.6298C45.3336 22.0729 39.9762 27.2957 33.3679 27.2959H30.6326C29.2089 27.2959 27.8409 27.0536 26.572 26.6074L22.1765 27.957C20.8565 28.3624 19.6149 27.1506 20.033 25.8642L21.0769 22.6533C19.5642 20.6996 18.6668 18.2657 18.6667 15.6298C18.6667 9.18652 24.024 3.96284 30.6326 3.96284H33.3679Z" fill="black" fill-opacity="0.2"/>
</g>
<path d="M12.0049 48.873H9.7832V47.6221H12.0049V48.873ZM10.1729 55.1963H8.65527V42.8574H10.1729V55.1963ZM2.44141 51.71H0.923828V44.0537H2.44141V51.71ZM1.96973 50.876C2.92676 50.876 3.87923 50.8327 4.82715 50.7461C5.77507 50.6595 6.7321 50.5205 7.69824 50.3291L7.86914 51.6006C6.89844 51.7965 5.92773 51.9355 4.95703 52.0176C3.99089 52.0951 2.99512 52.1338 1.96973 52.1338H0.923828V50.876H1.96973ZM17.0635 52.0244H15.5459V49.1055H17.0635V52.0244ZM16.2842 43.6162C16.9176 43.6162 17.4873 43.7438 17.9932 43.999C18.5036 44.2497 18.9046 44.6029 19.1963 45.0586C19.4925 45.5098 19.6406 46.0247 19.6406 46.6035C19.6406 47.1823 19.4925 47.6973 19.1963 48.1484C18.9046 48.5951 18.5036 48.946 17.9932 49.2012C17.4873 49.4564 16.9176 49.584 16.2842 49.584C15.6416 49.584 15.0651 49.4564 14.5547 49.2012C14.0443 48.946 13.6455 48.5951 13.3584 48.1484C13.0713 47.6973 12.9277 47.1823 12.9277 46.6035C12.9277 46.0247 13.0713 45.5098 13.3584 45.0586C13.6455 44.6029 14.0443 44.2497 14.5547 43.999C15.0651 43.7438 15.6416 43.6162 16.2842 43.6162ZM16.2842 44.915C15.9242 44.915 15.6029 44.9834 15.3203 45.1201C15.0378 45.2568 14.8145 45.4551 14.6504 45.7148C14.4909 45.9701 14.4111 46.2663 14.4111 46.6035C14.4111 46.9408 14.4909 47.237 14.6504 47.4922C14.8145 47.7474 15.0378 47.9456 15.3203 48.0869C15.6074 48.2236 15.9287 48.292 16.2842 48.292C16.6396 48.292 16.9564 48.2236 17.2344 48.0869C17.5169 47.9456 17.738 47.7474 17.8975 47.4922C18.0615 47.237 18.1436 46.9408 18.1436 46.6035C18.1436 46.2663 18.0615 45.9701 17.8975 45.7148C17.738 45.4596 17.5192 45.2637 17.2412 45.127C16.9632 44.9857 16.6442 44.915 16.2842 44.915ZM22.3135 55.2031H20.7959V42.8574H22.3135V55.2031ZM24.1045 49.0781H21.8623V47.7861H24.1045V49.0781ZM12.4492 51.4229C13.5658 51.4183 14.4886 51.4092 15.2178 51.3955C15.9515 51.3818 16.7559 51.3522 17.6309 51.3066C18.5059 51.2565 19.3262 51.179 20.0918 51.0742L20.1943 52.2021C19.3968 52.348 18.5628 52.4574 17.6924 52.5303C16.8219 52.5986 15.9925 52.6396 15.2041 52.6533C14.4157 52.6624 13.568 52.667 12.6611 52.667L12.4492 51.4229ZM28.7051 43.7051C29.3522 43.7051 29.9333 43.8327 30.4482 44.0879C30.9632 44.3431 31.3665 44.6986 31.6582 45.1543C31.9499 45.6055 32.0957 46.1204 32.0957 46.6992C32.0957 47.278 31.9499 47.7952 31.6582 48.251C31.3665 48.7021 30.9632 49.0553 30.4482 49.3105C29.9378 49.5658 29.3568 49.6934 28.7051 49.6934C28.0671 49.6934 27.4883 49.5658 26.9688 49.3105C26.4492 49.0553 26.0413 48.7021 25.7451 48.251C25.4535 47.7952 25.3076 47.278 25.3076 46.6992C25.3076 46.1204 25.4535 45.6055 25.7451 45.1543C26.0413 44.6986 26.4492 44.3431 26.9688 44.0879C27.4883 43.8327 28.0671 43.7051 28.7051 43.7051ZM28.7051 45.0244C28.3451 45.0244 28.0215 45.0928 27.7344 45.2295C27.4473 45.3662 27.2217 45.5622 27.0576 45.8174C26.8936 46.068 26.8115 46.362 26.8115 46.6992C26.8115 47.0365 26.8936 47.3304 27.0576 47.5811C27.2217 47.8317 27.4473 48.0277 27.7344 48.1689C28.0215 48.3057 28.3451 48.374 28.7051 48.374C29.0742 48.374 29.4023 48.3057 29.6895 48.1689C29.9766 48.0277 30.1999 47.8317 30.3594 47.5811C30.5234 47.3304 30.6055 47.0365 30.6055 46.6992C30.6055 46.362 30.5234 46.068 30.3594 45.8174C30.1999 45.5622 29.9766 45.3662 29.6895 45.2295C29.4023 45.0928 29.0742 45.0244 28.7051 45.0244ZM34.9805 55.2373H33.4766V42.8574H34.9805V55.2373ZM24.7471 51.4023C25.7588 51.3978 26.6748 51.3864 27.4951 51.3682C28.3154 51.3499 29.1882 51.3135 30.1133 51.2588C31.0384 51.1995 31.9111 51.1107 32.7314 50.9922L32.8477 52.0996C31.9954 52.2546 31.1113 52.373 30.1953 52.4551C29.2793 52.5371 28.418 52.5895 27.6113 52.6123C26.8092 52.6351 25.9183 52.6465 24.9385 52.6465L24.7471 51.4023ZM43.6211 46.6104C43.6211 47.4808 43.5163 48.3171 43.3066 49.1191C43.1016 49.9167 42.7894 50.6367 42.3701 51.2793C41.9554 51.9173 41.4382 52.4118 40.8184 52.7627L39.9434 51.6348C40.5039 51.3112 40.971 50.8828 41.3447 50.3496C41.723 49.8164 42.0033 49.2308 42.1855 48.5928C42.3724 47.9548 42.4658 47.2939 42.4658 46.6104V46.1592H43.6211V46.6104ZM43.9014 46.6104C43.9014 47.2712 43.9925 47.9046 44.1748 48.5107C44.3571 49.1169 44.6374 49.6706 45.0156 50.1719C45.3984 50.6686 45.8701 51.0674 46.4307 51.3682L45.5762 52.4893C44.9518 52.1566 44.4277 51.6895 44.0039 51.0879C43.5801 50.4863 43.2656 49.805 43.0605 49.0439C42.8555 48.2783 42.7529 47.4671 42.7529 46.6104V46.1592H43.9014V46.6104ZM46.0342 46.2686H40.3125V45.0312H46.0342V46.2686ZM43.8945 45.9951H42.4658V43.2949H43.8945V45.9951ZM50.8535 55.2031H49.3906V42.8574H50.8535V55.2031ZM49.8965 48.9482H47.709V47.6973H49.8965V48.9482ZM48.1328 54.6221H46.6904V43.0693H48.1328V54.6221ZM54.5859 48.5107C55.8483 48.5062 56.8464 48.4857 57.5801 48.4492C58.3138 48.4082 59.0521 48.3285 59.7949 48.21L59.9453 49.4131C59.1159 49.5452 58.2773 49.6341 57.4297 49.6797C56.582 49.7207 55.4268 49.7412 53.9639 49.7412H52.9248V48.5107H53.9639H54.5859ZM58.8789 44.9561H54.4492V49.0645H52.9248V43.7393H58.8789V44.9561ZM58.5234 47.3145H53.9707V46.1182H58.5234V47.3145ZM62.5156 50.4043H60.9912V42.8711H62.5156V50.4043ZM58.3525 50.582C59.2139 50.5729 59.9613 50.6618 60.5947 50.8486C61.2327 51.0309 61.7227 51.2952 62.0645 51.6416C62.4062 51.9834 62.5771 52.3981 62.5771 52.8857C62.5771 53.3734 62.4062 53.7904 62.0645 54.1367C61.7227 54.4831 61.235 54.7451 60.6016 54.9229C59.9727 55.1051 59.223 55.1963 58.3525 55.1963C57.4775 55.1963 56.7233 55.1051 56.0898 54.9229C55.4564 54.7451 54.9688 54.4831 54.627 54.1367C54.2897 53.7904 54.1211 53.3734 54.1211 52.8857C54.1211 52.3981 54.2897 51.9834 54.627 51.6416C54.9688 51.2952 55.4564 51.0309 56.0898 50.8486C56.7233 50.6618 57.4775 50.5729 58.3525 50.582ZM58.3525 51.7578C57.7738 51.7578 57.2816 51.8011 56.876 51.8877C56.4704 51.9743 56.1628 52.1019 55.9531 52.2705C55.7435 52.4346 55.6387 52.6396 55.6387 52.8857C55.6387 53.1318 55.7435 53.3415 55.9531 53.5146C56.1628 53.6833 56.4704 53.8132 56.876 53.9043C57.2816 53.9909 57.7738 54.0342 58.3525 54.0342C58.9268 54.0342 59.4167 53.9909 59.8223 53.9043C60.2279 53.8132 60.5355 53.6833 60.7451 53.5146C60.9548 53.3415 61.0596 53.1318 61.0596 52.8857C61.0596 52.6488 60.9548 52.446 60.7451 52.2773C60.5355 52.1042 60.2279 51.9743 59.8223 51.8877C59.4167 51.8011 58.9268 51.7578 58.3525 51.7578Z" fill="black"/>
<path d="M12.0049 48.873H9.7832V47.6221H12.0049V48.873ZM10.1729 55.1963H8.65527V42.8574H10.1729V55.1963ZM2.44141 51.71H0.923828V44.0537H2.44141V51.71ZM1.96973 50.876C2.92676 50.876 3.87923 50.8327 4.82715 50.7461C5.77507 50.6595 6.7321 50.5205 7.69824 50.3291L7.86914 51.6006C6.89844 51.7965 5.92773 51.9355 4.95703 52.0176C3.99089 52.0951 2.99512 52.1338 1.96973 52.1338H0.923828V50.876H1.96973ZM17.0635 52.0244H15.5459V49.1055H17.0635V52.0244ZM16.2842 43.6162C16.9176 43.6162 17.4873 43.7438 17.9932 43.999C18.5036 44.2497 18.9046 44.6029 19.1963 45.0586C19.4925 45.5098 19.6406 46.0247 19.6406 46.6035C19.6406 47.1823 19.4925 47.6973 19.1963 48.1484C18.9046 48.5951 18.5036 48.946 17.9932 49.2012C17.4873 49.4564 16.9176 49.584 16.2842 49.584C15.6416 49.584 15.0651 49.4564 14.5547 49.2012C14.0443 48.946 13.6455 48.5951 13.3584 48.1484C13.0713 47.6973 12.9277 47.1823 12.9277 46.6035C12.9277 46.0247 13.0713 45.5098 13.3584 45.0586C13.6455 44.6029 14.0443 44.2497 14.5547 43.999C15.0651 43.7438 15.6416 43.6162 16.2842 43.6162ZM16.2842 44.915C15.9242 44.915 15.6029 44.9834 15.3203 45.1201C15.0378 45.2568 14.8145 45.4551 14.6504 45.7148C14.4909 45.9701 14.4111 46.2663 14.4111 46.6035C14.4111 46.9408 14.4909 47.237 14.6504 47.4922C14.8145 47.7474 15.0378 47.9456 15.3203 48.0869C15.6074 48.2236 15.9287 48.292 16.2842 48.292C16.6396 48.292 16.9564 48.2236 17.2344 48.0869C17.5169 47.9456 17.738 47.7474 17.8975 47.4922C18.0615 47.237 18.1436 46.9408 18.1436 46.6035C18.1436 46.2663 18.0615 45.9701 17.8975 45.7148C17.738 45.4596 17.5192 45.2637 17.2412 45.127C16.9632 44.9857 16.6442 44.915 16.2842 44.915ZM22.3135 55.2031H20.7959V42.8574H22.3135V55.2031ZM24.1045 49.0781H21.8623V47.7861H24.1045V49.0781ZM12.4492 51.4229C13.5658 51.4183 14.4886 51.4092 15.2178 51.3955C15.9515 51.3818 16.7559 51.3522 17.6309 51.3066C18.5059 51.2565 19.3262 51.179 20.0918 51.0742L20.1943 52.2021C19.3968 52.348 18.5628 52.4574 17.6924 52.5303C16.8219 52.5986 15.9925 52.6396 15.2041 52.6533C14.4157 52.6624 13.568 52.667 12.6611 52.667L12.4492 51.4229ZM28.7051 43.7051C29.3522 43.7051 29.9333 43.8327 30.4482 44.0879C30.9632 44.3431 31.3665 44.6986 31.6582 45.1543C31.9499 45.6055 32.0957 46.1204 32.0957 46.6992C32.0957 47.278 31.9499 47.7952 31.6582 48.251C31.3665 48.7021 30.9632 49.0553 30.4482 49.3105C29.9378 49.5658 29.3568 49.6934 28.7051 49.6934C28.0671 49.6934 27.4883 49.5658 26.9688 49.3105C26.4492 49.0553 26.0413 48.7021 25.7451 48.251C25.4535 47.7952 25.3076 47.278 25.3076 46.6992C25.3076 46.1204 25.4535 45.6055 25.7451 45.1543C26.0413 44.6986 26.4492 44.3431 26.9688 44.0879C27.4883 43.8327 28.0671 43.7051 28.7051 43.7051ZM28.7051 45.0244C28.3451 45.0244 28.0215 45.0928 27.7344 45.2295C27.4473 45.3662 27.2217 45.5622 27.0576 45.8174C26.8936 46.068 26.8115 46.362 26.8115 46.6992C26.8115 47.0365 26.8936 47.3304 27.0576 47.5811C27.2217 47.8317 27.4473 48.0277 27.7344 48.1689C28.0215 48.3057 28.3451 48.374 28.7051 48.374C29.0742 48.374 29.4023 48.3057 29.6895 48.1689C29.9766 48.0277 30.1999 47.8317 30.3594 47.5811C30.5234 47.3304 30.6055 47.0365 30.6055 46.6992C30.6055 46.362 30.5234 46.068 30.3594 45.8174C30.1999 45.5622 29.9766 45.3662 29.6895 45.2295C29.4023 45.0928 29.0742 45.0244 28.7051 45.0244ZM34.9805 55.2373H33.4766V42.8574H34.9805V55.2373ZM24.7471 51.4023C25.7588 51.3978 26.6748 51.3864 27.4951 51.3682C28.3154 51.3499 29.1882 51.3135 30.1133 51.2588C31.0384 51.1995 31.9111 51.1107 32.7314 50.9922L32.8477 52.0996C31.9954 52.2546 31.1113 52.373 30.1953 52.4551C29.2793 52.5371 28.418 52.5895 27.6113 52.6123C26.8092 52.6351 25.9183 52.6465 24.9385 52.6465L24.7471 51.4023ZM43.6211 46.6104C43.6211 47.4808 43.5163 48.3171 43.3066 49.1191C43.1016 49.9167 42.7894 50.6367 42.3701 51.2793C41.9554 51.9173 41.4382 52.4118 40.8184 52.7627L39.9434 51.6348C40.5039 51.3112 40.971 50.8828 41.3447 50.3496C41.723 49.8164 42.0033 49.2308 42.1855 48.5928C42.3724 47.9548 42.4658 47.2939 42.4658 46.6104V46.1592H43.6211V46.6104ZM43.9014 46.6104C43.9014 47.2712 43.9925 47.9046 44.1748 48.5107C44.3571 49.1169 44.6374 49.6706 45.0156 50.1719C45.3984 50.6686 45.8701 51.0674 46.4307 51.3682L45.5762 52.4893C44.9518 52.1566 44.4277 51.6895 44.0039 51.0879C43.5801 50.4863 43.2656 49.805 43.0605 49.0439C42.8555 48.2783 42.7529 47.4671 42.7529 46.6104V46.1592H43.9014V46.6104ZM46.0342 46.2686H40.3125V45.0312H46.0342V46.2686ZM43.8945 45.9951H42.4658V43.2949H43.8945V45.9951ZM50.8535 55.2031H49.3906V42.8574H50.8535V55.2031ZM49.8965 48.9482H47.709V47.6973H49.8965V48.9482ZM48.1328 54.6221H46.6904V43.0693H48.1328V54.6221ZM54.5859 48.5107C55.8483 48.5062 56.8464 48.4857 57.5801 48.4492C58.3138 48.4082 59.0521 48.3285 59.7949 48.21L59.9453 49.4131C59.1159 49.5452 58.2773 49.6341 57.4297 49.6797C56.582 49.7207 55.4268 49.7412 53.9639 49.7412H52.9248V48.5107H53.9639H54.5859ZM58.8789 44.9561H54.4492V49.0645H52.9248V43.7393H58.8789V44.9561ZM58.5234 47.3145H53.9707V46.1182H58.5234V47.3145ZM62.5156 50.4043H60.9912V42.8711H62.5156V50.4043ZM58.3525 50.582C59.2139 50.5729 59.9613 50.6618 60.5947 50.8486C61.2327 51.0309 61.7227 51.2952 62.0645 51.6416C62.4062 51.9834 62.5771 52.3981 62.5771 52.8857C62.5771 53.3734 62.4062 53.7904 62.0645 54.1367C61.7227 54.4831 61.235 54.7451 60.6016 54.9229C59.9727 55.1051 59.223 55.1963 58.3525 55.1963C57.4775 55.1963 56.7233 55.1051 56.0898 54.9229C55.4564 54.7451 54.9688 54.4831 54.627 54.1367C54.2897 53.7904 54.1211 53.3734 54.1211 52.8857C54.1211 52.3981 54.2897 51.9834 54.627 51.6416C54.9688 51.2952 55.4564 51.0309 56.0898 50.8486C56.7233 50.6618 57.4775 50.5729 58.3525 50.582ZM58.3525 51.7578C57.7738 51.7578 57.2816 51.8011 56.876 51.8877C56.4704 51.9743 56.1628 52.1019 55.9531 52.2705C55.7435 52.4346 55.6387 52.6396 55.6387 52.8857C55.6387 53.1318 55.7435 53.3415 55.9531 53.5146C56.1628 53.6833 56.4704 53.8132 56.876 53.9043C57.2816 53.9909 57.7738 54.0342 58.3525 54.0342C58.9268 54.0342 59.4167 53.9909 59.8223 53.9043C60.2279 53.8132 60.5355 53.6833 60.7451 53.5146C60.9548 53.3415 61.0596 53.1318 61.0596 52.8857C61.0596 52.6488 60.9548 52.446 60.7451 52.2773C60.5355 52.1042 60.2279 51.9743 59.8223 51.8877C59.4167 51.8011 58.9268 51.7578 58.3525 51.7578Z" fill="black" fill-opacity="0.2"/>
<path d="M12.0049 48.873H9.7832V47.6221H12.0049V48.873ZM10.1729 55.1963H8.65527V42.8574H10.1729V55.1963ZM2.44141 51.71H0.923828V44.0537H2.44141V51.71ZM1.96973 50.876C2.92676 50.876 3.87923 50.8327 4.82715 50.7461C5.77507 50.6595 6.7321 50.5205 7.69824 50.3291L7.86914 51.6006C6.89844 51.7965 5.92773 51.9355 4.95703 52.0176C3.99089 52.0951 2.99512 52.1338 1.96973 52.1338H0.923828V50.876H1.96973ZM17.0635 52.0244H15.5459V49.1055H17.0635V52.0244ZM16.2842 43.6162C16.9176 43.6162 17.4873 43.7438 17.9932 43.999C18.5036 44.2497 18.9046 44.6029 19.1963 45.0586C19.4925 45.5098 19.6406 46.0247 19.6406 46.6035C19.6406 47.1823 19.4925 47.6973 19.1963 48.1484C18.9046 48.5951 18.5036 48.946 17.9932 49.2012C17.4873 49.4564 16.9176 49.584 16.2842 49.584C15.6416 49.584 15.0651 49.4564 14.5547 49.2012C14.0443 48.946 13.6455 48.5951 13.3584 48.1484C13.0713 47.6973 12.9277 47.1823 12.9277 46.6035C12.9277 46.0247 13.0713 45.5098 13.3584 45.0586C13.6455 44.6029 14.0443 44.2497 14.5547 43.999C15.0651 43.7438 15.6416 43.6162 16.2842 43.6162ZM16.2842 44.915C15.9242 44.915 15.6029 44.9834 15.3203 45.1201C15.0378 45.2568 14.8145 45.4551 14.6504 45.7148C14.4909 45.9701 14.4111 46.2663 14.4111 46.6035C14.4111 46.9408 14.4909 47.237 14.6504 47.4922C14.8145 47.7474 15.0378 47.9456 15.3203 48.0869C15.6074 48.2236 15.9287 48.292 16.2842 48.292C16.6396 48.292 16.9564 48.2236 17.2344 48.0869C17.5169 47.9456 17.738 47.7474 17.8975 47.4922C18.0615 47.237 18.1436 46.9408 18.1436 46.6035C18.1436 46.2663 18.0615 45.9701 17.8975 45.7148C17.738 45.4596 17.5192 45.2637 17.2412 45.127C16.9632 44.9857 16.6442 44.915 16.2842 44.915ZM22.3135 55.2031H20.7959V42.8574H22.3135V55.2031ZM24.1045 49.0781H21.8623V47.7861H24.1045V49.0781ZM12.4492 51.4229C13.5658 51.4183 14.4886 51.4092 15.2178 51.3955C15.9515 51.3818 16.7559 51.3522 17.6309 51.3066C18.5059 51.2565 19.3262 51.179 20.0918 51.0742L20.1943 52.2021C19.3968 52.348 18.5628 52.4574 17.6924 52.5303C16.8219 52.5986 15.9925 52.6396 15.2041 52.6533C14.4157 52.6624 13.568 52.667 12.6611 52.667L12.4492 51.4229ZM28.7051 43.7051C29.3522 43.7051 29.9333 43.8327 30.4482 44.0879C30.9632 44.3431 31.3665 44.6986 31.6582 45.1543C31.9499 45.6055 32.0957 46.1204 32.0957 46.6992C32.0957 47.278 31.9499 47.7952 31.6582 48.251C31.3665 48.7021 30.9632 49.0553 30.4482 49.3105C29.9378 49.5658 29.3568 49.6934 28.7051 49.6934C28.0671 49.6934 27.4883 49.5658 26.9688 49.3105C26.4492 49.0553 26.0413 48.7021 25.7451 48.251C25.4535 47.7952 25.3076 47.278 25.3076 46.6992C25.3076 46.1204 25.4535 45.6055 25.7451 45.1543C26.0413 44.6986 26.4492 44.3431 26.9688 44.0879C27.4883 43.8327 28.0671 43.7051 28.7051 43.7051ZM28.7051 45.0244C28.3451 45.0244 28.0215 45.0928 27.7344 45.2295C27.4473 45.3662 27.2217 45.5622 27.0576 45.8174C26.8936 46.068 26.8115 46.362 26.8115 46.6992C26.8115 47.0365 26.8936 47.3304 27.0576 47.5811C27.2217 47.8317 27.4473 48.0277 27.7344 48.1689C28.0215 48.3057 28.3451 48.374 28.7051 48.374C29.0742 48.374 29.4023 48.3057 29.6895 48.1689C29.9766 48.0277 30.1999 47.8317 30.3594 47.5811C30.5234 47.3304 30.6055 47.0365 30.6055 46.6992C30.6055 46.362 30.5234 46.068 30.3594 45.8174C30.1999 45.5622 29.9766 45.3662 29.6895 45.2295C29.4023 45.0928 29.0742 45.0244 28.7051 45.0244ZM34.9805 55.2373H33.4766V42.8574H34.9805V55.2373ZM24.7471 51.4023C25.7588 51.3978 26.6748 51.3864 27.4951 51.3682C28.3154 51.3499 29.1882 51.3135 30.1133 51.2588C31.0384 51.1995 31.9111 51.1107 32.7314 50.9922L32.8477 52.0996C31.9954 52.2546 31.1113 52.373 30.1953 52.4551C29.2793 52.5371 28.418 52.5895 27.6113 52.6123C26.8092 52.6351 25.9183 52.6465 24.9385 52.6465L24.7471 51.4023ZM43.6211 46.6104C43.6211 47.4808 43.5163 48.3171 43.3066 49.1191C43.1016 49.9167 42.7894 50.6367 42.3701 51.2793C41.9554 51.9173 41.4382 52.4118 40.8184 52.7627L39.9434 51.6348C40.5039 51.3112 40.971 50.8828 41.3447 50.3496C41.723 49.8164 42.0033 49.2308 42.1855 48.5928C42.3724 47.9548 42.4658 47.2939 42.4658 46.6104V46.1592H43.6211V46.6104ZM43.9014 46.6104C43.9014 47.2712 43.9925 47.9046 44.1748 48.5107C44.3571 49.1169 44.6374 49.6706 45.0156 50.1719C45.3984 50.6686 45.8701 51.0674 46.4307 51.3682L45.5762 52.4893C44.9518 52.1566 44.4277 51.6895 44.0039 51.0879C43.5801 50.4863 43.2656 49.805 43.0605 49.0439C42.8555 48.2783 42.7529 47.4671 42.7529 46.6104V46.1592H43.9014V46.6104ZM46.0342 46.2686H40.3125V45.0312H46.0342V46.2686ZM43.8945 45.9951H42.4658V43.2949H43.8945V45.9951ZM50.8535 55.2031H49.3906V42.8574H50.8535V55.2031ZM49.8965 48.9482H47.709V47.6973H49.8965V48.9482ZM48.1328 54.6221H46.6904V43.0693H48.1328V54.6221ZM54.5859 48.5107C55.8483 48.5062 56.8464 48.4857 57.5801 48.4492C58.3138 48.4082 59.0521 48.3285 59.7949 48.21L59.9453 49.4131C59.1159 49.5452 58.2773 49.6341 57.4297 49.6797C56.582 49.7207 55.4268 49.7412 53.9639 49.7412H52.9248V48.5107H53.9639H54.5859ZM58.8789 44.9561H54.4492V49.0645H52.9248V43.7393H58.8789V44.9561ZM58.5234 47.3145H53.9707V46.1182H58.5234V47.3145ZM62.5156 50.4043H60.9912V42.8711H62.5156V50.4043ZM58.3525 50.582C59.2139 50.5729 59.9613 50.6618 60.5947 50.8486C61.2327 51.0309 61.7227 51.2952 62.0645 51.6416C62.4062 51.9834 62.5771 52.3981 62.5771 52.8857C62.5771 53.3734 62.4062 53.7904 62.0645 54.1367C61.7227 54.4831 61.235 54.7451 60.6016 54.9229C59.9727 55.1051 59.223 55.1963 58.3525 55.1963C57.4775 55.1963 56.7233 55.1051 56.0898 54.9229C55.4564 54.7451 54.9688 54.4831 54.627 54.1367C54.2897 53.7904 54.1211 53.3734 54.1211 52.8857C54.1211 52.3981 54.2897 51.9834 54.627 51.6416C54.9688 51.2952 55.4564 51.0309 56.0898 50.8486C56.7233 50.6618 57.4775 50.5729 58.3525 50.582ZM58.3525 51.7578C57.7738 51.7578 57.2816 51.8011 56.876 51.8877C56.4704 51.9743 56.1628 52.1019 55.9531 52.2705C55.7435 52.4346 55.6387 52.6396 55.6387 52.8857C55.6387 53.1318 55.7435 53.3415 55.9531 53.5146C56.1628 53.6833 56.4704 53.8132 56.876 53.9043C57.2816 53.9909 57.7738 54.0342 58.3525 54.0342C58.9268 54.0342 59.4167 53.9909 59.8223 53.9043C60.2279 53.8132 60.5355 53.6833 60.7451 53.5146C60.9548 53.3415 61.0596 53.1318 61.0596 52.8857C61.0596 52.6488 60.9548 52.446 60.7451 52.2773C60.5355 52.1042 60.2279 51.9743 59.8223 51.8877C59.4167 51.8011 58.9268 51.7578 58.3525 51.7578Z" fill="black" fill-opacity="0.2"/>
<path d="M12.0049 48.873H9.7832V47.6221H12.0049V48.873ZM10.1729 55.1963H8.65527V42.8574H10.1729V55.1963ZM2.44141 51.71H0.923828V44.0537H2.44141V51.71ZM1.96973 50.876C2.92676 50.876 3.87923 50.8327 4.82715 50.7461C5.77507 50.6595 6.7321 50.5205 7.69824 50.3291L7.86914 51.6006C6.89844 51.7965 5.92773 51.9355 4.95703 52.0176C3.99089 52.0951 2.99512 52.1338 1.96973 52.1338H0.923828V50.876H1.96973ZM17.0635 52.0244H15.5459V49.1055H17.0635V52.0244ZM16.2842 43.6162C16.9176 43.6162 17.4873 43.7438 17.9932 43.999C18.5036 44.2497 18.9046 44.6029 19.1963 45.0586C19.4925 45.5098 19.6406 46.0247 19.6406 46.6035C19.6406 47.1823 19.4925 47.6973 19.1963 48.1484C18.9046 48.5951 18.5036 48.946 17.9932 49.2012C17.4873 49.4564 16.9176 49.584 16.2842 49.584C15.6416 49.584 15.0651 49.4564 14.5547 49.2012C14.0443 48.946 13.6455 48.5951 13.3584 48.1484C13.0713 47.6973 12.9277 47.1823 12.9277 46.6035C12.9277 46.0247 13.0713 45.5098 13.3584 45.0586C13.6455 44.6029 14.0443 44.2497 14.5547 43.999C15.0651 43.7438 15.6416 43.6162 16.2842 43.6162ZM16.2842 44.915C15.9242 44.915 15.6029 44.9834 15.3203 45.1201C15.0378 45.2568 14.8145 45.4551 14.6504 45.7148C14.4909 45.9701 14.4111 46.2663 14.4111 46.6035C14.4111 46.9408 14.4909 47.237 14.6504 47.4922C14.8145 47.7474 15.0378 47.9456 15.3203 48.0869C15.6074 48.2236 15.9287 48.292 16.2842 48.292C16.6396 48.292 16.9564 48.2236 17.2344 48.0869C17.5169 47.9456 17.738 47.7474 17.8975 47.4922C18.0615 47.237 18.1436 46.9408 18.1436 46.6035C18.1436 46.2663 18.0615 45.9701 17.8975 45.7148C17.738 45.4596 17.5192 45.2637 17.2412 45.127C16.9632 44.9857 16.6442 44.915 16.2842 44.915ZM22.3135 55.2031H20.7959V42.8574H22.3135V55.2031ZM24.1045 49.0781H21.8623V47.7861H24.1045V49.0781ZM12.4492 51.4229C13.5658 51.4183 14.4886 51.4092 15.2178 51.3955C15.9515 51.3818 16.7559 51.3522 17.6309 51.3066C18.5059 51.2565 19.3262 51.179 20.0918 51.0742L20.1943 52.2021C19.3968 52.348 18.5628 52.4574 17.6924 52.5303C16.8219 52.5986 15.9925 52.6396 15.2041 52.6533C14.4157 52.6624 13.568 52.667 12.6611 52.667L12.4492 51.4229ZM28.7051 43.7051C29.3522 43.7051 29.9333 43.8327 30.4482 44.0879C30.9632 44.3431 31.3665 44.6986 31.6582 45.1543C31.9499 45.6055 32.0957 46.1204 32.0957 46.6992C32.0957 47.278 31.9499 47.7952 31.6582 48.251C31.3665 48.7021 30.9632 49.0553 30.4482 49.3105C29.9378 49.5658 29.3568 49.6934 28.7051 49.6934C28.0671 49.6934 27.4883 49.5658 26.9688 49.3105C26.4492 49.0553 26.0413 48.7021 25.7451 48.251C25.4535 47.7952 25.3076 47.278 25.3076 46.6992C25.3076 46.1204 25.4535 45.6055 25.7451 45.1543C26.0413 44.6986 26.4492 44.3431 26.9688 44.0879C27.4883 43.8327 28.0671 43.7051 28.7051 43.7051ZM28.7051 45.0244C28.3451 45.0244 28.0215 45.0928 27.7344 45.2295C27.4473 45.3662 27.2217 45.5622 27.0576 45.8174C26.8936 46.068 26.8115 46.362 26.8115 46.6992C26.8115 47.0365 26.8936 47.3304 27.0576 47.5811C27.2217 47.8317 27.4473 48.0277 27.7344 48.1689C28.0215 48.3057 28.3451 48.374 28.7051 48.374C29.0742 48.374 29.4023 48.3057 29.6895 48.1689C29.9766 48.0277 30.1999 47.8317 30.3594 47.5811C30.5234 47.3304 30.6055 47.0365 30.6055 46.6992C30.6055 46.362 30.5234 46.068 30.3594 45.8174C30.1999 45.5622 29.9766 45.3662 29.6895 45.2295C29.4023 45.0928 29.0742 45.0244 28.7051 45.0244ZM34.9805 55.2373H33.4766V42.8574H34.9805V55.2373ZM24.7471 51.4023C25.7588 51.3978 26.6748 51.3864 27.4951 51.3682C28.3154 51.3499 29.1882 51.3135 30.1133 51.2588C31.0384 51.1995 31.9111 51.1107 32.7314 50.9922L32.8477 52.0996C31.9954 52.2546 31.1113 52.373 30.1953 52.4551C29.2793 52.5371 28.418 52.5895 27.6113 52.6123C26.8092 52.6351 25.9183 52.6465 24.9385 52.6465L24.7471 51.4023ZM43.6211 46.6104C43.6211 47.4808 43.5163 48.3171 43.3066 49.1191C43.1016 49.9167 42.7894 50.6367 42.3701 51.2793C41.9554 51.9173 41.4382 52.4118 40.8184 52.7627L39.9434 51.6348C40.5039 51.3112 40.971 50.8828 41.3447 50.3496C41.723 49.8164 42.0033 49.2308 42.1855 48.5928C42.3724 47.9548 42.4658 47.2939 42.4658 46.6104V46.1592H43.6211V46.6104ZM43.9014 46.6104C43.9014 47.2712 43.9925 47.9046 44.1748 48.5107C44.3571 49.1169 44.6374 49.6706 45.0156 50.1719C45.3984 50.6686 45.8701 51.0674 46.4307 51.3682L45.5762 52.4893C44.9518 52.1566 44.4277 51.6895 44.0039 51.0879C43.5801 50.4863 43.2656 49.805 43.0605 49.0439C42.8555 48.2783 42.7529 47.4671 42.7529 46.6104V46.1592H43.9014V46.6104ZM46.0342 46.2686H40.3125V45.0312H46.0342V46.2686ZM43.8945 45.9951H42.4658V43.2949H43.8945V45.9951ZM50.8535 55.2031H49.3906V42.8574H50.8535V55.2031ZM49.8965 48.9482H47.709V47.6973H49.8965V48.9482ZM48.1328 54.6221H46.6904V43.0693H48.1328V54.6221ZM54.5859 48.5107C55.8483 48.5062 56.8464 48.4857 57.5801 48.4492C58.3138 48.4082 59.0521 48.3285 59.7949 48.21L59.9453 49.4131C59.1159 49.5452 58.2773 49.6341 57.4297 49.6797C56.582 49.7207 55.4268 49.7412 53.9639 49.7412H52.9248V48.5107H53.9639H54.5859ZM58.8789 44.9561H54.4492V49.0645H52.9248V43.7393H58.8789V44.9561ZM58.5234 47.3145H53.9707V46.1182H58.5234V47.3145ZM62.5156 50.4043H60.9912V42.8711H62.5156V50.4043ZM58.3525 50.582C59.2139 50.5729 59.9613 50.6618 60.5947 50.8486C61.2327 51.0309 61.7227 51.2952 62.0645 51.6416C62.4062 51.9834 62.5771 52.3981 62.5771 52.8857C62.5771 53.3734 62.4062 53.7904 62.0645 54.1367C61.7227 54.4831 61.235 54.7451 60.6016 54.9229C59.9727 55.1051 59.223 55.1963 58.3525 55.1963C57.4775 55.1963 56.7233 55.1051 56.0898 54.9229C55.4564 54.7451 54.9688 54.4831 54.627 54.1367C54.2897 53.7904 54.1211 53.3734 54.1211 52.8857C54.1211 52.3981 54.2897 51.9834 54.627 51.6416C54.9688 51.2952 55.4564 51.0309 56.0898 50.8486C56.7233 50.6618 57.4775 50.5729 58.3525 50.582ZM58.3525 51.7578C57.7738 51.7578 57.2816 51.8011 56.876 51.8877C56.4704 51.9743 56.1628 52.1019 55.9531 52.2705C55.7435 52.4346 55.6387 52.6396 55.6387 52.8857C55.6387 53.1318 55.7435 53.3415 55.9531 53.5146C56.1628 53.6833 56.4704 53.8132 56.876 53.9043C57.2816 53.9909 57.7738 54.0342 58.3525 54.0342C58.9268 54.0342 59.4167 53.9909 59.8223 53.9043C60.2279 53.8132 60.5355 53.6833 60.7451 53.5146C60.9548 53.3415 61.0596 53.1318 61.0596 52.8857C61.0596 52.6488 60.9548 52.446 60.7451 52.2773C60.5355 52.1042 60.2279 51.9743 59.8223 51.8877C59.4167 51.8011 58.9268 51.7578 58.3525 51.7578Z" fill="black" fill-opacity="0.2"/>
<defs>
<clipPath id="clip0_87_63652">
<rect width="32" height="32" fill="white" transform="translate(16)"/>
</clipPath>
</defs>
</svg>
