<svg width="64" height="58" viewBox="0 0 64 58" fill="none" xmlns="http://www.w3.org/2000/svg">
<path d="M31.8447 4.16817C34.1493 1.59045 38.0681 1.28113 40.751 3.40352L41.0068 3.61641L41.252 3.842C43.7085 6.22799 43.8749 10.1365 41.5645 12.7209H41.5635L41.5625 12.7229C41.5614 12.7242 41.5597 12.7264 41.5576 12.7287C41.5529 12.7339 41.5452 12.742 41.5361 12.7522C41.5178 12.7727 41.4905 12.8034 41.4551 12.843C41.3833 12.9232 41.2771 13.0421 41.1416 13.1936C40.8703 13.4969 40.4786 13.9346 39.999 14.4709C39.0395 15.5439 37.7252 17.0128 36.3086 18.5969C33.4751 21.7654 30.229 25.3949 28.5801 27.2385C26.6242 29.4264 24.0343 29.9685 22.0596 29.9992C21.0653 30.0147 20.1903 29.9025 19.5645 29.7873C19.2504 29.7295 18.995 29.6703 18.8145 29.6242C18.7244 29.6013 18.6522 29.5813 18.6006 29.5666C18.5749 29.5593 18.5535 29.5527 18.5381 29.548C18.5305 29.5458 18.5236 29.5437 18.5186 29.5422C18.5164 29.5415 18.5143 29.5408 18.5127 29.5402H18.5098L18.5088 29.5393L18.8672 28.3938L18.5078 29.5393C18.1893 29.4394 17.9266 29.2108 17.7832 28.9094L18.8672 28.3938L17.7822 28.9084V28.9074L17.7812 28.9045C17.7805 28.903 17.7793 28.9007 17.7783 28.8986C17.7761 28.8939 17.7728 28.8872 17.7695 28.8801C17.7628 28.8654 17.7539 28.8448 17.7432 28.8205C17.7215 28.7716 17.6921 28.7029 17.6572 28.6174C17.5874 28.4459 17.494 28.2025 17.3955 27.9016C17.1992 27.3019 16.9749 26.4564 16.8662 25.4758C16.6496 23.5213 16.8847 20.9031 18.8662 18.6887C20.5376 16.8175 23.7819 13.1874 26.6084 10.0256C28.0218 8.44452 29.3314 6.9803 30.2871 5.91133C30.7648 5.37702 31.1548 4.9409 31.4248 4.63887C31.5595 4.48817 31.665 4.37005 31.7363 4.29024C31.7717 4.25066 31.7991 4.21987 31.8174 4.19942C31.8263 4.18943 31.8333 4.18116 31.8379 4.17598L31.8447 4.16914L32.7393 4.96797L33.6338 5.76875L33.627 5.77559C33.6223 5.78078 33.6154 5.78902 33.6064 5.79903C33.5882 5.81948 33.5608 5.85025 33.5254 5.88985C33.454 5.96966 33.3486 6.08776 33.2139 6.23848C32.9438 6.54051 32.5539 6.97662 32.0762 7.51094C31.8635 7.7488 31.6327 8.00561 31.3877 8.2795L37.5234 13.6369C37.7675 13.3642 37.9979 13.1085 38.21 12.8713C38.6894 12.3351 39.0813 11.8973 39.3525 11.5939C39.488 11.4425 39.5943 11.3236 39.666 11.2434C39.7016 11.2035 39.7287 11.1721 39.7471 11.1516C39.756 11.1415 39.7639 11.1343 39.7686 11.1291C39.7706 11.1268 39.7723 11.1246 39.7734 11.1232L39.7744 11.1213H39.7754C41.2681 9.45158 41.1122 6.90253 39.4248 5.4211L39.2627 5.28633C37.5665 3.94508 35.0862 4.14315 33.6338 5.76778L31.8447 4.16817Z" fill="black"/>
<path d="M31.8447 4.16817C34.1493 1.59045 38.0681 1.28113 40.751 3.40352L41.0068 3.61641L41.252 3.842C43.7085 6.22799 43.8749 10.1365 41.5645 12.7209H41.5635L41.5625 12.7229C41.5614 12.7242 41.5597 12.7264 41.5576 12.7287C41.5529 12.7339 41.5452 12.742 41.5361 12.7522C41.5178 12.7727 41.4905 12.8034 41.4551 12.843C41.3833 12.9232 41.2771 13.0421 41.1416 13.1936C40.8703 13.4969 40.4786 13.9346 39.999 14.4709C39.0395 15.5439 37.7252 17.0128 36.3086 18.5969C33.4751 21.7654 30.229 25.3949 28.5801 27.2385C26.6242 29.4264 24.0343 29.9685 22.0596 29.9992C21.0653 30.0147 20.1903 29.9025 19.5645 29.7873C19.2504 29.7295 18.995 29.6703 18.8145 29.6242C18.7244 29.6013 18.6522 29.5813 18.6006 29.5666C18.5749 29.5593 18.5535 29.5527 18.5381 29.548C18.5305 29.5458 18.5236 29.5437 18.5186 29.5422C18.5164 29.5415 18.5143 29.5408 18.5127 29.5402H18.5098L18.5088 29.5393L18.8672 28.3938L18.5078 29.5393C18.1893 29.4394 17.9266 29.2108 17.7832 28.9094L18.8672 28.3938L17.7822 28.9084V28.9074L17.7812 28.9045C17.7805 28.903 17.7793 28.9007 17.7783 28.8986C17.7761 28.8939 17.7728 28.8872 17.7695 28.8801C17.7628 28.8654 17.7539 28.8448 17.7432 28.8205C17.7215 28.7716 17.6921 28.7029 17.6572 28.6174C17.5874 28.4459 17.494 28.2025 17.3955 27.9016C17.1992 27.3019 16.9749 26.4564 16.8662 25.4758C16.6496 23.5213 16.8847 20.9031 18.8662 18.6887C20.5376 16.8175 23.7819 13.1874 26.6084 10.0256C28.0218 8.44452 29.3314 6.9803 30.2871 5.91133C30.7648 5.37702 31.1548 4.9409 31.4248 4.63887C31.5595 4.48817 31.665 4.37005 31.7363 4.29024C31.7717 4.25066 31.7991 4.21987 31.8174 4.19942C31.8263 4.18943 31.8333 4.18116 31.8379 4.17598L31.8447 4.16914L32.7393 4.96797L33.6338 5.76875L33.627 5.77559C33.6223 5.78078 33.6154 5.78902 33.6064 5.79903C33.5882 5.81948 33.5608 5.85025 33.5254 5.88985C33.454 5.96966 33.3486 6.08776 33.2139 6.23848C32.9438 6.54051 32.5539 6.97662 32.0762 7.51094C31.8635 7.7488 31.6327 8.00561 31.3877 8.2795L37.5234 13.6369C37.7675 13.3642 37.9979 13.1085 38.21 12.8713C38.6894 12.3351 39.0813 11.8973 39.3525 11.5939C39.488 11.4425 39.5943 11.3236 39.666 11.2434C39.7016 11.2035 39.7287 11.1721 39.7471 11.1516C39.756 11.1415 39.7639 11.1343 39.7686 11.1291C39.7706 11.1268 39.7723 11.1246 39.7734 11.1232L39.7744 11.1213H39.7754C41.2681 9.45158 41.1122 6.90253 39.4248 5.4211L39.2627 5.28633C37.5665 3.94508 35.0862 4.14315 33.6338 5.76778L31.8447 4.16817Z" fill="black" fill-opacity="0.2"/>
<path d="M31.8447 4.16817C34.1493 1.59045 38.0681 1.28113 40.751 3.40352L41.0068 3.61641L41.252 3.842C43.7085 6.22799 43.8749 10.1365 41.5645 12.7209H41.5635L41.5625 12.7229C41.5614 12.7242 41.5597 12.7264 41.5576 12.7287C41.5529 12.7339 41.5452 12.742 41.5361 12.7522C41.5178 12.7727 41.4905 12.8034 41.4551 12.843C41.3833 12.9232 41.2771 13.0421 41.1416 13.1936C40.8703 13.4969 40.4786 13.9346 39.999 14.4709C39.0395 15.5439 37.7252 17.0128 36.3086 18.5969C33.4751 21.7654 30.229 25.3949 28.5801 27.2385C26.6242 29.4264 24.0343 29.9685 22.0596 29.9992C21.0653 30.0147 20.1903 29.9025 19.5645 29.7873C19.2504 29.7295 18.995 29.6703 18.8145 29.6242C18.7244 29.6013 18.6522 29.5813 18.6006 29.5666C18.5749 29.5593 18.5535 29.5527 18.5381 29.548C18.5305 29.5458 18.5236 29.5437 18.5186 29.5422C18.5164 29.5415 18.5143 29.5408 18.5127 29.5402H18.5098L18.5088 29.5393L18.8672 28.3938L18.5078 29.5393C18.1893 29.4394 17.9266 29.2108 17.7832 28.9094L18.8672 28.3938L17.7822 28.9084V28.9074L17.7812 28.9045C17.7805 28.903 17.7793 28.9007 17.7783 28.8986C17.7761 28.8939 17.7728 28.8872 17.7695 28.8801C17.7628 28.8654 17.7539 28.8448 17.7432 28.8205C17.7215 28.7716 17.6921 28.7029 17.6572 28.6174C17.5874 28.4459 17.494 28.2025 17.3955 27.9016C17.1992 27.3019 16.9749 26.4564 16.8662 25.4758C16.6496 23.5213 16.8847 20.9031 18.8662 18.6887C20.5376 16.8175 23.7819 13.1874 26.6084 10.0256C28.0218 8.44452 29.3314 6.9803 30.2871 5.91133C30.7648 5.37702 31.1548 4.9409 31.4248 4.63887C31.5595 4.48817 31.665 4.37005 31.7363 4.29024C31.7717 4.25066 31.7991 4.21987 31.8174 4.19942C31.8263 4.18943 31.8333 4.18116 31.8379 4.17598L31.8447 4.16914L32.7393 4.96797L33.6338 5.76875L33.627 5.77559C33.6223 5.78078 33.6154 5.78902 33.6064 5.79903C33.5882 5.81948 33.5608 5.85025 33.5254 5.88985C33.454 5.96966 33.3486 6.08776 33.2139 6.23848C32.9438 6.54051 32.5539 6.97662 32.0762 7.51094C31.8635 7.7488 31.6327 8.00561 31.3877 8.2795L37.5234 13.6369C37.7675 13.3642 37.9979 13.1085 38.21 12.8713C38.6894 12.3351 39.0813 11.8973 39.3525 11.5939C39.488 11.4425 39.5943 11.3236 39.666 11.2434C39.7016 11.2035 39.7287 11.1721 39.7471 11.1516C39.756 11.1415 39.7639 11.1343 39.7686 11.1291C39.7706 11.1268 39.7723 11.1246 39.7734 11.1232L39.7744 11.1213H39.7754C41.2681 9.45158 41.1122 6.90253 39.4248 5.4211L39.2627 5.28633C37.5665 3.94508 35.0862 4.14315 33.6338 5.76778L31.8447 4.16817Z" fill="black" fill-opacity="0.2"/>
<path d="M31.8447 4.16817C34.1493 1.59045 38.0681 1.28113 40.751 3.40352L41.0068 3.61641L41.252 3.842C43.7085 6.22799 43.8749 10.1365 41.5645 12.7209H41.5635L41.5625 12.7229C41.5614 12.7242 41.5597 12.7264 41.5576 12.7287C41.5529 12.7339 41.5452 12.742 41.5361 12.7522C41.5178 12.7727 41.4905 12.8034 41.4551 12.843C41.3833 12.9232 41.2771 13.0421 41.1416 13.1936C40.8703 13.4969 40.4786 13.9346 39.999 14.4709C39.0395 15.5439 37.7252 17.0128 36.3086 18.5969C33.4751 21.7654 30.229 25.3949 28.5801 27.2385C26.6242 29.4264 24.0343 29.9685 22.0596 29.9992C21.0653 30.0147 20.1903 29.9025 19.5645 29.7873C19.2504 29.7295 18.995 29.6703 18.8145 29.6242C18.7244 29.6013 18.6522 29.5813 18.6006 29.5666C18.5749 29.5593 18.5535 29.5527 18.5381 29.548C18.5305 29.5458 18.5236 29.5437 18.5186 29.5422C18.5164 29.5415 18.5143 29.5408 18.5127 29.5402H18.5098L18.5088 29.5393L18.8672 28.3938L18.5078 29.5393C18.1893 29.4394 17.9266 29.2108 17.7832 28.9094L18.8672 28.3938L17.7822 28.9084V28.9074L17.7812 28.9045C17.7805 28.903 17.7793 28.9007 17.7783 28.8986C17.7761 28.8939 17.7728 28.8872 17.7695 28.8801C17.7628 28.8654 17.7539 28.8448 17.7432 28.8205C17.7215 28.7716 17.6921 28.7029 17.6572 28.6174C17.5874 28.4459 17.494 28.2025 17.3955 27.9016C17.1992 27.3019 16.9749 26.4564 16.8662 25.4758C16.6496 23.5213 16.8847 20.9031 18.8662 18.6887C20.5376 16.8175 23.7819 13.1874 26.6084 10.0256C28.0218 8.44452 29.3314 6.9803 30.2871 5.91133C30.7648 5.37702 31.1548 4.9409 31.4248 4.63887C31.5595 4.48817 31.665 4.37005 31.7363 4.29024C31.7717 4.25066 31.7991 4.21987 31.8174 4.19942C31.8263 4.18943 31.8333 4.18116 31.8379 4.17598L31.8447 4.16914L32.7393 4.96797L33.6338 5.76875L33.627 5.77559C33.6223 5.78078 33.6154 5.78902 33.6064 5.79903C33.5882 5.81948 33.5608 5.85025 33.5254 5.88985C33.454 5.96966 33.3486 6.08776 33.2139 6.23848C32.9438 6.54051 32.5539 6.97662 32.0762 7.51094C31.8635 7.7488 31.6327 8.00561 31.3877 8.2795L37.5234 13.6369C37.7675 13.3642 37.9979 13.1085 38.21 12.8713C38.6894 12.3351 39.0813 11.8973 39.3525 11.5939C39.488 11.4425 39.5943 11.3236 39.666 11.2434C39.7016 11.2035 39.7287 11.1721 39.7471 11.1516C39.756 11.1415 39.7639 11.1343 39.7686 11.1291C39.7706 11.1268 39.7723 11.1246 39.7734 11.1232L39.7744 11.1213H39.7754C41.2681 9.45158 41.1122 6.90253 39.4248 5.4211L39.2627 5.28633C37.5665 3.94508 35.0862 4.14315 33.6338 5.76778L31.8447 4.16817Z" fill="black" fill-opacity="0.2"/>
<path d="M11.793 53.7266H0.5V52.4551H11.793V53.7266ZM10.8018 45.2295H1.41602V43.999H10.8018V45.2295ZM10.7539 50.3701H1.46387V49.1533H10.7539V50.3701ZM4.72461 49.2832H3.2002V45.1064H4.72461V49.2832ZM8.99707 49.2832H7.5V45.1064H8.99707V49.2832ZM23.8926 53.7812H12.5996V52.5303H23.8926V53.7812ZM18.9639 53.0635H17.4668V50.0898H18.9639V53.0635ZM22.5459 47.6699H15.4502V49.9121H13.9326V46.4736H21.0488V44.9287H13.9121V43.6982H22.5459V47.6699ZM22.8398 50.5068H13.9326V49.2695H22.8398V50.5068ZM35.001 49.2217H33.4766V42.8574H35.001V49.2217ZM35.001 52.9336H28.2471V54.5742H26.7432V51.833H33.4971V50.9375H26.709V49.748H35.001V52.9336ZM35.3906 55.1074H26.7432V53.8975H35.3906V55.1074ZM31.9316 44.8262H25.2324V43.6504H31.9316V44.8262ZM24.8975 47.7041C26.292 47.7041 27.6296 47.679 28.9102 47.6289C30.1908 47.5742 31.3734 47.4831 32.458 47.3555L32.5264 48.4561C31.4098 48.6292 30.2135 48.75 28.9375 48.8184C27.6615 48.8822 26.3717 48.9141 25.0684 48.9141L24.8975 47.7041ZM27.7686 48.292H26.3057V44.1836H27.7686V48.292ZM30.8379 48.292H29.375V44.1836H30.8379V48.292ZM50.4775 51.9902H48.96V42.8574H50.4775V51.9902ZM47.0322 45.0039H40.4629V43.7871H47.0322V45.0039ZM40.1348 49.1123C41.5612 49.1077 42.8577 49.0872 44.0244 49.0508C45.1911 49.0098 46.2803 48.9346 47.292 48.8252L47.3535 49.9463C46.3145 50.1104 45.1979 50.222 44.0039 50.2812C42.8099 50.3405 41.5771 50.3701 40.3057 50.3701L40.1348 49.1123ZM43.0127 49.3037H41.543V44.8535H43.0127V49.3037ZM45.9316 49.3037H44.4756V44.8535H45.9316V49.3037ZM49.7666 46.3232H47.2168V45.0996H49.7666V46.3232ZM49.7666 48.7637H47.2168V47.5127H49.7666V48.7637ZM50.7852 54.9844H42.3496V53.7402H50.7852V54.9844ZM43.8809 54.6357H42.3496V51.2793H43.8809V54.6357ZM56.6162 44.7783C56.6162 45.512 56.4772 46.2025 56.1992 46.8496C55.9212 47.4922 55.5156 48.0505 54.9824 48.5244C54.4538 48.9984 53.8203 49.3561 53.082 49.5977L52.3027 48.4014C52.9544 48.21 53.5104 47.9297 53.9707 47.5605C54.431 47.1868 54.7796 46.7607 55.0166 46.2822C55.2581 45.8037 55.3789 45.3024 55.3789 44.7783V43.9238H56.6162V44.7783ZM56.917 44.7783C56.917 45.2705 57.0355 45.7445 57.2725 46.2002C57.5094 46.6514 57.8558 47.0524 58.3115 47.4033C58.7673 47.7497 59.3141 48.014 59.9521 48.1963L59.1865 49.3926C58.4482 49.1693 57.8148 48.832 57.2861 48.3809C56.762 47.9251 56.361 47.3874 56.083 46.7676C55.8096 46.1478 55.6729 45.4847 55.6729 44.7783V43.9238H56.917V44.7783ZM59.5215 44.8057H52.7197V43.5957H59.5215V44.8057ZM62.5156 49.5566H60.9912V42.8574H62.5156V49.5566ZM55.8438 51.3682H60.998V50.0967H62.5156V55.0596H54.3467V50.0967H55.8438V51.3682ZM60.998 53.8359V52.5576H55.8438V53.8359H60.998Z" fill="black"/>
<path d="M11.793 53.7266H0.5V52.4551H11.793V53.7266ZM10.8018 45.2295H1.41602V43.999H10.8018V45.2295ZM10.7539 50.3701H1.46387V49.1533H10.7539V50.3701ZM4.72461 49.2832H3.2002V45.1064H4.72461V49.2832ZM8.99707 49.2832H7.5V45.1064H8.99707V49.2832ZM23.8926 53.7812H12.5996V52.5303H23.8926V53.7812ZM18.9639 53.0635H17.4668V50.0898H18.9639V53.0635ZM22.5459 47.6699H15.4502V49.9121H13.9326V46.4736H21.0488V44.9287H13.9121V43.6982H22.5459V47.6699ZM22.8398 50.5068H13.9326V49.2695H22.8398V50.5068ZM35.001 49.2217H33.4766V42.8574H35.001V49.2217ZM35.001 52.9336H28.2471V54.5742H26.7432V51.833H33.4971V50.9375H26.709V49.748H35.001V52.9336ZM35.3906 55.1074H26.7432V53.8975H35.3906V55.1074ZM31.9316 44.8262H25.2324V43.6504H31.9316V44.8262ZM24.8975 47.7041C26.292 47.7041 27.6296 47.679 28.9102 47.6289C30.1908 47.5742 31.3734 47.4831 32.458 47.3555L32.5264 48.4561C31.4098 48.6292 30.2135 48.75 28.9375 48.8184C27.6615 48.8822 26.3717 48.9141 25.0684 48.9141L24.8975 47.7041ZM27.7686 48.292H26.3057V44.1836H27.7686V48.292ZM30.8379 48.292H29.375V44.1836H30.8379V48.292ZM50.4775 51.9902H48.96V42.8574H50.4775V51.9902ZM47.0322 45.0039H40.4629V43.7871H47.0322V45.0039ZM40.1348 49.1123C41.5612 49.1077 42.8577 49.0872 44.0244 49.0508C45.1911 49.0098 46.2803 48.9346 47.292 48.8252L47.3535 49.9463C46.3145 50.1104 45.1979 50.222 44.0039 50.2812C42.8099 50.3405 41.5771 50.3701 40.3057 50.3701L40.1348 49.1123ZM43.0127 49.3037H41.543V44.8535H43.0127V49.3037ZM45.9316 49.3037H44.4756V44.8535H45.9316V49.3037ZM49.7666 46.3232H47.2168V45.0996H49.7666V46.3232ZM49.7666 48.7637H47.2168V47.5127H49.7666V48.7637ZM50.7852 54.9844H42.3496V53.7402H50.7852V54.9844ZM43.8809 54.6357H42.3496V51.2793H43.8809V54.6357ZM56.6162 44.7783C56.6162 45.512 56.4772 46.2025 56.1992 46.8496C55.9212 47.4922 55.5156 48.0505 54.9824 48.5244C54.4538 48.9984 53.8203 49.3561 53.082 49.5977L52.3027 48.4014C52.9544 48.21 53.5104 47.9297 53.9707 47.5605C54.431 47.1868 54.7796 46.7607 55.0166 46.2822C55.2581 45.8037 55.3789 45.3024 55.3789 44.7783V43.9238H56.6162V44.7783ZM56.917 44.7783C56.917 45.2705 57.0355 45.7445 57.2725 46.2002C57.5094 46.6514 57.8558 47.0524 58.3115 47.4033C58.7673 47.7497 59.3141 48.014 59.9521 48.1963L59.1865 49.3926C58.4482 49.1693 57.8148 48.832 57.2861 48.3809C56.762 47.9251 56.361 47.3874 56.083 46.7676C55.8096 46.1478 55.6729 45.4847 55.6729 44.7783V43.9238H56.917V44.7783ZM59.5215 44.8057H52.7197V43.5957H59.5215V44.8057ZM62.5156 49.5566H60.9912V42.8574H62.5156V49.5566ZM55.8438 51.3682H60.998V50.0967H62.5156V55.0596H54.3467V50.0967H55.8438V51.3682ZM60.998 53.8359V52.5576H55.8438V53.8359H60.998Z" fill="black" fill-opacity="0.2"/>
<path d="M11.793 53.7266H0.5V52.4551H11.793V53.7266ZM10.8018 45.2295H1.41602V43.999H10.8018V45.2295ZM10.7539 50.3701H1.46387V49.1533H10.7539V50.3701ZM4.72461 49.2832H3.2002V45.1064H4.72461V49.2832ZM8.99707 49.2832H7.5V45.1064H8.99707V49.2832ZM23.8926 53.7812H12.5996V52.5303H23.8926V53.7812ZM18.9639 53.0635H17.4668V50.0898H18.9639V53.0635ZM22.5459 47.6699H15.4502V49.9121H13.9326V46.4736H21.0488V44.9287H13.9121V43.6982H22.5459V47.6699ZM22.8398 50.5068H13.9326V49.2695H22.8398V50.5068ZM35.001 49.2217H33.4766V42.8574H35.001V49.2217ZM35.001 52.9336H28.2471V54.5742H26.7432V51.833H33.4971V50.9375H26.709V49.748H35.001V52.9336ZM35.3906 55.1074H26.7432V53.8975H35.3906V55.1074ZM31.9316 44.8262H25.2324V43.6504H31.9316V44.8262ZM24.8975 47.7041C26.292 47.7041 27.6296 47.679 28.9102 47.6289C30.1908 47.5742 31.3734 47.4831 32.458 47.3555L32.5264 48.4561C31.4098 48.6292 30.2135 48.75 28.9375 48.8184C27.6615 48.8822 26.3717 48.9141 25.0684 48.9141L24.8975 47.7041ZM27.7686 48.292H26.3057V44.1836H27.7686V48.292ZM30.8379 48.292H29.375V44.1836H30.8379V48.292ZM50.4775 51.9902H48.96V42.8574H50.4775V51.9902ZM47.0322 45.0039H40.4629V43.7871H47.0322V45.0039ZM40.1348 49.1123C41.5612 49.1077 42.8577 49.0872 44.0244 49.0508C45.1911 49.0098 46.2803 48.9346 47.292 48.8252L47.3535 49.9463C46.3145 50.1104 45.1979 50.222 44.0039 50.2812C42.8099 50.3405 41.5771 50.3701 40.3057 50.3701L40.1348 49.1123ZM43.0127 49.3037H41.543V44.8535H43.0127V49.3037ZM45.9316 49.3037H44.4756V44.8535H45.9316V49.3037ZM49.7666 46.3232H47.2168V45.0996H49.7666V46.3232ZM49.7666 48.7637H47.2168V47.5127H49.7666V48.7637ZM50.7852 54.9844H42.3496V53.7402H50.7852V54.9844ZM43.8809 54.6357H42.3496V51.2793H43.8809V54.6357ZM56.6162 44.7783C56.6162 45.512 56.4772 46.2025 56.1992 46.8496C55.9212 47.4922 55.5156 48.0505 54.9824 48.5244C54.4538 48.9984 53.8203 49.3561 53.082 49.5977L52.3027 48.4014C52.9544 48.21 53.5104 47.9297 53.9707 47.5605C54.431 47.1868 54.7796 46.7607 55.0166 46.2822C55.2581 45.8037 55.3789 45.3024 55.3789 44.7783V43.9238H56.6162V44.7783ZM56.917 44.7783C56.917 45.2705 57.0355 45.7445 57.2725 46.2002C57.5094 46.6514 57.8558 47.0524 58.3115 47.4033C58.7673 47.7497 59.3141 48.014 59.9521 48.1963L59.1865 49.3926C58.4482 49.1693 57.8148 48.832 57.2861 48.3809C56.762 47.9251 56.361 47.3874 56.083 46.7676C55.8096 46.1478 55.6729 45.4847 55.6729 44.7783V43.9238H56.917V44.7783ZM59.5215 44.8057H52.7197V43.5957H59.5215V44.8057ZM62.5156 49.5566H60.9912V42.8574H62.5156V49.5566ZM55.8438 51.3682H60.998V50.0967H62.5156V55.0596H54.3467V50.0967H55.8438V51.3682ZM60.998 53.8359V52.5576H55.8438V53.8359H60.998Z" fill="black" fill-opacity="0.2"/>
<path d="M11.793 53.7266H0.5V52.4551H11.793V53.7266ZM10.8018 45.2295H1.41602V43.999H10.8018V45.2295ZM10.7539 50.3701H1.46387V49.1533H10.7539V50.3701ZM4.72461 49.2832H3.2002V45.1064H4.72461V49.2832ZM8.99707 49.2832H7.5V45.1064H8.99707V49.2832ZM23.8926 53.7812H12.5996V52.5303H23.8926V53.7812ZM18.9639 53.0635H17.4668V50.0898H18.9639V53.0635ZM22.5459 47.6699H15.4502V49.9121H13.9326V46.4736H21.0488V44.9287H13.9121V43.6982H22.5459V47.6699ZM22.8398 50.5068H13.9326V49.2695H22.8398V50.5068ZM35.001 49.2217H33.4766V42.8574H35.001V49.2217ZM35.001 52.9336H28.2471V54.5742H26.7432V51.833H33.4971V50.9375H26.709V49.748H35.001V52.9336ZM35.3906 55.1074H26.7432V53.8975H35.3906V55.1074ZM31.9316 44.8262H25.2324V43.6504H31.9316V44.8262ZM24.8975 47.7041C26.292 47.7041 27.6296 47.679 28.9102 47.6289C30.1908 47.5742 31.3734 47.4831 32.458 47.3555L32.5264 48.4561C31.4098 48.6292 30.2135 48.75 28.9375 48.8184C27.6615 48.8822 26.3717 48.9141 25.0684 48.9141L24.8975 47.7041ZM27.7686 48.292H26.3057V44.1836H27.7686V48.292ZM30.8379 48.292H29.375V44.1836H30.8379V48.292ZM50.4775 51.9902H48.96V42.8574H50.4775V51.9902ZM47.0322 45.0039H40.4629V43.7871H47.0322V45.0039ZM40.1348 49.1123C41.5612 49.1077 42.8577 49.0872 44.0244 49.0508C45.1911 49.0098 46.2803 48.9346 47.292 48.8252L47.3535 49.9463C46.3145 50.1104 45.1979 50.222 44.0039 50.2812C42.8099 50.3405 41.5771 50.3701 40.3057 50.3701L40.1348 49.1123ZM43.0127 49.3037H41.543V44.8535H43.0127V49.3037ZM45.9316 49.3037H44.4756V44.8535H45.9316V49.3037ZM49.7666 46.3232H47.2168V45.0996H49.7666V46.3232ZM49.7666 48.7637H47.2168V47.5127H49.7666V48.7637ZM50.7852 54.9844H42.3496V53.7402H50.7852V54.9844ZM43.8809 54.6357H42.3496V51.2793H43.8809V54.6357ZM56.6162 44.7783C56.6162 45.512 56.4772 46.2025 56.1992 46.8496C55.9212 47.4922 55.5156 48.0505 54.9824 48.5244C54.4538 48.9984 53.8203 49.3561 53.082 49.5977L52.3027 48.4014C52.9544 48.21 53.5104 47.9297 53.9707 47.5605C54.431 47.1868 54.7796 46.7607 55.0166 46.2822C55.2581 45.8037 55.3789 45.3024 55.3789 44.7783V43.9238H56.6162V44.7783ZM56.917 44.7783C56.917 45.2705 57.0355 45.7445 57.2725 46.2002C57.5094 46.6514 57.8558 47.0524 58.3115 47.4033C58.7673 47.7497 59.3141 48.014 59.9521 48.1963L59.1865 49.3926C58.4482 49.1693 57.8148 48.832 57.2861 48.3809C56.762 47.9251 56.361 47.3874 56.083 46.7676C55.8096 46.1478 55.6729 45.4847 55.6729 44.7783V43.9238H56.917V44.7783ZM59.5215 44.8057H52.7197V43.5957H59.5215V44.8057ZM62.5156 49.5566H60.9912V42.8574H62.5156V49.5566ZM55.8438 51.3682H60.998V50.0967H62.5156V55.0596H54.3467V50.0967H55.8438V51.3682ZM60.998 53.8359V52.5576H55.8438V53.8359H60.998Z" fill="black" fill-opacity="0.2"/>
</svg>
