<svg width="324" height="39" viewBox="0 0 324 39" fill="none" xmlns="http://www.w3.org/2000/svg">
<rect width="324" height="39" rx="12" fill="#FFDD00"/>
<path d="M150.296 17.8243C150.166 17.6947 149.991 17.6219 149.807 17.6219C149.624 17.6219 149.448 17.6947 149.318 17.8243L141.786 25.389C141.465 25.7101 141.084 25.9648 140.664 26.1386C140.245 26.3124 139.795 26.4019 139.341 26.4019C138.424 26.402 137.545 26.0377 136.896 25.3893C136.248 24.7409 135.883 23.8614 135.883 22.9443C135.883 22.0272 136.247 21.1477 136.896 20.4992L144.191 13.1745C144.581 12.7906 145.107 12.5764 145.654 12.5786C146.201 12.5808 146.726 12.7991 147.113 13.1861C147.5 13.573 147.718 14.0972 147.72 14.6445C147.723 15.1918 147.509 15.7178 147.125 16.108L139.83 23.4326C139.698 23.5587 139.523 23.629 139.341 23.629C139.159 23.629 138.984 23.5587 138.852 23.4326C138.722 23.303 138.65 23.1271 138.65 22.9437C138.65 22.7604 138.722 22.5845 138.852 22.4548L145.347 15.9302C145.473 15.7998 145.543 15.6251 145.541 15.4438C145.539 15.2625 145.467 15.0891 145.338 14.9608C145.21 14.8326 145.037 14.7599 144.855 14.7583C144.674 14.7568 144.499 14.8265 144.369 14.9524L137.874 21.477C137.682 21.6696 137.529 21.8984 137.424 22.1501C137.32 22.4018 137.266 22.6716 137.266 22.9441C137.266 23.2165 137.32 23.4863 137.424 23.7381C137.529 23.9898 137.682 24.2185 137.874 24.4111C138.27 24.7884 138.795 24.9988 139.341 24.9988C139.888 24.9988 140.413 24.7884 140.808 24.4111L148.103 17.0858C148.737 16.4346 149.09 15.5595 149.084 14.6501C149.078 13.7407 148.715 12.8701 148.071 12.2271C147.428 11.5841 146.558 11.2203 145.648 11.2146C144.739 11.2089 143.864 11.5618 143.213 12.1967L135.918 19.5214C135.01 20.4292 134.5 21.6605 134.5 22.9444C134.5 24.2283 135.01 25.4596 135.918 26.3675C136.826 27.2753 138.057 27.7854 139.341 27.7854C140.625 27.7854 141.856 27.2753 142.764 26.3675L150.296 18.8049C150.361 18.7407 150.412 18.6643 150.447 18.5801C150.482 18.496 150.5 18.4058 150.5 18.3146C150.5 18.2235 150.482 18.1333 150.447 18.0491C150.412 17.965 150.361 17.8886 150.296 17.8243Z" fill="#222222"/>
<path d="M169.695 16.7891C169.664 16.4714 169.557 16.1953 169.375 15.9609C169.198 15.7266 168.953 15.5521 168.641 15.4375C168.333 15.3177 167.974 15.2578 167.562 15.2578C167.146 15.2578 166.781 15.3203 166.469 15.4453C166.161 15.5703 165.922 15.7448 165.75 15.9688C165.583 16.1927 165.5 16.4505 165.5 16.7422C165.5 17.1693 165.677 17.5 166.031 17.7344C166.391 17.9688 166.859 18.1589 167.438 18.3047L168.492 18.5703C169.497 18.8047 170.302 19.1771 170.906 19.6875C171.51 20.1979 171.815 20.9089 171.82 21.8203C171.82 22.4818 171.648 23.0651 171.305 23.5703C170.966 24.0755 170.474 24.4688 169.828 24.75C169.188 25.0312 168.419 25.1719 167.523 25.1719C166.648 25.1719 165.885 25.0365 165.234 24.7656C164.589 24.4896 164.086 24.0885 163.727 23.5625C163.367 23.0365 163.172 22.4036 163.141 21.6641H165.141C165.172 22.0495 165.294 22.375 165.508 22.6406C165.721 22.901 166 23.099 166.344 23.2344C166.688 23.3646 167.076 23.4297 167.508 23.4297C167.956 23.4297 168.352 23.362 168.695 23.2266C169.039 23.0911 169.305 22.901 169.492 22.6562C169.685 22.4062 169.781 22.1224 169.781 21.8047C169.781 21.5234 169.701 21.2865 169.539 21.0938C169.378 20.8958 169.148 20.7318 168.852 20.6016C168.56 20.4714 168.19 20.349 167.742 20.2344L166.453 19.9062C165.484 19.651 164.74 19.276 164.219 18.7812C163.703 18.2865 163.445 17.6458 163.445 16.8594C163.445 16.2031 163.625 15.625 163.984 15.125C164.344 14.6198 164.839 14.2292 165.469 13.9531C166.099 13.6719 166.807 13.5312 167.594 13.5312C168.38 13.5312 169.078 13.6693 169.688 13.9453C170.302 14.2214 170.781 14.6068 171.125 15.1016C171.469 15.5911 171.648 16.1536 171.664 16.7891H169.695ZM182.477 25H180.672L175.321 17.2734H175.219V25H173.188V13.6875H175.016L180.352 21.4219H180.453V13.6875H182.477V25ZM190.399 16.7891C190.368 16.4714 190.261 16.1953 190.079 15.9609C189.902 15.7266 189.657 15.5521 189.344 15.4375C189.037 15.3177 188.678 15.2578 188.266 15.2578C187.85 15.2578 187.485 15.3203 187.173 15.4453C186.865 15.5703 186.626 15.7448 186.454 15.9688C186.287 16.1927 186.204 16.4505 186.204 16.7422C186.204 17.1693 186.381 17.5 186.735 17.7344C187.094 17.9688 187.563 18.1589 188.141 18.3047L189.196 18.5703C190.201 18.8047 191.006 19.1771 191.61 19.6875C192.214 20.1979 192.519 20.9089 192.524 21.8203C192.524 22.4818 192.352 23.0651 192.008 23.5703C191.67 24.0755 191.178 24.4688 190.532 24.75C189.891 25.0312 189.123 25.1719 188.227 25.1719C187.352 25.1719 186.589 25.0365 185.938 24.7656C185.292 24.4896 184.79 24.0885 184.43 23.5625C184.071 23.0365 183.876 22.4036 183.844 21.6641H185.844C185.876 22.0495 185.998 22.375 186.212 22.6406C186.425 22.901 186.704 23.099 187.048 23.2344C187.391 23.3646 187.779 23.4297 188.212 23.4297C188.659 23.4297 189.055 23.362 189.399 23.2266C189.743 23.0911 190.008 22.901 190.196 22.6562C190.389 22.4062 190.485 22.1224 190.485 21.8047C190.485 21.5234 190.404 21.2865 190.243 21.0938C190.081 20.8958 189.852 20.7318 189.555 20.6016C189.264 20.4714 188.894 20.349 188.446 20.2344L187.157 19.9062C186.188 19.651 185.443 19.276 184.923 18.7812C184.407 18.2865 184.149 17.6458 184.149 16.8594C184.149 16.2031 184.329 15.625 184.688 15.125C185.048 14.6198 185.542 14.2292 186.173 13.9531C186.803 13.6719 187.511 13.5312 188.298 13.5312C189.084 13.5312 189.782 13.6693 190.391 13.9453C191.006 14.2214 191.485 14.6068 191.829 15.1016C192.173 15.5911 192.352 16.1536 192.368 16.7891H190.399Z" fill="#222222"/>
</svg>
