<svg width="64" height="58" viewBox="0 0 64 58" fill="none" xmlns="http://www.w3.org/2000/svg">
<g clip-path="url(#clip0_87_63660)">
<path d="M35.3 24.8H24.3C22.8419 24.7983 21.444 24.2182 20.4129 23.1872C19.3818 22.1561 18.8018 20.7582 18.8 19.3V8.3C18.8018 6.84185 19.3818 5.44392 20.4129 4.41285C21.444 3.38177 22.8419 2.80175 24.3 2.8L35.3 2.8C36.7582 2.80175 38.1561 3.38177 39.1872 4.41285C40.2183 5.44392 40.7983 6.84185 40.8 8.3V19.3C40.7983 20.7582 40.2183 22.1561 39.1872 23.1872C38.1561 24.2182 36.7582 24.7983 35.3 24.8ZM45.2001 23.7V9.4C45.2001 9.10826 45.0842 8.82848 44.8779 8.62219C44.6716 8.4159 44.3918 8.3 44.1 8.3C43.8083 8.3 43.5285 8.4159 43.3222 8.62219C43.1159 8.82848 43 9.10826 43 9.4V23.7C43 24.5752 42.6524 25.4146 42.0335 26.0335C41.4146 26.6523 40.5753 27 39.7 27H25.4C25.1083 27 24.8285 27.1159 24.6222 27.3222C24.4159 27.5285 24.3 27.8083 24.3 28.1C24.3 28.3917 24.4159 28.6715 24.6222 28.8778C24.8285 29.0841 25.1083 29.2 25.4 29.2H39.7C41.1582 29.1983 42.5561 28.6182 43.5872 27.5872C44.6183 26.5561 45.1983 25.1582 45.2001 23.7Z" fill="black"/>
<path d="M35.3 24.8H24.3C22.8419 24.7983 21.444 24.2182 20.4129 23.1872C19.3818 22.1561 18.8018 20.7582 18.8 19.3V8.3C18.8018 6.84185 19.3818 5.44392 20.4129 4.41285C21.444 3.38177 22.8419 2.80175 24.3 2.8L35.3 2.8C36.7582 2.80175 38.1561 3.38177 39.1872 4.41285C40.2183 5.44392 40.7983 6.84185 40.8 8.3V19.3C40.7983 20.7582 40.2183 22.1561 39.1872 23.1872C38.1561 24.2182 36.7582 24.7983 35.3 24.8ZM45.2001 23.7V9.4C45.2001 9.10826 45.0842 8.82848 44.8779 8.62219C44.6716 8.4159 44.3918 8.3 44.1 8.3C43.8083 8.3 43.5285 8.4159 43.3222 8.62219C43.1159 8.82848 43 9.10826 43 9.4V23.7C43 24.5752 42.6524 25.4146 42.0335 26.0335C41.4146 26.6523 40.5753 27 39.7 27H25.4C25.1083 27 24.8285 27.1159 24.6222 27.3222C24.4159 27.5285 24.3 27.8083 24.3 28.1C24.3 28.3917 24.4159 28.6715 24.6222 28.8778C24.8285 29.0841 25.1083 29.2 25.4 29.2H39.7C41.1582 29.1983 42.5561 28.6182 43.5872 27.5872C44.6183 26.5561 45.1983 25.1582 45.2001 23.7Z" fill="black" fill-opacity="0.2"/>
<path d="M35.3 24.8H24.3C22.8419 24.7983 21.444 24.2182 20.4129 23.1872C19.3818 22.1561 18.8018 20.7582 18.8 19.3V8.3C18.8018 6.84185 19.3818 5.44392 20.4129 4.41285C21.444 3.38177 22.8419 2.80175 24.3 2.8L35.3 2.8C36.7582 2.80175 38.1561 3.38177 39.1872 4.41285C40.2183 5.44392 40.7983 6.84185 40.8 8.3V19.3C40.7983 20.7582 40.2183 22.1561 39.1872 23.1872C38.1561 24.2182 36.7582 24.7983 35.3 24.8ZM45.2001 23.7V9.4C45.2001 9.10826 45.0842 8.82848 44.8779 8.62219C44.6716 8.4159 44.3918 8.3 44.1 8.3C43.8083 8.3 43.5285 8.4159 43.3222 8.62219C43.1159 8.82848 43 9.10826 43 9.4V23.7C43 24.5752 42.6524 25.4146 42.0335 26.0335C41.4146 26.6523 40.5753 27 39.7 27H25.4C25.1083 27 24.8285 27.1159 24.6222 27.3222C24.4159 27.5285 24.3 27.8083 24.3 28.1C24.3 28.3917 24.4159 28.6715 24.6222 28.8778C24.8285 29.0841 25.1083 29.2 25.4 29.2H39.7C41.1582 29.1983 42.5561 28.6182 43.5872 27.5872C44.6183 26.5561 45.1983 25.1582 45.2001 23.7Z" fill="black" fill-opacity="0.2"/>
<path d="M35.3 24.8H24.3C22.8419 24.7983 21.444 24.2182 20.4129 23.1872C19.3818 22.1561 18.8018 20.7582 18.8 19.3V8.3C18.8018 6.84185 19.3818 5.44392 20.4129 4.41285C21.444 3.38177 22.8419 2.80175 24.3 2.8L35.3 2.8C36.7582 2.80175 38.1561 3.38177 39.1872 4.41285C40.2183 5.44392 40.7983 6.84185 40.8 8.3V19.3C40.7983 20.7582 40.2183 22.1561 39.1872 23.1872C38.1561 24.2182 36.7582 24.7983 35.3 24.8ZM45.2001 23.7V9.4C45.2001 9.10826 45.0842 8.82848 44.8779 8.62219C44.6716 8.4159 44.3918 8.3 44.1 8.3C43.8083 8.3 43.5285 8.4159 43.3222 8.62219C43.1159 8.82848 43 9.10826 43 9.4V23.7C43 24.5752 42.6524 25.4146 42.0335 26.0335C41.4146 26.6523 40.5753 27 39.7 27H25.4C25.1083 27 24.8285 27.1159 24.6222 27.3222C24.4159 27.5285 24.3 27.8083 24.3 28.1C24.3 28.3917 24.4159 28.6715 24.6222 28.8778C24.8285 29.0841 25.1083 29.2 25.4 29.2H39.7C41.1582 29.1983 42.5561 28.6182 43.5872 27.5872C44.6183 26.5561 45.1983 25.1582 45.2001 23.7Z" fill="black" fill-opacity="0.2"/>
</g>
<path d="M16.2568 47.2324H13.4268V46.0088H16.2568V47.2324ZM13.4883 44.9766H6.87793V43.7256H13.4883V44.9766ZM6.5498 48.5586C7.96257 48.5632 9.28418 48.5449 10.5146 48.5039C11.7497 48.4629 12.8981 48.3763 13.96 48.2441L14.0488 49.3652C12.9596 49.5339 11.8021 49.6478 10.5762 49.707C9.35026 49.7663 8.0651 49.7959 6.7207 49.7959L6.5498 48.5586ZM9.42773 48.9619H7.95801V44.7031H9.42773V48.9619ZM12.3877 48.9619H10.918V44.7031H12.3877V48.9619ZM16.8926 50.3359H15.375V42.8574H16.8926V50.3359ZM12.7158 50.541C13.5908 50.541 14.3428 50.6322 14.9717 50.8145C15.6051 50.9967 16.0905 51.2633 16.4277 51.6143C16.765 51.9652 16.9336 52.3844 16.9336 52.8721C16.9336 53.3551 16.765 53.7699 16.4277 54.1162C16.0905 54.4671 15.6051 54.7337 14.9717 54.916C14.3382 55.1029 13.5863 55.1963 12.7158 55.1963C11.8499 55.1963 11.1003 55.1029 10.4668 54.916C9.83789 54.7337 9.35254 54.4671 9.01074 54.1162C8.6735 53.7699 8.50488 53.3551 8.50488 52.8721C8.50488 52.3844 8.6735 51.9652 9.01074 51.6143C9.35254 51.2633 9.83789 50.9967 10.4668 50.8145C11.1003 50.6322 11.8499 50.541 12.7158 50.541ZM12.7158 51.71C12.1462 51.71 11.6585 51.7555 11.2529 51.8467C10.8473 51.9333 10.5397 52.0632 10.3301 52.2363C10.1204 52.4095 10.0156 52.6214 10.0156 52.8721C10.0156 53.1136 10.1204 53.321 10.3301 53.4941C10.5397 53.6673 10.8473 53.8018 11.2529 53.8975C11.6585 53.9886 12.1462 54.0342 12.7158 54.0342C13.2946 54.0342 13.7845 53.9886 14.1855 53.8975C14.5911 53.8018 14.8965 53.6696 15.1016 53.501C15.3112 53.3278 15.416 53.1182 15.416 52.8721C15.416 52.6214 15.3112 52.4095 15.1016 52.2363C14.8965 52.0632 14.5911 51.9333 14.1855 51.8467C13.7845 51.7555 13.2946 51.71 12.7158 51.71ZM33.2783 53.7266H21.9854V52.4824H33.2783V53.7266ZM28.3496 52.8105H26.8525V49.707H28.3496V52.8105ZM24.7471 45.7012H30.4688V43.6777H31.9795V50.0693H23.2227V43.6777H24.7471V45.7012ZM30.4688 48.8525V46.9111H24.7471V48.8525H30.4688ZM40.0801 45.0244H34.6865V43.7803H40.0801V45.0244ZM37.8652 49.6934H36.3545V46.5898H37.8652V49.6934ZM40.9756 44.5049C40.9665 45.2067 40.946 45.8197 40.9141 46.3438C40.8867 46.8633 40.8092 47.4626 40.6816 48.1416L39.1777 48.0117C39.3145 47.319 39.3988 46.7197 39.4307 46.2139C39.4671 45.708 39.4876 45.1383 39.4922 44.5049V43.7803H40.9756V44.5049ZM43.9355 52.1133H42.377V42.8574H43.9355V52.1133ZM45.5352 47.9912H43.2998V46.7129H45.5352V47.9912ZM44.3252 54.9844H35.7871V53.7402H44.3252V54.9844ZM37.3184 54.1367H35.7871V51.293H37.3184V54.1367ZM33.9482 49.126C35.4886 49.1214 36.8786 49.0941 38.1182 49.0439C39.3623 48.9938 40.5426 48.889 41.6592 48.7295L41.7412 49.8301C40.6019 50.0306 39.3919 50.1673 38.1113 50.2402C36.8353 50.3086 35.4932 50.3428 34.085 50.3428L33.9482 49.126ZM55.9258 50.3086H54.4082V42.8574H55.9258V50.3086ZM57.6553 47.2598H55.4951V45.9883H57.6553V47.2598ZM55.9258 55.0596H47.9482V50.9033H55.9258V55.0596ZM49.4521 53.8359H54.4219V52.0996H49.4521V53.8359ZM53.5195 45.2637H46.1846V44.0469H53.5195V45.2637ZM49.8555 45.708C50.4525 45.708 50.9766 45.8014 51.4277 45.9883C51.8835 46.1706 52.2389 46.4303 52.4941 46.7676C52.7493 47.1048 52.877 47.4899 52.877 47.9229C52.877 48.3649 52.7493 48.7546 52.4941 49.0918C52.2389 49.429 51.8835 49.6911 51.4277 49.8779C50.9766 50.0602 50.4525 50.1514 49.8555 50.1514C49.2585 50.1514 48.7298 50.0602 48.2695 49.8779C47.8138 49.6911 47.4583 49.429 47.2031 49.0918C46.9525 48.7546 46.8271 48.3649 46.8271 47.9229C46.8271 47.4899 46.9525 47.1048 47.2031 46.7676C47.4583 46.4303 47.8138 46.1706 48.2695 45.9883C48.7298 45.8014 49.2585 45.708 49.8555 45.708ZM49.8555 46.8633C49.5456 46.8633 49.2721 46.9066 49.0352 46.9932C48.7982 47.0752 48.6159 47.196 48.4883 47.3555C48.3607 47.515 48.2969 47.7041 48.2969 47.9229C48.2969 48.1507 48.3607 48.3467 48.4883 48.5107C48.6159 48.6748 48.7982 48.8001 49.0352 48.8867C49.2721 48.9688 49.5456 49.012 49.8555 49.0166C50.1745 49.012 50.4502 48.9688 50.6826 48.8867C50.9196 48.8001 51.1042 48.6748 51.2363 48.5107C51.3685 48.3467 51.4346 48.1507 51.4346 47.9229C51.4346 47.7041 51.3662 47.515 51.2295 47.3555C51.0973 47.196 50.9128 47.0752 50.6758 46.9932C50.4434 46.9066 50.1699 46.8633 49.8555 46.8633ZM50.6211 44.6895H49.0967V42.7822H50.6211V44.6895Z" fill="black"/>
<path d="M16.2568 47.2324H13.4268V46.0088H16.2568V47.2324ZM13.4883 44.9766H6.87793V43.7256H13.4883V44.9766ZM6.5498 48.5586C7.96257 48.5632 9.28418 48.5449 10.5146 48.5039C11.7497 48.4629 12.8981 48.3763 13.96 48.2441L14.0488 49.3652C12.9596 49.5339 11.8021 49.6478 10.5762 49.707C9.35026 49.7663 8.0651 49.7959 6.7207 49.7959L6.5498 48.5586ZM9.42773 48.9619H7.95801V44.7031H9.42773V48.9619ZM12.3877 48.9619H10.918V44.7031H12.3877V48.9619ZM16.8926 50.3359H15.375V42.8574H16.8926V50.3359ZM12.7158 50.541C13.5908 50.541 14.3428 50.6322 14.9717 50.8145C15.6051 50.9967 16.0905 51.2633 16.4277 51.6143C16.765 51.9652 16.9336 52.3844 16.9336 52.8721C16.9336 53.3551 16.765 53.7699 16.4277 54.1162C16.0905 54.4671 15.6051 54.7337 14.9717 54.916C14.3382 55.1029 13.5863 55.1963 12.7158 55.1963C11.8499 55.1963 11.1003 55.1029 10.4668 54.916C9.83789 54.7337 9.35254 54.4671 9.01074 54.1162C8.6735 53.7699 8.50488 53.3551 8.50488 52.8721C8.50488 52.3844 8.6735 51.9652 9.01074 51.6143C9.35254 51.2633 9.83789 50.9967 10.4668 50.8145C11.1003 50.6322 11.8499 50.541 12.7158 50.541ZM12.7158 51.71C12.1462 51.71 11.6585 51.7555 11.2529 51.8467C10.8473 51.9333 10.5397 52.0632 10.3301 52.2363C10.1204 52.4095 10.0156 52.6214 10.0156 52.8721C10.0156 53.1136 10.1204 53.321 10.3301 53.4941C10.5397 53.6673 10.8473 53.8018 11.2529 53.8975C11.6585 53.9886 12.1462 54.0342 12.7158 54.0342C13.2946 54.0342 13.7845 53.9886 14.1855 53.8975C14.5911 53.8018 14.8965 53.6696 15.1016 53.501C15.3112 53.3278 15.416 53.1182 15.416 52.8721C15.416 52.6214 15.3112 52.4095 15.1016 52.2363C14.8965 52.0632 14.5911 51.9333 14.1855 51.8467C13.7845 51.7555 13.2946 51.71 12.7158 51.71ZM33.2783 53.7266H21.9854V52.4824H33.2783V53.7266ZM28.3496 52.8105H26.8525V49.707H28.3496V52.8105ZM24.7471 45.7012H30.4688V43.6777H31.9795V50.0693H23.2227V43.6777H24.7471V45.7012ZM30.4688 48.8525V46.9111H24.7471V48.8525H30.4688ZM40.0801 45.0244H34.6865V43.7803H40.0801V45.0244ZM37.8652 49.6934H36.3545V46.5898H37.8652V49.6934ZM40.9756 44.5049C40.9665 45.2067 40.946 45.8197 40.9141 46.3438C40.8867 46.8633 40.8092 47.4626 40.6816 48.1416L39.1777 48.0117C39.3145 47.319 39.3988 46.7197 39.4307 46.2139C39.4671 45.708 39.4876 45.1383 39.4922 44.5049V43.7803H40.9756V44.5049ZM43.9355 52.1133H42.377V42.8574H43.9355V52.1133ZM45.5352 47.9912H43.2998V46.7129H45.5352V47.9912ZM44.3252 54.9844H35.7871V53.7402H44.3252V54.9844ZM37.3184 54.1367H35.7871V51.293H37.3184V54.1367ZM33.9482 49.126C35.4886 49.1214 36.8786 49.0941 38.1182 49.0439C39.3623 48.9938 40.5426 48.889 41.6592 48.7295L41.7412 49.8301C40.6019 50.0306 39.3919 50.1673 38.1113 50.2402C36.8353 50.3086 35.4932 50.3428 34.085 50.3428L33.9482 49.126ZM55.9258 50.3086H54.4082V42.8574H55.9258V50.3086ZM57.6553 47.2598H55.4951V45.9883H57.6553V47.2598ZM55.9258 55.0596H47.9482V50.9033H55.9258V55.0596ZM49.4521 53.8359H54.4219V52.0996H49.4521V53.8359ZM53.5195 45.2637H46.1846V44.0469H53.5195V45.2637ZM49.8555 45.708C50.4525 45.708 50.9766 45.8014 51.4277 45.9883C51.8835 46.1706 52.2389 46.4303 52.4941 46.7676C52.7493 47.1048 52.877 47.4899 52.877 47.9229C52.877 48.3649 52.7493 48.7546 52.4941 49.0918C52.2389 49.429 51.8835 49.6911 51.4277 49.8779C50.9766 50.0602 50.4525 50.1514 49.8555 50.1514C49.2585 50.1514 48.7298 50.0602 48.2695 49.8779C47.8138 49.6911 47.4583 49.429 47.2031 49.0918C46.9525 48.7546 46.8271 48.3649 46.8271 47.9229C46.8271 47.4899 46.9525 47.1048 47.2031 46.7676C47.4583 46.4303 47.8138 46.1706 48.2695 45.9883C48.7298 45.8014 49.2585 45.708 49.8555 45.708ZM49.8555 46.8633C49.5456 46.8633 49.2721 46.9066 49.0352 46.9932C48.7982 47.0752 48.6159 47.196 48.4883 47.3555C48.3607 47.515 48.2969 47.7041 48.2969 47.9229C48.2969 48.1507 48.3607 48.3467 48.4883 48.5107C48.6159 48.6748 48.7982 48.8001 49.0352 48.8867C49.2721 48.9688 49.5456 49.012 49.8555 49.0166C50.1745 49.012 50.4502 48.9688 50.6826 48.8867C50.9196 48.8001 51.1042 48.6748 51.2363 48.5107C51.3685 48.3467 51.4346 48.1507 51.4346 47.9229C51.4346 47.7041 51.3662 47.515 51.2295 47.3555C51.0973 47.196 50.9128 47.0752 50.6758 46.9932C50.4434 46.9066 50.1699 46.8633 49.8555 46.8633ZM50.6211 44.6895H49.0967V42.7822H50.6211V44.6895Z" fill="black" fill-opacity="0.2"/>
<path d="M16.2568 47.2324H13.4268V46.0088H16.2568V47.2324ZM13.4883 44.9766H6.87793V43.7256H13.4883V44.9766ZM6.5498 48.5586C7.96257 48.5632 9.28418 48.5449 10.5146 48.5039C11.7497 48.4629 12.8981 48.3763 13.96 48.2441L14.0488 49.3652C12.9596 49.5339 11.8021 49.6478 10.5762 49.707C9.35026 49.7663 8.0651 49.7959 6.7207 49.7959L6.5498 48.5586ZM9.42773 48.9619H7.95801V44.7031H9.42773V48.9619ZM12.3877 48.9619H10.918V44.7031H12.3877V48.9619ZM16.8926 50.3359H15.375V42.8574H16.8926V50.3359ZM12.7158 50.541C13.5908 50.541 14.3428 50.6322 14.9717 50.8145C15.6051 50.9967 16.0905 51.2633 16.4277 51.6143C16.765 51.9652 16.9336 52.3844 16.9336 52.8721C16.9336 53.3551 16.765 53.7699 16.4277 54.1162C16.0905 54.4671 15.6051 54.7337 14.9717 54.916C14.3382 55.1029 13.5863 55.1963 12.7158 55.1963C11.8499 55.1963 11.1003 55.1029 10.4668 54.916C9.83789 54.7337 9.35254 54.4671 9.01074 54.1162C8.6735 53.7699 8.50488 53.3551 8.50488 52.8721C8.50488 52.3844 8.6735 51.9652 9.01074 51.6143C9.35254 51.2633 9.83789 50.9967 10.4668 50.8145C11.1003 50.6322 11.8499 50.541 12.7158 50.541ZM12.7158 51.71C12.1462 51.71 11.6585 51.7555 11.2529 51.8467C10.8473 51.9333 10.5397 52.0632 10.3301 52.2363C10.1204 52.4095 10.0156 52.6214 10.0156 52.8721C10.0156 53.1136 10.1204 53.321 10.3301 53.4941C10.5397 53.6673 10.8473 53.8018 11.2529 53.8975C11.6585 53.9886 12.1462 54.0342 12.7158 54.0342C13.2946 54.0342 13.7845 53.9886 14.1855 53.8975C14.5911 53.8018 14.8965 53.6696 15.1016 53.501C15.3112 53.3278 15.416 53.1182 15.416 52.8721C15.416 52.6214 15.3112 52.4095 15.1016 52.2363C14.8965 52.0632 14.5911 51.9333 14.1855 51.8467C13.7845 51.7555 13.2946 51.71 12.7158 51.71ZM33.2783 53.7266H21.9854V52.4824H33.2783V53.7266ZM28.3496 52.8105H26.8525V49.707H28.3496V52.8105ZM24.7471 45.7012H30.4688V43.6777H31.9795V50.0693H23.2227V43.6777H24.7471V45.7012ZM30.4688 48.8525V46.9111H24.7471V48.8525H30.4688ZM40.0801 45.0244H34.6865V43.7803H40.0801V45.0244ZM37.8652 49.6934H36.3545V46.5898H37.8652V49.6934ZM40.9756 44.5049C40.9665 45.2067 40.946 45.8197 40.9141 46.3438C40.8867 46.8633 40.8092 47.4626 40.6816 48.1416L39.1777 48.0117C39.3145 47.319 39.3988 46.7197 39.4307 46.2139C39.4671 45.708 39.4876 45.1383 39.4922 44.5049V43.7803H40.9756V44.5049ZM43.9355 52.1133H42.377V42.8574H43.9355V52.1133ZM45.5352 47.9912H43.2998V46.7129H45.5352V47.9912ZM44.3252 54.9844H35.7871V53.7402H44.3252V54.9844ZM37.3184 54.1367H35.7871V51.293H37.3184V54.1367ZM33.9482 49.126C35.4886 49.1214 36.8786 49.0941 38.1182 49.0439C39.3623 48.9938 40.5426 48.889 41.6592 48.7295L41.7412 49.8301C40.6019 50.0306 39.3919 50.1673 38.1113 50.2402C36.8353 50.3086 35.4932 50.3428 34.085 50.3428L33.9482 49.126ZM55.9258 50.3086H54.4082V42.8574H55.9258V50.3086ZM57.6553 47.2598H55.4951V45.9883H57.6553V47.2598ZM55.9258 55.0596H47.9482V50.9033H55.9258V55.0596ZM49.4521 53.8359H54.4219V52.0996H49.4521V53.8359ZM53.5195 45.2637H46.1846V44.0469H53.5195V45.2637ZM49.8555 45.708C50.4525 45.708 50.9766 45.8014 51.4277 45.9883C51.8835 46.1706 52.2389 46.4303 52.4941 46.7676C52.7493 47.1048 52.877 47.4899 52.877 47.9229C52.877 48.3649 52.7493 48.7546 52.4941 49.0918C52.2389 49.429 51.8835 49.6911 51.4277 49.8779C50.9766 50.0602 50.4525 50.1514 49.8555 50.1514C49.2585 50.1514 48.7298 50.0602 48.2695 49.8779C47.8138 49.6911 47.4583 49.429 47.2031 49.0918C46.9525 48.7546 46.8271 48.3649 46.8271 47.9229C46.8271 47.4899 46.9525 47.1048 47.2031 46.7676C47.4583 46.4303 47.8138 46.1706 48.2695 45.9883C48.7298 45.8014 49.2585 45.708 49.8555 45.708ZM49.8555 46.8633C49.5456 46.8633 49.2721 46.9066 49.0352 46.9932C48.7982 47.0752 48.6159 47.196 48.4883 47.3555C48.3607 47.515 48.2969 47.7041 48.2969 47.9229C48.2969 48.1507 48.3607 48.3467 48.4883 48.5107C48.6159 48.6748 48.7982 48.8001 49.0352 48.8867C49.2721 48.9688 49.5456 49.012 49.8555 49.0166C50.1745 49.012 50.4502 48.9688 50.6826 48.8867C50.9196 48.8001 51.1042 48.6748 51.2363 48.5107C51.3685 48.3467 51.4346 48.1507 51.4346 47.9229C51.4346 47.7041 51.3662 47.515 51.2295 47.3555C51.0973 47.196 50.9128 47.0752 50.6758 46.9932C50.4434 46.9066 50.1699 46.8633 49.8555 46.8633ZM50.6211 44.6895H49.0967V42.7822H50.6211V44.6895Z" fill="black" fill-opacity="0.2"/>
<path d="M16.2568 47.2324H13.4268V46.0088H16.2568V47.2324ZM13.4883 44.9766H6.87793V43.7256H13.4883V44.9766ZM6.5498 48.5586C7.96257 48.5632 9.28418 48.5449 10.5146 48.5039C11.7497 48.4629 12.8981 48.3763 13.96 48.2441L14.0488 49.3652C12.9596 49.5339 11.8021 49.6478 10.5762 49.707C9.35026 49.7663 8.0651 49.7959 6.7207 49.7959L6.5498 48.5586ZM9.42773 48.9619H7.95801V44.7031H9.42773V48.9619ZM12.3877 48.9619H10.918V44.7031H12.3877V48.9619ZM16.8926 50.3359H15.375V42.8574H16.8926V50.3359ZM12.7158 50.541C13.5908 50.541 14.3428 50.6322 14.9717 50.8145C15.6051 50.9967 16.0905 51.2633 16.4277 51.6143C16.765 51.9652 16.9336 52.3844 16.9336 52.8721C16.9336 53.3551 16.765 53.7699 16.4277 54.1162C16.0905 54.4671 15.6051 54.7337 14.9717 54.916C14.3382 55.1029 13.5863 55.1963 12.7158 55.1963C11.8499 55.1963 11.1003 55.1029 10.4668 54.916C9.83789 54.7337 9.35254 54.4671 9.01074 54.1162C8.6735 53.7699 8.50488 53.3551 8.50488 52.8721C8.50488 52.3844 8.6735 51.9652 9.01074 51.6143C9.35254 51.2633 9.83789 50.9967 10.4668 50.8145C11.1003 50.6322 11.8499 50.541 12.7158 50.541ZM12.7158 51.71C12.1462 51.71 11.6585 51.7555 11.2529 51.8467C10.8473 51.9333 10.5397 52.0632 10.3301 52.2363C10.1204 52.4095 10.0156 52.6214 10.0156 52.8721C10.0156 53.1136 10.1204 53.321 10.3301 53.4941C10.5397 53.6673 10.8473 53.8018 11.2529 53.8975C11.6585 53.9886 12.1462 54.0342 12.7158 54.0342C13.2946 54.0342 13.7845 53.9886 14.1855 53.8975C14.5911 53.8018 14.8965 53.6696 15.1016 53.501C15.3112 53.3278 15.416 53.1182 15.416 52.8721C15.416 52.6214 15.3112 52.4095 15.1016 52.2363C14.8965 52.0632 14.5911 51.9333 14.1855 51.8467C13.7845 51.7555 13.2946 51.71 12.7158 51.71ZM33.2783 53.7266H21.9854V52.4824H33.2783V53.7266ZM28.3496 52.8105H26.8525V49.707H28.3496V52.8105ZM24.7471 45.7012H30.4688V43.6777H31.9795V50.0693H23.2227V43.6777H24.7471V45.7012ZM30.4688 48.8525V46.9111H24.7471V48.8525H30.4688ZM40.0801 45.0244H34.6865V43.7803H40.0801V45.0244ZM37.8652 49.6934H36.3545V46.5898H37.8652V49.6934ZM40.9756 44.5049C40.9665 45.2067 40.946 45.8197 40.9141 46.3438C40.8867 46.8633 40.8092 47.4626 40.6816 48.1416L39.1777 48.0117C39.3145 47.319 39.3988 46.7197 39.4307 46.2139C39.4671 45.708 39.4876 45.1383 39.4922 44.5049V43.7803H40.9756V44.5049ZM43.9355 52.1133H42.377V42.8574H43.9355V52.1133ZM45.5352 47.9912H43.2998V46.7129H45.5352V47.9912ZM44.3252 54.9844H35.7871V53.7402H44.3252V54.9844ZM37.3184 54.1367H35.7871V51.293H37.3184V54.1367ZM33.9482 49.126C35.4886 49.1214 36.8786 49.0941 38.1182 49.0439C39.3623 48.9938 40.5426 48.889 41.6592 48.7295L41.7412 49.8301C40.6019 50.0306 39.3919 50.1673 38.1113 50.2402C36.8353 50.3086 35.4932 50.3428 34.085 50.3428L33.9482 49.126ZM55.9258 50.3086H54.4082V42.8574H55.9258V50.3086ZM57.6553 47.2598H55.4951V45.9883H57.6553V47.2598ZM55.9258 55.0596H47.9482V50.9033H55.9258V55.0596ZM49.4521 53.8359H54.4219V52.0996H49.4521V53.8359ZM53.5195 45.2637H46.1846V44.0469H53.5195V45.2637ZM49.8555 45.708C50.4525 45.708 50.9766 45.8014 51.4277 45.9883C51.8835 46.1706 52.2389 46.4303 52.4941 46.7676C52.7493 47.1048 52.877 47.4899 52.877 47.9229C52.877 48.3649 52.7493 48.7546 52.4941 49.0918C52.2389 49.429 51.8835 49.6911 51.4277 49.8779C50.9766 50.0602 50.4525 50.1514 49.8555 50.1514C49.2585 50.1514 48.7298 50.0602 48.2695 49.8779C47.8138 49.6911 47.4583 49.429 47.2031 49.0918C46.9525 48.7546 46.8271 48.3649 46.8271 47.9229C46.8271 47.4899 46.9525 47.1048 47.2031 46.7676C47.4583 46.4303 47.8138 46.1706 48.2695 45.9883C48.7298 45.8014 49.2585 45.708 49.8555 45.708ZM49.8555 46.8633C49.5456 46.8633 49.2721 46.9066 49.0352 46.9932C48.7982 47.0752 48.6159 47.196 48.4883 47.3555C48.3607 47.515 48.2969 47.7041 48.2969 47.9229C48.2969 48.1507 48.3607 48.3467 48.4883 48.5107C48.6159 48.6748 48.7982 48.8001 49.0352 48.8867C49.2721 48.9688 49.5456 49.012 49.8555 49.0166C50.1745 49.012 50.4502 48.9688 50.6826 48.8867C50.9196 48.8001 51.1042 48.6748 51.2363 48.5107C51.3685 48.3467 51.4346 48.1507 51.4346 47.9229C51.4346 47.7041 51.3662 47.515 51.2295 47.3555C51.0973 47.196 50.9128 47.0752 50.6758 46.9932C50.4434 46.9066 50.1699 46.8633 49.8555 46.8633ZM50.6211 44.6895H49.0967V42.7822H50.6211V44.6895Z" fill="black" fill-opacity="0.2"/>
<defs>
<clipPath id="clip0_87_63660">
<rect width="26.4" height="26.4" fill="white" transform="translate(18.8 2.8)"/>
</clipPath>
</defs>
</svg>
