<svg width="343" height="32" viewBox="0 0 343 32" fill="none" xmlns="http://www.w3.org/2000/svg">
<rect width="343" height="32" rx="8" fill="#FFDD00"/>
<path d="M21.8232 13.7812H18.7812V12.708H21.8232V13.7812ZM16.5322 12.1201C16.5322 12.9176 16.3955 13.665 16.1221 14.3623C15.8486 15.0596 15.4567 15.668 14.9463 16.1875C14.4404 16.7025 13.8343 17.099 13.1279 17.377L12.4307 16.3311C13.055 16.1032 13.5951 15.7773 14.0508 15.3535C14.5111 14.9251 14.8643 14.4329 15.1104 13.877C15.361 13.3164 15.4863 12.7308 15.4863 12.1201V10.6641H16.5322V12.1201ZM16.7715 12.1475C16.7715 12.708 16.89 13.248 17.127 13.7676C17.3685 14.2826 17.7126 14.7406 18.1592 15.1416C18.6058 15.5381 19.1299 15.8457 19.7314 16.0645L19.0137 17.0762C18.3483 16.8118 17.7695 16.4359 17.2773 15.9482C16.7852 15.4561 16.4046 14.8841 16.1357 14.2324C15.8714 13.5807 15.7393 12.8857 15.7393 12.1475V10.6641H16.7715V12.1475ZM22.6641 19.0518H21.3652V9.91895H22.6641V19.0518ZM22.9375 21.916H14.6592V20.8428H22.9375V21.916ZM15.9717 21.3623H14.6592V18.04H15.9717V21.3623ZM30.7646 17.5547H29.4727V15.7158H30.7646V17.5547ZM35.7207 16.0234H24.5508V14.9844H35.7207V16.0234ZM34.2783 14.082H25.9727V10.3018H34.2783V14.082ZM27.2578 13.0566H32.9863V11.3271H27.2578V13.0566ZM34.3057 19.9678H27.1826V21.3486H25.9043V19.0176H33.0342V18.0811H25.8838V17.0898H34.3057V19.9678ZM34.6611 22.0391H25.9043V21.0342H34.6611V22.0391ZM49.6113 22.1553H48.3262V9.90527H49.6113V22.1553ZM51.5869 15.9482H49.3174V14.875H51.5869V15.9482ZM47.2598 12.8857H40V11.8262H47.2598V12.8857ZM43.6846 13.7949C44.2679 13.7949 44.7897 13.9157 45.25 14.1572C45.7148 14.3988 46.0771 14.736 46.3369 15.1689C46.6012 15.6019 46.7334 16.0918 46.7334 16.6387C46.7334 17.1901 46.6012 17.6823 46.3369 18.1152C46.0771 18.5482 45.7148 18.8854 45.25 19.127C44.7897 19.3685 44.2679 19.4893 43.6846 19.4893C43.0967 19.4893 42.5726 19.3685 42.1123 19.127C41.652 18.8854 41.2897 18.5482 41.0254 18.1152C40.7656 17.6823 40.6357 17.1901 40.6357 16.6387C40.6357 16.0918 40.7656 15.6019 41.0254 15.1689C41.2897 14.736 41.652 14.3988 42.1123 14.1572C42.5726 13.9157 43.0967 13.7949 43.6846 13.7949ZM43.6846 14.8682C43.3382 14.8682 43.0283 14.9434 42.7549 15.0938C42.4814 15.2396 42.265 15.4469 42.1055 15.7158C41.9505 15.9847 41.873 16.2923 41.873 16.6387C41.873 16.9896 41.9505 17.2972 42.1055 17.5615C42.265 17.8258 42.4814 18.0332 42.7549 18.1836C43.0283 18.3294 43.3382 18.4023 43.6846 18.4023C44.0309 18.4023 44.3408 18.3294 44.6143 18.1836C44.8877 18.0332 45.1019 17.8258 45.2568 17.5615C45.4118 17.2972 45.4893 16.9896 45.4893 16.6387C45.4893 16.2923 45.4118 15.9847 45.2568 15.7158C45.1019 15.4469 44.8877 15.2396 44.6143 15.0938C44.3408 14.9434 44.0309 14.8682 43.6846 14.8682ZM44.3203 12.2773H43.0283V10.0693H44.3203V12.2773ZM62.3672 22.1895H61.082V9.90527H62.3672V22.1895ZM61.3828 15.5928H58.8398V14.5195H61.3828V15.5928ZM53.583 18.1768C54.7816 18.1768 55.7887 18.1517 56.6045 18.1016C57.4248 18.0514 58.2542 17.9489 59.0928 17.7939L59.1953 18.874C58.3385 19.0244 57.4863 19.127 56.6387 19.1816C55.791 19.2318 54.7725 19.2614 53.583 19.2705H52.626V18.1768H53.583ZM58.1152 15.4014H53.918V18.5186H52.626V14.3486H56.8506V12.0723H52.585V11.0127H58.1152V15.4014ZM77.2285 22.1484H75.9365V9.90527H77.2285V22.1484ZM79.1289 15.8799H76.8936V14.7998H79.1289V15.8799ZM74.0225 11.2041C74.0225 12.43 73.8311 13.5762 73.4482 14.6426C73.07 15.7044 72.4639 16.6842 71.6299 17.582C70.8005 18.4753 69.7318 19.2454 68.4238 19.8926L67.6992 18.8809C68.8249 18.3158 69.7614 17.6641 70.5088 16.9258C71.2562 16.1829 71.8167 15.3558 72.1904 14.4443C72.5641 13.5283 72.751 12.5234 72.751 11.4297V11.2041H74.0225ZM73.4072 12.2842H68.3008V11.2041H73.4072V12.2842ZM89.9707 22.1553H88.6582V9.90527H89.9707V22.1553ZM86.334 11.2246C86.334 12.4733 86.1403 13.6286 85.7529 14.6904C85.3701 15.7477 84.7549 16.723 83.9072 17.6162C83.0596 18.5049 81.9567 19.2751 80.5986 19.9268L79.9014 18.874C81.0817 18.318 82.0501 17.6709 82.8066 16.9326C83.5677 16.1943 84.1305 15.3695 84.4951 14.458C84.8597 13.5465 85.042 12.5394 85.042 11.4365V11.2246H86.334ZM85.6025 12.2637H80.4961V11.2246H85.6025V12.2637Z" fill="#222222"/>
<g clip-path="url(#clip0_87_63686)">
<path d="M329.667 11.8333H328.218C328.69 11.418 329.064 10.9041 329.314 10.328C329.564 9.75193 329.685 9.12784 329.667 8.5C329.667 8.27899 329.579 8.06702 329.423 7.91074C329.266 7.75446 329.054 7.66667 328.833 7.66667C328.612 7.66667 328.4 7.75446 328.244 7.91074C328.088 8.06702 328 8.27899 328 8.5C328 10.685 326.024 11.4417 324.522 11.7008C325.076 10.7175 325.41 9.62531 325.5 8.5C325.5 7.83696 325.237 7.20107 324.768 6.73223C324.299 6.26339 323.663 6 323 6C322.337 6 321.701 6.26339 321.232 6.73223C320.763 7.20107 320.5 7.83696 320.5 8.5C320.59 9.62531 320.924 10.7175 321.478 11.7008C319.976 11.4417 318 10.685 318 8.5C318 8.27899 317.912 8.06702 317.756 7.91074C317.6 7.75446 317.388 7.66667 317.167 7.66667C316.946 7.66667 316.734 7.75446 316.577 7.91074C316.421 8.06702 316.333 8.27899 316.333 8.5C316.315 9.12784 316.436 9.75193 316.686 10.328C316.936 10.9041 317.31 11.418 317.782 11.8333H316.333C315.449 11.8333 314.601 12.1845 313.976 12.8096C313.351 13.4348 313 14.2826 313 15.1667V16C313 16.442 313.176 16.8659 313.488 17.1785C313.801 17.4911 314.225 17.6667 314.667 17.6667V21.8333C314.668 22.938 315.107 23.997 315.889 24.7782C316.67 25.5593 317.729 25.9987 318.833 26H327.167C328.271 25.9987 329.33 25.5593 330.111 24.7782C330.893 23.997 331.332 22.938 331.333 21.8333V17.6667C331.775 17.6667 332.199 17.4911 332.512 17.1785C332.824 16.8659 333 16.442 333 16V15.1667C333 14.2826 332.649 13.4348 332.024 12.8096C331.399 12.1845 330.551 11.8333 329.667 11.8333ZM323 7.66667C323.221 7.66667 323.433 7.75446 323.589 7.91074C323.746 8.06702 323.833 8.27899 323.833 8.5C323.733 9.38569 323.449 10.2408 323 11.0108C322.551 10.2408 322.267 9.38569 322.167 8.5C322.167 8.27899 322.254 8.06702 322.411 7.91074C322.567 7.75446 322.779 7.66667 323 7.66667ZM314.667 15.1667C314.667 14.7246 314.842 14.3007 315.155 13.9882C315.467 13.6756 315.891 13.5 316.333 13.5H322.167V16H314.667V15.1667ZM316.333 21.8333V17.6667H322.167V24.3333H318.833C318.17 24.3333 317.534 24.0699 317.066 23.6011C316.597 23.1323 316.333 22.4964 316.333 21.8333ZM329.667 21.8333C329.667 22.4964 329.403 23.1323 328.934 23.6011C328.466 24.0699 327.83 24.3333 327.167 24.3333H323.833V17.6667H329.667V21.8333ZM323.833 16V13.5H329.667C330.109 13.5 330.533 13.6756 330.845 13.9882C331.158 14.3007 331.333 14.7246 331.333 15.1667V16H323.833Z" fill="#222222"/>
</g>
<defs>
<clipPath id="clip0_87_63686">
<rect width="20" height="20" fill="white" transform="translate(313 6)"/>
</clipPath>
</defs>
</svg>
