<svg width="24" height="24" viewBox="0 0 24 24" fill="none" xmlns="http://www.w3.org/2000/svg">
<path d="M12 21.625C9.44729 21.625 6.99913 20.6109 5.1941 18.8059C3.38906 17.0009 2.375 14.5527 2.375 12C2.375 9.44729 3.38906 6.99913 5.1941 5.1941C6.99913 3.38906 9.44729 2.375 12 2.375C14.5527 2.375 17.0009 3.38906 18.8059 5.1941C20.6109 6.99913 21.625 9.44729 21.625 12C21.625 14.5527 20.6109 17.0009 18.8059 18.8059C17.0009 20.6109 14.5527 21.625 12 21.625ZM12 23C14.9174 23 17.7153 21.8411 19.7782 19.7782C21.8411 17.7153 23 14.9174 23 12C23 9.08262 21.8411 6.28473 19.7782 4.22183C17.7153 2.15893 14.9174 1 12 1C9.08262 1 6.28473 2.15893 4.22183 4.22183C2.15893 6.28473 1 9.08262 1 12C1 14.9174 2.15893 17.7153 4.22183 19.7782C6.28473 21.8411 9.08262 23 12 23Z" fill="#6F7173"/>
<path d="M10.6 17.0357C10.6 16.8463 10.6737 16.6646 10.805 16.5306C10.9363 16.3967 11.1143 16.3214 11.3 16.3214H12.7C12.8857 16.3214 13.0637 16.3967 13.195 16.5306C13.3263 16.6646 13.4 16.8463 13.4 17.0357C13.4 17.2252 13.3263 17.4068 13.195 17.5408C13.0637 17.6747 12.8857 17.75 12.7 17.75H11.3C11.1143 17.75 10.9363 17.6747 10.805 17.5408C10.6737 17.4068 10.6 17.2252 10.6 17.0357ZM7.8 12.75C7.8 12.5606 7.87375 12.3789 8.00503 12.2449C8.1363 12.111 8.31435 12.0357 8.5 12.0357H15.5C15.6857 12.0357 15.8637 12.111 15.995 12.2449C16.1263 12.3789 16.2 12.5606 16.2 12.75C16.2 12.9394 16.1263 13.1211 15.995 13.2551C15.8637 13.389 15.6857 13.4643 15.5 13.4643H8.5C8.31435 13.4643 8.1363 13.389 8.00503 13.2551C7.87375 13.1211 7.8 12.9394 7.8 12.75ZM5 8.46429C5 8.27485 5.07375 8.09316 5.20503 7.95921C5.3363 7.82526 5.51435 7.75 5.7 7.75H18.3C18.4857 7.75 18.6637 7.82526 18.795 7.95921C18.9263 8.09316 19 8.27485 19 8.46429C19 8.65373 18.9263 8.83541 18.795 8.96936C18.6637 9.10332 18.4857 9.17857 18.3 9.17857H5.7C5.51435 9.17857 5.3363 9.10332 5.20503 8.96936C5.07375 8.83541 5 8.65373 5 8.46429Z" fill="#6F7173"/>
</svg>
