<svg width="24" height="24" viewBox="0 0 24 24" fill="none" xmlns="http://www.w3.org/2000/svg">
<path d="M1 12C1 5.92487 5.92487 1 12 1C18.0751 1 23 5.92487 23 12C23 18.0751 18.0751 23 12 23C5.92487 23 1 18.0751 1 12Z" fill="#1A75FF"/>
<path d="M10.6 17.2857C10.6 17.0963 10.6737 16.9146 10.805 16.7806C10.9363 16.6467 11.1143 16.5714 11.3 16.5714H12.7C12.8857 16.5714 13.0637 16.6467 13.195 16.7806C13.3263 16.9146 13.4 17.0963 13.4 17.2857C13.4 17.4752 13.3263 17.6568 13.195 17.7908C13.0637 17.9247 12.8857 18 12.7 18H11.3C11.1143 18 10.9363 17.9247 10.805 17.7908C10.6737 17.6568 10.6 17.4752 10.6 17.2857ZM7.8 13C7.8 12.8106 7.87375 12.6289 8.00503 12.4949C8.1363 12.361 8.31435 12.2857 8.5 12.2857H15.5C15.6857 12.2857 15.8637 12.361 15.995 12.4949C16.1263 12.6289 16.2 12.8106 16.2 13C16.2 13.1894 16.1263 13.3711 15.995 13.5051C15.8637 13.639 15.6857 13.7143 15.5 13.7143H8.5C8.31435 13.7143 8.1363 13.639 8.00503 13.5051C7.87375 13.3711 7.8 13.1894 7.8 13ZM5 8.71429C5 8.52485 5.07375 8.34316 5.20503 8.20921C5.3363 8.07526 5.51435 8 5.7 8H18.3C18.4857 8 18.6637 8.07526 18.795 8.20921C18.9263 8.34316 19 8.52485 19 8.71429C19 8.90373 18.9263 9.08541 18.795 9.21936C18.6637 9.35332 18.4857 9.42857 18.3 9.42857H5.7C5.51435 9.42857 5.3363 9.35332 5.20503 9.21936C5.07375 9.08541 5 8.90373 5 8.71429Z" fill="white"/>
</svg>
