<svg width="22" height="23" viewBox="0 0 22 23" fill="none" xmlns="http://www.w3.org/2000/svg">
<path fill-rule="evenodd" clip-rule="evenodd" d="M14.9441 3.02063H7.01309C4.25209 3.02063 2.52051 4.9768 2.52051 7.74513V15.2123C2.52051 17.9806 4.24476 19.9368 7.01309 19.9368H14.9395C17.7124 19.9368 19.4358 17.9806 19.4358 15.2123V7.74513C19.4394 4.9768 17.7152 3.02063 14.9441 3.02063Z" stroke="#1B1A1F" stroke-width="1.5" stroke-linecap="round" stroke-linejoin="round"/>
<path fill-rule="evenodd" clip-rule="evenodd" d="M9.81134 8.55288C9.81134 9.48788 9.05417 10.2451 8.11917 10.2451C7.18509 10.2451 6.427 9.48788 6.427 8.55288C6.427 7.61788 7.18509 6.86072 8.11917 6.86072C9.05325 6.86163 9.81042 7.6188 9.81134 8.55288Z" stroke="#1B1A1F" stroke-width="1.5" stroke-linecap="round" stroke-linejoin="round"/>
<path d="M19.4398 14.205C18.5937 13.3342 16.9666 11.5751 15.1974 11.5751C13.4273 11.5751 12.4071 15.4553 10.7048 15.4553C9.00258 15.4553 7.45617 13.7008 6.09217 14.8256C4.72817 15.9494 3.4375 18.2475 3.4375 18.2475" stroke="#1B1A1F" stroke-width="1.5" stroke-linecap="round" stroke-linejoin="round"/>
</svg>
