<svg width="22" height="23" viewBox="0 0 22 23" fill="none" xmlns="http://www.w3.org/2000/svg">
<path fill-rule="evenodd" clip-rule="evenodd" d="M19.0728 7.48833L18.5022 6.49825C18.0195 5.66049 16.9498 5.37148 16.1109 5.85218V5.85218C15.7116 6.08742 15.2351 6.15416 14.7865 6.03768C14.3379 5.92121 13.9541 5.63108 13.7196 5.23128C13.5688 4.97716 13.4878 4.68772 13.4847 4.39222V4.39222C13.4983 3.91847 13.3196 3.45939 12.9892 3.11955C12.6589 2.77971 12.205 2.58806 11.7311 2.58826H10.5816C10.1172 2.58825 9.67206 2.77328 9.34452 3.10239C9.01698 3.4315 8.8341 3.87756 8.83633 4.34188V4.34188C8.82257 5.30054 8.04146 6.07043 7.08271 6.07033C6.78721 6.06726 6.49777 5.98622 6.24365 5.8354V5.8354C5.40474 5.3547 4.33504 5.64371 3.85235 6.48147L3.23984 7.48833C2.75773 8.32505 3.0428 9.39408 3.87752 9.87964V9.87964C4.4201 10.1929 4.75434 10.7718 4.75434 11.3983C4.75434 12.0248 4.4201 12.6038 3.87752 12.917V12.917C3.04386 13.3993 2.75848 14.4657 3.23984 15.2999V15.2999L3.81879 16.2984C4.04495 16.7065 4.42441 17.0076 4.8732 17.1352C5.32199 17.2627 5.80311 17.2062 6.21009 16.978V16.978C6.61018 16.7446 7.08694 16.6806 7.53442 16.8004C7.98189 16.9201 8.36299 17.2136 8.593 17.6157C8.74383 17.8698 8.82487 18.1593 8.82794 18.4548V18.4548C8.82794 19.4233 9.61306 20.2084 10.5816 20.2084H11.7311C12.6963 20.2084 13.4801 19.4284 13.4847 18.4632V18.4632C13.4824 17.9974 13.6665 17.55 13.9958 17.2207C14.3252 16.8913 14.7725 16.7073 15.2383 16.7095C15.5331 16.7174 15.8213 16.7981 16.0774 16.9445V16.9445C16.9141 17.4266 17.9831 17.1415 18.4687 16.3068V16.3068L19.0728 15.2999C19.3066 14.8986 19.3708 14.4205 19.2511 13.9717C19.1314 13.5229 18.8378 13.1403 18.4351 12.9086V12.9086C18.0325 12.677 17.7388 12.2944 17.6191 11.8456C17.4994 11.3967 17.5636 10.9187 17.7974 10.5173C17.9495 10.2518 18.1696 10.0317 18.4351 9.87964V9.87964C19.2648 9.39434 19.5492 8.33156 19.0728 7.49672V7.49672V7.48833Z" stroke="#1B1A1F" stroke-width="1.5" stroke-linecap="round" stroke-linejoin="round"/>
<circle cx="11.1604" cy="11.3983" r="2.41648" stroke="#1B1A1F" stroke-width="1.5" stroke-linecap="round" stroke-linejoin="round"/>
</svg>
