<svg width="22" height="23" viewBox="0 0 22 23" fill="none" xmlns="http://www.w3.org/2000/svg">
<path fill-rule="evenodd" clip-rule="evenodd" d="M9.05359 14.439C5.52992 14.439 2.52051 14.9715 2.52051 17.1055C2.52051 19.2395 5.51159 19.7914 9.05359 19.7914C12.5782 19.7914 15.5867 19.2579 15.5867 17.1248C15.5867 14.9917 12.5965 14.439 9.05359 14.439Z" stroke="#1B1A1F" stroke-width="1.5" stroke-linecap="round" stroke-linejoin="round"/>
<path fill-rule="evenodd" clip-rule="evenodd" d="M9.05363 11.3954C11.3664 11.3954 13.241 9.52083 13.241 7.20808C13.241 4.89534 11.3664 3.02075 9.05363 3.02075C6.7418 3.02075 4.86721 4.89534 4.86721 7.20808C4.85896 9.51258 6.7198 11.3872 9.02521 11.3954H9.05363Z" stroke="#1B1A1F" stroke-width="1.5" stroke-linecap="round" stroke-linejoin="round"/>
<path d="M17.6034 8.44666V12.1225" stroke="#1B1A1F" stroke-width="1.5" stroke-linecap="round" stroke-linejoin="round"/>
<path d="M19.4789 10.2845H15.7297" stroke="#1B1A1F" stroke-width="1.5" stroke-linecap="round" stroke-linejoin="round"/>
</svg>
