<svg width="48" height="44" viewBox="0 0 48 44" fill="none" xmlns="http://www.w3.org/2000/svg">
<path d="M24.5008 3C26.7549 3 28.9169 3.89534 30.5109 5.48936C32.1048 7.08342 33 9.24566 33 11.5C33 13.7543 32.1048 15.9166 30.5109 17.5106C28.9169 19.1047 26.7549 20 24.5008 20H16.4488C16.3607 19.9995 16.2747 19.9731 16.2016 19.924C16.1284 19.8747 16.0709 19.8046 16.0373 19.723C16.0008 19.6424 15.9909 19.552 16.0085 19.4653C16.0262 19.3785 16.0709 19.2997 16.1361 19.2398L18.1849 17.1812C16.7728 15.6268 15.9935 13.6001 16.0015 11.5C16.0039 9.24642 16.8999 7.08552 18.4933 5.49198C20.0866 3.89847 22.2474 3.0024 24.5008 3Z" fill="#3D3F41"/>
<path d="M17.7829 34.2529C17.7829 34.765 17.867 35.2681 18.0353 35.7622C18.2036 36.2563 18.4453 36.7039 18.7604 37.105C19.0791 37.5024 19.4515 37.8158 19.8776 38.0449L19.3834 38.6787C18.9179 38.4245 18.5151 38.0664 18.1749 37.6045C17.8348 37.1426 17.5752 36.618 17.3961 36.0308C17.2207 36.6574 16.9629 37.2196 16.6227 37.7173C16.2825 38.215 15.8815 38.5999 15.4196 38.8721L14.9147 38.249C15.3336 38.0055 15.6989 37.6725 16.0104 37.25C16.3219 36.8239 16.5618 36.3512 16.7301 35.832C16.8984 35.3092 16.9843 34.7829 16.9879 34.2529V33.8125H15.1403V33.1143H16.9879V31.6748H17.7936V33.1143H19.6198V33.8125H17.7829V34.2529ZM23.1969 40.8701H22.3805V35.9072H21.0807V40.3867H20.275V31.5244H21.0807V35.1875H22.3805V31.3203H23.1969V40.8701ZM29.4115 32.7168H25.6839V33.9199H29.1429V34.6074H25.6839V35.8643C26.7689 35.8643 27.6319 35.8481 28.2728 35.8159C28.9138 35.7801 29.5547 35.7103 30.1957 35.6064L30.2816 36.2939C29.612 36.4014 28.9442 36.473 28.2782 36.5088C27.6122 36.5446 26.7224 36.5625 25.6087 36.5625H24.8353V32.0293H29.4115V32.7168ZM32.1615 37.25H31.3236V31.3311H32.1615V37.25ZM28.9925 37.3896C29.6514 37.3861 30.2225 37.4523 30.7059 37.5884C31.1893 37.7209 31.5599 37.9178 31.8177 38.1792C32.0755 38.437 32.2045 38.7467 32.2045 39.1084C32.2045 39.4772 32.0755 39.7905 31.8177 40.0483C31.5599 40.3097 31.1893 40.5085 30.7059 40.6445C30.2261 40.7806 29.655 40.8486 28.9925 40.8486C28.3158 40.8486 27.7357 40.7806 27.2523 40.6445C26.7689 40.512 26.3983 40.3151 26.1405 40.0537C25.8863 39.7923 25.7591 39.4772 25.7591 39.1084C25.7591 38.7467 25.8863 38.437 26.1405 38.1792C26.3983 37.9178 26.7689 37.7209 27.2523 37.5884C27.7393 37.4523 28.3194 37.3861 28.9925 37.3896ZM28.9925 38.0557C28.4948 38.0557 28.0651 38.0986 27.7035 38.1846C27.3454 38.2669 27.0715 38.3869 26.8817 38.5444C26.6919 38.702 26.597 38.89 26.597 39.1084C26.597 39.334 26.6919 39.5273 26.8817 39.6885C27.0715 39.8496 27.3454 39.9714 27.7035 40.0537C28.0651 40.1396 28.4948 40.1826 28.9925 40.1826C29.4795 40.1826 29.902 40.1396 30.2601 40.0537C30.6182 39.9678 30.8939 39.8442 31.0873 39.6831C31.2806 39.522 31.3773 39.3304 31.3773 39.1084C31.3773 38.8936 31.2806 38.7074 31.0873 38.5498C30.8939 38.3887 30.6164 38.2669 30.2547 38.1846C29.8967 38.0986 29.4759 38.0557 28.9925 38.0557Z" fill="#242628"/>
</svg>
