<svg width="48" height="44" viewBox="0 0 48 44" fill="none" xmlns="http://www.w3.org/2000/svg">
<mask id="mask0_13_874" style="mask-type:alpha" maskUnits="userSpaceOnUse" x="12" y="0" width="24" height="24">
<rect x="12" width="24" height="24" fill="#D9D9D9"/>
</mask>
<g mask="url(#mask0_13_874)">
<path d="M24 12C22.7625 12 21.7031 11.5594 20.8219 10.6781C19.9406 9.79688 19.5 8.7375 19.5 7.5C19.5 6.2625 19.9406 5.20312 20.8219 4.32188C21.7031 3.44063 22.7625 3 24 3C25.2375 3 26.2969 3.44063 27.1781 4.32188C28.0594 5.20312 28.5 6.2625 28.5 7.5C28.5 8.7375 28.0594 9.79688 27.1781 10.6781C26.2969 11.5594 25.2375 12 24 12ZM15 18.75V17.85C15 17.2125 15.1641 16.6266 15.4922 16.0922C15.8203 15.5578 16.2563 15.15 16.8 14.8688C17.9625 14.2875 19.1437 13.8516 20.3438 13.5609C21.5438 13.2703 22.7625 13.125 24 13.125C25.2375 13.125 26.4563 13.2703 27.6562 13.5609C28.8562 13.8516 30.0375 14.2875 31.2 14.8688C31.7438 15.15 32.1797 15.5578 32.5078 16.0922C32.8359 16.6266 33 17.2125 33 17.85V18.75C33 19.3687 32.7797 19.8984 32.3391 20.3391C31.8984 20.7797 31.3687 21 30.75 21H17.25C16.6313 21 16.1016 20.7797 15.6609 20.3391C15.2203 19.8984 15 19.3687 15 18.75Z" fill="#BABCBE"/>
</g>
<path d="M22.8746 38.3887H22.0368V31.3311H22.8746V38.3887ZM23.1754 40.666H16.7086V37.7334H17.5465V39.957H23.1754V40.666ZM18.4596 33.5547C18.4596 33.9701 18.5635 34.3675 18.7711 34.7471C18.9788 35.123 19.2671 35.4525 19.6359 35.7354C20.0083 36.0182 20.4326 36.2331 20.9088 36.3799L20.4899 37.0566C19.9277 36.8776 19.4336 36.6055 19.0075 36.2402C18.5849 35.8714 18.2662 35.4399 18.0514 34.9458C17.8401 35.4793 17.5232 35.9448 17.1007 36.3423C16.6782 36.7362 16.1823 37.0316 15.6129 37.2285L15.1832 36.5625C15.6559 36.4085 16.0766 36.1812 16.4454 35.8804C16.8143 35.576 17.1025 35.2233 17.3102 34.8223C17.5179 34.4176 17.6217 33.9951 17.6217 33.5547V33.2969H15.4196V32.6201H17.6217V31.374H18.4704V32.6201H20.651V33.2969H18.4596V33.5547ZM31.8285 32.7812C31.8285 33.3971 31.8124 33.9432 31.7801 34.4194C31.7515 34.8957 31.6763 35.4382 31.5546 36.0469H32.9779V36.7451H29.0355V40.8916H28.1869V36.7451H24.2767V36.0469H30.7005C30.8295 35.4382 30.91 34.8939 30.9422 34.4141C30.9745 33.9342 30.9906 33.39 30.9906 32.7812V32.6416H25.3724V31.9434H31.8285V32.7812Z" fill="#6F7173"/>
</svg>
