<svg width="48" height="44" viewBox="0 0 48 44" fill="none" xmlns="http://www.w3.org/2000/svg">
<mask id="mask0_18_2951" style="mask-type:alpha" maskUnits="userSpaceOnUse" x="12" y="0" width="24" height="24">
<rect x="12" width="24" height="24" fill="#D9D9D9"/>
</mask>
<g mask="url(#mask0_18_2951)">
<path d="M18.2308 13.5C17.8183 13.5 17.4652 13.3531 17.1715 13.0592C16.8777 12.7656 16.7308 12.4125 16.7308 12C16.7308 11.5875 16.8777 11.2344 17.1715 10.9408C17.4652 10.6469 17.8183 10.5 18.2308 10.5C18.6433 10.5 18.9964 10.6469 19.2903 10.9408C19.5839 11.2344 19.7308 11.5875 19.7308 12C19.7308 12.4125 19.5839 12.7656 19.2903 13.0592C18.9964 13.3531 18.6433 13.5 18.2308 13.5ZM24 13.5C23.5875 13.5 23.2344 13.3531 22.9408 13.0592C22.6469 12.7656 22.5 12.4125 22.5 12C22.5 11.5875 22.6469 11.2344 22.9408 10.9408C23.2344 10.6469 23.5875 10.5 24 10.5C24.4125 10.5 24.7656 10.6469 25.0593 10.9408C25.3531 11.2344 25.5 11.5875 25.5 12C25.5 12.4125 25.3531 12.7656 25.0593 13.0592C24.7656 13.3531 24.4125 13.5 24 13.5ZM29.7693 13.5C29.3568 13.5 29.0036 13.3531 28.7098 13.0592C28.4161 12.7656 28.2693 12.4125 28.2693 12C28.2693 11.5875 28.4161 11.2344 28.7098 10.9408C29.0036 10.6469 29.3568 10.5 29.7693 10.5C30.1818 10.5 30.5349 10.6469 30.8285 10.9408C31.1224 11.2344 31.2693 11.5875 31.2693 12C31.2693 12.4125 31.1224 12.7656 30.8285 13.0592C30.5349 13.3531 30.1818 13.5 29.7693 13.5Z" fill="#BABCBE"/>
</g>
<path d="M15.2127 32.9424H11.6785V37.8086C12.588 37.8086 13.3525 37.7871 13.972 37.7441C14.595 37.7012 15.2234 37.6188 15.8572 37.4971L15.9646 38.1953C15.2879 38.3242 14.6254 38.4119 13.9773 38.4585C13.3292 38.505 12.5235 38.5283 11.5603 38.5283H10.8299V32.2334H15.2127V32.9424ZM18.2742 40.8916H17.4256V35.499H14.6433V34.8008H17.4256V31.3203H18.2742V40.8916ZM28.3774 39.6455H19.6333V38.9473H23.5649V36.8848H20.6646V31.9971H21.5132V33.7266H26.4761V31.9971H27.3032V36.8848H24.3921V38.9473H28.3774V39.6455ZM26.4761 36.1973V34.4141H21.5132V36.1973H26.4761ZM36.8156 40.8701H35.967V31.3203H36.8156V40.8701ZM33.9904 32.3623C33.9833 33.8053 33.6181 35.1016 32.8947 36.251C32.1714 37.3968 31.0399 38.3385 29.5002 39.0762L29.0383 38.3887C30.313 37.7835 31.2888 37.0316 31.9655 36.1328C32.6459 35.234 33.0344 34.2064 33.1311 33.0498H29.4787V32.3623H33.9904Z" fill="#6F7173"/>
</svg>
