<svg width="48" height="44" viewBox="0 0 48 44" fill="none" xmlns="http://www.w3.org/2000/svg">
<path d="M27.4993 2C25.5104 2 23.6027 2.79001 22.1963 4.19649C20.7899 5.60302 20 7.51088 20 9.5C20 11.4891 20.7899 13.397 22.1963 14.8035C23.6027 16.21 25.5104 17 27.4993 17H34.604C34.6817 16.9996 34.7576 16.9763 34.8221 16.9329C34.8867 16.8894 34.9374 16.8276 34.9671 16.7556C34.9993 16.6845 35.0081 16.6047 34.9925 16.5282C34.9769 16.4516 34.9374 16.3821 34.88 16.3293L33.0722 14.5128C34.3182 13.1413 35.0057 11.3531 34.9987 9.5C34.9966 7.51154 34.206 5.60487 32.8001 4.19881C31.3941 2.79276 29.4876 2.00212 27.4993 2Z" fill="#3D3F41"/>
<path d="M22.501 2.5C24.8875 2.50006 27.1766 3.44805 28.8643 5.13574C30.552 6.82361 31.5 9.11312 31.5 11.5C31.5 13.8869 30.552 16.1764 28.8643 17.8643C27.1766 19.5519 24.8875 20.4999 22.501 20.5H14.4463C14.2601 20.499 14.0779 20.4431 13.9229 20.3389H13.9219C13.7728 20.2384 13.6563 20.0954 13.584 19.9287L13.582 19.9297C13.5804 19.9261 13.5797 19.9216 13.5781 19.918C13.5774 19.9163 13.5759 19.9148 13.5752 19.9131L13.5762 19.9121C13.5018 19.739 13.4813 19.5482 13.5186 19.3652C13.556 19.1816 13.6497 19.0163 13.7832 18.8877L13.7812 18.8867L15.5039 17.1553C14.2051 15.5619 13.4941 13.5637 13.502 11.498C13.5048 9.11267 14.453 6.82553 16.1396 5.13867C17.8266 3.45152 20.1143 2.5026 22.5 2.5H22.501Z" fill="#3D3F41" stroke="#F9FAFB"/>
<path d="M10.0536 31.9434C10.7268 31.9469 11.3284 32.0526 11.8583 32.2603C12.3883 32.4679 12.8018 32.7616 13.099 33.1411C13.3962 33.5171 13.5448 33.9521 13.5448 34.4463C13.5448 34.9118 13.4141 35.3254 13.1528 35.687C12.8949 36.0487 12.5333 36.3369 12.0678 36.5518C11.6023 36.7666 11.067 36.8937 10.4618 36.9331V38.9365H14.4472V39.6455H5.70305V38.9365H9.63469V36.9331C9.03312 36.8937 8.4996 36.7666 8.0341 36.5518C7.56861 36.3333 7.20695 36.0451 6.94914 35.687C6.69133 35.3254 6.56242 34.9118 6.56242 34.4463C6.56242 33.9521 6.71102 33.5171 7.00822 33.1411C7.30542 32.7616 7.719 32.4679 8.24895 32.2603C8.77889 32.0526 9.38046 31.9469 10.0536 31.9434ZM10.0536 32.6416C9.54159 32.6416 9.08146 32.7186 8.67326 32.8726C8.26864 33.0229 7.95174 33.236 7.72258 33.5117C7.49341 33.7839 7.37883 34.0954 7.37883 34.4463C7.37883 34.8079 7.49341 35.1266 7.72258 35.4023C7.95174 35.6781 8.26864 35.8911 8.67326 36.0415C9.07788 36.1919 9.53801 36.2689 10.0536 36.2725C10.5693 36.2689 11.0294 36.1919 11.434 36.0415C11.8386 35.8911 12.1555 35.6781 12.3847 35.4023C12.6139 35.1266 12.7284 34.8079 12.7284 34.4463C12.7284 34.0954 12.6139 33.7839 12.3847 33.5117C12.1555 33.236 11.8368 33.0229 11.4286 32.8726C11.024 32.7186 10.5657 32.6416 10.0536 32.6416ZM22.8639 32.502H21.3922V34.7041H22.8317V35.3809H15.8385V34.7041H17.278V32.502H15.8063V31.8145H22.8639V32.502ZM23.6911 37.1211H14.9899V36.4229H23.6911V37.1211ZM22.7243 40.666H16.1178V37.9912H16.9664V39.957H22.7243V40.666ZM20.5543 34.7041V32.502H18.1159V34.7041H20.5543ZM27.0697 34.2529C27.0697 34.765 27.1538 35.2681 27.3221 35.7622C27.4904 36.2563 27.7321 36.7039 28.0472 37.105C28.3659 37.5024 28.7383 37.8158 29.1644 38.0449L28.6703 38.6787C28.2048 38.4245 27.8019 38.0664 27.4618 37.6045C27.1216 37.1426 26.862 36.618 26.683 36.0308C26.5075 36.6574 26.2497 37.2196 25.9095 37.7173C25.5694 38.215 25.1683 38.5999 24.7064 38.8721L24.2015 38.249C24.6205 38.0055 24.9857 37.6725 25.2972 37.25C25.6087 36.8239 25.8487 36.3512 26.017 35.832C26.1852 35.3092 26.2712 34.7829 26.2748 34.2529V33.8125H24.4271V33.1143H26.2748V31.6748H27.0804V33.1143H28.9066V33.8125H27.0697V34.2529ZM32.4837 40.8701H31.6673V35.9072H30.3675V40.3867H29.5619V31.5244H30.3675V35.1875H31.6673V31.3203H32.4837V40.8701ZM38.6983 32.7168H34.9708V33.9199H38.4298V34.6074H34.9708V35.8643C36.0557 35.8643 36.9187 35.8481 37.5596 35.8159C38.2006 35.7801 38.8415 35.7103 39.4825 35.6064L39.5684 36.2939C38.8988 36.4014 38.231 36.473 37.565 36.5088C36.899 36.5446 36.0092 36.5625 34.8956 36.5625H34.1221V32.0293H38.6983V32.7168ZM41.4483 37.25H40.6104V31.3311H41.4483V37.25ZM38.2794 37.3896C38.9382 37.3861 39.5094 37.4523 39.9928 37.5884C40.4762 37.7209 40.8468 37.9178 41.1046 38.1792C41.3624 38.437 41.4913 38.7467 41.4913 39.1084C41.4913 39.4772 41.3624 39.7905 41.1046 40.0483C40.8468 40.3097 40.4762 40.5085 39.9928 40.6445C39.5129 40.7806 38.9418 40.8486 38.2794 40.8486C37.6026 40.8486 37.0225 40.7806 36.5391 40.6445C36.0557 40.512 35.6851 40.3151 35.4273 40.0537C35.1731 39.7923 35.046 39.4772 35.046 39.1084C35.046 38.7467 35.1731 38.437 35.4273 38.1792C35.6851 37.9178 36.0557 37.7209 36.5391 37.5884C37.0261 37.4523 37.6062 37.3861 38.2794 37.3896ZM38.2794 38.0557C37.7817 38.0557 37.352 38.0986 36.9903 38.1846C36.6322 38.2669 36.3583 38.3869 36.1685 38.5444C35.9788 38.702 35.8839 38.89 35.8839 39.1084C35.8839 39.334 35.9788 39.5273 36.1685 39.6885C36.3583 39.8496 36.6322 39.9714 36.9903 40.0537C37.352 40.1396 37.7817 40.1826 38.2794 40.1826C38.7664 40.1826 39.1889 40.1396 39.547 40.0537C39.905 39.9678 40.1807 39.8442 40.3741 39.6831C40.5675 39.522 40.6641 39.3304 40.6641 39.1084C40.6641 38.8936 40.5675 38.7074 40.3741 38.5498C40.1807 38.3887 39.9032 38.2669 39.5416 38.1846C39.1835 38.0986 38.7628 38.0557 38.2794 38.0557Z" fill="#242628"/>
</svg>
