<svg width="48" height="44" viewBox="0 0 48 44" fill="none" xmlns="http://www.w3.org/2000/svg">
<mask id="mask0_18_2871" style="mask-type:alpha" maskUnits="userSpaceOnUse" x="12" y="0" width="24" height="24">
<rect x="12" width="24" height="24" fill="#D9D9D9"/>
</mask>
<g mask="url(#mask0_18_2871)">
<path d="M18.3077 21C17.8026 21 17.375 20.825 17.025 20.475C16.675 20.125 16.5 19.6974 16.5 19.1923V7.80775C16.5 7.30258 16.675 6.875 17.025 6.525C17.375 6.175 17.8026 6 18.3077 6H20.25V5.75C20.25 4.71417 20.616 3.83017 21.348 3.098C22.0802 2.366 22.9642 2 24 2C25.0358 2 25.9198 2.366 26.652 3.098C27.384 3.83017 27.75 4.71417 27.75 5.75V6H29.6923C30.1974 6 30.625 6.175 30.975 6.525C31.325 6.875 31.5 7.30258 31.5 7.80775V19.1923C31.5 19.6974 31.325 20.125 30.975 20.475C30.625 20.825 30.1974 21 29.6923 21H18.3077ZM21.75 6H26.25V5.75C26.25 5.12317 26.0317 4.59142 25.5953 4.15475C25.1588 3.71825 24.627 3.5 24 3.5C23.373 3.5 22.8413 3.71825 22.4048 4.15475C21.9683 4.59142 21.75 5.12317 21.75 5.75V6ZM27 10.5C27.2128 10.5 27.391 10.4282 27.5345 10.2845C27.6782 10.141 27.75 9.96283 27.75 9.75V7.5H26.25V9.75C26.25 9.96283 26.3218 10.141 26.4655 10.2845C26.609 10.4282 26.7872 10.5 27 10.5ZM21 10.5C21.2128 10.5 21.391 10.4282 21.5345 10.2845C21.6782 10.141 21.75 9.96283 21.75 9.75V7.5H20.25V9.75C20.25 9.96283 20.3218 10.141 20.4655 10.2845C20.609 10.4282 20.7872 10.5 21 10.5Z" fill="#BABCBE"/>
</g>
<path d="M18.2233 38.9473H20.4791V36.7773H21.317V38.9473H23.734V39.6455H14.9899V38.9473H17.3961V36.7773H18.2233V38.9473ZM19.7487 32.6953C19.7487 33.193 19.9259 33.6693 20.2804 34.124C20.6349 34.5752 21.0879 34.9583 21.6393 35.2734C22.1907 35.585 22.7493 35.7855 23.3151 35.875L22.9713 36.5732C22.4664 36.473 21.9723 36.3047 21.4889 36.0684C21.0055 35.8285 20.5722 35.5295 20.1891 35.1714C19.806 34.8133 19.5141 34.4176 19.3136 33.9844C19.1095 34.4176 18.8159 34.8133 18.4328 35.1714C18.0496 35.5259 17.6163 35.8249 17.1329 36.0684C16.6531 36.3083 16.1644 36.4766 15.6666 36.5732L15.3121 35.875C15.8779 35.7747 16.4365 35.5706 16.9879 35.2627C17.5394 34.9512 17.9905 34.5698 18.3414 34.1187C18.6924 33.6639 18.8678 33.1895 18.8678 32.6953V31.9648H19.7487V32.6953ZM29.8734 32.8564H28.9066V35.644C29.4079 35.6047 29.8877 35.5563 30.3461 35.499L30.4105 36.1436C29.5368 36.2832 28.6076 36.3763 27.6229 36.4229C26.6418 36.4658 25.6159 36.4873 24.5453 36.4873L24.4379 35.7783L25.6625 35.7729V32.8564H24.7064V32.1475H29.8734V32.8564ZM32.1615 37.1855H31.3236V31.3311H32.1615V37.1855ZM28.9925 37.3896C29.6621 37.3896 30.2386 37.4577 30.722 37.5938C31.2054 37.7262 31.576 37.9214 31.8338 38.1792C32.0952 38.437 32.2259 38.7467 32.2259 39.1084C32.2259 39.4772 32.097 39.7905 31.8392 40.0483C31.5814 40.3097 31.209 40.5085 30.722 40.6445C30.2386 40.7806 29.6621 40.8486 28.9925 40.8486C28.3229 40.8486 27.7464 40.7806 27.263 40.6445C26.7796 40.5085 26.409 40.3097 26.1512 40.0483C25.897 39.7905 25.7699 39.4772 25.7699 39.1084C25.7699 38.7467 25.8988 38.437 26.1566 38.1792C26.4144 37.9214 26.7832 37.7262 27.263 37.5938C27.7464 37.4577 28.3229 37.3896 28.9925 37.3896ZM28.9925 38.0664C28.502 38.0664 28.0759 38.1076 27.7142 38.1899C27.3561 38.2723 27.0804 38.3923 26.8871 38.5498C26.6937 38.7074 26.597 38.8936 26.597 39.1084C26.597 39.3304 26.6937 39.522 26.8871 39.6831C27.0804 39.8442 27.3561 39.9678 27.7142 40.0537C28.0759 40.1396 28.502 40.1826 28.9925 40.1826C29.4831 40.1826 29.9074 40.1396 30.2655 40.0537C30.6236 39.9678 30.8975 39.8442 31.0873 39.6831C31.2806 39.522 31.3773 39.3304 31.3773 39.1084C31.3773 38.8936 31.2806 38.7074 31.0873 38.5498C30.8975 38.3923 30.6236 38.2723 30.2655 38.1899C29.9074 38.1076 29.4831 38.0664 28.9925 38.0664ZM26.4789 35.7568C27.0124 35.7461 27.5495 35.7246 28.0902 35.6924V32.8564H26.4789V35.7568Z" fill="#6F7173"/>
</svg>
