<svg width="50" height="50" viewBox="0 0 50 50" fill="none" xmlns="http://www.w3.org/2000/svg">
<rect x="2" y="2" width="22" height="22" rx="6" fill="#D5D5D5"/>
<path d="M13 13C15.2091 13 17 11.2091 17 9C17 6.79086 15.2091 5 13 5C10.7909 5 9 6.79086 9 9C9 11.2091 10.7909 13 13 13Z" fill="white"/>
<path d="M13 14.3328C9.68781 14.3365 7.00369 17.0206 7 20.3328C7 20.701 7.29847 20.9994 7.66666 20.9994H18.3333C18.7015 20.9994 19 20.701 19 20.3328C18.9963 17.0206 16.3122 14.3364 13 14.3328Z" fill="white"/>
<rect x="26" y="2" width="22" height="22" rx="6" fill="#9C9C9C"/>
<path d="M37 13C39.2091 13 41 11.2091 41 9C41 6.79086 39.2091 5 37 5C34.7909 5 33 6.79086 33 9C33 11.2091 34.7909 13 37 13Z" fill="white"/>
<path d="M37 14.3328C33.6878 14.3365 31.0037 17.0206 31 20.3328C31 20.701 31.2985 20.9994 31.6667 20.9994H42.3333C42.7015 20.9994 43 20.701 43 20.3328C42.9963 17.0206 40.3122 14.3364 37 14.3328Z" fill="white"/>
<rect x="2" y="26" width="22" height="22" rx="6" fill="#666666"/>
<path d="M13 37C15.2091 37 17 35.2091 17 33C17 30.7909 15.2091 29 13 29C10.7909 29 9 30.7909 9 33C9 35.2091 10.7909 37 13 37Z" fill="white"/>
<path d="M13 38.3328C9.68781 38.3365 7.00369 41.0206 7 44.3328C7 44.701 7.29847 44.9994 7.66666 44.9994H18.3333C18.7015 44.9994 19 44.701 19 44.3328C18.9963 41.0206 16.3122 38.3364 13 38.3328Z" fill="white"/>
<rect x="26" y="26" width="22" height="22" rx="6" fill="#222222"/>
<path d="M37 37C39.2091 37 41 35.2091 41 33C41 30.7909 39.2091 29 37 29C34.7909 29 33 30.7909 33 33C33 35.2091 34.7909 37 37 37Z" fill="white"/>
<path d="M37 38.3328C33.6878 38.3365 31.0037 41.0206 31 44.3328C31 44.701 31.2985 44.9994 31.6667 44.9994H42.3333C42.7015 44.9994 43 44.701 43 44.3328C42.9963 41.0206 40.3122 38.3364 37 38.3328Z" fill="white"/>
</svg>
