<svg width="375" height="43" viewBox="0 0 375 43" fill="none" xmlns="http://www.w3.org/2000/svg">
<rect width="375" height="43" fill="white"/>
<path d="M55.0166 20.7231C55.6585 20.7231 56.2673 20.8421 56.8428 21.0801C57.4183 21.3125 57.9274 21.6777 58.3701 22.1758C58.8184 22.6683 59.1698 23.3019 59.4243 24.0767C59.6789 24.8459 59.8062 25.7728 59.8062 26.8574V26.874C59.8062 28.2188 59.6125 29.3698 59.2251 30.3271C58.8377 31.2845 58.2816 32.0205 57.5566 32.5352C56.8372 33.0443 55.9767 33.2988 54.9751 33.2988C54.2391 33.2988 53.575 33.166 52.9829 32.9004C52.3963 32.6292 51.9093 32.2585 51.522 31.7881C51.1401 31.3122 50.8828 30.7699 50.75 30.1611L50.7334 30.0698H52.8335L52.8667 30.1528C52.9718 30.4295 53.1213 30.673 53.3149 30.8833C53.5142 31.0936 53.7521 31.2568 54.0288 31.373C54.311 31.4837 54.6265 31.5391 54.9751 31.5391C55.606 31.5391 56.1206 31.3537 56.519 30.9829C56.923 30.6066 57.2246 30.1058 57.4238 29.4805C57.6286 28.8496 57.7448 28.1523 57.7725 27.3887C57.778 27.3057 57.7808 27.2254 57.7808 27.1479C57.7808 27.0649 57.7808 26.9847 57.7808 26.9072L57.4072 24.9067C57.4072 24.453 57.3021 24.0407 57.0918 23.6699C56.8815 23.2992 56.5965 23.0059 56.2368 22.79C55.8826 22.5742 55.4814 22.4663 55.0332 22.4663C54.6016 22.4663 54.2059 22.5715 53.8462 22.7817C53.4865 22.992 53.1987 23.2798 52.9829 23.645C52.7671 24.0047 52.6592 24.4087 52.6592 24.8569V24.8735C52.6592 25.3384 52.7616 25.7507 52.9663 26.1104C53.1711 26.4645 53.4505 26.744 53.8047 26.9487C54.1589 27.1535 54.5628 27.2559 55.0166 27.2559C55.4704 27.2559 55.8771 27.1562 56.2368 26.957C56.5965 26.7578 56.8815 26.4811 57.0918 26.127C57.3021 25.7728 57.4072 25.3716 57.4072 24.9233V24.9067H57.9053V27.1147H57.6147C57.4709 27.4302 57.2578 27.7235 56.9756 27.9946C56.6934 28.2658 56.3447 28.4844 55.9297 28.6504C55.5202 28.8164 55.0387 28.8994 54.4854 28.8994C53.7217 28.8994 53.0465 28.7279 52.46 28.3848C51.8734 28.0417 51.4113 27.5713 51.0737 26.9736C50.7417 26.376 50.5757 25.7008 50.5757 24.9482V24.9316C50.5757 24.1182 50.7638 23.396 51.1401 22.7651C51.522 22.1287 52.0477 21.6307 52.7173 21.271C53.3924 20.9058 54.1589 20.7231 55.0166 20.7231ZM63.5747 31.3896C63.1984 31.3896 62.883 31.2651 62.6284 31.0161C62.3794 30.7616 62.2549 30.4517 62.2549 30.0864C62.2549 29.7157 62.3794 29.4058 62.6284 29.1567C62.883 28.9022 63.1984 28.7749 63.5747 28.7749C63.9565 28.7749 64.272 28.9022 64.521 29.1567C64.77 29.4058 64.8945 29.7157 64.8945 30.0864C64.8945 30.4517 64.77 30.7616 64.521 31.0161C64.272 31.2651 63.9565 31.3896 63.5747 31.3896ZM63.5747 25.2305C63.1984 25.2305 62.883 25.106 62.6284 24.8569C62.3794 24.6024 62.2549 24.2925 62.2549 23.9272C62.2549 23.5565 62.3794 23.2466 62.6284 22.9976C62.883 22.743 63.1984 22.6157 63.5747 22.6157C63.9565 22.6157 64.272 22.743 64.521 22.9976C64.77 23.2466 64.8945 23.5565 64.8945 23.9272C64.8945 24.2925 64.77 24.6024 64.521 24.8569C64.272 25.106 63.9565 25.2305 63.5747 25.2305ZM73.1538 33V30.7007H67.2935V28.9492C67.6089 28.4124 67.9243 27.8729 68.2397 27.3306C68.5607 26.7882 68.8844 26.2487 69.2109 25.7119C69.543 25.1696 69.8722 24.6356 70.1987 24.1099C70.5308 23.5786 70.86 23.0557 71.1865 22.541C71.5186 22.0208 71.8506 21.5145 72.1826 21.022H75.1958V28.9326H76.8145V30.7007H75.1958V33H73.1538ZM69.2856 28.9824H73.187V22.7319H73.0625C72.819 23.1082 72.5672 23.4956 72.3071 23.894C72.0526 24.2925 71.7952 24.6992 71.5352 25.1143C71.2751 25.5293 71.0177 25.9471 70.7632 26.3677C70.5086 26.7827 70.2568 27.2005 70.0078 27.6211C69.7588 28.0361 69.5181 28.4484 69.2856 28.8579V28.9824ZM81.77 33V23.1304H81.6206L78.6406 25.2305V23.2217L81.77 21.022H83.9033V33H81.77Z" fill="black"/>
<path fill-rule="evenodd" clip-rule="evenodd" d="M287.615 22.0329C287.615 21.3999 287.138 20.8867 286.548 20.8867H285.482C284.893 20.8867 284.415 21.3999 284.415 22.0329V31.9669C284.415 32.5999 284.893 33.1131 285.482 33.1131H286.548C287.138 33.1131 287.615 32.5999 287.615 31.9669V22.0329ZM280.181 23.332H281.248C281.837 23.332 282.314 23.8575 282.314 24.5057V31.9394C282.314 32.5876 281.837 33.1131 281.248 33.1131H280.181C279.592 33.1131 279.114 32.5876 279.114 31.9394V24.5057C279.114 23.8575 279.592 23.332 280.181 23.332ZM275.849 25.981H274.783C274.194 25.981 273.716 26.5132 273.716 27.1697V31.9244C273.716 32.5809 274.194 33.1131 274.783 33.1131H275.849C276.438 33.1131 276.916 32.5809 276.916 31.9244V27.1697C276.916 26.5132 276.438 25.981 275.849 25.981ZM270.548 28.4263H269.482C268.893 28.4263 268.415 28.9509 268.415 29.598V31.9414C268.415 32.5885 268.893 33.1131 269.482 33.1131H270.548C271.138 33.1131 271.615 32.5885 271.615 31.9414V29.598C271.615 28.9509 271.138 28.4263 270.548 28.4263Z" fill="black"/>
<path fill-rule="evenodd" clip-rule="evenodd" d="M303.186 23.3022C305.674 23.3023 308.066 24.2244 309.868 25.8779C310.004 26.0055 310.221 26.0039 310.354 25.8743L311.652 24.6108C311.72 24.545 311.757 24.456 311.757 24.3633C311.756 24.2706 311.717 24.182 311.649 24.117C306.918 19.7423 299.454 19.7423 294.723 24.117C294.655 24.1819 294.616 24.2705 294.615 24.3632C294.614 24.4559 294.652 24.545 294.72 24.6108L296.018 25.8743C296.151 26.0041 296.368 26.0057 296.504 25.8779C298.307 24.2243 300.699 23.3022 303.186 23.3022ZM303.183 27.5225C304.54 27.5224 305.849 28.0342 306.855 28.9583C306.991 29.0894 307.206 29.0866 307.338 28.9519L308.626 27.6326C308.694 27.5634 308.731 27.4695 308.73 27.3719C308.729 27.2744 308.69 27.1813 308.621 27.1135C305.557 24.2227 300.812 24.2227 297.748 27.1135C297.679 27.1813 297.639 27.2744 297.639 27.372C297.638 27.4696 297.675 27.5635 297.743 27.6326L299.03 28.9519C299.163 29.0866 299.377 29.0894 299.513 28.9583C300.519 28.0348 301.827 27.5231 303.183 27.5225ZM305.707 30.316C305.709 30.4214 305.672 30.523 305.605 30.5968L303.428 33.0515C303.365 33.1236 303.278 33.1642 303.187 33.1642C303.096 33.1642 303.009 33.1236 302.945 33.0515L300.768 30.5968C300.701 30.5229 300.664 30.4213 300.666 30.316C300.668 30.2106 300.709 30.1108 300.779 30.0402C302.169 28.7263 304.205 28.7263 305.595 30.0402C305.665 30.1109 305.706 30.2107 305.707 30.316Z" fill="black"/>
<rect opacity="0.35" x="319.257" y="21" width="24" height="12" rx="3.8" stroke="black"/>
<path opacity="0.4" d="M344.757 25.2812V29.3567C345.562 29.0116 346.085 28.2086 346.085 27.319C346.085 26.4294 345.562 25.6264 344.757 25.2812Z" fill="black"/>
<rect x="320.757" y="22.5" width="21" height="9" rx="2.5" fill="black"/>
</svg>
