<svg width="21" height="21" viewBox="0 0 21 21" fill="none" xmlns="http://www.w3.org/2000/svg">
<path d="M9.55116 3.39768H3.28915C2.81464 3.39768 2.35956 3.58618 2.02403 3.92171C1.6885 4.25724 1.5 4.71231 1.5 5.18682V17.7109C1.5 18.1854 1.6885 18.6404 2.02403 18.976C2.35956 19.3115 2.81464 19.5 3.28915 19.5H15.8132C16.2877 19.5 16.7428 19.3115 17.0783 18.976C17.4138 18.6404 17.6023 18.1854 17.6023 17.7109V11.4488M16.2605 2.05582C16.6163 1.69993 17.099 1.5 17.6023 1.5C18.1056 1.5 18.5883 1.69993 18.9442 2.05582C19.3001 2.4117 19.5 2.89438 19.5 3.39768C19.5 3.90097 19.3001 4.38365 18.9442 4.73954L10.4457 13.238L6.86744 14.1326L7.76201 10.5543L16.2605 2.05582Z" stroke="black" stroke-width="2" stroke-linecap="round" stroke-linejoin="round"/>
</svg>
