<svg width="25" height="25" viewBox="0 0 25 25" fill="none" xmlns="http://www.w3.org/2000/svg">
<path d="M17.45 7.55H17.459M8 3.5H17C19.4853 3.5 21.5 5.51472 21.5 8V17C21.5 19.4853 19.4853 21.5 17 21.5H8C5.51472 21.5 3.5 19.4853 3.5 17V8C3.5 5.51472 5.51472 3.5 8 3.5ZM16.1 11.933C16.2111 12.682 16.0831 13.447 15.7344 14.1191C15.3856 14.7912 14.8338 15.3363 14.1575 15.6767C13.4811 16.0171 12.7146 16.1356 11.967 16.0153C11.2194 15.895 10.5288 15.5421 9.99335 15.0066C9.45793 14.4712 9.10496 13.7806 8.98466 13.033C8.86436 12.2854 8.98286 11.5189 9.32329 10.8425C9.66373 10.1662 10.2088 9.61437 10.8809 9.26562C11.553 8.91687 12.318 8.78893 13.067 8.9C13.831 9.0133 14.5384 9.36932 15.0845 9.91548C15.6307 10.4616 15.9867 11.169 16.1 11.933Z" stroke="black" stroke-width="2" stroke-linecap="round" stroke-linejoin="round"/>
</svg>
