<svg width="24" height="24" viewBox="0 0 24 24" fill="none" xmlns="http://www.w3.org/2000/svg">
<path fill-rule="evenodd" clip-rule="evenodd" d="M12.9446 4.12082C12.9403 3.87737 12.8407 3.64533 12.667 3.47467C12.4934 3.30401 12.2596 3.20838 12.0161 3.20838C11.7727 3.20838 11.5389 3.30401 11.3653 3.47467C11.1916 3.64533 11.0919 3.87737 11.0877 4.12082L11.0877 11.0716L4.13695 11.0716C4.01367 11.0694 3.89119 11.0919 3.77667 11.1376C3.66215 11.1833 3.55788 11.2513 3.46994 11.3377C3.382 11.4242 3.31215 11.5272 3.26447 11.6409C3.21679 11.7546 3.19224 11.8767 3.19224 12C3.19224 12.1233 3.21679 12.2454 3.26447 12.3591C3.31215 12.4728 3.382 12.5759 3.46994 12.6623C3.55788 12.7487 3.66215 12.8168 3.77667 12.8625C3.89119 12.9081 4.01367 12.9306 4.13695 12.9284L11.0877 12.9284V19.8792C11.0919 20.1226 11.1916 20.3547 11.3653 20.5253C11.5389 20.696 11.7727 20.7916 12.0161 20.7916C12.2596 20.7916 12.4934 20.696 12.667 20.5253C12.8407 20.3547 12.9403 20.1226 12.9446 19.8792L12.9446 12.9284L19.8953 12.9284C20.1388 12.9242 20.3708 12.8245 20.5415 12.6509C20.7121 12.4772 20.8078 12.2435 20.8078 12C20.8078 11.7565 20.7121 11.5228 20.5415 11.3491C20.3708 11.1755 20.1388 11.0758 19.8953 11.0716L12.9446 11.0716L12.9446 4.12082Z" fill="black"/>
</svg>
