<svg width="25" height="25" viewBox="0 0 25 25" fill="none" xmlns="http://www.w3.org/2000/svg">
<path d="M9.32396 21.2714V18.2047C9.32395 17.4246 9.95987 16.7908 10.7478 16.7856H13.6338C14.4255 16.7856 15.0673 17.4209 15.0673 18.2047V18.2047V21.2809C15.0671 21.9432 15.601 22.4845 16.2698 22.5H18.1938C20.1119 22.5 21.6667 20.9607 21.6667 19.0618V19.0618V10.3378C21.6565 9.59083 21.3022 8.88935 20.7047 8.43303L14.1245 3.1853C12.9717 2.27157 11.333 2.27157 10.1802 3.1853L3.62877 8.44256C3.02901 8.89702 2.67413 9.59967 2.66675 10.3474V19.0618C2.66675 20.9607 4.22162 22.5 6.13966 22.5H8.06371C8.7491 22.5 9.30472 21.9499 9.30472 21.2714V21.2714" stroke="#1B1A1F" stroke-width="1.5" stroke-linecap="round" stroke-linejoin="round"/>
</svg>
