<svg width="24" height="24" viewBox="0 0 24 24" fill="none" xmlns="http://www.w3.org/2000/svg">
    <path d="M10.8333 19.2857H14.1667C14.1667 20.2286 13.4167 21 12.5 21C11.5833 21 10.8333 20.2286 10.8333 19.2857ZM20 17.5714V18.4286H5V17.5714L6.66667 15.8571V10.7143C6.66667 8.05714 8.33333 5.74286 10.8333 4.97143V4.71429C10.8333 3.77143 11.5833 3 12.5 3C13.4167 3 14.1667 3.77143 14.1667 4.71429V4.97143C16.6667 5.74286 18.3333 8.05714 18.3333 10.7143V15.8571L20 17.5714ZM17.0833 10.7143C17.0833 8.31429 14.8333 6 12.5 6C10.1667 6 7.91667 8.31429 7.91667 10.7143V17.1429H17.0833V10.7143Z" fill="black"/>
</svg>
