<svg width="24" height="24" viewBox="0 0 24 24" fill="none" xmlns="http://www.w3.org/2000/svg">
    <path d="M11.5755 13.4235C11.4131 13.2613 11.2195 13.1338 11.0064 13.0485L4.2667 10.3458C4.18623 10.3135 4.11756 10.2574 4.06992 10.1849C4.02227 10.1125 3.99792 10.0272 4.00014 9.94052C4.00236 9.85385 4.03104 9.76992 4.08234 9.70001C4.13363 9.6301 4.20508 9.57756 4.2871 9.54943L20.4352 4.02507C20.5105 3.99787 20.592 3.99268 20.6702 4.0101C20.7483 4.02753 20.8199 4.06685 20.8765 4.12347C20.9331 4.18009 20.9725 4.25166 20.9899 4.32981C21.0073 4.40796 21.0021 4.48945 20.9749 4.56476L15.4506 20.7129C15.4224 20.7949 15.3699 20.8664 15.3 20.9177C15.2301 20.969 15.1462 20.9976 15.0595 20.9999C14.9728 21.0021 14.8875 20.9777 14.8151 20.9301C14.7426 20.8824 14.6865 20.8138 14.6542 20.7333L11.9515 13.9919C11.8658 13.779 11.7379 13.5856 11.5755 13.4235ZM11.5755 13.4235L20.8738 4.12706" stroke="#699FF7" stroke-width="2" stroke-linecap="round" stroke-linejoin="round"/>
</svg>
