<svg width="29" height="29" viewBox="0 0 29 29" fill="none" xmlns="http://www.w3.org/2000/svg">
    <path d="M10.4521 27.5498C7.93479 27.5498 5.79523 26.6589 4.03348 24.877C2.27173 23.0951 1.39045 20.9451 1.38965 18.4269C1.38884 15.9087 2.26005 13.7788 4.00327 12.0372C5.7465 10.2956 7.87598 9.4248 10.3917 9.4248H10.7844L11.6001 8.00501C11.8417 7.56196 12.2042 7.27518 12.6876 7.14468C13.1709 7.01418 13.6341 7.07943 14.0771 7.34043L14.9834 7.85397L15.1344 7.6123C15.5976 6.74633 16.3226 6.18244 17.3094 5.92064C18.2962 5.65883 19.2226 5.77967 20.0886 6.28314L21.1459 6.8873L19.9376 8.97168L18.8803 8.36751C18.5983 8.2064 18.291 8.17096 17.9583 8.26118C17.6256 8.3514 17.3791 8.53789 17.2188 8.82064L17.0678 9.0623L18.2761 9.7571C18.699 9.99876 18.9761 10.3613 19.1074 10.8446C19.2387 11.3279 19.1832 11.7811 18.9407 12.204L18.1251 13.654C18.5883 14.379 18.9359 15.1495 19.1679 15.9655C19.3999 16.7815 19.5155 17.6221 19.5146 18.4873C19.5146 21.0047 18.6338 23.1446 16.872 24.9072C15.1103 26.6697 12.9703 27.5506 10.4521 27.5498ZM10.4521 25.1331C12.2848 25.1331 13.8508 24.4839 15.1501 23.1853C16.4495 21.8868 17.0988 20.3207 17.098 18.4873C17.098 17.863 17.0122 17.2488 16.8406 16.6446C16.669 16.0404 16.4125 15.4665 16.0709 14.9227L15.2855 13.6842L16.5542 11.5092L13.4126 9.69668L12.1438 11.8717H10.8146C8.92159 11.8717 7.27544 12.4758 5.87619 13.6842C4.47694 14.8925 3.77691 16.4734 3.77611 18.4269C3.77611 20.2797 4.42579 21.8606 5.72515 23.1696C7.02451 24.4786 8.60018 25.1331 10.4521 25.1331ZM24.1667 10.6331V8.21647H27.7917V10.6331H24.1667ZM17.5209 3.9873V0.362305H19.9376V3.9873H17.5209ZM23.4115 6.43418L21.7199 4.74251L24.2876 2.1748L25.9792 3.86647L23.4115 6.43418Z" fill="#ABB5C7"/>
</svg>
